<svg width="126" height="84" viewBox="0 0 126 84" fill="none" xmlns="http://www.w3.org/2000/svg">
<path d="M75.2395 25.9355L76.7704 24.4541C76.2915 21.7753 73.7787 20.4863 72.1255 20.3109C67.6697 19.8378 65.399 22.9014 64.4432 27.8153C62.6984 36.7848 64.8952 74.4456 64.8952 74.4456C65.0594 73.4452 77.1603 35.6253 76.8502 25.234L75.2395 25.9355Z" fill="#C1DEAE"/>
<path d="M14.3349 55.5096L14.1452 56.9144L13.6905 55.2891C12.4129 54.8866 11.3027 54.7486 10.4195 54.9488C2.55793 56.7358 16.1432 67.5497 16.1432 67.5497C16.1432 67.5497 11.8136 64.831 7.62017 63.1095L7.56718 64.534L7.03073 62.9243C3.77279 61.6491 0.750361 61.0595 0.145875 62.9014C-0.42263 64.6354 0.721573 66.2764 2.69073 67.7382L4.95429 67.8174L3.61971 68.3775C8.16774 71.2905 15.6905 73.3745 18.287 73.8483C15.801 73.4557 9.73064 72.6705 6.1312 73.4445L6.69644 74.3848L5.27484 73.6742C4.0155 74.0805 3.23307 74.7532 3.31746 75.8125C3.4784 77.8409 12.2657 78.5679 12.2657 78.5679L44.3676 78.2695L44.5462 78.3592C44.5462 78.3592 24.6838 59.3014 14.3349 55.5096Z" fill="#219F94"/>
<path d="M115.036 74.2486C114.416 71.3736 108.13 70.5282 100.116 72.1044C102.969 71.1295 106.889 68.9094 108.92 67.8952L107.531 67.0112L110.32 67.1421C112.601 65.8059 113.742 64.494 112.996 63.3071C112.44 62.4211 111.219 62.0521 109.564 62.0567L108.692 63.6166L108.874 62.0782C104.699 62.3197 103.752 61.6379 98.121 63.9143C101.64 62.0874 102.148 61.5208 102.379 60.7873L100.474 59.953H102.707C104.512 58.011 107.376 54.1681 106.188 52.3975C105.207 50.9358 100.905 52.9642 98.1577 54.0183L96.9892 56.6474L97.2261 54.4011C88.4924 58.206 91.4527 55.1529 91.4527 55.1529C91.4527 55.1529 100.57 36.2901 95.1987 36.7141C93.0784 36.8816 90.7985 38.1601 88.5592 40.2075L88.5022 42.0828L87.8363 40.8926C86.2053 42.4918 84.5901 44.4259 83.0488 46.5073C85.139 42.1162 86.7241 37.8048 86.8818 34.5915L85.2862 34.3952L86.8608 33.2998C86.713 31.6771 86.0699 30.4502 84.7674 29.8012C82.7701 28.8066 80.6747 30.3115 78.6113 33.3031L79.1209 36.0035L77.8406 34.4907C70.4534 46.5302 63.698 76.1815 63.698 76.1815L63.1622 77.7898L84.8668 78.8616C84.8668 78.8616 116.287 80.0571 115.036 74.2486Z" fill="#219F94"/>
<path d="M125.64 79.0069H1.43074C1.33531 79.0069 1.24379 78.9689 1.17631 78.9015C1.10883 78.834 1.07092 78.7424 1.07092 78.647C1.07092 78.5515 1.10883 78.46 1.17631 78.3925C1.24379 78.325 1.33531 78.2871 1.43074 78.2871H125.64C125.736 78.2871 125.827 78.325 125.895 78.3925C125.962 78.46 126 78.5515 126 78.647C126 78.7424 125.962 78.834 125.895 78.9015C125.827 78.9689 125.736 79.0069 125.64 79.0069Z" fill="#184655"/>
<path d="M83.1174 66.2324H32.213C30.2687 66.2324 28.6927 64.8027 28.6927 63.038V61.1405C28.6927 59.3738 30.2687 57.946 32.213 57.946H83.1181C80.7898 60.2558 80.7492 63.7852 83.0245 66.1382L83.1174 66.2324Z" fill="#86B1F2"/>
<path d="M82.4044 58.8936H56.7883C55.9411 58.8936 55.1285 59.2302 54.5295 59.8294C53.9304 60.4285 53.5938 61.2412 53.5938 62.0886C53.594 62.9359 53.9306 63.7484 54.5297 64.3474C55.1288 64.9465 55.9412 65.283 56.7883 65.283H82.4063C81.82 64.3206 81.5097 63.2155 81.5094 62.0886C81.5091 60.9616 81.8187 59.8563 82.4044 58.8936Z" fill="#F2F5C8"/>
<path d="M80.8252 48.8833C80.9371 48.6915 80.7676 48.4697 80.5099 48.4697H39.9694C36.7919 48.4697 34.2163 50.5956 34.2163 53.2182C34.2163 55.8413 36.7919 57.9672 39.9694 57.9672H80.521C80.7827 57.9672 80.9495 57.7441 80.837 57.5517C79.2315 54.8095 79.2355 51.6157 80.8252 48.8833Z" fill="#355389"/>
<path d="M80.5019 49.4917H53.302C52.3372 49.4917 51.4118 49.8751 50.7296 50.5574C50.0473 51.2398 49.664 52.1653 49.664 53.1304V53.4032C49.664 54.3683 50.0473 55.2938 50.7296 55.9762C51.4118 56.6586 52.3372 57.0419 53.302 57.0419H80.5589C79.3414 54.6222 79.3277 51.9101 80.5019 49.4917Z" fill="#F2F5C8"/>
<path d="M31.4875 48.0476H57.6499C59.9704 48.0476 61.8512 46.0192 61.8512 43.517C61.8512 41.0142 59.9704 38.9858 57.6499 38.9858H31.4875C33.4875 41.4978 33.5653 45.1823 31.6747 47.7904L31.4875 48.0476Z" fill="#F2F5C8"/>
<path d="M61.5065 43.5169C61.5065 41.0142 59.6041 38.9857 57.2542 38.9857H31.012C30.982 38.9847 30.9524 38.9778 30.9251 38.9653C30.8977 38.9529 30.8731 38.9351 30.8526 38.9131C30.8321 38.8911 30.8162 38.8653 30.8057 38.8371C30.7952 38.8089 30.7904 38.7789 30.7915 38.7489C30.7903 38.6889 30.8128 38.6309 30.854 38.5874C30.8953 38.5439 30.9521 38.5185 31.012 38.5166H72.6463C75.2363 38.5166 77.3363 40.755 77.3363 43.5169C77.3363 46.2782 75.2363 48.5173 72.6463 48.5173H31.012C30.952 48.5152 30.8953 48.4896 30.854 48.446C30.8127 48.4024 30.7903 48.3443 30.7915 48.2843C30.7894 48.2237 30.8114 48.1647 30.8528 48.1203C30.8941 48.0759 30.9514 48.0497 31.012 48.0475H57.2574C59.6041 48.0475 61.5065 46.0191 61.5065 43.5169Z" fill="#466EB6"/>
<path d="M63.3611 53.2966H60.5611C59.9593 53.2966 59.4706 53.4831 59.4706 53.7134V53.7514H63.3611V53.2966Z" fill="#FF4C16"/>
<path d="M65.749 54.3428C65.749 53.765 65.0176 53.2959 64.1135 53.2959H60.5199C61.2042 53.2959 61.759 53.6512 61.759 54.0889L61.742 65.3027L63.7275 63.8632L65.7509 65.3027L65.749 54.3428Z" fill="#F47458"/>
<path d="M104.045 66.2161H28.4082C27.8498 66.2161 27.2968 66.3261 26.7809 66.5398C26.265 66.7536 25.7962 67.0668 25.4014 67.4618C25.0065 67.8567 24.6933 68.3256 24.4796 68.8416C24.2659 69.3576 24.1559 69.9106 24.1559 70.4692V74.0463C24.1559 75.1743 24.6039 76.2561 25.4014 77.0537C26.1988 77.8513 27.2804 78.2994 28.4082 78.2994H104.045L104.006 78.2582C102.449 76.6379 101.583 74.4761 101.591 72.2292C101.598 69.9823 102.478 67.8262 104.045 66.2161Z" fill="#FFBF14"/>
<path d="M102.708 68.0051H62.2732C61.1454 68.0051 60.0638 68.4532 59.2663 69.2508C58.4688 70.0484 58.0208 71.1302 58.0208 72.2582C58.0208 73.3862 58.4688 74.468 59.2663 75.2656C60.0638 76.0632 61.1454 76.5113 62.2732 76.5113H102.708C101.978 75.2127 101.594 73.7479 101.594 72.2581C101.594 70.7683 101.978 69.3036 102.708 68.0051Z" fill="#F2F5C8"/>
<path d="M82.8551 72.2798H79.5775C79.2389 72.2798 78.9141 72.4144 78.6746 72.6539C78.4351 72.8934 78.3005 73.2183 78.3005 73.557V73.6715H82.8571L82.8551 72.2798Z" fill="#13375B"/>
<path d="M79.7084 72.2856C80.4934 72.2856 81.6625 72.9485 82.3252 73.767L90.1024 83.415H94.6714L87.2736 74.2395C86.4035 73.1598 84.8602 72.285 83.8266 72.2856H79.7084Z" fill="#355389"/>
<path d="M11.2635 77.242L12.8571 76.8697C12.8571 76.8697 14.1498 76.9515 15.3562 76.7068C15.3562 76.7068 15.4779 77.0268 15.5302 77.6883C15.5387 77.8021 15.3752 78.3707 15.262 78.3884C14.8518 78.4538 14.1296 78.3799 12.8486 78.4093C12.8486 78.4093 10.8324 78.6475 9.75292 78.2916C8.67348 77.9356 11.2635 77.242 11.2635 77.242Z" fill="#B75742"/>
<path d="M28.8721 51.1496C28.9604 52.0748 29.7369 52.4013 30.4611 52.9863C30.9465 53.3789 30.8634 54.4415 30.4919 55.1011C29.5511 56.7715 30.3525 56.977 31.1107 58.2039C32.9373 61.1588 27.2778 61.8118 26.6065 62.0316C25.9353 62.2515 25.4793 62.5185 25.0822 62.474C23.8844 62.3431 22.7925 60.6419 22.1815 59.0649C21.5705 57.488 23.049 57.4075 23.1249 56.5033C23.2007 55.599 21.473 55.4047 21.9852 53.6969C22.5387 51.8491 23.3211 50.2833 24.3593 49.7212C26.0779 48.7921 28.1668 49.7638 28.6418 50.5103C28.7683 50.7021 28.8472 50.9212 28.8721 51.1496Z" fill="#184655"/>
<path d="M29.0075 71.3768C29.1566 71.7471 29.975 73.0577 29.975 73.0577L18.4826 73.1716L18.3033 70.816C21.4586 70.7911 24.5778 69.3955 27.4851 68.395C27.5564 68.5723 28.9329 71.1968 29.0075 71.3768Z" fill="#FAE0B2"/>
<path d="M20.858 62.3342C20.858 62.3342 21.4756 57.977 22.468 57.5249C23.4605 57.0728 28.8361 57.6989 29.6401 58.1903C30.4441 58.6817 29.105 63.7992 28.8995 65.2308C28.8871 65.3159 28.874 65.4016 28.8596 65.4867C28.5179 67.5483 28.7209 69.6633 29.4484 71.6223C26.5045 72.5154 25.7443 73.0068 22.5897 72.9191L21.4122 66.0278C21.4122 66.0278 20.4727 62.6908 20.858 62.3342Z" fill="#50BFA5"/>
<path d="M26.7367 54.6549C26.7367 54.6549 26.984 57.0536 27.1946 57.6419C27.4053 58.2301 26.6268 59.4275 25.3556 59.7586C24.0845 60.0897 25.0096 58.4807 24.9795 57.8611C24.9494 57.2414 24.8264 54.2957 24.8264 54.2957L26.7367 54.6549Z" fill="#F7A491"/>
<path d="M26.7668 54.9303C26.6 55.1204 26.4036 55.2824 26.1852 55.41C25.705 55.6933 25.2654 55.7554 24.886 55.6717L24.8278 54.2976L26.7367 54.6594C26.7367 54.6594 26.7479 54.7602 26.7668 54.9303Z" fill="#F47458"/>
<path d="M26.2918 50.2736C26.7873 50.4317 27.2101 50.7617 27.4838 51.2041C27.9247 51.9362 28.17 54.0543 26.596 54.9821C25.022 55.9099 23.8752 54.4763 23.904 53.1186C23.9328 51.7609 24.2873 49.9622 26.2918 50.2736Z" fill="#F7A491"/>
<path d="M23.4265 52.5505C23.4435 52.9026 23.6227 53.18 23.8282 53.1695C24.0336 53.159 24.1854 52.8646 24.1677 52.5152C24.15 52.1658 23.9714 51.8851 23.766 51.8955C23.5606 51.906 23.4095 52.1978 23.4265 52.5505Z" fill="#F7A491"/>
<path d="M27.4374 53.0905C27.3138 53.4393 27.4034 53.79 27.6376 53.8757C27.8718 53.9614 28.161 53.7448 28.2879 53.3967C28.4148 53.0486 28.3225 52.6973 28.0877 52.6116C27.8528 52.5258 27.5643 52.7418 27.4374 53.0905Z" fill="#F7A491"/>
<path d="M29.6401 58.1882C29.6401 58.1882 28.7242 58.6698 28.1616 60.0112C27.599 61.3525 29.5138 68.2 29.9221 68.6384C30.3303 69.0768 31.4595 69.1455 31.6518 68.0737C31.8441 67.002 31.1952 58.5272 29.6401 58.1882Z" fill="#3C8F7C"/>
<path d="M24.1585 57.2715L25.7365 66.7638L19.587 67.7564L17.6342 58.8766C17.6342 58.8766 22.6951 56.8273 24.1585 57.2715Z" fill="#9BC1F9"/>
<path d="M12.2853 57.5646C12.8727 57.3328 13.5143 57.2742 14.1341 57.3958C15.2855 57.6209 17.1153 58.0874 17.8499 58.8765C18.9582 60.068 19.984 67.95 19.984 67.95L15.2037 66.8776L12.2866 57.5646H12.2853Z" fill="#9BC1F9"/>
<path d="M28.7366 73.8024C27.9326 71.5685 18.8208 63.4372 16.4081 64.0628L17.7041 69.0219C17.7041 69.0219 20.4112 77.0943 23.064 78.1359C25.7168 79.1776 28.2008 78.0051 28.2008 78.0051C28.2008 78.0051 29.5406 76.0362 28.7366 73.8024Z" fill="#F7CC7F"/>
<path d="M25.4649 60.7566C25.3518 60.9836 26.076 61.3887 26.2866 61.5418C26.4973 61.6949 27.3706 61.5372 27.3706 61.5372C27.3706 61.5372 25.5912 60.5021 25.4649 60.7566Z" fill="#F7A491"/>
<path d="M17.6798 71.384C17.6798 71.384 15.3646 76.1965 15.3568 76.6977C15.3456 77.4175 12.0085 77.2212 12.7334 76.913C12.9002 76.8417 13.4255 76.576 13.4655 76.5407C13.6813 76.3555 15.6027 70.3789 15.6027 70.3789L17.6798 71.384Z" fill="#F48C7F"/>
<path d="M18.4185 65.6266C18.3066 65.503 17.133 65.0377 16.2295 66.1625C15.326 67.2873 13.5944 76.0506 13.5944 76.0506L15.7238 76.2594C15.7238 76.2594 21.0261 68.5004 18.4185 65.6266Z" fill="#F7CC7F"/>
<path d="M11.5303 59.056L14.2695 67.0453C14.321 67.2005 14.4144 67.3384 14.5395 67.4437C14.6645 67.5491 14.8163 67.6177 14.978 67.642C17.5464 68.0051 18.8862 68.1903 18.8862 68.1903C18.8862 68.1903 19.3873 68.2158 19.9185 68.223L25.7972 67.5955C26.3088 67.5406 26.6654 67.0453 26.5699 66.5225L25.1391 58.6797C25.1016 58.4505 24.9752 58.2453 24.7872 58.1088C24.5993 57.9723 24.3651 57.9155 24.1356 57.9508L18.4799 58.9016L16.9929 58.8616L12.5443 57.8651C11.8712 57.7127 11.3 58.3846 11.5303 59.056Z" fill="#F47458"/>
<path d="M23.4951 62.9413C23.4951 62.9413 25.073 63.2338 25.6121 63.2174C26.1512 63.2011 26.8492 63.3712 26.8492 63.3712C26.8492 63.3712 28.6103 67.5131 28.8628 67.975C29.6171 69.3543 31.7086 69.1914 31.6759 68.0404C31.6484 67.1244 28.0778 61.3951 27.1266 61.4239C26.1754 61.4527 23.2013 60.835 23.115 61.2106C23.0672 61.4135 25.8528 61.5083 25.4132 61.6811C25.1404 61.7884 22.9599 61.543 22.9678 61.8002C22.9756 62.0573 24.9376 62.0809 25.1489 62.2798C25.3602 62.4787 23.0607 62.0364 23.0738 62.4722C23.081 62.6914 25.1018 62.533 25.321 62.8647C25.4093 63.0048 23.3283 62.5095 23.4951 62.9413Z" fill="#F7A491"/>
<path d="M12.8557 62.2646C12.8267 62.2519 12.7952 62.2457 12.7635 62.2464C12.7319 62.2471 12.7007 62.2549 12.6723 62.269C12.6439 62.2831 12.619 62.3032 12.5992 62.328C12.5795 62.3528 12.5654 62.3817 12.5581 62.4125C12.5267 62.5434 12.5201 62.7089 12.6196 62.8162C12.8158 63.0289 14.1975 63.2324 14.2054 63.0269C14.2106 62.8692 13.2849 62.4504 12.8557 62.2646Z" fill="#F7A491"/>
<path d="M12.5869 62.8013C12.5869 62.8013 12.4489 63.3182 12.5686 63.3247C12.6883 63.3313 14.1812 63.4772 14.248 63.2992C14.3147 63.1213 12.7832 62.6966 12.5869 62.8013Z" fill="#F7A491"/>
<path d="M12.5215 63.3352C12.5215 63.3352 12.4789 63.5649 12.6026 63.6977C12.7262 63.8305 14.1164 63.7435 14.1675 63.523C14.2185 63.3025 12.5725 63.1658 12.5215 63.3352Z" fill="#F7A491"/>
<path d="M12.7354 63.8206C12.7354 63.8206 12.7354 63.9966 12.8008 64.0719C12.8662 64.1471 13.8979 64.0424 13.9999 63.8232C14.102 63.604 12.8551 63.5936 12.7354 63.8206Z" fill="#F7A491"/>
<path d="M16.2184 75.9689C16.2184 75.9689 15.7284 77.7441 15.2371 78.9179C14.9146 79.6861 14.8315 80.4517 14.6182 80.8351C14.0785 81.8048 13.196 81.8441 12.4953 81.2617C11.7947 80.6794 12.7348 78.2217 12.7348 78.2217L14.9466 75.1091L16.2184 75.9689Z" fill="#F7A491"/>
<path d="M14.615 80.835C14.8047 80.4948 14.8924 79.8536 15.1384 79.1744C14.8001 79.3707 14.2323 79.5185 13.9235 79.4361C12.7917 79.1338 12.7348 78.2217 12.7348 78.2217C12.7348 78.2217 11.5572 80.7402 12.2559 81.3225C12.9546 81.9049 14.0772 81.8047 14.615 80.835Z" fill="#F47458"/>
<path d="M18.4806 58.8996L20.2915 68.2761L19.2016 68.2106L18.8862 68.1884L16.9943 58.8604L18.4806 58.8996Z" fill="#FFBF14"/>
<path d="M24.7905 77.5876C25.4106 78.7288 26.6464 78.9061 27.7592 78.8125C28.9898 78.7092 30.3447 78.0359 30.7084 76.6232C31.097 75.1137 30.5854 73.2462 29.6898 72.0619C25.1038 66.0016 25.0685 65.4042 23.2426 64.5987C21.2715 63.7297 13.9529 76.2371 13.9529 76.2371L15.9633 77.2644C15.9633 77.2644 18.9778 74.744 20.9045 72.5337C21.1308 72.2719 21.7759 70.9299 21.7759 70.9299C21.7759 70.9299 24.3803 76.8332 24.7905 77.5876Z" fill="#F2F5C8"/>
<path d="M24.8579 41.134C22.9195 41.4272 22.3124 43.9581 23.9054 45.1149C24.1901 45.3254 24.3898 45.6313 24.468 45.9767L24.7454 47.161C24.7822 47.3179 24.8766 47.4553 25.0098 47.546C25.1431 47.6366 25.3055 47.6739 25.465 47.6504L26.199 47.5399C26.3589 47.5156 26.5037 47.4321 26.6048 47.3059C26.7059 47.1797 26.7558 47.02 26.7446 46.8587C26.6589 45.6377 26.5392 45.1941 26.9409 44.6556C28.125 43.0807 26.7969 40.8422 24.8579 41.134Z" fill="#F7CC7F"/>
<path d="M25.2785 46.7265C25.2317 46.733 25.1841 46.7207 25.1464 46.6922C25.1086 46.6638 25.0837 46.6215 25.077 46.5747L24.7159 43.9907L24.1107 43.4725C24.0774 43.441 24.0575 43.3979 24.0551 43.352C24.0527 43.3062 24.068 43.2612 24.0978 43.2264C24.1277 43.1916 24.1698 43.1696 24.2155 43.165C24.2611 43.1604 24.3068 43.1735 24.343 43.2016L25.0508 43.8082L25.4303 46.5249C25.4368 46.5718 25.4245 46.6193 25.396 46.6571C25.3676 46.6949 25.3253 46.7198 25.2785 46.7265Z" fill="#FAE0B2"/>
<path d="M26.18 46.7009C26.2031 46.6973 26.2253 46.6891 26.2453 46.6768C26.2653 46.6645 26.2826 46.6483 26.2963 46.6293C26.31 46.6102 26.3198 46.5886 26.3251 46.5658C26.3304 46.5429 26.3311 46.5192 26.3272 46.4961L25.9091 43.9214L26.3337 43.2474C26.3559 43.2075 26.362 43.1606 26.3507 43.1164C26.3394 43.0721 26.3116 43.0339 26.273 43.0095C26.2343 42.9851 26.1879 42.9765 26.1431 42.9853C26.0983 42.9941 26.0586 43.0198 26.0321 43.057L25.5349 43.8422L25.9752 46.5504C25.9787 46.5738 25.9868 46.5962 25.999 46.6164C26.0112 46.6366 26.0273 46.6543 26.0463 46.6682C26.0653 46.6822 26.0869 46.6923 26.1099 46.6979C26.1328 46.7035 26.1566 46.7045 26.18 46.7009Z" fill="#FAE0B2"/>
<path d="M24.4595 45.9484C24.4595 45.9583 24.4654 45.9674 24.468 45.9779L24.7454 47.1622C24.7822 47.3191 24.8766 47.4565 25.0098 47.5472C25.1431 47.6378 25.3055 47.6751 25.465 47.6516L26.199 47.5411C26.3589 47.5168 26.5037 47.4333 26.6048 47.3071C26.7059 47.1809 26.7558 47.0212 26.7446 46.8599C26.7067 46.3168 26.6615 45.9275 26.6589 45.6167L24.4595 45.9484Z" fill="#96D9C9"/>
<path d="M24.4935 22.2717L23.7254 21.1594H22.3751C22.3405 21.1594 22.3066 21.1497 22.2772 21.1315C22.2478 21.1132 22.224 21.0871 22.2087 21.0561C22.1933 21.025 22.1869 20.9903 22.1902 20.9559C22.1935 20.9214 22.2063 20.8886 22.2273 20.861L23.0463 19.7873L22.6263 18.5035C22.6156 18.4706 22.6142 18.4354 22.6225 18.4018C22.6307 18.3682 22.6481 18.3376 22.6728 18.3135C22.6976 18.2893 22.7285 18.2725 22.7623 18.265C22.7961 18.2576 22.8312 18.2597 22.8638 18.2712L24.1382 18.7181L25.2288 17.9218C25.2568 17.9014 25.2899 17.8893 25.3245 17.8867C25.359 17.8842 25.3935 17.8914 25.4242 17.9074C25.4549 17.9235 25.4805 17.9478 25.4981 17.9776C25.5157 18.0074 25.5246 18.0416 25.5238 18.0762L25.4924 19.4261L26.5863 20.2178C26.6142 20.2381 26.6359 20.2658 26.6489 20.2977C26.6619 20.3297 26.6657 20.3646 26.6599 20.3986C26.6542 20.4327 26.639 20.4644 26.6162 20.4902C26.5933 20.5161 26.5637 20.5351 26.5307 20.545L25.2373 20.9323L24.8206 22.224C24.8095 22.2563 24.7898 22.285 24.7635 22.3068C24.7372 22.3286 24.7054 22.3428 24.6716 22.3477C24.6378 22.3527 24.6033 22.3482 24.5718 22.3348C24.5404 22.3214 24.5133 22.2996 24.4935 22.2717Z" fill="#F47458"/>
<path d="M95.6056 24.2845L95.043 23.4673H94.0506C94.0252 23.4673 94.0003 23.4603 93.9787 23.4469C93.9571 23.4336 93.9397 23.4145 93.9284 23.3917C93.9171 23.369 93.9124 23.3436 93.9148 23.3183C93.9172 23.293 93.9266 23.2689 93.942 23.2487L94.5439 22.4596L94.2351 21.5167C94.2271 21.4926 94.2261 21.4667 94.2322 21.4419C94.2382 21.4172 94.251 21.3947 94.2692 21.3769C94.2874 21.3591 94.3102 21.3468 94.3351 21.3413C94.3599 21.3359 94.3858 21.3375 94.4097 21.346L95.3459 21.6731L96.1467 21.0881C96.1672 21.0731 96.1915 21.0641 96.2169 21.0622C96.2423 21.0602 96.2677 21.0655 96.2902 21.0773C96.3128 21.089 96.3316 21.1069 96.3445 21.1289C96.3574 21.1508 96.3639 21.1759 96.3632 21.2013L96.3403 22.1933L97.1443 22.7743C97.1649 22.7893 97.1808 22.8098 97.1904 22.8334C97.2 22.857 97.2028 22.8827 97.1985 22.9078C97.1942 22.9329 97.1831 22.9563 97.1662 22.9754C97.1493 22.9945 97.1275 23.0085 97.1031 23.0158L96.1532 23.3004L95.849 24.2525C95.8408 24.2767 95.826 24.2981 95.8063 24.3144C95.7865 24.3306 95.7626 24.341 95.7373 24.3443C95.712 24.3476 95.6862 24.3438 95.6629 24.3332C95.6397 24.3227 95.6198 24.3058 95.6056 24.2845Z" fill="#9BC1F9"/>
<path d="M79.7961 12.2908L78.5492 12.0808L77.8184 13.1441L76.4367 12.8097L76.0076 14.1818L74.429 13.873L73.8781 15.0881L72.31 15.039L72.329 14.4455L73.5006 14.4822L74.0822 13.2004L75.6 13.4974L76.0364 12.1024L77.5607 12.4708L78.2744 11.433L79.4304 11.6274L79.7562 10.8474L80.3037 11.0764L79.7961 12.2908Z" fill="#F48C7F"/>
<path d="M44.3905 16.1572L43.4772 16.4379L42.8642 15.018L41.4786 15.2628L40.8454 14.2754L40.3462 14.596L41.1921 15.9164L42.5051 15.6841L43.1436 17.1616L44.5174 16.7396L44.3905 16.1572Z" fill="#50BFA5"/>
<path d="M17.4993 31.1995L16.1327 32.0311L17.5504 38.4016C17.5789 38.5292 17.6374 38.6482 17.7211 38.7488C17.8048 38.8493 17.9112 38.9284 18.0316 38.9795C18.1519 39.0307 18.2827 39.0525 18.4132 39.043C18.5436 39.0335 18.6699 38.9931 18.7816 38.9251C18.9295 38.835 19.0453 38.7006 19.1124 38.541C19.1796 38.3813 19.1948 38.2046 19.1558 38.0358L18.809 36.54L20.2411 35.6685L21.4265 36.6611C21.5585 36.7715 21.7217 36.8378 21.8932 36.8507C22.0647 36.8636 22.236 36.8225 22.383 36.7331L22.4085 36.7174C22.5204 36.6494 22.6145 36.5557 22.6829 36.444C22.7513 36.3323 22.7921 36.206 22.8019 36.0754C22.8117 35.9448 22.7902 35.8137 22.7392 35.6931C22.6882 35.5725 22.6091 35.4658 22.5086 35.3819L17.4993 31.1995ZM18.4237 35.0377L18.162 33.8678L19.0825 34.6373L18.4237 35.0377Z" fill="#F48C7F"/>
<path d="M99.9659 37.227C100.036 37.0464 100.012 36.4006 100.909 35.779C101.278 35.5264 101.581 35.3118 101.663 35.0167C101.804 34.5076 101.27 34.2636 100.735 34.2662C100.602 34.2661 100.475 34.2142 100.38 34.1216C100.284 34.029 100.229 33.903 100.225 33.7702C100.221 33.6356 100.27 33.5048 100.361 33.4059C100.453 33.307 100.579 33.248 100.714 33.2415C101.067 33.2253 101.42 33.2658 101.76 33.3612C102.905 33.6792 103.25 34.4566 103.05 35.177C102.867 35.8359 102.339 36.1585 101.908 36.4294C101.183 36.8874 101.184 37.4036 101.123 37.5469L99.9659 37.227ZM99.4079 38.3616C99.5387 37.9036 99.9482 37.6608 100.399 37.7864C100.867 37.9173 101.079 38.3302 100.96 38.7921C100.835 39.2436 100.429 39.4955 99.9607 39.3653C99.4922 39.2351 99.2829 38.8124 99.4079 38.3616Z" fill="#F7CC7F"/>
<path d="M61.723 4.09277C59.9403 4.09277 59.0499 6.28672 60.325 7.54302C60.5534 7.77043 60.6926 8.07225 60.7175 8.39364L60.8019 9.49748C60.8135 9.64409 60.88 9.78093 60.988 9.88073C61.0961 9.98052 61.2377 10.036 61.3848 10.036H62.0599C62.207 10.036 62.3486 9.98052 62.4566 9.88073C62.5647 9.78093 62.6311 9.64409 62.6428 9.49748C62.7318 8.38513 62.6847 7.97291 63.1204 7.54302C64.3961 6.28672 63.5064 4.09277 61.723 4.09277Z" fill="#F7CC7F"/>
<path d="M61.3435 9.17822C61.3006 9.17753 61.2596 9.15988 61.2296 9.12912C61.1996 9.09836 61.1829 9.05697 61.1832 9.01399L61.2094 6.64141L60.7358 6.09309C60.7077 6.06047 60.6937 6.01801 60.6969 5.97506C60.7 5.93211 60.7202 5.89219 60.7528 5.86408C60.7854 5.83596 60.8279 5.82196 60.8708 5.82515C60.9137 5.82834 60.9536 5.84847 60.9818 5.88109L61.5352 6.52233L61.5077 9.01791C61.5076 9.03925 61.5032 9.06034 61.4948 9.07997C61.4864 9.0996 61.4743 9.11738 61.459 9.13228C61.4438 9.14719 61.4257 9.15892 61.4059 9.1668C61.386 9.17469 61.3649 9.17857 61.3435 9.17822Z" fill="#FAE0B2"/>
<path d="M62.1554 9.27767C62.1984 9.27698 62.2393 9.25933 62.2694 9.22856C62.2994 9.1978 62.316 9.15642 62.3157 9.11343L62.2895 6.74086L62.7645 6.19319C62.7926 6.16056 62.8066 6.11811 62.8034 6.07516C62.8002 6.03221 62.7801 5.99229 62.7475 5.96418C62.7148 5.93606 62.6724 5.92206 62.6294 5.92525C62.5865 5.92844 62.5466 5.94856 62.5185 5.98119L61.965 6.62242L61.9925 9.11736C61.993 9.16017 62.0104 9.20104 62.0409 9.23106C62.0715 9.26109 62.1126 9.27784 62.1554 9.27767Z" fill="#FAE0B2"/>
<path d="M60.7109 8.3667C60.7109 8.37586 60.7109 8.38502 60.7142 8.39418L60.8019 9.49737C60.8136 9.64399 60.88 9.78082 60.988 9.88062C61.0961 9.98042 61.2377 10.0358 61.3848 10.0359H62.0599C62.207 10.0358 62.3486 9.98042 62.4566 9.88062C62.5647 9.78082 62.6311 9.64399 62.6428 9.49737C62.6827 9.00401 62.6951 8.64675 62.7351 8.3667H60.7109Z" fill="#96D9C9"/>
<path d="M65.1536 1.07251L63.6123 3.68587L66.2252 1.74254L65.1536 1.07251Z" fill="#FAE0B2"/>
<path d="M58.8876 0.399137L60.4636 3.08251L60.1954 0L58.8876 0.399137Z" fill="#FAE0B2"/>
<path d="M56.1485 4.24121L58.6548 5.22662L56.0962 5.38038L56.1485 4.24121Z" fill="#FAE0B2"/>
<path d="M63.8806 7.77344L64.8854 9.04675L65.6227 8.17584L63.8806 7.77344Z" fill="#FAE0B2"/>
<path d="M64.8854 5.42829L67.1634 4.48999L67.2308 5.49503L64.8854 5.42829Z" fill="#FAE0B2"/>
<path d="M58.9223 7.97412L56.7785 8.97982L57.4484 9.78398L58.9223 7.97412Z" fill="#FAE0B2"/>
<path d="M33.4842 21.5449C33.8349 21.5731 34.5205 21.715 35.1498 21.8956C35.9205 22.1155 36.3719 22.3255 36.7095 22.6808C36.8831 22.8405 37.0087 23.0456 37.0721 23.2729C37.1354 23.5002 37.134 23.7407 37.068 23.9672C36.926 24.4645 36.5034 24.8453 35.8067 24.8977L35.8021 24.914C36.3909 25.2706 36.7258 25.8864 36.5217 26.6074C36.4576 26.8363 36.3416 27.0473 36.1828 27.2241C36.0239 27.4009 35.8265 27.5387 35.6058 27.6269C35.1073 27.8343 34.3759 27.8231 33.2651 27.5045C32.8067 27.3786 32.3579 27.2203 31.922 27.0308L33.4842 21.5449ZM34.1247 24.0412L34.5388 24.1596C35.2022 24.3487 35.6366 24.1773 35.755 23.7624C35.8734 23.3476 35.6163 23.0237 35.0445 22.8601C34.8652 22.8059 34.6819 22.7656 34.4963 22.7397L34.1247 24.0412ZM33.4162 26.5191C33.5744 26.5813 33.7363 26.6335 33.901 26.6755C34.4727 26.839 35.0399 26.7677 35.2094 26.1795C35.3703 25.6161 34.9287 25.2477 34.2987 25.0671L33.8676 24.9435L33.4162 26.5191Z" fill="#96D9C9"/>
<path d="M87.57 23.9612C87.6045 24.1105 87.5789 24.2675 87.4985 24.398C87.4182 24.5286 87.2897 24.6222 87.1409 24.6587C86.7864 24.7412 86.4246 24.7877 86.0608 24.7974C83.8594 24.872 82.6792 23.5398 82.6183 21.7221C82.5451 19.5491 84.0537 18.2876 85.981 18.2221C86.3129 18.2102 86.6452 18.2322 86.9727 18.2876C87.0503 18.3014 87.1243 18.3308 87.1903 18.374C87.2563 18.4171 87.3128 18.4732 87.3566 18.5388C87.4003 18.6043 87.4304 18.6781 87.4449 18.7556C87.4594 18.8331 87.4582 18.9127 87.4411 18.9897L87.4366 19.0099C87.4048 19.1569 87.3175 19.2858 87.1929 19.3699C87.0683 19.4539 86.916 19.4865 86.768 19.4608C86.5433 19.4209 86.315 19.4049 86.0869 19.413C84.944 19.4516 84.0792 20.1714 84.1243 21.5893C84.1675 22.8646 84.9506 23.6425 86.2354 23.5987C86.4522 23.5902 86.6678 23.563 86.8798 23.5176C87.0296 23.4865 87.1856 23.5156 87.3142 23.5984C87.4428 23.6813 87.5337 23.8113 87.5674 23.9605L87.57 23.9612Z" fill="#F7CC7F"/>
<path d="M16.1785 53.6048C16.1061 53.3821 16.1242 53.1399 16.2288 52.9304C16.3335 52.721 16.5163 52.5611 16.7378 52.4853C17.2134 52.3282 17.6472 52.5612 17.8277 53.0349C18.0083 53.5086 17.8075 53.9856 17.3122 54.1643C16.817 54.3429 16.3433 54.0962 16.1785 53.6048ZM16.0228 52.2242L14.5404 48.6824C14.5114 48.6127 14.4969 48.5379 14.4978 48.4625C14.4987 48.3871 14.515 48.3126 14.5456 48.2437C14.5762 48.1747 14.6205 48.1127 14.6759 48.0615C14.7312 48.0103 14.7964 47.9708 14.8675 47.9456L15.2286 47.8147C15.2993 47.7892 15.3746 47.7783 15.4497 47.7827C15.5248 47.7871 15.5982 47.8067 15.6655 47.8404C15.7328 47.874 15.7926 47.921 15.8412 47.9785C15.8898 48.0359 15.9262 48.1026 15.9482 48.1746L17.0721 51.8467L16.0228 52.2242Z" fill="#466EB6"/>
<path d="M83.5414 49.01C83.5414 49.01 87.362 50.6752 87.6989 50.7492C87.9102 50.7956 90.3386 48.2784 91.6621 47.295C91.7235 47.2492 91.9591 46.9148 92.0245 46.8815C92.8095 46.4889 91.4808 48.7652 91.4808 48.7652C91.4808 48.7652 88.6638 52.3483 88.0266 52.6552C87.2265 53.0406 83.2706 51.0848 83.2941 50.9716L83.5414 49.01Z" fill="#F48C7F"/>
<path d="M82.9356 45.4337C83.0998 44.3076 83.8816 41.9108 83.1607 40.9522C82.1467 39.6043 80.0048 39.6625 78.9927 40.9574C78.5289 41.5516 78.2777 42.2792 78.033 42.9917C77.8753 43.4498 77.7157 43.9143 77.4933 44.3481C77.297 44.7348 77.0667 45.219 76.6886 45.4553C75.006 46.5022 73.1225 47.1781 73.0015 49.5382C72.8576 52.3374 75.9238 55.84 79.6888 54.1447C81.1281 53.4956 83.0181 51.3965 83.6343 49.9452C83.9124 49.2909 83.7789 49.3563 83.6258 48.3617C83.4884 47.4686 82.8028 46.3405 82.9356 45.4337Z" fill="#184655"/>
<path d="M80.886 47.108L86.0006 49.9216L84.7942 51.7537C84.7942 51.7537 80.9435 50.286 80.165 50.076C79.3865 49.8659 80.0008 47.0314 80.886 47.108Z" fill="#355389"/>
<path d="M80.7996 44.6673C80.7996 44.6673 80.6688 46.6152 80.5667 47.1616C80.4647 47.7256 80.4019 50.0753 81.5755 50.3625C82.7491 50.6498 82.3082 47.4678 82.3278 46.8946C82.3475 46.3214 82.462 44.4736 82.462 44.4736L80.7996 44.6673Z" fill="#F7A491"/>
<path d="M80.7826 44.8997C80.875 45.0363 80.9823 45.1623 81.1025 45.2753C81.5349 45.6836 81.9798 45.8157 82.3854 45.7627C82.422 45.1169 82.4619 44.4724 82.4619 44.4724L80.7996 44.6687C80.7996 44.6687 80.7931 44.7544 80.7826 44.8997Z" fill="#F47458"/>
<path d="M82.0119 40.9377C81.5354 40.9778 81.0888 41.1866 80.7526 41.5266C80.2069 42.0907 79.5541 43.9319 80.7748 45.0842C81.9956 46.2364 83.2039 45.2465 83.457 44.0281C83.7102 42.8098 83.8725 41.0686 82.0119 40.9377Z" fill="#F7A491"/>
<path d="M82.6811 40.9946C82.6811 40.9946 81.9366 42.9157 80.1788 42.7535C79.3826 42.6802 79.202 43.7677 79.202 43.7677C79.202 43.7677 79.8562 41.1851 80.6714 40.801C81.4865 40.4169 82.6811 40.9946 82.6811 40.9946Z" fill="#184655"/>
<path d="M80.4051 43.218C80.445 43.555 80.2933 43.8501 80.0656 43.8776C79.8379 43.905 79.6207 43.6531 79.5808 43.3161C79.5409 42.9792 79.6927 42.6841 79.9204 42.6572C80.148 42.6304 80.3626 42.8817 80.4051 43.218Z" fill="#F7A491"/>
<path d="M93.4729 43.8493L89.1434 52.6984C89.04 52.9091 89.0721 53.1564 89.2134 53.2376L92.3764 55.09L96.3305 47.2485C96.3305 47.2485 94.6079 44.6705 93.9616 43.7041C93.8393 43.5255 93.5959 43.5987 93.4729 43.8493Z" fill="#B75742"/>
<path d="M89.6988 52.4074L93.4664 44.708C93.5894 44.4574 93.8353 44.3808 93.9551 44.5627L95.8437 47.3881L92.2947 54.4266L89.7695 52.9472C89.6275 52.8641 89.5954 52.6187 89.6988 52.4074Z" fill="#F2F5C8"/>
<path d="M91.7569 46.7128C91.8461 46.5978 91.9613 46.5056 92.0932 46.4439C92.2757 46.3955 92.4968 46.4027 92.5328 46.5198C92.5858 46.6913 92.0461 46.881 92.0461 46.881L91.7524 47.307C91.7524 47.307 91.615 46.9576 91.7569 46.7128Z" fill="#F48C7F"/>
<path d="M80.6511 46.6348C80.6511 46.6348 81.9844 47.736 82.3664 48.1188C82.7485 48.5016 83.4132 48.9622 83.4132 48.9622L82.335 47.471L81.6527 46.8337L80.6511 46.6348Z" fill="#F7A491"/>
<path d="M97.1986 64.2858C96.9919 64.1137 96.8061 63.6223 96.7269 63.407C96.2788 61.0874 94.1604 54.8145 91.8531 54.8145C89.8433 54.8145 83.6343 59.6846 80.7316 62.4988C79.8929 63.3115 79.9465 62.6218 80.4634 62.8116C80.7702 62.9248 82.8434 66.3737 83.175 66.3888C84.1891 66.4352 85.1265 65.756 85.9724 65.2836C87.2625 64.5639 88.1594 63.742 88.9091 62.6225C90.8063 59.7873 91.5201 58.1188 92.0919 57.0333C92.0919 57.0333 92.6316 59.2652 92.8959 59.8037C93.4938 61.0187 95.2798 64.0129 95.9785 65.1796L98.7177 65.105C98.7177 65.105 97.4668 64.5096 97.1986 64.2858Z" fill="#F48C7F"/>
<path d="M92.0317 56.1101C92.0317 56.1101 82.8303 60.3992 82.2493 61.8734C81.6684 63.3476 82.1152 65.5376 83.4557 65.9839C84.7962 66.4301 93.1039 59.3242 93.1039 59.3242C93.1039 59.3242 94.1762 61.2871 95.6946 62.6305C96.5045 63.345 97.8731 63.928 98.6542 64.4508C99.3378 64.9088 99.4916 65.3557 99.4916 65.3557L101.412 65.4447C101.412 65.4447 101.085 65.3341 100.508 64.5515C98.5495 61.9107 93.9963 55.7653 92.0317 56.1101Z" fill="#F7A491"/>
<path d="M88.4807 55.5742C88.4807 55.5742 91.4364 58.7608 92.0173 62.9609C92.0173 62.9609 87.3862 64.9559 85.1082 66.1625C82.8303 67.369 80.2841 66.118 79.4821 64.7773C78.68 63.4366 79.4821 59.6618 79.4821 59.6618L84.2172 58.925L88.4807 55.5742Z" fill="#13375B"/>
<path d="M95.4937 64.3827C95.2582 64.2931 95.1758 65.4846 95.1372 65.7503C95.0934 66.0499 95.236 66.2521 95.2726 66.2737C95.3701 66.3392 99.1645 66.4164 99.89 66.2214C99.9504 66.1989 100.008 66.1685 100.06 66.1311C100.593 65.6659 98.1269 64.4298 97.6304 64.5358C97.1881 64.6314 96.5529 64.7865 95.4937 64.3827Z" fill="#355389"/>
<path d="M80.5746 47.1538C80.5746 47.1538 79.8549 47.1473 79.081 48.8106C78.1318 50.8547 79.486 58.6555 79.3872 59.7685C79.3872 59.7685 79.7221 60.1532 81.6697 60.4346C82.1662 60.5088 82.6733 60.4579 83.1451 60.2865C83.6169 60.1151 84.0385 59.8287 84.3716 59.4531C84.3716 59.4531 83.9319 56.4432 84.5973 53.608C84.9577 52.0724 85.1481 50.5838 83.7239 49.2038C82.2997 47.8238 80.5746 47.1538 80.5746 47.1538Z" fill="#466EB6"/>
<path d="M98.6804 64.4566C98.4449 64.367 98.2421 65.5147 98.2597 65.7954C98.2781 66.097 98.3546 66.3188 98.3906 66.3411C98.4881 66.4065 102.286 66.4641 103.012 66.2691C103.072 66.2466 103.129 66.2163 103.182 66.1788C103.715 65.7136 100.973 64.5502 100.476 64.6536C100.033 64.7458 99.7382 64.8604 98.6804 64.4566Z" fill="#466EB6"/>
<path d="M96.1394 43.4829L88.9628 53.9344C88.7973 54.1758 88.8365 54.469 89.0446 54.5462L93.8981 56.3554L99.6381 48.1253L96.774 43.3789C96.6451 43.1623 96.3213 43.2179 96.1394 43.4829Z" fill="#F47458"/>
<path d="M94.4333 51.407C94.341 51.229 93.5959 51.6242 93.5959 51.6242C93.5959 51.6242 92.9325 51.7394 92.8854 51.7145C92.8383 51.6896 93.3309 51.6452 93.3309 51.6452C93.3309 51.6452 94.1461 51.3664 94.1369 51.2755C94.0996 50.8992 93.5893 51.3671 93.189 51.3841C92.878 51.3978 92.5665 51.3838 92.258 51.3422C92.1409 51.2768 92.4393 51.1282 92.4393 51.1282C92.4393 51.1282 92.8318 50.9522 92.7664 50.8488C92.6139 50.5989 91.6974 51.0746 91.5044 51.2513C91.3735 51.3697 91.2139 51.5994 90.9889 51.7269C90.0076 52.2805 88.8359 53.2319 87.4509 53.898C86.993 53.5132 82.5666 49.5402 82.4554 49.4434L80.0349 51.3474C80.0381 51.3474 86.9694 56.6298 87.3541 56.6174C87.8382 56.601 90.7246 53.5545 91.5057 52.8282C91.6241 52.7182 92.366 52.6358 92.5701 52.6646C93.0235 52.73 93.8733 52.3715 93.8733 52.3715C94.1349 52.0947 92.9077 52.3715 93.0228 52.306C93.0745 52.274 93.3741 52.2406 93.6731 52.2007C93.972 52.1608 94.2527 51.9828 94.2893 51.8997C94.3619 51.7368 93.6057 51.9704 93.6057 51.9704L92.9757 52.0096L93.5789 51.8866C93.5789 51.8866 94.5236 51.581 94.4333 51.407Z" fill="#F7A491"/>
<path d="M81.7783 48.2359C80.9966 47.4357 79.4939 47.5522 79.0555 48.694C78.9339 49.0113 78.9391 49.9228 79.0784 50.2578C79.6338 51.5978 82.8728 53.7872 82.8728 53.7872L84.6595 51.3525L81.7783 48.2359Z" fill="#86B1F2"/>
<path d="M49.6627 24.948C49.6627 24.8453 49.789 24.1831 49.789 24.1831C49.789 24.1831 49.4946 23.2442 49.4619 23.2422C48.8554 23.1984 48.3981 23.6106 48.5002 24.1648L48.5061 24.1831C48.6601 24.6748 48.9459 25.1149 49.3324 25.4555C49.7189 25.7961 50.1913 26.0244 50.6983 26.1153C50.9338 26.1572 51.1831 26.2017 51.4389 26.2462C51.3136 25.8461 51.2494 25.4294 51.2485 25.0102C50.3653 25.0036 49.6627 24.986 49.6627 24.948Z" fill="#F7A491"/>
<path d="M59.9154 20.8047C59.8984 20.7544 54.5849 24.2111 54.5849 24.2111C54.5849 24.2111 52.3168 24.2334 50.6414 24.219C50.6422 24.72 50.7131 25.2184 50.852 25.6997C52.5078 26.0132 54.3939 26.3442 54.823 26.3109C55.6225 26.2494 59.6321 24.2484 59.6321 24.2484C59.6321 24.2484 59.9278 20.842 59.9154 20.8047Z" fill="#355389"/>
<path d="M59.9749 33.7126C59.9638 33.6256 58.8412 29.7749 58.7241 26.3259C58.6331 23.6517 59.4614 21.2543 59.8853 20.8159C60.0423 20.6523 61.5012 20.3022 61.5012 20.3022L60.97 21.1843C60.4302 22.2031 60.2837 23.106 60.0495 24.2563C59.3698 27.5934 62.423 34.2675 62.2679 34.308C62.0946 34.3564 60.0168 34.0541 59.9749 33.7126Z" fill="#466EB6"/>
<path d="M48.3301 20.252L47.3972 20.8605L50.1854 25.5546L51.0621 21.7432L48.3301 20.252Z" fill="#9BC1F9"/>
<path d="M48.9064 19.5132L50.0781 23.409L51.0169 21.7261L48.9064 19.5132Z" fill="#9BC1F9"/>
<path d="M56.6464 19.0637L57.5479 22.3353L50.9057 21.732L56.6464 19.0637Z" fill="#9BC1F9"/>
<path d="M52.8579 32.9038C52.8579 32.9038 50.035 36.3527 50.0271 36.854C50.016 37.5737 46.6789 37.3774 47.4037 37.0692C47.5706 36.9979 48.0959 36.7323 48.1358 36.6976C48.3517 36.5117 50.576 32.1572 50.576 32.1572L52.8579 32.9038Z" fill="#F7A491"/>
<path d="M45.9337 37.3984L48.0801 36.731C48.0801 36.731 48.8207 37.1078 50.0271 36.8618C50.2318 37.22 50.357 37.6182 50.3941 38.0291C50.4032 38.1436 50.4595 38.4819 50.3463 38.4989C49.9361 38.5644 48.8004 38.5356 47.5195 38.5644C47.5195 38.5644 45.793 38.5847 44.7143 38.228C43.6355 37.8714 45.9337 37.3984 45.9337 37.3984Z" fill="#07345A"/>
<path d="M66.5261 33.7276C66.5261 33.7276 63.9865 33.1472 61.6131 31.4486C58.8654 29.4856 55.7762 27.4402 54.5555 27.6064C53.5742 27.7373 47.8551 35.6035 47.8551 35.6035L50.6244 36.8101L55.6271 31.6724C55.6271 31.6724 60.7377 36.9416 62.4171 37.2996C66.2409 38.124 67.463 35.3006 66.5261 33.7276Z" fill="#B75742"/>
<path d="M47.2663 20.8619L51.1196 29.0226C51.1281 29.041 51.1407 29.0572 51.1564 29.0699C51.1722 29.0827 51.1907 29.0915 51.2105 29.0959L53.7809 29.8143L50.4935 21.7269L47.4312 20.68C47.4065 20.6717 47.38 20.6709 47.3548 20.6775C47.3296 20.6841 47.3069 20.6979 47.2894 20.7171C47.272 20.7364 47.2605 20.7604 47.2564 20.7861C47.2523 20.8118 47.2557 20.8381 47.2663 20.8619Z" fill="#F7CC7F"/>
<path d="M60.374 13.1512C60.374 13.1512 61.0851 12.1809 61.8787 13.1512C61.8787 13.1512 62.3517 12.8005 62.773 13.2644C62.773 13.2644 63.6575 12.8718 64.0552 14.2178C64.0552 14.2178 64.5171 14.0686 64.6512 14.6235C64.7323 14.9476 64.6951 15.29 64.5465 15.5892C64.5465 15.5892 64.8377 15.7548 64.7827 16.2874C64.7356 16.7402 64.3804 16.8534 64.3804 16.8534C64.3804 16.8534 64.3758 17.6065 64.0827 17.8709C63.7896 18.1352 63.3389 18.0829 63.3389 18.0829C63.3389 18.0829 63.2734 18.4997 62.894 18.5115C62.5146 18.5232 62.0049 18.2249 61.6059 18.4388C61.2068 18.6528 60.096 18.6214 60.096 18.6214C60.096 18.6214 58.8039 18.2288 59.0113 16.9352C59.0113 16.9352 58.2917 16.4359 58.7692 15.6684C58.7692 15.6684 58.2204 14.6313 58.9511 13.8854C59.6819 13.1395 60.374 13.1512 60.374 13.1512Z" fill="#07345A"/>
<path d="M56.4534 43.8691C56.4534 43.8691 56.6097 48.1131 56.7065 48.8322C56.8034 49.5513 54.9061 51.7033 55.1482 50.9535C55.2045 50.7807 55.3477 50.2102 55.3484 50.1572C55.3484 49.8726 54.6445 45.0306 54.6445 45.0306L56.4534 43.8691Z" fill="#F7A491"/>
<path d="M54.4325 52.279L55.3366 50.2211C55.3366 50.2211 56.1066 49.909 56.7105 48.8379C57.115 48.9184 57.4975 49.0851 57.8318 49.3267C57.924 49.3921 58.2165 49.574 58.1556 49.6708C57.9338 50.0222 57.1684 50.8617 56.3507 51.8484C56.3507 51.8484 55.2339 53.1643 54.2572 53.746C53.2805 54.3277 54.4325 52.279 54.4325 52.279Z" fill="#07345A"/>
<path d="M54.6 48.2917C54.7963 48.0908 52.5916 37.2336 53.6619 36.1867C54.7322 35.1398 61.8807 33.5956 61.8807 33.5956L62.8188 30.2893C62.8188 30.2893 65.8079 31.1661 67.0175 32.972C67.6789 33.9587 67.0031 36.2083 66.8867 36.457C65.8661 38.5835 63.3435 38.6908 61.5078 38.6718C59.8199 38.6542 56.8217 38.6306 56.8217 38.6306L56.8145 48.2289C56.8145 48.2289 56.0772 48.4075 55.4963 48.3853C54.6988 48.3506 54.6 48.2917 54.6 48.2917Z" fill="#F47458"/>
<path d="M61.2271 20.5346L63.1629 19.8384C63.1629 19.8384 63.2211 19.8417 63.2388 19.8384C63.4468 19.8123 65.7313 27.2879 66.4771 30.1165C67.2229 32.9452 66.2455 32.4067 66.2455 32.4067C66.2455 32.4067 64.538 33.4713 62.5505 33.5465C60.4846 33.6244 60.898 31.1334 60.898 31.1334C60.898 31.1334 59.8101 25.9341 59.9376 24.1642C60.0652 22.3942 61.2271 20.5346 61.2271 20.5346Z" fill="white"/>
<path d="M61.2598 19.0139L61.2519 19.9672V20.1361C61.2519 20.1361 61.1211 21.7679 61.5876 22.0199C62.054 22.2718 63.1648 19.839 63.1648 19.839L62.6624 17.0706L61.2598 19.0139Z" fill="#F7A491"/>
<path d="M62.822 17.971C62.5885 18.9695 61.8198 19.6624 61.252 19.9654L61.2591 19.014L62.6605 17.0713L62.822 17.971Z" fill="#F47458"/>
<path d="M61.2971 14.2598C61.0843 14.2167 60.8646 14.2208 60.6535 14.2717C60.4424 14.3227 60.2451 14.4194 60.0754 14.5548C59.9057 14.6903 59.7678 14.8614 59.6713 15.0559C59.5748 15.2505 59.5221 15.4638 59.517 15.681C59.5062 16.1587 59.5261 16.6367 59.5765 17.112C59.7165 18.4036 60.5421 19.5729 61.1276 19.4989C61.7132 19.425 63.2211 18.3866 63.0504 16.5486C62.9431 15.4127 62.2496 14.458 61.2971 14.2598Z" fill="#F7A491"/>
<path d="M62.6375 16.746C62.6735 17.03 62.8914 17.2367 63.1236 17.2073C63.3559 17.1778 63.5161 16.9233 63.4789 16.6387C63.4416 16.3541 63.2257 16.1479 62.9928 16.1807C62.7599 16.2134 62.6016 16.4614 62.6375 16.746Z" fill="#F7A491"/>
<path d="M58.6809 13.9398C58.1373 14.4953 58.0182 15.2484 58.414 15.6246C58.8098 16.0009 59.572 15.8536 60.115 15.2975C60.6579 14.7413 60.7783 13.9888 60.3819 13.6126C59.9854 13.2364 59.2246 13.3842 58.6809 13.9398Z" fill="#07345A"/>
<path d="M60.3106 14.1322C60.3374 14.3403 60.6095 14.477 60.9196 14.4377C61.2297 14.3985 61.4594 14.1976 61.4332 13.9895C61.407 13.7815 61.1342 13.6447 60.8241 13.684C60.514 13.7232 60.2844 13.9241 60.3106 14.1322Z" fill="#07345A"/>
<path d="M58.8445 15.9425C58.8575 16.0369 58.8982 16.1253 58.9613 16.1966C59.0245 16.2679 59.1073 16.319 59.1995 16.3433C59.2916 16.3677 59.3888 16.3642 59.479 16.3334C59.5691 16.3025 59.6481 16.2457 59.706 16.1701C59.764 16.0944 59.7982 16.0033 59.8045 15.9082C59.8108 15.8132 59.7888 15.7184 59.7413 15.6357C59.6938 15.5531 59.623 15.4864 59.5376 15.444C59.4523 15.4016 59.3564 15.3854 59.2619 15.3974C59.1343 15.4143 59.0186 15.4813 58.9403 15.5835C58.8621 15.6857 58.8276 15.8148 58.8445 15.9425Z" fill="#07345A"/>
<path d="M63.1616 19.8391C63.1616 19.8391 65.0588 19.5316 65.6933 19.8025C66.0983 19.9746 66.6138 23.4117 66.6138 23.4117C66.6138 23.4117 66.6347 26.8875 66.8716 27.8677C67.6749 31.1903 68.7962 34.0994 68.6706 34.2637C67.8463 34.9416 64.3987 35.5723 64.1363 35.2452C61.2434 31.6811 63.1616 19.8391 63.1616 19.8391Z" fill="#466EB6"/>
<path d="M66.3253 23.3625C66.3253 23.3625 64.4281 29.2292 63.5973 29.8442C62.7664 30.4593 59.0355 24.7026 59.0355 24.7026C59.0355 24.7026 57.383 23.7643 57.2652 23.7544C56.7968 23.7158 58.2426 23.4744 58.2426 23.4744L58.4219 21.9773C58.4219 21.9773 58.4925 21.9884 58.9243 22.4746C59.5078 23.1289 60.0148 24.1516 60.253 24.323L62.7547 26.2206L64.0251 22.1585L66.3253 23.3625Z" fill="#F7A491"/>
<path d="M50.4935 21.7267L51.2792 21.6501L54.6464 30.0301L53.7809 29.8109L50.4935 21.7267Z" fill="#F2F5C8"/>
<path d="M57.9816 19.6847L60.0096 29.5512C60.0174 29.5895 60.0168 29.6291 60.0078 29.6671C59.9987 29.7051 59.9815 29.7407 59.9572 29.7714C59.933 29.8021 59.9023 29.8271 59.8674 29.8446C59.8325 29.8622 59.7942 29.872 59.7551 29.8732L54.6484 30.0309L51.2812 21.6503L57.6342 19.4845C57.6701 19.4726 57.7082 19.4685 57.7458 19.4723C57.7835 19.4762 57.8199 19.488 57.8527 19.5069C57.8854 19.5258 57.9139 19.5514 57.9361 19.582C57.9583 19.6127 57.9738 19.6477 57.9816 19.6847Z" fill="#F7CC7F"/>
<path d="M60.0384 23.9658L59.3907 25.3843C59.3907 25.3843 62.5735 30.6222 63.5561 30.3317C64.5387 30.0412 66.3921 24.3675 66.6825 22.807C66.973 21.2464 66.3698 19.9482 65.5658 19.7467C64.7618 19.5452 64.1363 20.9088 63.891 21.4892C63.6457 22.0695 62.7521 26.2252 62.7521 26.2252L60.0384 23.9658Z" fill="#86B1F2"/>
<path d="M48.7233 24.0437C48.6614 23.9357 48.6086 23.8228 48.5656 23.7061C48.527 23.5785 49.3107 23.1335 49.6208 23.3364C49.9309 23.5392 49.1027 23.8481 48.7233 24.0437Z" fill="#F7A491"/>
<path d="M48.756 24.5567C48.756 24.5567 48.5597 24.3499 48.5211 24.2217C48.4825 24.0934 49.5253 23.5673 49.8354 23.7721C50.1455 23.9769 49.1354 24.3604 48.756 24.5567Z" fill="#F7A491"/>
<path d="M49.1132 24.914C49.1132 24.914 48.9169 24.7072 48.8783 24.5796C48.8397 24.452 49.6235 24.0071 49.9336 24.2099C50.2437 24.4128 49.4926 24.7177 49.1132 24.914Z" fill="#F7A491"/>
<path d="M58.5868 22.5584H58.4239C58.3467 22.5583 58.2697 22.55 58.1942 22.5336C57.894 22.4681 57.0723 22.3052 57.0082 22.4681C56.9303 22.6697 58.1916 22.9039 58.1916 22.9039C58.1916 22.9039 56.8073 22.7253 56.8073 22.9595C56.8073 23.1938 58.2145 23.3175 58.2145 23.3175C58.2145 23.3175 56.9859 23.2723 56.9637 23.4064C56.9414 23.5406 58.4683 23.9201 58.4683 23.9201C58.4683 23.9201 57.2293 23.6525 57.1063 23.8089C56.9833 23.9652 59.0493 24.719 59.0493 24.719L58.5868 22.5584Z" fill="#F7A491"/>
<path d="M49.1132 24.9141C49.1132 24.9141 49.7903 24.532 49.9695 24.6524C50.1488 24.7728 49.3886 25.3446 49.3886 25.3446L49.4795 25.554C49.4795 25.554 48.9941 25.1771 49.1132 24.9141Z" fill="#F7A491"/>
</svg>
