<svg width="118" height="76" viewBox="0 0 118 76" fill="none" xmlns="http://www.w3.org/2000/svg">
<g clip-path="url(#clip0_973_1562)">
<path d="M69.0745 36.3167V74.5128C69.073 74.8125 69.1624 75.1057 69.3306 75.3533C69.4989 75.601 69.7382 75.7915 70.0167 75.8996C70.2953 76.0077 70.6 76.0283 70.8905 75.9587C71.1811 75.8891 71.4436 75.7325 71.6435 75.5098L77.946 68.5635H96.5968C98.151 68.5635 99.6416 67.9442 100.741 66.8416C101.84 65.7391 102.458 64.2436 102.46 62.6838V59.3496H99.7766C93.1606 59.3496 94.1581 53.7068 94.1581 53.7068H102.46V48.7504H107.109L102.895 34.1797C102.467 33.0745 101.717 32.1249 100.742 31.4555C99.7667 30.7861 98.6128 30.4282 97.4315 30.4287H74.9332C74.1631 30.4287 73.4006 30.5811 72.6893 30.8771C71.9779 31.1731 71.3317 31.6069 70.7876 32.1537C70.2434 32.7006 69.8121 33.3497 69.5181 34.0641C69.2242 34.7784 69.0734 35.5438 69.0745 36.3167ZM95.5383 44.7747C95.5383 44.2697 95.7382 43.7854 96.094 43.4283C96.4498 43.0713 96.9323 42.8706 97.4355 42.8706C97.9387 42.8706 98.4213 43.0713 98.7771 43.4283C99.1329 43.7854 99.3328 44.2697 99.3328 44.7747H95.5383Z" fill="#E8E8E8"/>
<path d="M43.0709 30.4326H20.5726C19.3917 30.4318 18.2382 30.7891 17.2632 31.4577C16.2882 32.1264 15.5372 33.0751 15.1089 34.1795L10.895 48.7462H15.5445V53.6821H23.846C23.846 53.6821 24.8435 59.3249 18.2275 59.3249H15.5445V62.6591C15.5456 64.2189 16.1637 65.7144 17.2631 66.817C18.3625 67.9195 19.8531 68.5389 21.4073 68.5389H40.0581L46.3606 75.4851C46.5604 75.7078 46.823 75.8644 47.1135 75.934C47.404 76.0036 47.7088 75.983 47.9873 75.8749C48.2659 75.7668 48.5052 75.5763 48.6735 75.3286C48.8417 75.081 48.931 74.7878 48.9296 74.4881V36.3165C48.9301 35.544 48.779 34.779 48.4848 34.0651C48.1906 33.3513 47.7591 32.7026 47.2151 32.1562C46.671 31.6098 46.0249 31.1763 45.3139 30.8806C44.6028 30.5848 43.8406 30.4326 43.0709 30.4326ZM18.6957 44.7746C18.6957 44.2696 18.8956 43.7852 19.2514 43.4282C19.6072 43.0711 20.0898 42.8705 20.593 42.8705C21.0962 42.8705 21.5787 43.0711 21.9345 43.4282C22.2903 43.7852 22.4902 44.2696 22.4902 44.7746H18.6957Z" fill="#E8E8E8"/>
<path d="M70.4793 18.5465H47.525C46.6471 18.5465 45.7778 18.72 44.9667 19.0572C44.1556 19.3943 43.4187 19.8885 42.7979 20.5116C42.1771 21.1346 41.6847 21.8742 41.3487 22.6882C41.0128 23.5022 40.8398 24.3746 40.8398 25.2557V49.4695C40.8398 51.2493 41.544 52.9562 42.7976 54.2151C44.0512 55.4739 45.7516 56.1817 47.525 56.1828H55.2606L58.021 63.4682C58.0977 63.6714 58.2342 63.8463 58.4124 63.9698C58.5905 64.0933 58.8019 64.1594 59.0184 64.1594C59.2349 64.1594 59.4463 64.0933 59.6245 63.9698C59.8027 63.8463 59.9392 63.6714 60.0159 63.4682L62.7763 56.1828H70.5119C72.2852 56.1817 73.9856 55.4739 75.2392 54.2151C76.4928 52.9562 77.197 51.2493 77.197 49.4695V25.2557C77.197 24.3719 77.023 23.4968 76.685 22.6806C76.347 21.8645 75.8517 21.1234 75.2275 20.5C74.6033 19.8765 73.8624 19.383 73.0476 19.0478C72.2327 18.7125 71.3599 18.5422 70.4793 18.5465ZM53.0254 31.3888C53.5286 31.3888 54.0112 31.5894 54.367 31.9465C54.7228 32.3036 54.9227 32.7879 54.9227 33.2929H51.1282C51.1282 32.7879 51.328 32.3036 51.6838 31.9465C52.0396 31.5894 52.5222 31.3888 53.0254 31.3888ZM66.298 40.3454C66.298 41.6794 65.77 42.9588 64.8301 43.9021C63.8902 44.8453 62.6154 45.3753 61.2862 45.3753H56.7181C55.3889 45.3753 54.1141 44.8453 53.1742 43.9021C52.2343 42.9588 51.7063 41.6794 51.7063 40.3454V39.8265H66.298V40.3454ZM63.0735 33.2929C63.0735 32.7879 63.2734 32.3036 63.6292 31.9465C63.985 31.5894 64.4676 31.3888 64.9708 31.3888C65.4739 31.3888 65.9565 31.5894 66.3123 31.9465C66.6681 32.3036 66.868 32.7879 66.868 33.2929H63.0735Z" fill="white"/>
<path d="M117.308 57.384H105.977C105.886 57.384 105.795 57.3659 105.711 57.3308C105.626 57.2957 105.55 57.2442 105.485 57.1793C105.42 57.1145 105.369 57.0374 105.334 56.9527C105.299 56.8679 105.281 56.777 105.281 56.6853C105.282 56.5003 105.356 56.3232 105.486 56.1924C105.616 56.0616 105.793 55.9876 105.977 55.9866H117.308C117.492 55.9876 117.669 56.0616 117.799 56.1924C117.929 56.3232 118.003 56.5003 118.004 56.6853C118.004 56.777 117.986 56.8679 117.951 56.9527C117.916 57.0374 117.865 57.1145 117.8 57.1793C117.735 57.2442 117.659 57.2957 117.574 57.3308C117.49 57.3659 117.399 57.384 117.308 57.384Z" fill="white"/>
<path d="M116.966 51.6147L106.152 55.0184C105.976 55.0734 105.786 55.0561 105.623 54.9703C105.459 54.8845 105.336 54.7372 105.281 54.5607C105.226 54.3835 105.243 54.1917 105.329 54.0272C105.414 53.8626 105.561 53.7386 105.737 53.6822L116.551 50.2868C116.727 50.2317 116.917 50.249 117.081 50.3348C117.244 50.4206 117.367 50.5679 117.422 50.7444C117.474 50.9205 117.456 51.1102 117.371 51.2729C117.286 51.4356 117.14 51.5583 116.966 51.6147Z" fill="white"/>
<path d="M116.966 61.7602L106.152 58.3647C106.065 58.3369 105.973 58.3267 105.882 58.3347C105.791 58.3427 105.703 58.3687 105.622 58.4112C105.541 58.4538 105.469 58.512 105.41 58.5826C105.352 58.6531 105.308 58.7346 105.281 58.8223C105.226 58.999 105.243 59.1902 105.329 59.3542C105.414 59.5181 105.561 59.6413 105.737 59.6967L116.551 63.0922C116.638 63.12 116.729 63.1302 116.821 63.1223C116.912 63.1143 117 63.0882 117.081 63.0457C117.162 63.0031 117.234 62.9449 117.292 62.8743C117.351 62.8038 117.395 62.7223 117.422 62.6346C117.477 62.4579 117.459 62.2667 117.374 62.1028C117.288 61.9388 117.142 61.8156 116.966 61.7602Z" fill="white"/>
<path d="M1.10751 51.5738L12.149 54.1112C12.3293 54.1516 12.5181 54.1188 12.6745 54.0201C12.8308 53.9214 12.9419 53.7647 12.9836 53.5841C13.0239 53.4032 12.9912 53.2137 12.8929 53.0568C12.7945 52.8999 12.6384 52.7884 12.4584 52.7465L1.41693 50.2131C1.24014 50.1775 1.05648 50.2121 0.904598 50.3097C0.75272 50.4072 0.644479 50.5601 0.602664 50.7361C0.560694 50.9143 0.590076 51.1019 0.684487 51.2585C0.778898 51.4152 0.930798 51.5284 1.10751 51.5738Z" fill="white"/>
<path d="M0.696201 55.9622H12.0268C12.2111 55.9632 12.3875 56.0372 12.5179 56.168C12.6482 56.2988 12.7219 56.4759 12.723 56.6609C12.723 56.8466 12.6498 57.0247 12.5193 57.1564C12.3889 57.2881 12.2118 57.3626 12.0268 57.3637H0.696201C0.511183 57.3626 0.334111 57.2881 0.203664 57.1564C0.0732166 57.0247 -3.12696e-06 56.8466 1.00157e-10 56.6609C0.00106852 56.4759 0.0747606 56.2988 0.205093 56.168C0.335425 56.0372 0.511886 55.9632 0.696201 55.9622Z" fill="white"/>
<path d="M1.1074 61.7724L12.1489 59.2391C12.3287 59.1975 12.5176 59.2292 12.6741 59.3272C12.8306 59.4253 12.9419 59.5817 12.9835 59.7621C13.0178 59.94 12.9824 60.1243 12.8845 60.2765C12.7866 60.4288 12.634 60.5373 12.4583 60.5793L1.41682 63.1167C1.23956 63.1511 1.05591 63.1155 0.904183 63.0173C0.75246 62.9191 0.644397 62.7659 0.60255 62.5896C0.566469 62.4144 0.598712 62.232 0.692636 62.08C0.786559 61.9279 0.93501 61.8179 1.1074 61.7724Z" fill="white"/>
<path d="M74.2005 5.98608C74.2037 5.65948 74.1238 5.33745 73.9685 5.05044C73.8131 4.76344 73.5874 4.52094 73.3127 4.34588C73.0379 4.17082 72.7232 4.06898 72.3983 4.04999C72.0734 4.031 71.749 4.09549 71.4559 4.23735C71.1628 4.37922 70.9105 4.59378 70.723 4.86075C70.5355 5.12771 70.4189 5.43826 70.3843 5.76303C70.3498 6.08781 70.3983 6.41607 70.5253 6.71678C70.6523 7.01749 70.8537 7.28072 71.1103 7.48157H71.0778C70.5465 8.45333 69.7094 9.22102 68.6972 9.6646C67.6851 10.1082 66.555 10.2026 65.4837 9.93318C62.3773 9.26307 61.1925 5.78178 60.8505 4.44157C61.2077 4.07618 61.4494 3.61307 61.5453 3.11035C61.6412 2.60762 61.5871 2.08766 61.3896 1.61571C61.1922 1.14375 60.8603 0.740822 60.4356 0.457466C60.0108 0.17411 59.5121 0.0229492 59.0021 0.0229492C58.4921 0.0229492 57.9934 0.17411 57.5687 0.457466C57.144 0.740822 56.812 1.14375 56.6146 1.61571C56.4172 2.08766 56.363 2.60762 56.4589 3.11035C56.5549 3.61307 56.7966 4.07618 57.1537 4.44157C56.8117 5.78178 55.627 9.26307 52.5205 9.93318C51.4492 10.2026 50.3192 10.1082 49.307 9.6646C48.2949 9.22102 47.4577 8.45333 46.9265 7.48157H46.8939C47.2122 7.2286 47.4417 6.8802 47.5489 6.48717C47.656 6.09413 47.6353 5.67702 47.4897 5.29664C47.3441 4.91626 47.0812 4.5925 46.7394 4.37258C46.3976 4.15266 45.9947 4.04806 45.5895 4.07405C45.1843 4.10004 44.798 4.25525 44.4869 4.51706C44.1757 4.77886 43.9561 5.13356 43.8599 5.52945C43.7637 5.92534 43.7961 6.34171 43.9522 6.71786C44.1084 7.094 44.3802 7.41025 44.728 7.62049V14.3706C44.7274 14.5164 44.7556 14.6608 44.8108 14.7956C44.866 14.9304 44.9472 15.053 45.0497 15.1562C45.1522 15.2595 45.274 15.3414 45.4081 15.3973C45.5423 15.4532 45.6861 15.482 45.8313 15.482H72.173C72.3182 15.482 72.462 15.4532 72.5961 15.3973C72.7302 15.3414 72.8521 15.2595 72.9546 15.1562C73.0571 15.053 73.1383 14.9304 73.1935 14.7956C73.2487 14.6608 73.2768 14.5164 73.2763 14.3706V7.62049C73.558 7.45156 73.7913 7.21216 73.9533 6.92569C74.1153 6.63922 74.2004 6.31547 74.2005 5.98608Z" fill="#FFBF14"/>
</g>
<defs>
<clipPath id="clip0_973_1562">
<rect width="118" height="76" fill="white"/>
</clipPath>
</defs>
</svg>
