<svg version="1.1" id="Layer_1" xmlns="http://www.w3.org/2000/svg"
    xmlns:xlink="http://www.w3.org/1999/xlink" x="0px" y="0px"
    width="100%" viewBox="0 0 1024 465" enable-background="new 0 0 1024 465" xml:space="preserve">
<path fill="#ffffff" opacity="1.000000" stroke="none" 
	d="
M774.000000,466.000000 
	C516.000000,466.000000 258.500000,466.000000 1.000000,466.000000 
	C1.000000,311.000000 1.000000,156.000000 1.000000,1.000000 
	C342.333344,1.000000 683.666687,1.000000 1025.000000,1.000000 
	C1025.000000,156.000000 1025.000000,311.000000 1025.000000,466.000000 
	C941.500000,466.000000 858.000000,466.000000 774.000000,466.000000 
M875.601196,344.266022 
	C870.748047,343.472321 865.894958,342.678619 860.571289,341.250885 
	C858.325317,341.500153 856.080627,341.762024 853.833130,341.996674 
	C829.728455,344.513489 822.644104,366.562286 831.179626,383.931122 
	C832.631287,386.885040 836.307251,388.745911 839.334106,391.710632 
	C844.889282,393.751221 850.444519,395.791809 856.653198,398.172363 
	C858.574707,399.041656 860.973206,399.464355 862.304443,400.886292 
	C864.238220,402.951904 866.795044,405.837769 866.626648,408.198364 
	C866.166077,414.655334 859.809753,418.427765 853.423828,416.642212 
	C850.196533,415.739868 847.160156,414.154968 843.660278,412.285889 
	C840.178101,410.364990 836.552246,406.604584 832.631348,410.165344 
	C829.204712,413.277313 825.834106,417.289215 824.589966,421.534119 
	C824.123474,423.125580 829.640503,426.599915 832.601135,429.004456 
	C833.820801,429.995056 835.492554,430.429016 837.392273,431.733978 
	C845.030701,435.020844 853.056335,433.954987 861.858276,433.962860 
	C874.315674,434.234314 881.677612,426.979767 886.000122,416.480591 
	C890.242554,406.176147 890.300842,395.879791 881.784607,386.325409 
	C876.224243,383.866821 870.663818,381.408234 864.708374,378.333221 
	C859.489563,375.854279 854.270752,373.375336 849.011230,370.056488 
	C847.663452,364.705719 850.971436,362.179138 855.923523,360.026215 
	C860.281982,360.961945 864.640442,361.897644 869.654724,363.176544 
	C870.371338,363.565765 871.052917,364.188568 871.810913,364.302338 
	C874.572021,364.716980 878.952454,366.196899 879.845276,365.045074 
	C882.860352,361.155304 884.657227,356.316589 886.844360,351.804047 
	C886.951782,351.582550 886.437012,350.857239 886.055359,350.632782 
	C882.738037,348.682343 879.384949,346.792786 875.601196,344.266022 
M889.926025,226.964661 
	C895.284546,226.920883 900.643066,226.877090 906.930359,226.963425 
	C913.620117,226.920395 920.309937,226.877380 927.928894,226.965286 
	C941.075317,226.975067 954.223145,227.089920 967.367310,226.924179 
	C970.859192,226.880142 975.091431,227.038406 976.731567,223.058655 
	C977.817200,220.424255 977.975586,217.254623 977.927124,214.334930 
	C977.787231,205.902496 977.168762,197.477844 977.037231,189.045471 
	C976.804932,174.150009 969.968079,162.104797 960.978088,150.186539 
	C956.331055,146.084106 951.684082,141.981674 946.741760,137.273804 
	C941.679077,132.720184 936.056702,129.348038 928.651306,128.280228 
	C918.756042,124.638191 908.617371,122.455544 897.073059,123.040344 
	C884.931824,122.542747 873.452576,125.451019 861.819519,128.695740 
	C850.270264,131.917084 841.502563,139.134933 833.106201,146.552567 
	C824.574036,154.090134 818.169189,163.623001 813.903625,174.624542 
	C809.590759,185.748337 806.059937,197.082748 806.249390,208.862885 
	C806.440796,220.763611 807.591858,232.893738 810.365662,244.432190 
	C812.667603,254.007965 817.938232,262.870056 822.010925,272.752380 
	C823.758728,275.033752 825.354126,277.454254 827.284363,279.569183 
	C832.195740,284.950317 836.458679,291.110321 843.987793,294.419617 
	C849.991394,297.890808 855.995056,301.362000 862.779114,305.001678 
	C865.852722,305.612335 868.926392,306.222992 872.705322,307.210205 
	C877.136292,308.085175 881.567261,308.960144 886.880676,309.965729 
	C888.846130,310.111755 890.820007,310.453094 892.775635,310.369690 
	C900.865845,310.024536 908.950623,309.550812 917.909546,309.030701 
	C928.382019,307.600067 938.748718,306.258667 948.513550,301.403687 
	C958.293396,296.541290 967.096863,290.525696 975.146423,283.283569 
	C978.425415,280.333557 977.457336,276.902679 975.273865,273.977570 
	C972.768494,270.621155 969.922668,267.474915 966.929688,264.538086 
	C963.498474,261.171204 960.140503,257.429169 956.036743,255.117599 
	C949.696228,251.546143 943.867859,255.991226 937.236023,258.003143 
	C926.581665,264.049408 915.419617,268.538544 902.179382,269.031067 
	C897.452026,268.076233 892.724670,267.121399 887.369568,265.846588 
	C885.280640,264.880249 883.191650,263.913940 880.984009,262.249786 
	C875.559387,257.358673 869.661621,252.873535 866.872375,244.910995 
	C865.444885,239.187363 864.017395,233.463730 862.363770,226.833313 
	C866.531921,226.833313 869.765015,226.833313 873.924194,226.964172 
	C878.949036,226.920609 883.973938,226.877029 889.926025,226.964661 
M509.926331,359.971252 
	C517.155579,359.971252 524.384827,359.971252 531.656616,359.971252 
	C531.656616,354.029053 531.656616,348.670349 531.656616,343.165833 
	C525.876404,343.165833 520.437073,343.165833 514.074097,343.031982 
	C509.382019,343.077118 504.689972,343.122223 499.069305,343.032990 
	C490.482452,343.032990 481.895630,343.032990 473.167084,343.032990 
	C473.167084,362.108185 473.167084,380.552917 473.028961,399.926331 
	C473.074280,409.616882 473.119598,419.307404 473.027863,429.872253 
	C473.085876,431.138428 473.143921,432.404633 473.209412,433.833221 
	C483.051849,433.833221 492.524506,433.833221 502.926117,433.969849 
	C512.484009,433.969849 522.041870,433.969849 531.647949,433.969849 
	C531.647949,427.692932 531.647949,421.999115 531.647949,416.166412 
	C523.532654,416.166412 515.764954,416.166412 507.080475,416.032898 
	C503.488190,416.032898 499.895905,416.032898 496.395905,416.032898 
	C496.395905,409.280792 496.395905,403.241913 496.395905,396.836639 
	C505.705200,396.836639 514.621826,396.836639 523.666870,396.836639 
	C523.666870,391.080933 523.666870,385.710266 523.666870,380.165192 
	C514.557495,380.165192 505.777008,380.165192 496.280548,379.648468 
	C496.280548,373.223114 496.280548,366.797791 496.280548,359.834045 
	C500.737457,359.834045 504.867523,359.834045 509.926331,359.971252 
M571.997986,389.749786 
	C576.283020,395.285400 580.519409,400.859833 584.886475,406.329987 
	C586.012024,407.739868 587.548401,408.821838 588.999023,410.767029 
	C594.643433,417.985687 600.254700,425.230835 605.978760,432.385742 
	C606.614685,433.180573 607.880066,433.878571 608.875916,433.909912 
	C613.799744,434.064850 618.731140,433.980408 623.589722,433.980408 
	C623.589722,403.270264 623.589722,373.235931 623.589722,343.302734 
	C616.579895,343.302734 609.985962,343.302734 603.486816,343.302734 
	C603.486816,361.110870 603.486816,378.606781 603.486816,395.713562 
	C602.219055,394.907288 600.634216,393.899323 599.004822,392.163208 
	C593.353882,384.740784 587.702881,377.318359 581.751892,369.273010 
	C578.537476,365.166412 575.322998,361.059845 571.809265,356.322540 
	C568.401489,352.245819 565.021484,348.145142 561.553772,344.120026 
	C561.074890,343.564178 560.167114,343.087372 559.449036,343.074768 
	C554.374390,342.985657 549.297363,343.027435 544.167114,343.027435 
	C544.167114,366.502777 544.167114,389.249939 544.030823,412.925964 
	C544.030823,419.843811 544.030823,426.761658 544.030823,433.589966 
	C550.728149,433.589966 556.767883,433.589966 563.248779,433.589966 
	C563.248779,415.687500 563.248779,398.189911 563.248779,381.868195 
	C565.874023,384.049103 568.882751,386.548584 571.997986,389.749786 
M275.979462,253.127335 
	C274.022644,247.736191 272.065826,242.345032 270.013062,236.183426 
	C265.620239,225.455078 261.227386,214.726730 256.972839,203.182312 
	C256.647247,201.457367 256.583435,199.629456 255.952240,198.024734 
	C252.658554,189.651047 249.220688,181.334091 245.735092,172.275970 
	C245.152527,170.949646 244.513199,169.645020 243.996582,168.293488 
	C240.594025,159.392014 237.217896,150.480438 233.908295,140.771545 
	C229.912796,130.960144 225.244873,121.398849 222.739288,110.275795 
	C217.863464,97.834923 212.987656,85.394051 208.012726,72.184311 
	C205.837219,66.514732 203.661728,60.845158 201.482941,55.167038 
	C197.245407,55.167038 193.120895,55.167038 188.068832,55.026680 
	C171.596817,55.026680 155.124817,55.026680 138.280548,55.026680 
	C107.016098,139.275970 74.233589,222.927338 42.972992,307.832886 
	C55.390629,307.832886 66.193604,307.832886 77.921425,307.979034 
	C81.750443,307.986237 85.580551,308.055389 89.408279,307.988617 
	C99.452850,307.813477 106.861977,302.481934 109.929565,293.107635 
	C113.344681,282.671356 116.582695,272.177185 119.995094,261.739990 
	C123.475327,251.095261 123.527107,251.115112 134.510422,250.989838 
	C135.339706,250.980362 136.168060,250.887375 137.924683,250.978394 
	C148.615448,250.929886 159.306198,250.881378 170.924622,250.978607 
	C183.948639,250.930099 196.972656,250.881577 210.833450,250.976578 
	C214.973770,250.177628 216.875717,252.111832 218.045227,256.010101 
	C219.684723,261.474915 221.951691,266.751465 224.022507,272.908752 
	C224.347595,274.314453 224.566650,275.754944 225.014786,277.120270 
	C228.152573,286.679779 228.919128,297.385223 238.285034,304.785126 
	C242.856079,305.801392 247.427109,306.817657 252.926132,307.976349 
	C267.177277,307.976349 281.428436,307.976349 297.290161,307.976349 
	C289.982788,289.370789 283.015076,271.630096 275.979462,253.127335 
M520.920471,307.970184 
	C525.279541,307.924683 529.638611,307.879181 534.926392,307.971008 
	C545.177185,307.971008 555.427979,307.971008 565.833618,307.971008 
	C565.833618,284.212555 565.833618,261.105743 565.967468,237.070190 
	C565.923035,226.713654 565.878540,216.357117 565.969055,205.087524 
	C565.923462,201.391327 565.877930,197.695129 565.967468,193.073929 
	C565.978271,189.106750 565.895935,185.135712 566.059692,181.174866 
	C566.105530,180.066971 566.580383,178.647293 567.370972,177.961166 
	C569.794678,175.857666 572.467285,174.040863 575.676758,171.808136 
	C584.834167,165.150177 594.763611,163.184097 605.979858,167.406281 
	C613.624146,172.419159 617.834229,179.451462 617.966736,188.626923 
	C618.151428,201.414825 618.110657,214.205963 618.028992,227.924667 
	C618.075378,253.948212 618.121765,279.971741 618.102661,306.853424 
	C619.034546,307.235168 619.963562,307.937897 620.898743,307.946106 
	C626.597534,307.996185 632.297791,307.888397 638.926575,307.968628 
	C650.173767,307.968628 661.420959,307.968628 672.833008,307.968628 
	C672.833008,282.535522 672.833008,257.767059 672.964539,232.069641 
	C672.920288,219.378845 672.875977,206.688049 672.963684,193.068970 
	C674.170898,178.034531 671.296936,163.839706 663.851501,150.705917 
	C662.405823,148.155807 660.005493,146.146881 657.744324,143.249542 
	C655.110168,140.281296 652.827881,136.872589 649.772278,134.432007 
	C642.283691,128.450821 633.643372,124.935379 623.239441,123.761253 
	C617.902954,123.508087 612.551941,122.896141 607.234558,123.112694 
	C602.802368,123.293205 598.409790,124.445534 593.237305,125.055351 
	C583.942566,127.727715 575.214294,131.490417 567.265625,138.251038 
	C567.122192,138.333115 566.986938,138.445282 566.832642,138.487335 
	C566.719299,138.518204 566.473206,138.469910 566.469177,138.435425 
	C566.299988,136.996140 566.028137,135.555130 566.019592,134.112869 
	C565.932678,119.407791 565.889038,104.702469 565.967041,89.068710 
	C565.967041,74.819519 565.967041,60.570324 565.967041,46.359009 
	C546.971497,46.359009 528.600586,46.359009 509.995453,46.359009 
	C509.995453,66.855690 509.975403,86.985466 510.000000,107.115181 
	C510.040253,140.075363 510.109528,173.035492 510.026245,206.924286 
	C510.072693,225.948715 510.119141,244.973129 510.028137,264.926331 
	C510.019501,277.757996 509.995575,290.589691 510.017578,303.421295 
	C510.021149,305.493286 509.476624,308.076050 513.865784,307.969849 
	C515.910461,307.924561 517.955078,307.879272 520.920471,307.970184 
M899.037109,408.926117 
	C899.037109,417.165161 899.037109,425.404205 899.037109,433.553650 
	C907.084045,433.553650 914.439514,433.553650 922.217773,433.553650 
	C922.217773,420.882446 922.217773,408.652191 922.217773,395.834564 
	C927.768372,395.834564 932.883484,395.834564 938.927002,395.964600 
	C944.515442,395.964600 950.103882,395.964600 956.140747,395.964600 
	C956.140747,409.018616 956.140747,421.266754 956.140747,433.583130 
	C963.986450,433.583130 971.349670,433.583130 978.692078,433.583130 
	C978.692078,403.273926 978.692078,373.379486 978.692078,343.400360 
	C971.010986,343.400360 963.645691,343.400360 955.824951,343.400360 
	C955.824951,355.716797 955.824951,367.634644 955.824951,380.165527 
	C951.575928,380.165527 947.785645,380.165527 943.065979,380.041412 
	C936.174072,380.041412 929.282166,380.041412 921.832153,380.041412 
	C921.832153,374.880432 921.832153,370.439850 921.958130,365.069458 
	C921.958130,357.835846 921.958130,350.602264 921.958130,343.415802 
	C913.936768,343.415802 906.587402,343.415802 899.167664,343.415802 
	C899.167664,365.220062 899.167664,386.608215 899.037109,408.926117 
M748.926453,433.965698 
	C760.469116,433.965698 772.011780,433.965698 783.629028,433.965698 
	C783.629028,427.691895 783.629028,422.007294 783.629028,416.167816 
	C773.839294,416.167816 764.417725,416.167816 754.134766,416.036957 
	C750.231873,416.490356 751.010986,413.664001 751.009094,411.487030 
	C750.990967,390.515900 751.000000,369.544739 751.001160,348.573608 
	C751.001282,346.818787 751.001160,345.063995 751.001160,343.266418 
	C743.007690,343.266418 735.757446,343.266418 728.317017,343.266418 
	C728.317017,373.550629 728.317017,403.562927 728.317017,433.832336 
	C735.089355,433.832336 741.543152,433.832336 748.926453,433.965698 
M671.692444,414.298950 
	C669.911499,413.150574 667.948914,412.207550 666.379822,410.819672 
	C657.786804,403.218964 655.828796,393.266785 657.099487,382.500366 
	C658.625183,369.573029 671.670776,360.181091 681.927795,360.807892 
	C688.250854,361.194275 693.781372,362.857269 699.050232,366.008698 
	C702.362427,367.989807 705.984314,369.378479 708.991638,366.241180 
	C711.672363,363.444519 713.638000,359.912567 715.613037,356.526520 
	C716.070435,355.742462 715.693481,353.624146 715.000000,353.154846 
	C710.695129,350.241699 706.428833,347.078156 701.705139,345.016052 
	C690.308594,340.040924 678.288696,340.420105 666.579895,343.382935 
	C656.991394,345.809235 648.099731,350.908752 642.732056,359.218445 
	C638.714966,365.437378 636.807129,373.215271 634.873535,380.540131 
	C631.474854,393.415100 635.411499,405.705872 642.220825,416.027588 
	C647.244934,423.643280 655.379883,429.579102 665.430847,432.769104 
	C674.178589,433.178955 682.935852,433.449005 691.671082,434.042480 
	C698.778625,434.525391 704.795532,431.644653 710.830078,428.586151 
	C714.757812,426.595520 716.413147,423.729279 716.117981,419.065857 
	C715.656128,411.765198 715.997192,404.413757 715.997803,397.083832 
	C715.998169,393.158081 715.997925,389.232330 715.997925,385.266510 
	C704.343445,385.266510 693.421814,385.266510 682.014160,385.266510 
	C682.014160,389.976562 681.779724,394.452972 682.175903,398.872894 
	C682.277283,400.004700 684.267944,401.659637 685.570923,401.851807 
	C688.585938,402.296448 691.711365,401.993164 694.873474,401.993164 
	C694.873474,406.630707 694.873474,410.440948 694.873474,414.428711 
	C687.271057,417.736206 679.709229,418.154816 671.692444,414.298950 
M446.707428,130.220551 
	C438.874237,127.817818 431.178162,124.518440 423.164948,123.293251 
	C416.639709,122.295570 409.734802,123.781006 402.177185,124.029213 
	C398.385712,124.894463 394.565765,125.652061 390.808105,126.645279 
	C379.803375,129.554031 371.110809,136.211502 363.012207,143.166183 
	C362.293549,140.336960 361.666443,137.480530 360.835541,134.684662 
	C359.457794,130.048599 355.681732,126.523743 351.614655,126.292549 
	C338.886780,125.569038 326.091766,126.026749 313.166534,126.026749 
	C313.166534,167.397919 313.166534,208.197128 313.023560,249.924454 
	C313.023560,269.170776 313.023560,288.417084 313.023560,307.833313 
	C318.405640,307.833313 323.201294,307.833313 328.925201,307.974976 
	C341.847260,307.974976 354.769287,307.974976 367.833282,307.974976 
	C367.833282,278.896942 367.833282,250.446945 367.970123,221.068878 
	C367.979980,208.737061 368.219177,196.398849 367.875397,184.076889 
	C367.754883,179.757141 369.588501,177.165848 372.737122,175.089798 
	C377.082336,172.224731 381.570190,169.575943 386.805756,166.948181 
	C405.203461,161.073593 418.474792,168.818054 420.061523,188.841064 
	C420.373444,190.927170 420.948975,193.012192 420.957489,195.099548 
	C421.073059,223.398239 421.109955,251.697250 421.024933,280.924561 
	C421.024933,289.845245 421.024933,298.765900 421.024933,307.629150 
	C439.682373,307.629150 457.714325,307.629150 475.992676,307.629150 
	C475.992676,305.276001 475.992523,303.293945 475.992676,301.311859 
	C475.996094,262.535492 476.067719,223.758835 475.907715,184.983139 
	C475.889832,180.651779 474.556549,176.325836 473.964386,171.200928 
	C471.585022,160.546921 467.380646,150.597626 460.436798,142.232285 
	C456.756042,137.798096 451.554993,134.625885 446.707428,130.220551 
M725.027649,198.923599 
	C725.027649,234.829559 725.027649,270.735535 725.027649,306.566345 
	C744.395508,306.566345 763.096130,306.566345 781.989319,306.566345 
	C781.989319,304.141785 781.989136,302.147675 781.989319,300.153564 
	C781.994019,244.355469 782.085022,188.557175 781.949524,132.759430 
	C781.910034,116.504059 781.224121,100.250267 780.956421,83.178894 
	C778.970581,74.786934 777.200073,66.336250 774.932312,58.021210 
	C773.043884,51.097080 769.712769,44.988056 759.985291,45.882023 
	C753.382202,46.488865 746.677917,45.993786 740.018860,45.992538 
	C735.098694,45.991611 730.178467,45.992359 724.994019,45.992359 
	C724.994019,60.529861 724.978760,74.329674 724.997009,88.129425 
	C725.045288,124.751129 725.108093,161.372818 725.027649,198.923599 
M793.004456,345.762390 
	C793.004456,375.028564 793.004456,404.294708 793.004456,433.581421 
	C801.015503,433.581421 808.388489,433.581421 815.672058,433.581421 
	C815.672058,403.245911 815.672058,373.327759 815.672058,343.015564 
	C808.713684,343.015564 802.078857,342.953766 795.448425,343.094971 
	C794.633118,343.112335 793.840942,344.214508 793.004456,345.762390 
z"/>
<path fill="#34B1E5" opacity="1.000000" stroke="none" 
	d="
M76.996582,307.832886 
	C66.193604,307.832886 55.390629,307.832886 42.972992,307.832886 
	C74.233589,222.927338 107.016098,139.275970 138.280548,55.026680 
	C155.124817,55.026680 171.596817,55.026680 188.451019,55.442982 
	C183.818680,67.082535 178.807327,78.307198 173.788971,89.528748 
	C162.315491,115.184570 150.873398,140.854523 139.352798,166.489182 
	C128.788177,189.996643 118.101921,213.449432 107.535141,236.955933 
	C98.262489,257.583588 89.045334,278.236420 79.901222,298.921265 
	C78.644440,301.764252 77.950890,304.856201 76.996582,307.832886 
z"/>
<path fill="#0F74BB" opacity="1.000000" stroke="none" 
	d="
M780.834534,83.995750 
	C781.224121,100.250267 781.910034,116.504059 781.949524,132.759430 
	C782.085022,188.557175 781.994019,244.355469 781.989319,300.153564 
	C781.989136,302.147675 781.989319,304.141785 781.989319,306.566345 
	C763.096130,306.566345 744.395508,306.566345 725.027649,306.566345 
	C725.027649,270.735535 725.027649,234.829559 725.440796,198.418854 
	C727.125305,196.497223 728.803223,195.276276 729.597046,193.629227 
	C732.848694,186.882538 735.825134,180.003357 738.913086,173.177597 
	C749.754944,149.212021 760.517212,125.209808 771.504822,101.311226 
	C774.238037,95.366234 777.704895,89.758492 780.834534,83.995750 
z"/>
<path fill="#116FB7" opacity="1.000000" stroke="none" 
	d="
M821.893799,272.048309 
	C817.938232,262.870056 812.667603,254.007965 810.365662,244.432190 
	C807.591858,232.893738 806.440796,220.763611 806.249390,208.862885 
	C806.059937,197.082748 809.590759,185.748337 813.903625,174.624542 
	C818.169189,163.623001 824.574036,154.090134 833.106201,146.552567 
	C841.502563,139.134933 850.270264,131.917084 861.819519,128.695740 
	C873.452576,125.451019 884.931824,122.542747 897.504822,123.474701 
	C895.049500,130.755768 892.109314,137.580719 889.290161,144.455322 
	C886.476257,151.317215 883.783630,158.228851 880.888611,165.421082 
	C872.941345,171.775772 865.722473,178.223831 864.459839,189.007599 
	C862.573364,190.262390 860.389160,191.196335 859.646545,192.798462 
	C848.986328,215.796906 838.573364,238.909866 827.951721,261.926422 
	C826.313538,265.476288 823.931702,268.682922 821.893799,272.048309 
z"/>
<path fill="#278BCB" opacity="1.000000" stroke="none" 
	d="
M510.166565,205.995651 
	C510.109528,173.035492 510.040253,140.075363 510.000000,107.115181 
	C509.975403,86.985466 509.995453,66.855690 509.995453,46.359009 
	C528.600586,46.359009 546.971497,46.359009 565.967041,46.359009 
	C565.967041,60.570324 565.967041,74.819519 565.590942,89.661194 
	C564.176575,91.905212 562.924561,93.460686 562.132812,95.222977 
	C552.960144,115.640327 543.850586,136.086029 534.738159,156.530411 
	C529.671875,167.896957 524.854248,179.381622 519.483154,190.601761 
	C516.905823,195.985901 513.304321,200.879776 510.166565,205.995651 
z"/>
<path fill="#2798D4" opacity="1.000000" stroke="none" 
	d="
M327.996948,307.833313 
	C323.201294,307.833313 318.405640,307.833313 313.023560,307.833313 
	C313.023560,288.417084 313.023560,269.170776 313.405396,249.330933 
	C314.575073,247.513458 315.526459,246.364227 316.125183,245.053848 
	C321.511841,233.265015 326.833252,221.446381 332.180176,209.639389 
	C339.929199,192.528320 347.612793,175.387039 355.480072,158.330490 
	C357.748810,153.411896 360.552765,148.740173 363.111359,143.955276 
	C371.110809,136.211502 379.803375,129.554031 390.808105,126.645279 
	C394.565765,125.652061 398.385712,124.894463 402.579346,124.478439 
	C401.039459,129.848053 399.139771,134.785690 397.146118,139.685104 
	C393.458740,148.746719 389.716370,157.785950 385.996948,166.834503 
	C381.570190,169.575943 377.082336,172.224731 372.737122,175.089798 
	C369.588501,177.165848 367.754883,179.757141 367.875397,184.076889 
	C368.219177,196.398849 367.979980,208.737061 367.556335,221.575302 
	C365.480438,224.404312 363.386353,226.530365 362.225983,229.081177 
	C354.409241,246.265152 346.705383,263.501984 339.142883,280.799469 
	C335.239166,289.728394 331.700531,298.816895 327.996948,307.833313 
z"/>
<path fill="#32ADE3" opacity="1.000000" stroke="none" 
	d="
M77.459000,307.905945 
	C77.950890,304.856201 78.644440,301.764252 79.901222,298.921265 
	C89.045334,278.236420 98.262489,257.583588 107.535141,236.955933 
	C118.101921,213.449432 128.788177,189.996643 139.352798,166.489182 
	C150.873398,140.854523 162.315491,115.184570 173.788971,89.528748 
	C178.807327,78.307198 183.818680,67.082535 188.914795,55.513161 
	C193.120895,55.167038 197.245407,55.167038 201.482941,55.167038 
	C203.661728,60.845158 205.837219,66.514732 207.764008,72.752335 
	C206.504623,74.610687 205.181427,75.761009 204.531128,77.212761 
	C197.060699,93.889809 189.773193,110.649399 182.200378,127.279274 
	C181.193222,129.491013 178.875824,131.106125 177.094559,132.611282 
	C174.691986,125.279259 172.360062,118.333481 169.829361,110.795624 
	C158.983994,143.996002 148.439209,176.276215 137.695190,209.166382 
	C143.372711,209.166382 148.185028,209.166382 152.995636,209.563568 
	C150.376282,216.879532 147.819077,223.821945 145.123825,230.710358 
	C142.488083,237.446655 139.711563,244.127838 136.996841,250.833221 
	C136.168060,250.887375 135.339706,250.980362 134.510422,250.989838 
	C123.527107,251.115112 123.475327,251.095261 119.995094,261.739990 
	C116.582695,272.177185 113.344681,282.671356 109.929565,293.107635 
	C106.861977,302.481934 99.452850,307.813477 89.408279,307.988617 
	C85.580551,308.055389 81.750443,307.986237 77.459000,307.905945 
z"/>
<path fill="#1279BF" opacity="1.000000" stroke="none" 
	d="
M780.895508,83.587326 
	C777.704895,89.758492 774.238037,95.366234 771.504822,101.311226 
	C760.517212,125.209808 749.754944,149.212021 738.913086,173.177597 
	C735.825134,180.003357 732.848694,186.882538 729.597046,193.629227 
	C728.803223,195.276276 727.125305,196.497223 725.509521,197.954315 
	C725.108093,161.372818 725.045288,124.751129 724.997009,88.129425 
	C724.978760,74.329674 724.994019,60.529861 724.994019,45.992359 
	C730.178467,45.992359 735.098694,45.991611 740.018860,45.992538 
	C746.677917,45.993786 753.382202,46.488865 759.985291,45.882023 
	C769.712769,44.988056 773.043884,51.097080 774.932312,58.021210 
	C777.200073,66.336250 778.970581,74.786934 780.895508,83.587326 
z"/>
<path fill="#278CCC" opacity="1.000000" stroke="none" 
	d="
M473.833313,171.997391 
	C474.556549,176.325836 475.889832,180.651779 475.907715,184.983139 
	C476.067719,223.758835 475.996094,262.535492 475.992676,301.311859 
	C475.992523,303.293945 475.992676,305.276001 475.992676,307.629150 
	C457.714325,307.629150 439.682373,307.629150 421.024933,307.629150 
	C421.024933,298.765900 421.024933,289.845245 421.418854,280.366699 
	C423.002686,278.283905 424.514313,276.912170 425.326294,275.207214 
	C428.677368,268.170990 431.843079,261.045776 435.028137,253.931412 
	C444.441010,232.906448 453.690155,211.806473 463.312653,190.878067 
	C466.313324,184.351761 470.298706,178.278214 473.833313,171.997391 
z"/>
<path fill="#197EC2" opacity="1.000000" stroke="none" 
	d="
M618.168152,305.995300 
	C618.121765,279.971741 618.075378,253.948212 618.403015,227.339172 
	C620.218079,224.767853 622.038147,222.955383 623.038696,220.768066 
	C629.449341,206.753433 635.620056,192.629288 641.988525,178.595123 
	C647.255859,166.987610 652.687012,155.454437 658.045532,143.888336 
	C660.005493,146.146881 662.405823,148.155807 663.851501,150.705917 
	C671.296936,163.839706 674.170898,178.034531 672.574341,193.628387 
	C670.994629,195.716782 669.499512,197.099075 668.678284,198.805649 
	C667.025818,202.239655 665.855591,205.902283 664.285461,209.379883 
	C651.709778,237.234207 639.177612,265.109009 626.390442,292.866241 
	C624.247498,297.518005 620.938354,301.632507 618.168152,305.995300 
z"/>
<path fill="#2791CF" opacity="1.000000" stroke="none" 
	d="
M473.898865,171.599152 
	C470.298706,178.278214 466.313324,184.351761 463.312653,190.878067 
	C453.690155,211.806473 444.441010,232.906448 435.028137,253.931412 
	C431.843079,261.045776 428.677368,268.170990 425.326294,275.207214 
	C424.514313,276.912170 423.002686,278.283905 421.489532,279.902527 
	C421.109955,251.697250 421.073059,223.398239 420.957489,195.099548 
	C420.948975,193.012192 420.373444,190.927170 420.441254,188.322205 
	C421.870148,186.399506 423.175293,185.118698 423.920380,183.568710 
	C426.140686,178.949829 428.170990,174.238297 430.221802,169.539474 
	C435.842682,156.660736 441.436035,143.769974 447.040283,130.883972 
	C451.554993,134.625885 456.756042,137.798096 460.436798,142.232285 
	C467.380646,150.597626 471.585022,160.546921 473.898865,171.599152 
z"/>
<path fill="#289CD7" opacity="1.000000" stroke="none" 
	d="
M363.061768,143.560730 
	C360.552765,148.740173 357.748810,153.411896 355.480072,158.330490 
	C347.612793,175.387039 339.929199,192.528320 332.180176,209.639389 
	C326.833252,221.446381 321.511841,233.265015 316.125183,245.053848 
	C315.526459,246.364227 314.575073,247.513458 313.476868,248.866882 
	C313.166534,208.197128 313.166534,167.397919 313.166534,126.026749 
	C326.091766,126.026749 338.886780,125.569038 351.614655,126.292549 
	C355.681732,126.523743 359.457794,130.048599 360.835541,134.684662 
	C361.666443,137.480530 362.293549,140.336960 363.061768,143.560730 
z"/>
<path fill="#2787C9" opacity="1.000000" stroke="none" 
	d="
M510.096405,206.459961 
	C513.304321,200.879776 516.905823,195.985901 519.483154,190.601761 
	C524.854248,179.381622 529.671875,167.896957 534.738159,156.530411 
	C543.850586,136.086029 552.960144,115.640327 562.132812,95.222977 
	C562.924561,93.460686 564.176575,91.905212 565.524048,90.125443 
	C565.889038,104.702469 565.932678,119.407791 566.019592,134.112869 
	C566.028137,135.555130 566.299988,136.996140 566.469177,138.435425 
	C566.473206,138.469910 566.719299,138.518204 566.832642,138.487335 
	C566.986938,138.445282 567.122192,138.333115 567.623169,138.595062 
	C565.231995,145.495178 562.600159,152.103180 559.715027,158.598633 
	C544.874573,192.009750 530.007507,225.409195 514.993896,258.742523 
	C514.066528,260.801422 511.805908,262.259796 510.165619,263.997559 
	C510.119141,244.973129 510.072693,225.948715 510.096405,206.459961 
z"/>
<path fill="#2586C8" opacity="1.000000" stroke="none" 
	d="
M510.096863,264.461945 
	C511.805908,262.259796 514.066528,260.801422 514.993896,258.742523 
	C530.007507,225.409195 544.874573,192.009750 559.715027,158.598633 
	C562.600159,152.103180 565.231995,145.495178 567.990112,138.552765 
	C575.214294,131.490417 583.942566,127.727715 593.588257,125.478691 
	C590.013672,134.826141 585.938660,143.688416 582.213318,152.695312 
	C579.578186,159.066391 577.416321,165.633209 575.043091,172.112610 
	C572.467285,174.040863 569.794678,175.857666 567.370972,177.961166 
	C566.580383,178.647293 566.105530,180.066971 566.059692,181.174866 
	C565.895935,185.135712 565.978271,189.106750 565.574158,193.633240 
	C562.797974,198.264496 560.049255,202.169083 558.096375,206.437759 
	C550.228638,223.635223 542.577759,240.932327 534.902161,258.217255 
	C527.565125,274.739807 520.296936,291.292938 512.998535,307.832672 
	C509.476624,308.076050 510.021149,305.493286 510.017578,303.421295 
	C509.995575,290.589691 510.019501,277.757996 510.096863,264.461945 
z"/>
<path fill="#2FA6DE" opacity="1.000000" stroke="none" 
	d="
M209.996674,250.833069 
	C196.972656,250.881577 183.948639,250.930099 170.463531,250.511688 
	C170.678436,247.676239 171.101868,245.198257 172.072922,242.957611 
	C176.969101,231.660080 182.007965,220.424423 187.457825,209.094223 
	C191.734039,209.012711 195.555603,209.120041 199.359589,208.909760 
	C200.255615,208.860229 201.092484,207.740097 202.136017,206.806030 
	C211.235275,187.095093 220.106522,167.667999 229.135757,148.314590 
	C230.276764,145.868927 232.247070,143.810181 233.833160,141.572159 
	C237.217896,150.480438 240.594025,159.392014 243.996582,168.293488 
	C244.513199,169.645020 245.152527,170.949646 245.477371,172.762512 
	C244.201401,174.722519 242.940353,176.084213 242.202484,177.686798 
	C234.859100,193.635818 227.496231,209.577545 220.364319,225.621536 
	C216.674774,233.921509 213.438004,242.422760 209.996674,250.833069 
z"/>
<path fill="#0F76BC" opacity="1.000000" stroke="none" 
	d="
M664.964111,432.122040 
	C655.379883,429.579102 647.244934,423.643280 642.220825,416.027588 
	C635.411499,405.705872 631.474854,393.415100 634.873535,380.540131 
	C636.807129,373.215271 638.714966,365.437378 642.732056,359.218445 
	C648.099731,350.908752 656.991394,345.809235 666.579895,343.382935 
	C678.288696,340.420105 690.308594,340.040924 701.705139,345.016052 
	C706.428833,347.078156 710.695129,350.241699 715.000000,353.154846 
	C715.693481,353.624146 716.070435,355.742462 715.613037,356.526520 
	C713.638000,359.912567 711.672363,363.444519 708.991638,366.241180 
	C705.984314,369.378479 702.362427,367.989807 699.050232,366.008698 
	C693.781372,362.857269 688.250854,361.194275 681.927795,360.807892 
	C671.670776,360.181091 658.625183,369.573029 657.099487,382.500366 
	C655.828796,393.266785 657.786804,403.218964 666.379822,410.819672 
	C667.948914,412.207550 669.911499,413.150574 671.788757,414.958191 
	C669.578125,421.118988 667.271118,426.620514 664.964111,432.122040 
z"/>
<path fill="#146CB5" opacity="1.000000" stroke="none" 
	d="
M821.952393,272.400330 
	C823.931702,268.682922 826.313538,265.476288 827.951721,261.926422 
	C838.573364,238.909866 848.986328,215.796906 859.646545,192.798462 
	C860.389160,191.196335 862.573364,190.262390 864.375854,189.393036 
	C864.467529,191.071671 864.270630,192.375015 863.999939,194.166519 
	C871.819092,194.166519 878.908997,194.166519 885.997009,194.558716 
	C883.844116,200.272491 881.705444,205.599091 879.538818,210.914230 
	C877.373230,216.226578 875.179565,221.527435 872.998169,226.833313 
	C869.765015,226.833313 866.531921,226.833313 862.363770,226.833313 
	C864.017395,233.463730 865.444885,239.187363 866.520508,245.536682 
	C865.458801,247.062637 864.548035,247.868179 864.071594,248.878540 
	C860.986206,255.422485 857.962769,261.996277 854.982056,268.588806 
	C851.174805,277.009491 847.427002,285.457062 843.653625,293.893036 
	C836.458679,291.110321 832.195740,284.950317 827.284363,279.569183 
	C825.354126,277.454254 823.758728,275.033752 821.952393,272.400330 
z"/>
<path fill="#1D81C4" opacity="1.000000" stroke="none" 
	d="
M657.894897,143.568939 
	C652.687012,155.454437 647.255859,166.987610 641.988525,178.595123 
	C635.620056,192.629288 629.449341,206.753433 623.038696,220.768066 
	C622.038147,222.955383 620.218079,224.767853 618.471680,226.874695 
	C618.110657,214.205963 618.151428,201.414825 617.966736,188.626923 
	C617.834229,179.451462 613.624146,172.419159 605.919312,166.724411 
	C607.171875,162.830109 608.420532,159.589554 609.809631,156.410385 
	C614.510925,145.650864 619.262024,134.913132 623.994080,124.167053 
	C633.643372,124.935379 642.283691,128.450821 649.772278,134.432007 
	C652.827881,136.872589 655.110168,140.281296 657.894897,143.568939 
z"/>
<path fill="#1B65B1" opacity="1.000000" stroke="none" 
	d="
M961.050171,150.892365 
	C969.968079,162.104797 976.804932,174.150009 977.037231,189.045471 
	C977.168762,197.477844 977.787231,205.902496 977.927124,214.334930 
	C977.975586,217.254623 977.817200,220.424255 976.731567,223.058655 
	C975.091431,227.038406 970.859192,226.880142 967.367310,226.924179 
	C954.223145,227.089920 941.075317,226.975067 927.545532,226.556702 
	C938.458130,201.062851 949.754150,175.977615 961.050171,150.892365 
z"/>
<path fill="#135EAC" opacity="1.000000" stroke="none" 
	d="
M943.995361,380.165527 
	C947.785645,380.165527 951.575928,380.165527 955.824951,380.165527 
	C955.824951,367.634644 955.824951,355.716797 955.824951,343.400360 
	C963.645691,343.400360 971.010986,343.400360 978.692078,343.400360 
	C978.692078,373.379486 978.692078,403.273926 978.692078,433.583130 
	C971.349670,433.583130 963.986450,433.583130 956.140747,433.583130 
	C956.140747,421.266754 956.140747,409.018616 956.140747,395.964600 
	C950.103882,395.964600 944.515442,395.964600 938.544373,395.556213 
	C940.106262,390.153687 942.050781,385.159607 943.995361,380.165527 
z"/>
<path fill="#1279BF" opacity="1.000000" stroke="none" 
	d="
M599.049316,392.891357 
	C600.634216,393.899323 602.219055,394.907288 603.486816,395.713562 
	C603.486816,378.606781 603.486816,361.110870 603.486816,343.302734 
	C609.985962,343.302734 616.579895,343.302734 623.589722,343.302734 
	C623.589722,373.235931 623.589722,403.270264 623.589722,433.980408 
	C618.731140,433.980408 613.799744,434.064850 608.875916,433.909912 
	C607.880066,433.878571 606.614685,433.180573 605.978760,432.385742 
	C600.254700,425.230835 594.643433,417.985687 589.173340,410.143005 
	C592.581604,403.976471 595.815430,398.433929 599.049316,392.891357 
z"/>
<path fill="#31AAE1" opacity="1.000000" stroke="none" 
	d="
M177.165207,132.997528 
	C178.875824,131.106125 181.193222,129.491013 182.200378,127.279274 
	C189.773193,110.649399 197.060699,93.889809 204.531128,77.212761 
	C205.181427,75.761009 206.504623,74.610687 207.813568,73.136765 
	C212.987656,85.394051 217.863464,97.834923 222.476242,110.765564 
	C220.356720,115.072319 218.400055,118.844330 216.662613,122.714752 
	C211.511169,134.190491 206.588760,145.771286 201.289825,157.177689 
	C198.458206,163.272964 195.035400,169.093613 191.555176,174.848312 
	C188.823959,167.621704 186.395462,160.592270 184.016190,153.546204 
	C181.706268,146.705521 179.446823,139.847778 177.165207,132.997528 
z"/>
<path fill="#2795D2" opacity="1.000000" stroke="none" 
	d="
M446.873871,130.552261 
	C441.436035,143.769974 435.842682,156.660736 430.221802,169.539474 
	C428.170990,174.238297 426.140686,178.949829 423.920380,183.568710 
	C423.175293,185.118698 421.870148,186.399506 420.494293,187.899551 
	C418.474792,168.818054 405.203461,161.073593 386.401337,166.891342 
	C389.716370,157.785950 393.458740,148.746719 397.146118,139.685104 
	C399.139771,134.785690 401.039459,129.848053 402.989899,124.546494 
	C409.734802,123.781006 416.639709,122.295570 423.164948,123.293251 
	C431.178162,124.518440 438.874237,127.817818 446.873871,130.552261 
z"/>
<path fill="#106FB8" opacity="1.000000" stroke="none" 
	d="
M747.997009,433.832336 
	C741.543152,433.832336 735.089355,433.832336 728.317017,433.832336 
	C728.317017,403.562927 728.317017,373.550629 728.317017,343.266418 
	C735.757446,343.266418 743.007690,343.266418 751.001160,343.266418 
	C751.001160,345.063995 751.001282,346.818787 751.001160,348.573608 
	C751.000000,369.544739 750.990967,390.515900 751.009094,411.487030 
	C751.010986,413.664001 750.231873,416.490356 754.535767,416.473236 
	C752.623474,422.550446 750.310242,428.191376 747.997009,433.832336 
z"/>
<path fill="#2BA0DA" opacity="1.000000" stroke="none" 
	d="
M237.959106,304.115173 
	C228.919128,297.385223 228.152573,286.679779 225.014786,277.120270 
	C224.566650,275.754944 224.347595,274.314453 224.168030,272.202026 
	C232.423874,253.524094 240.447449,235.512848 248.702301,217.608231 
	C250.910004,212.819778 251.333389,206.855240 256.834564,203.998383 
	C261.227386,214.726730 265.620239,225.455078 269.771912,236.762711 
	C264.720490,247.298691 259.838745,257.221619 255.118256,267.220673 
	C249.328079,279.485596 243.672729,291.814148 237.959106,304.115173 
z"/>
<path fill="#156AB5" opacity="1.000000" stroke="none" 
	d="
M793.021240,345.288208 
	C793.840942,344.214508 794.633118,343.112335 795.448425,343.094971 
	C802.078857,342.953766 808.713684,343.015564 815.672058,343.015564 
	C815.672058,373.327759 815.672058,403.245911 815.672058,433.581421 
	C808.388489,433.581421 801.015503,433.581421 793.004456,433.581421 
	C793.004456,404.294708 793.004456,375.028564 793.021240,345.288208 
z"/>
<path fill="#1A64B0" opacity="1.000000" stroke="none" 
	d="
M937.958496,257.882080 
	C943.867859,255.991226 949.696228,251.546143 956.036743,255.117599 
	C960.140503,257.429169 963.498474,261.171204 966.929688,264.538086 
	C969.922668,267.474915 972.768494,270.621155 975.273865,273.977570 
	C977.457336,276.902679 978.425415,280.333557 975.146423,283.283569 
	C967.096863,290.525696 958.293396,296.541290 948.513550,301.403687 
	C938.748718,306.258667 928.382019,307.600067 917.491516,308.690399 
	C920.607910,299.782593 924.135010,291.212067 927.678772,282.648438 
	C931.096436,274.389282 934.531250,266.137268 937.958496,257.882080 
z"/>
<path fill="#2795D2" opacity="1.000000" stroke="none" 
	d="
M328.461060,307.904144 
	C331.700531,298.816895 335.239166,289.728394 339.142883,280.799469 
	C346.705383,263.501984 354.409241,246.265152 362.225983,229.081177 
	C363.386353,226.530365 365.480438,224.404312 367.487915,222.039337 
	C367.833282,250.446945 367.833282,278.896942 367.833282,307.974976 
	C354.769287,307.974976 341.847260,307.974976 328.461060,307.904144 
z"/>
<path fill="#2DA3DB" opacity="1.000000" stroke="none" 
	d="
M256.903687,203.590347 
	C251.333389,206.855240 250.910004,212.819778 248.702301,217.608231 
	C240.447449,235.512848 232.423874,253.524094 224.131897,271.801941 
	C221.951691,266.751465 219.684723,261.474915 218.045227,256.010101 
	C216.875717,252.111832 214.973770,250.177628 210.415070,250.904816 
	C213.438004,242.422760 216.674774,233.921509 220.364319,225.621536 
	C227.496231,209.577545 234.859100,193.635818 242.202484,177.686798 
	C242.940353,176.084213 244.201401,174.722519 245.526306,173.123215 
	C249.220688,181.334091 252.658554,189.651047 255.952240,198.024734 
	C256.583435,199.629456 256.647247,201.457367 256.903687,203.590347 
z"/>
<path fill="#157CC0" opacity="1.000000" stroke="none" 
	d="
M618.135376,306.424377 
	C620.938354,301.632507 624.247498,297.518005 626.390442,292.866241 
	C639.177612,265.109009 651.709778,237.234207 664.285461,209.379883 
	C665.855591,205.902283 667.025818,202.239655 668.678284,198.805649 
	C669.499512,197.099075 670.994629,195.716782 672.508301,194.092529 
	C672.875977,206.688049 672.920288,219.378845 672.592224,232.659882 
	C671.198669,234.728989 669.937256,236.096924 669.194763,237.704514 
	C663.898071,249.171921 658.630676,260.654205 653.503967,272.198425 
	C648.246399,284.037231 643.159241,295.951813 637.997559,307.833252 
	C632.297791,307.888397 626.597534,307.996185 620.898743,307.946106 
	C619.963562,307.937897 619.034546,307.235168 618.135376,306.424377 
z"/>
<path fill="#0F72BA" opacity="1.000000" stroke="none" 
	d="
M665.197510,432.445557 
	C667.271118,426.620514 669.578125,421.118988 671.964600,415.252319 
	C679.709229,418.154816 687.271057,417.736206 694.873474,414.428711 
	C694.873474,410.440948 694.873474,406.630707 694.873474,401.993164 
	C691.711365,401.993164 688.585938,402.296448 685.570923,401.851807 
	C684.267944,401.659637 682.277283,400.004700 682.175903,398.872894 
	C681.779724,394.452972 682.014160,389.976562 682.014160,385.266510 
	C693.421814,385.266510 704.343445,385.266510 715.997925,385.266510 
	C715.997925,389.232330 715.998169,393.158081 715.997803,397.083832 
	C715.997192,404.413757 715.656128,411.765198 716.117981,419.065857 
	C716.413147,423.729279 714.757812,426.595520 710.830078,428.586151 
	C704.795532,431.644653 698.778625,434.525391 691.671082,434.042480 
	C682.935852,433.449005 674.178589,433.178955 665.197510,432.445557 
z"/>
<path fill="#1967B3" opacity="1.000000" stroke="none" 
	d="
M961.014160,150.539459 
	C949.754150,175.977615 938.458130,201.062851 927.080933,226.491241 
	C920.309937,226.877380 913.620117,226.920395 906.546570,226.546326 
	C908.844849,219.946732 911.634644,213.808075 914.172119,207.566864 
	C915.958801,203.172318 917.402588,198.638412 919.450073,194.101944 
	C922.824951,194.037155 925.749329,194.037155 929.146118,194.037155 
	C928.312378,189.259262 927.594849,185.147461 927.129517,180.802658 
	C933.933472,166.339523 940.485291,152.109375 947.037109,137.879227 
	C951.684082,141.981674 956.331055,146.084106 961.014160,150.539459 
z"/>
<path fill="#2FA8DF" opacity="1.000000" stroke="none" 
	d="
M191.879425,175.038208 
	C195.035400,169.093613 198.458206,163.272964 201.289825,157.177689 
	C206.588760,145.771286 211.511169,134.190491 216.662613,122.714752 
	C218.400055,118.844330 220.356720,115.072319 222.523590,111.126694 
	C225.244873,121.398849 229.912796,130.960144 233.870728,141.171844 
	C232.247070,143.810181 230.276764,145.868927 229.135757,148.314590 
	C220.106522,167.667999 211.235275,187.095093 201.804626,206.615356 
	C198.155640,196.166840 195.017532,185.602524 191.879425,175.038208 
z"/>
<path fill="#1279BF" opacity="1.000000" stroke="none" 
	d="
M638.462036,307.900940 
	C643.159241,295.951813 648.246399,284.037231 653.503967,272.198425 
	C658.630676,260.654205 663.898071,249.171921 669.194763,237.704514 
	C669.937256,236.096924 671.198669,234.728989 672.526489,233.124359 
	C672.833008,257.767059 672.833008,282.535522 672.833008,307.968628 
	C661.420959,307.968628 650.173767,307.968628 638.462036,307.900940 
z"/>
<path fill="#1761AE" opacity="1.000000" stroke="none" 
	d="
M943.530640,380.103455 
	C942.050781,385.159607 940.106262,390.153687 938.080139,395.491180 
	C932.883484,395.834564 927.768372,395.834564 922.217773,395.834564 
	C922.217773,408.652191 922.217773,420.882446 922.217773,433.553650 
	C914.439514,433.553650 907.084045,433.553650 899.037109,433.553650 
	C899.037109,425.404205 899.037109,417.165161 899.425720,408.367126 
	C901.216553,405.846558 902.961548,404.044739 903.963074,401.896362 
	C908.912292,391.279633 913.613708,380.547516 918.544922,369.922180 
	C919.238464,368.427856 920.717041,367.297882 921.832153,365.999237 
	C921.832153,370.439850 921.832153,374.880432 921.832153,380.041412 
	C929.282166,380.041412 936.174072,380.041412 943.530640,380.103455 
z"/>
<path fill="#1B65B1" opacity="1.000000" stroke="none" 
	d="
M937.597290,257.942627 
	C934.531250,266.137268 931.096436,274.389282 927.678772,282.648438 
	C924.135010,291.212067 920.607910,299.782593 917.055420,308.737213 
	C908.950623,309.550812 900.865845,310.024536 892.775635,310.369690 
	C890.820007,310.453094 888.846130,310.111755 886.469238,309.536499 
	C888.563843,303.020020 891.015747,296.909729 893.589966,290.851440 
	C896.671448,283.599365 899.857483,276.391724 902.998291,269.164856 
	C915.419617,268.538544 926.581665,264.049408 937.597290,257.942627 
z"/>
<path fill="#31AAE1" opacity="1.000000" stroke="none" 
	d="
M186.996765,209.167053 
	C182.007965,220.424423 176.969101,231.660080 172.072922,242.957611 
	C171.101868,245.198257 170.678436,247.676239 169.999710,250.438812 
	C159.306198,250.881378 148.615448,250.929886 137.460754,250.905807 
	C139.711563,244.127838 142.488083,237.446655 145.123825,230.710358 
	C147.819077,223.821945 150.376282,216.879532 153.459503,209.490967 
	C164.948990,209.069809 175.972885,209.118439 186.996765,209.167053 
z"/>
<path fill="#2384C7" opacity="1.000000" stroke="none" 
	d="
M533.997681,307.833679 
	C529.638611,307.879181 525.279541,307.924683 520.469604,307.515747 
	C520.625244,304.832977 520.948059,302.477509 521.880981,300.395447 
	C535.443298,270.127441 549.071045,239.888611 562.763916,209.679443 
	C563.399414,208.277344 564.793396,207.219025 565.834106,206.000580 
	C565.878540,216.357117 565.923035,226.713654 565.592896,237.661026 
	C564.275085,239.577866 563.091431,240.793716 562.425964,242.246887 
	C555.735657,256.856384 549.015381,271.454285 542.550720,286.164093 
	C539.428650,293.268158 536.832153,300.603210 533.997681,307.833679 
z"/>
<path fill="#289CD7" opacity="1.000000" stroke="none" 
	d="
M276.047333,253.889374 
	C283.015076,271.630096 289.982788,289.370789 297.290161,307.976349 
	C281.428436,307.976349 267.177277,307.976349 252.492767,307.537720 
	C254.405945,301.471222 256.599670,295.773621 259.130310,290.229828 
	C264.678772,278.074982 270.397888,265.998108 276.047333,253.889374 
z"/>
<path fill="#2485C7" opacity="1.000000" stroke="none" 
	d="
M623.616760,123.964157 
	C619.262024,134.913132 614.510925,145.650864 609.809631,156.410385 
	C608.420532,159.589554 607.171875,162.830109 605.741821,166.461304 
	C594.763611,163.184097 584.834167,165.150177 575.359985,171.960388 
	C577.416321,165.633209 579.578186,159.066391 582.213318,152.695312 
	C585.938660,143.688416 590.013672,134.826141 593.969421,125.534729 
	C598.409790,124.445534 602.802368,123.293205 607.234558,123.112694 
	C612.551941,122.896141 617.902954,123.508087 623.616760,123.964157 
z"/>
<path fill="#156AB5" opacity="1.000000" stroke="none" 
	d="
M881.037842,165.118683 
	C883.783630,158.228851 886.476257,151.317215 889.290161,144.455322 
	C892.109314,137.580719 895.049500,130.755768 897.966248,123.538116 
	C908.617371,122.455544 918.756042,124.638191 928.695801,128.908325 
	C925.515137,136.767426 922.431641,144.066284 919.012512,151.204361 
	C916.901550,155.611313 914.279358,159.773331 911.487854,164.023621 
	C900.940430,160.834213 890.911316,160.882828 881.037842,165.118683 
z"/>
<path fill="#2082C5" opacity="1.000000" stroke="none" 
	d="
M496.996552,380.165192 
	C505.777008,380.165192 514.557495,380.165192 523.666870,380.165192 
	C523.666870,385.710266 523.666870,391.080933 523.666870,396.836639 
	C514.621826,396.836639 505.705200,396.836639 496.395905,396.836639 
	C496.395905,403.241913 496.395905,409.280792 496.395905,416.032898 
	C499.895905,416.032898 503.488190,416.032898 507.510010,416.463623 
	C505.958740,422.540619 503.977966,428.186920 501.997192,433.833221 
	C492.524506,433.833221 483.051849,433.833221 473.209412,433.833221 
	C473.143921,432.404633 473.085876,431.138428 473.419495,429.341370 
	C474.623840,428.024811 475.765839,427.388519 476.200134,426.431183 
	C483.185516,411.033325 490.080780,395.594604 496.996552,380.165192 
z"/>
<path fill="#2082C5" opacity="1.000000" stroke="none" 
	d="
M534.462036,307.902344 
	C536.832153,300.603210 539.428650,293.268158 542.550720,286.164093 
	C549.015381,271.454285 555.735657,256.856384 562.425964,242.246887 
	C563.091431,240.793716 564.275085,239.577866 565.525940,238.125397 
	C565.833618,261.105743 565.833618,284.212555 565.833618,307.971008 
	C555.427979,307.971008 545.177185,307.971008 534.462036,307.902344 
z"/>
<path fill="#1B80C3" opacity="1.000000" stroke="none" 
	d="
M544.167114,411.997101 
	C544.167114,389.249939 544.167114,366.502777 544.167114,343.027435 
	C549.297363,343.027435 554.374390,342.985657 559.449036,343.074768 
	C560.167114,343.087372 561.074890,343.564178 561.553772,344.120026 
	C565.021484,348.145142 568.401489,352.245819 571.670471,356.831604 
	C570.391785,359.152191 569.021851,360.859772 568.148804,362.791901 
	C561.655396,377.162170 555.331543,391.609528 548.761292,405.944183 
	C547.731262,408.191589 545.723022,409.990692 544.167114,411.997101 
z"/>
<path fill="#197EC2" opacity="1.000000" stroke="none" 
	d="
M544.098999,412.461548 
	C545.723022,409.990692 547.731262,408.191589 548.761292,405.944183 
	C555.331543,391.609528 561.655396,377.162170 568.148804,362.791901 
	C569.021851,360.859772 570.391785,359.152191 571.820068,357.146973 
	C575.322998,361.059845 578.537476,365.166412 581.744324,369.908447 
	C578.455017,376.711914 575.173279,382.879974 571.891479,389.048065 
	C568.882751,386.548584 565.874023,384.049103 563.248779,381.868195 
	C563.248779,398.189911 563.248779,415.687500 563.248779,433.589966 
	C556.767883,433.589966 550.728149,433.589966 544.030823,433.589966 
	C544.030823,426.761658 544.030823,419.843811 544.098999,412.461548 
z"/>
<path fill="#156AB5" opacity="1.000000" stroke="none" 
	d="
M843.820679,294.156311 
	C847.427002,285.457062 851.174805,277.009491 854.982056,268.588806 
	C857.962769,261.996277 860.986206,255.422485 864.071594,248.878540 
	C864.548035,247.868179 865.458801,247.062637 866.500122,245.959244 
	C869.661621,252.873535 875.559387,257.358673 880.793213,262.846069 
	C874.401245,277.239319 868.199951,291.036285 861.998657,304.833221 
	C855.995056,301.362000 849.991394,297.890808 843.820679,294.156311 
z"/>
<path fill="#1A64B0" opacity="1.000000" stroke="none" 
	d="
M921.895142,365.534363 
	C920.717041,367.297882 919.238464,368.427856 918.544922,369.922180 
	C913.613708,380.547516 908.912292,391.279633 903.963074,401.896362 
	C902.961548,404.044739 901.216553,405.846558 899.490967,407.902283 
	C899.167664,386.608215 899.167664,365.220062 899.167664,343.415802 
	C906.587402,343.415802 913.936768,343.415802 921.958130,343.415802 
	C921.958130,350.602264 921.958130,357.835846 921.895142,365.534363 
z"/>
<path fill="#2384C7" opacity="1.000000" stroke="none" 
	d="
M496.638550,379.906830 
	C490.080780,395.594604 483.185516,411.033325 476.200134,426.431183 
	C475.765839,427.388519 474.623840,428.024811 473.488037,428.904205 
	C473.119598,419.307404 473.074280,409.616882 473.424194,399.365723 
	C475.544525,395.873840 477.544434,393.067963 478.948364,389.990173 
	C486.050079,374.421448 492.996796,358.781982 499.997894,343.167358 
	C504.689972,343.122223 509.382019,343.077118 514.507019,343.462891 
	C512.959106,349.207214 510.978333,354.520630 508.997559,359.834045 
	C504.867523,359.834045 500.737457,359.834045 496.280548,359.834045 
	C496.280548,366.797791 496.280548,373.223114 496.638550,379.906830 
z"/>
<path fill="#1868B3" opacity="1.000000" stroke="none" 
	d="
M911.886658,164.045319 
	C914.279358,159.773331 916.901550,155.611313 919.012512,151.204361 
	C922.431641,144.066284 925.515137,136.767426 928.896118,129.215408 
	C936.056702,129.348038 941.679077,132.720184 946.889404,137.576508 
	C940.485291,152.109375 933.933472,166.339523 926.836548,180.620880 
	C923.195801,176.618118 920.203308,172.478973 916.956848,168.549591 
	C915.533936,166.827438 913.592651,165.533600 911.886658,164.045319 
z"/>
<path fill="#1B65B1" opacity="1.000000" stroke="none" 
	d="
M844.037415,412.878662 
	C847.160156,414.154968 850.196533,415.739868 853.423828,416.642212 
	C859.809753,418.427765 866.166077,414.655334 866.626648,408.198364 
	C866.795044,405.837769 864.238220,402.951904 862.304443,400.886292 
	C860.973206,399.464355 858.574707,399.041656 856.407227,397.660553 
	C859.142029,391.082397 862.122742,385.016022 865.103455,378.949646 
	C870.663818,381.408234 876.224243,383.866821 881.695129,386.887451 
	C876.721130,398.178925 871.795349,408.889832 866.971436,419.646484 
	C864.872314,424.327301 862.982727,429.102051 860.997925,433.834137 
	C853.056335,433.954987 845.030701,435.020844 837.209229,431.037628 
	C838.029114,427.771057 838.322327,424.312225 840.187988,422.822083 
	C843.698242,420.018402 844.252014,416.764923 844.037415,412.878662 
z"/>
<path fill="#1868B3" opacity="1.000000" stroke="none" 
	d="
M855.041687,360.114899 
	C850.971436,362.179138 847.663452,364.705719 848.851135,370.778137 
	C845.445862,378.037109 842.200745,384.574432 838.955566,391.111755 
	C836.307251,388.745911 832.631287,386.885040 831.179626,383.931122 
	C822.644104,366.562286 829.728455,344.513489 853.833130,341.996674 
	C856.080627,341.762024 858.325317,341.500153 860.771118,341.949036 
	C858.994568,348.469757 857.018127,354.292328 855.041687,360.114899 
z"/>
<path fill="#2A9ED8" opacity="1.000000" stroke="none" 
	d="
M276.013397,253.508362 
	C270.397888,265.998108 264.678772,278.074982 259.130310,290.229828 
	C256.599670,295.773621 254.405945,301.471222 252.028778,307.466492 
	C247.427109,306.817657 242.856079,305.801392 238.122070,304.450134 
	C243.672729,291.814148 249.328079,279.485596 255.118256,267.220673 
	C259.838745,257.221619 264.720490,247.298691 269.819885,237.147949 
	C272.065826,242.345032 274.022644,247.736191 276.013397,253.508362 
z"/>
<path fill="#2586C8" opacity="1.000000" stroke="none" 
	d="
M499.533600,343.100159 
	C492.996796,358.781982 486.050079,374.421448 478.948364,389.990173 
	C477.544434,393.067963 475.544525,395.873840 473.493286,398.901398 
	C473.167084,380.552917 473.167084,362.108185 473.167084,343.032990 
	C481.895630,343.032990 490.482452,343.032990 499.533600,343.100159 
z"/>
<path fill="#2485C7" opacity="1.000000" stroke="none" 
	d="
M565.901611,205.544052 
	C564.793396,207.219025 563.399414,208.277344 562.763916,209.679443 
	C549.071045,239.888611 535.443298,270.127441 521.880981,300.395447 
	C520.948059,302.477509 520.625244,304.832977 520.009216,307.447632 
	C517.955078,307.879272 515.910461,307.924561 513.432129,307.901245 
	C520.296936,291.292938 527.565125,274.739807 534.902161,258.217255 
	C542.577759,240.932327 550.228638,223.635223 558.096375,206.437759 
	C560.049255,202.169083 562.797974,198.264496 565.506592,194.095734 
	C565.877930,197.695129 565.923462,201.391327 565.901611,205.544052 
z"/>
<path fill="#1967B3" opacity="1.000000" stroke="none" 
	d="
M902.588867,269.097961 
	C899.857483,276.391724 896.671448,283.599365 893.589966,290.851440 
	C891.015747,296.909729 888.563843,303.020020 886.028015,309.471191 
	C881.567261,308.960144 877.136292,308.085175 872.361328,306.642334 
	C872.823853,303.758270 873.529846,301.401123 874.453979,299.132874 
	C878.936340,288.131042 883.477234,277.153015 887.997314,266.166534 
	C892.724670,267.121399 897.452026,268.076233 902.588867,269.097961 
z"/>
<path fill="#1A64B0" opacity="1.000000" stroke="none" 
	d="
M861.428101,433.898499 
	C862.982727,429.102051 864.872314,424.327301 866.971436,419.646484 
	C871.795349,408.889832 876.721130,398.178925 881.856445,387.199829 
	C890.300842,395.879791 890.242554,406.176147 886.000122,416.480591 
	C881.677612,426.979767 874.315674,434.234314 861.428101,433.898499 
z"/>
<path fill="#1868B3" opacity="1.000000" stroke="none" 
	d="
M918.999512,194.166748 
	C917.402588,198.638412 915.958801,203.172318 914.172119,207.566864 
	C911.634644,213.808075 908.844849,219.946732 906.082153,226.481262 
	C900.643066,226.877090 895.284546,226.920883 889.464966,226.503571 
	C890.849487,220.752899 892.594788,215.425583 894.568542,210.184250 
	C896.595581,204.801132 898.845825,199.502060 901.462402,194.100662 
	C907.617432,194.078995 913.308472,194.122864 918.999512,194.166748 
z"/>
<path fill="#146CB5" opacity="1.000000" stroke="none" 
	d="
M748.461731,433.899017 
	C750.310242,428.191376 752.623474,422.550446 754.966431,416.538666 
	C764.417725,416.167816 773.839294,416.167816 783.629028,416.167816 
	C783.629028,422.007294 783.629028,427.691895 783.629028,433.965698 
	C772.011780,433.965698 760.469116,433.965698 748.461731,433.899017 
z"/>
<path fill="#157CC0" opacity="1.000000" stroke="none" 
	d="
M571.944763,389.398926 
	C575.173279,382.879974 578.455017,376.711914 581.894348,370.219910 
	C587.702881,377.318359 593.353882,384.740784 599.027100,392.527283 
	C595.815430,398.433929 592.581604,403.976471 589.121826,409.786743 
	C587.548401,408.821838 586.012024,407.739868 584.886475,406.329987 
	C580.519409,400.859833 576.283020,395.285400 571.944763,389.398926 
z"/>
<path fill="#1D81C4" opacity="1.000000" stroke="none" 
	d="
M502.461670,433.901550 
	C503.977966,428.186920 505.958740,422.540619 507.968384,416.530365 
	C515.764954,416.166412 523.532654,416.166412 531.647949,416.166412 
	C531.647949,421.999115 531.647949,427.692932 531.647949,433.969849 
	C522.041870,433.969849 512.484009,433.969849 502.461670,433.901550 
z"/>
<path fill="#156AB5" opacity="1.000000" stroke="none" 
	d="
M900.998413,194.166199 
	C898.845825,199.502060 896.595581,204.801132 894.568542,210.184250 
	C892.594788,215.425583 890.849487,220.752899 889.001343,226.437958 
	C883.973938,226.877029 878.949036,226.920609 873.461182,226.898743 
	C875.179565,221.527435 877.373230,216.226578 879.538818,210.914230 
	C881.705444,205.599091 883.844116,200.272491 886.459229,194.493256 
	C891.615051,194.079132 896.306763,194.122665 900.998413,194.166199 
z"/>
<path fill="#1868B3" opacity="1.000000" stroke="none" 
	d="
M887.683472,266.006561 
	C883.477234,277.153015 878.936340,288.131042 874.453979,299.132874 
	C873.529846,301.401123 872.823853,303.758270 872.008667,306.454041 
	C868.926392,306.222992 865.852722,305.612335 862.388916,304.917450 
	C868.199951,291.036285 874.401245,277.239319 880.852600,263.194977 
	C883.191650,263.913940 885.280640,264.880249 887.683472,266.006561 
z"/>
<path fill="#1967B3" opacity="1.000000" stroke="none" 
	d="
M839.144836,391.411194 
	C842.200745,384.574432 845.445862,378.037109 848.871460,371.198090 
	C854.270752,373.375336 859.489563,375.854279 864.905884,378.641418 
	C862.122742,385.016022 859.142029,391.082397 856.080444,397.490570 
	C850.444519,395.791809 844.889282,393.751221 839.144836,391.411194 
z"/>
<path fill="#2082C5" opacity="1.000000" stroke="none" 
	d="
M509.461945,359.902649 
	C510.978333,354.520630 512.959106,349.207214 514.968811,343.529846 
	C520.437073,343.165833 525.876404,343.165833 531.656616,343.165833 
	C531.656616,348.670349 531.656616,354.029053 531.656616,359.971252 
	C524.384827,359.971252 517.155579,359.971252 509.461945,359.902649 
z"/>
<path fill="#1967B3" opacity="1.000000" stroke="none" 
	d="
M843.848877,412.582275 
	C844.252014,416.764923 843.698242,420.018402 840.187988,422.822083 
	C838.322327,424.312225 838.029114,427.771057 836.992432,430.728729 
	C835.492554,430.429016 833.820801,429.995056 832.601135,429.004456 
	C829.640503,426.599915 824.123474,423.125580 824.589966,421.534119 
	C825.834106,417.289215 829.204712,413.277313 832.631348,410.165344 
	C836.552246,406.604584 840.178101,410.364990 843.848877,412.582275 
z"/>
<path fill="#1967B3" opacity="1.000000" stroke="none" 
	d="
M855.482605,360.070557 
	C857.018127,354.292328 858.994568,348.469757 861.006409,342.266052 
	C865.894958,342.678619 870.748047,343.472321 875.788696,344.946106 
	C875.421692,346.802094 874.801758,347.952179 874.324219,349.158630 
	C872.523987,353.706940 870.770142,358.273590 868.998901,362.833374 
	C864.640442,361.897644 860.281982,360.961945 855.482605,360.070557 
z"/>
<path fill="#1B65B1" opacity="1.000000" stroke="none" 
	d="
M869.326782,363.004944 
	C870.770142,358.273590 872.523987,353.706940 874.324219,349.158630 
	C874.801758,347.952179 875.421692,346.802094 876.009399,345.255676 
	C879.384949,346.792786 882.738037,348.682343 886.055359,350.632782 
	C886.437012,350.857239 886.951782,351.582550 886.844360,351.804047 
	C884.657227,356.316589 882.860352,361.155304 879.845276,365.045074 
	C878.952454,366.196899 874.572021,364.716980 871.810913,364.302338 
	C871.052917,364.188568 870.371338,363.565765 869.326782,363.004944 
z"/>
<path fill="#ffffff" opacity="1.000000" stroke="none" 
	d="
M901.462402,194.100662 
	C896.306763,194.122665 891.615051,194.079132 886.461182,194.101059 
	C878.908997,194.166519 871.819092,194.166519 863.999939,194.166519 
	C864.270630,192.375015 864.467529,191.071671 864.748474,189.382904 
	C865.722473,178.223831 872.941345,171.775772 880.888611,165.421082 
	C890.911316,160.882828 900.940430,160.834213 911.487854,164.023621 
	C913.592651,165.533600 915.533936,166.827438 916.956848,168.549591 
	C920.203308,172.478973 923.195801,176.618118 926.584351,180.853851 
	C927.594849,185.147461 928.312378,189.259262 929.146118,194.037155 
	C925.749329,194.037155 922.824951,194.037155 919.450073,194.101959 
	C913.308472,194.122864 907.617432,194.078995 901.462402,194.100662 
z"/>
<path fill="#ffffff" opacity="1.000000" stroke="none" 
	d="
M187.457840,209.094223 
	C175.972885,209.118439 164.948990,209.069809 153.461212,209.093781 
	C148.185028,209.166382 143.372711,209.166382 137.695190,209.166382 
	C148.439209,176.276215 158.983994,143.996002 169.829361,110.795624 
	C172.360062,118.333481 174.691986,125.279259 177.094559,132.611282 
	C179.446823,139.847778 181.706268,146.705521 184.016190,153.546204 
	C186.395462,160.592270 188.823959,167.621704 191.555176,174.848312 
	C195.017532,185.602524 198.155640,196.166840 201.625153,206.921829 
	C201.092484,207.740097 200.255615,208.860229 199.359589,208.909760 
	C195.555603,209.120041 191.734039,209.012711 187.457840,209.094223 
z"/>
</svg>