<svg version="1.1" id="Layer_1" xmlns="http://www.w3.org/2000/svg"
    xmlns:xlink="http://www.w3.org/1999/xlink" x="0px" y="0px"
    width="100%" viewBox="0 0 1200 630" enable-background="new 0 0 1200 630" xml:space="preserve">
<path fill="#FFFFFF" opacity="1.000000" stroke="none" 
	d="
M912.000000,631.000000 
	C608.000000,631.000000 304.500031,631.000000 1.000041,631.000000 
	C1.000027,421.000031 1.000027,211.000061 1.000014,1.000069 
	C400.999969,1.000046 800.999939,1.000046 1201.000000,1.000023 
	C1201.000000,210.999939 1201.000000,420.999878 1201.000000,630.999878 
	C1104.833374,631.000000 1008.666687,631.000000 912.000000,631.000000 
M506.551880,46.052437 
	C484.955536,67.723801 472.273224,93.676277 468.552338,124.108330 
	C464.555603,156.796356 472.112762,186.633041 490.011169,214.028366 
	C490.816345,215.260773 492.404083,216.804504 493.553192,216.746002 
	C494.591736,216.693115 495.888916,214.794250 496.454407,213.449646 
	C502.037750,200.173508 507.470734,186.834259 512.987915,173.530151 
	C522.874695,149.689392 532.803345,125.866005 542.689819,102.025139 
	C552.589722,78.151947 562.473633,54.272079 572.333740,30.382454 
	C575.182800,23.479578 577.925720,16.532885 581.103027,8.649055 
	C551.770325,13.464657 527.473633,25.614773 506.551880,46.052437 
M473.647247,363.129028 
	C457.683594,378.186615 447.752930,396.468201 446.212372,418.442383 
	C443.914764,451.215118 458.444885,485.641693 496.887726,497.061615 
	C510.507233,501.107483 524.333496,502.653717 538.676025,501.183472 
	C552.742798,499.741455 565.878662,496.110565 576.997375,487.473938 
	C602.400208,467.742004 613.025452,441.617981 607.798157,409.802307 
	C603.408569,383.084991 588.716003,363.393219 564.216248,351.633209 
	C550.329285,344.967468 535.469666,343.823517 520.120239,344.828705 
	C502.750488,345.966248 487.439972,351.412079 473.647247,363.129028 
M1055.176270,381.327972 
	C1054.695557,380.648834 1054.201538,379.978729 1053.735962,379.289307 
	C1042.257935,362.292542 1026.890503,350.528442 1006.549011,346.910034 
	C996.373108,345.099945 985.752930,344.892944 975.382996,345.280640 
	C960.253967,345.846313 946.335144,350.916168 934.580627,360.672791 
	C904.940308,385.275177 895.629883,424.449890 911.267456,459.555054 
	C916.400085,471.077454 923.860840,481.094116 934.963135,487.796021 
	C956.596252,500.854950 979.918640,503.881805 1004.611450,499.974060 
	C1036.056274,494.997803 1060.275391,468.257202 1065.581543,437.798676 
	C1069.015503,418.087006 1065.159668,399.446777 1055.176270,381.327972 
M549.291321,207.849075 
	C547.955688,209.892593 546.176941,211.774002 545.359985,214.007263 
	C541.499207,224.561737 537.906616,235.214172 534.208374,245.828247 
	C531.456970,253.725098 531.712646,254.262146 539.108765,257.922424 
	C562.195007,269.347626 586.384033,274.697510 612.246582,272.077484 
	C627.708069,270.511139 642.488220,266.866211 656.557495,260.244263 
	C659.416992,258.898407 660.368042,257.573639 659.301331,254.198288 
	C651.226929,228.649261 643.415222,203.017334 635.478760,177.424545 
	C632.462524,167.698166 629.333679,158.006699 626.012207,147.529602 
	C600.188904,167.837036 575.027161,187.624191 549.291321,207.849075 
M685.350525,38.133076 
	C666.363464,22.445555 644.774719,12.749364 619.254028,8.725179 
	C631.489136,40.340870 643.215881,70.643051 654.875671,100.772141 
	C668.578003,96.864853 681.341614,92.648636 695.012695,92.987686 
	C706.132629,93.263451 711.275024,99.937691 707.917725,110.347420 
	C706.605591,114.415840 705.028442,118.628899 702.566650,122.053368 
	C695.112671,132.422302 687.276794,142.524918 679.338623,152.532104 
	C677.224121,155.197708 676.683044,157.263870 677.990234,160.551453 
	C684.166687,176.085449 690.011841,191.750977 696.010132,207.356171 
	C698.049927,212.662918 700.191833,217.930405 702.691101,224.234863 
	C704.458923,222.121399 705.665710,221.023911 706.453552,219.680695 
	C711.463867,211.138351 716.888367,202.789932 721.234497,193.916306 
	C733.901367,168.053909 735.898621,140.566574 730.311035,112.851021 
	C724.322571,83.147110 709.182495,58.274525 685.350525,38.133076 
M356.003754,447.509399 
	C356.003754,443.396362 356.003754,439.283325 356.003754,434.902771 
	C358.043610,434.902771 359.513672,434.976837 360.974335,434.890869 
	C371.386749,434.278137 381.953888,434.550323 392.175415,432.805054 
	C412.831696,429.278168 430.565125,414.926697 429.250519,389.367859 
	C428.132935,367.639160 413.056000,352.848755 393.460754,349.414154 
	C380.303833,347.108063 366.626373,347.562836 353.170746,347.232025 
	C341.222137,346.938263 329.258301,347.267426 317.301178,347.313873 
	C313.688721,347.327881 310.076172,347.316040 306.484039,347.316040 
	C306.484039,350.351685 306.484039,353.043976 306.484039,356.011993 
	C310.599213,356.011993 314.254669,355.916718 317.902924,356.038025 
	C321.776489,356.166809 324.195099,357.895233 324.068420,362.185699 
	C324.009552,364.179901 324.225586,366.180634 324.221954,368.178284 
	C324.154968,405.003418 324.073608,441.828522 323.995209,478.653656 
	C323.972992,489.096100 323.102539,490.127747 312.700378,490.007294 
	C309.029327,489.964783 307.169312,490.653229 307.093506,494.813538 
	C307.013275,499.215210 309.553528,499.039307 312.590912,499.029663 
	C331.754120,498.968689 350.918182,498.905212 370.080414,499.050659 
	C373.604095,499.077362 375.092743,498.422333 375.134644,494.459503 
	C375.178528,490.309937 373.344208,489.641663 369.988190,490.017639 
	C368.835083,490.146851 367.651031,489.979828 366.491516,490.075012 
	C359.893616,490.616364 356.387665,490.243103 356.188538,480.001678 
	C355.984497,469.506378 356.053955,459.005737 356.003754,447.509399 
M246.512833,498.935059 
	C264.490051,498.935059 282.467285,498.935059 301.093689,498.935059 
	C301.093689,495.858185 301.093689,493.088440 301.093689,489.620972 
	C286.806244,492.895203 281.132263,484.449310 277.294708,473.527222 
	C272.856598,460.895813 268.333893,448.291840 264.086426,435.596161 
	C256.227173,412.104858 248.550827,388.552399 240.778641,365.031921 
	C238.111893,356.961731 235.386322,348.910980 232.943619,341.615875 
	C223.024506,345.687103 213.750244,349.422485 204.583344,353.404938 
	C203.921768,353.692383 203.883896,355.774261 203.831879,357.033203 
	C203.713837,359.890320 204.591690,363.072601 203.628357,365.568268 
	C189.212296,402.914856 174.725296,440.236389 159.840851,477.397980 
	C156.566879,485.571991 150.354645,491.021606 140.499557,490.088409 
	C139.419083,489.986115 138.297043,490.322601 137.173828,490.458008 
	C137.173828,493.349640 137.173828,495.937561 137.173828,498.715332 
	C155.582245,498.715332 173.649612,498.715332 191.658569,498.715332 
	C193.330109,491.129181 192.601151,490.142853 185.519760,490.062134 
	C184.853378,490.054535 184.187119,490.034149 183.520813,490.019470 
	C176.446365,489.863525 172.560074,485.436096 174.435577,478.627411 
	C177.682800,466.839020 181.384995,455.168976 185.241348,443.563904 
	C185.749695,442.034210 188.265472,440.197174 189.884659,440.164948 
	C203.042725,439.902710 216.210526,439.939423 229.369720,440.186310 
	C230.841171,440.213928 233.175766,441.843475 233.591034,443.196411 
	C237.761261,456.782867 241.645416,470.457886 245.535339,484.129211 
	C246.641785,488.017853 244.535797,489.766235 240.947250,489.985321 
	C238.041367,490.162720 235.115997,490.021301 232.277008,490.021301 
	C231.646591,499.015137 231.646591,499.016785 239.520340,498.991486 
	C241.519882,498.985046 243.519379,498.964600 246.512833,498.935059 
M754.133667,453.262970 
	C752.570129,454.309479 750.514893,455.018066 749.524902,456.458740 
	C744.096741,464.357880 739.456116,472.862366 733.456238,480.278107 
	C730.345398,484.122986 725.208801,488.098755 720.601562,488.622620 
	C708.090942,490.045044 695.373962,489.641388 682.739807,489.996399 
	C679.266235,490.094025 677.820435,488.860992 677.842285,485.033234 
	C677.963867,463.729095 677.755615,442.423340 677.765564,421.118195 
	C677.774292,402.296265 677.906433,383.474274 678.014404,364.652496 
	C678.054138,357.724518 679.634766,356.125305 686.461731,356.015808 
	C689.905273,355.960571 693.350464,356.006165 696.652039,356.006165 
	C698.488586,347.334808 698.173279,347.070038 690.483704,347.122375 
	C673.024231,347.241150 655.563660,347.198761 638.103577,347.220459 
	C635.173828,347.224121 632.244080,347.220978 629.402161,347.220978 
	C628.472656,355.944977 628.472656,355.944977 636.315491,355.962372 
	C643.363647,355.977997 644.975891,357.688324 644.980774,365.515656 
	C645.003723,402.655151 644.991760,439.794617 644.992188,476.934113 
	C644.992310,489.792725 644.992859,489.925995 632.040955,489.984558 
	C628.520996,490.000458 627.232544,491.229279 627.215881,494.557190 
	C627.198608,498.013824 628.770630,499.130066 632.160095,499.039459 
	C640.982788,498.803558 649.813354,498.818939 658.640808,498.819489 
	C686.448914,498.821259 714.257080,498.859436 742.065186,498.892456 
	C744.741638,498.895630 747.172668,499.251678 748.049622,495.415985 
	C750.880615,483.033813 753.956604,470.701630 757.273926,458.441040 
	C758.063477,455.523010 757.142395,454.457458 754.133667,453.262970 
M766.900940,498.884430 
	C769.561523,498.776520 772.222412,498.568695 774.882690,498.575806 
	C808.861755,498.666595 842.841370,498.721588 876.819092,498.990845 
	C880.819275,499.022522 882.256714,497.651764 883.077454,493.873535 
	C885.506042,482.693390 888.287170,471.587311 891.078796,460.489563 
	C892.557068,454.612640 892.526550,454.392914 886.499878,453.392242 
	C882.013428,460.622162 877.752014,467.911224 873.073120,474.921570 
	C867.327698,483.529785 860.332092,490.333954 848.785034,489.569122 
	C846.314636,489.405487 843.805237,489.965973 841.312561,489.980438 
	C831.888794,490.035156 822.464539,490.002411 812.950073,490.002411 
	C812.665771,486.730103 812.226135,484.086334 812.237915,481.444611 
	C812.415161,441.650360 812.686401,401.856476 812.818909,362.062134 
	C812.831665,358.231323 814.636963,356.467743 818.050537,356.158295 
	C821.358521,355.858429 824.703552,355.936737 828.032776,355.912292 
	C830.599121,355.893433 831.823730,354.978912 832.052979,352.112885 
	C832.392639,347.866272 830.528259,347.169434 826.789612,347.200745 
	C809.178345,347.348175 791.564880,347.235199 773.952209,347.216461 
	C770.722900,347.213043 767.493591,347.216003 763.995667,347.216003 
	C763.995667,349.327820 763.941895,350.651917 764.011047,351.969574 
	C764.077271,353.231628 764.271240,354.486969 764.400024,355.662750 
	C779.934021,357.123444 779.934021,357.123444 780.013062,372.634796 
	C780.013916,372.801392 780.015076,372.968018 780.013794,373.134613 
	C779.742737,407.590881 779.498474,442.047424 779.186096,476.503326 
	C779.069397,489.373474 778.997864,489.388550 766.444519,490.265015 
	C764.385193,490.408783 762.169189,490.228516 762.598816,493.332733 
	C762.920105,495.654144 761.365173,499.191864 766.900940,498.884430 
M831.955994,555.803101 
	C830.272583,549.060791 835.780090,546.873047 840.747803,544.343445 
	C840.384277,543.999939 840.020813,543.656372 839.657349,543.312866 
	C829.577698,543.312866 819.498108,543.312866 809.418457,543.312866 
	C809.173218,543.736450 808.927917,544.160034 808.682678,544.583618 
	C809.803223,545.242615 810.925537,546.464050 812.044006,546.460449 
	C816.265503,546.446960 817.262878,548.501953 817.223999,552.391968 
	C817.059082,568.885010 817.089661,585.381165 817.206543,601.875000 
	C817.231873,605.451111 816.503357,607.630188 812.330078,607.516602 
	C811.198853,607.485901 810.031799,608.771484 808.881226,609.452881 
	C809.043396,609.964111 809.205566,610.475403 809.367737,610.986633 
	C818.612183,610.986633 827.857117,611.021057 837.100220,610.909546 
	C837.717529,610.902100 838.321472,609.788635 838.931580,609.189636 
	C838.287842,608.567383 837.709290,607.852844 836.986511,607.342529 
	C835.557617,606.333557 832.806580,605.485535 832.768127,604.487427 
	C832.431396,595.756409 832.573425,587.006958 832.573425,577.668091 
	C841.849304,577.668091 851.313293,577.539124 860.763672,577.837585 
	C861.896545,577.873352 863.866882,580.209106 863.898010,581.515869 
	C864.068604,588.668518 863.683838,595.832336 863.642700,602.993164 
	C863.626221,605.860596 862.682800,607.242737 859.592651,607.317383 
	C858.295776,607.348694 857.028931,608.619690 855.748474,609.327148 
	C855.994385,609.885742 856.240356,610.444336 856.486267,611.002930 
	C865.452820,611.002930 874.419922,611.046875 883.385071,610.934021 
	C884.266296,610.922852 885.135376,609.949768 886.010132,609.423157 
	C885.117126,608.721191 884.208435,607.400574 883.333740,607.422607 
	C879.186523,607.527161 878.300598,605.215698 878.297668,601.712036 
	C878.283936,585.051697 878.214172,568.391113 878.098633,551.731140 
	C878.076355,548.512512 879.258362,546.734375 882.668701,546.503052 
	C883.488403,546.447510 884.234863,545.312012 885.015015,544.673218 
	C884.196594,544.108704 883.385132,543.066040 882.558594,543.053955 
	C874.730164,542.939209 866.898376,542.949585 859.070129,543.079651 
	C858.190613,543.094238 857.327087,544.071655 856.456177,544.602539 
	C857.271667,545.228394 858.057922,546.344238 858.907715,546.394836 
	C862.478455,546.607788 863.184937,548.662903 863.227112,551.756958 
	C863.306519,557.580566 863.531189,563.410645 863.965698,569.217712 
	C864.209656,572.478210 863.092285,573.749817 859.815552,573.709961 
	C851.818420,573.612549 843.816406,573.607727 835.821289,573.784851 
	C832.400391,573.860596 831.496765,572.306274 831.656128,569.237488 
	C831.872131,565.079163 831.863586,560.909180 831.955994,555.803101 
M547.039368,581.984985 
	C544.927612,582.632141 540.586487,579.351379 541.206055,585.074890 
	C543.962585,586.646790 548.821777,584.285400 549.028198,589.578308 
	C549.183655,593.566528 549.364441,597.616394 548.824280,601.541138 
	C548.577209,603.336121 546.987061,605.564148 545.376709,606.444214 
	C539.137756,609.853638 528.153748,607.884644 522.999512,602.859985 
	C511.725586,591.869446 509.558014,570.346436 518.339844,556.592346 
	C527.265320,542.613342 544.326599,542.308289 553.606506,556.044922 
	C555.538574,558.904846 556.912109,562.137878 558.765259,565.057922 
	C559.324646,565.939331 560.593933,566.704285 561.615051,566.815430 
	C562.113220,566.869629 563.330078,565.277161 563.297424,564.467346 
	C563.038635,558.053040 562.557190,551.647644 562.163452,545.538025 
	C558.908142,545.336792 556.201355,545.758240 553.952454,544.932495 
	C541.737610,540.447571 529.636414,540.409668 517.590698,545.271240 
	C505.165497,550.285889 496.683746,564.126404 497.343292,578.004211 
	C498.111572,594.170654 506.886078,606.446777 520.743286,610.527832 
	C534.618347,614.614136 548.053040,612.711548 561.031982,606.948181 
	C562.341736,606.366638 563.513489,604.073792 563.634033,602.490173 
	C563.935730,598.528076 563.211182,594.470276 563.689209,590.547241 
	C563.902344,588.798584 565.960876,587.232849 567.292114,585.678589 
	C568.057678,584.784790 569.043884,584.079956 569.930725,583.290039 
	C568.754944,582.739685 567.583008,581.726135 566.402771,581.716370 
	C560.246399,581.665527 554.087891,581.869934 547.039368,581.984985 
M462.635559,610.584290 
	C462.749634,609.595703 462.933502,608.609497 462.967407,607.618164 
	C463.558136,590.325806 464.073853,573.030640 464.750824,555.741699 
	C464.900665,551.915710 464.168182,547.372375 469.774109,546.228027 
	C470.193359,546.142456 470.715027,544.791138 470.561646,544.187866 
	C470.421478,543.636597 469.434631,542.936829 468.812256,542.928162 
	C462.266327,542.837158 455.718628,542.871887 449.171417,542.871887 
	C449.016846,543.439331 448.862274,544.006836 448.707703,544.574280 
	C449.695282,545.220581 450.643921,546.348022 451.677032,546.431641 
	C456.708008,546.838928 457.862457,550.109070 458.062012,554.334778 
	C458.250122,558.318848 458.715302,562.295044 458.773468,566.278809 
	C458.888733,574.173035 458.807526,582.070007 458.807526,590.885742 
	C457.223175,589.560364 456.266022,588.984680 455.601471,588.170227 
	C444.458862,574.513611 433.368256,560.814453 422.214996,547.166565 
	C421.080719,545.778564 419.667664,543.649841 418.299896,543.582886 
	C410.997864,543.225464 403.669098,543.414429 396.349579,543.414429 
	C396.225281,543.896912 396.101013,544.379333 395.976715,544.861816 
	C397.104492,545.497437 398.162445,546.440186 399.372162,546.715088 
	C404.374939,547.852112 406.952118,551.464966 406.963165,555.978394 
	C406.999420,570.786133 406.572845,585.598877 406.072113,600.401184 
	C405.952515,603.937317 404.931396,607.406372 400.115387,607.559631 
	C399.399933,607.582458 398.731903,609.095703 397.100830,611.042847 
	C405.464844,611.042847 412.256836,611.088989 419.046051,610.973389 
	C419.745209,610.961487 420.427917,609.984375 421.118286,609.455139 
	C420.546997,608.777344 419.986664,607.521240 419.402679,607.510193 
	C412.673126,607.382324 412.341614,602.539612 412.192932,597.751160 
	C411.831299,586.103271 411.601562,574.450989 411.383942,562.799316 
	C411.353333,561.160583 411.689301,559.515015 411.982941,556.614807 
	C415.992432,561.526794 418.970551,565.287781 422.067108,568.948608 
	C433.344208,582.280884 444.585388,595.645691 456.068115,608.799133 
	C457.354034,610.272217 460.093903,610.476074 462.635559,610.584290 
M357.760010,579.387207 
	C357.677368,575.898560 357.728149,572.399353 357.451965,568.926086 
	C357.326355,567.346497 356.553680,565.818298 356.074524,564.266785 
	C355.130066,565.395569 353.850769,566.381958 353.299835,567.677979 
	C351.075073,572.911194 343.661926,576.302246 338.725220,573.921204 
	C337.872406,573.509827 337.182281,571.836548 337.177246,570.742615 
	C337.144989,563.753601 337.203949,556.757446 337.557800,549.780151 
	C337.615417,548.644348 339.206696,546.730774 340.225677,546.635376 
	C347.972260,545.910095 355.569305,546.157471 361.453033,552.458679 
	C363.497498,554.648254 365.556061,556.841919 367.792175,558.826416 
	C368.663422,559.599670 370.041504,559.801880 372.151245,560.651917 
	C370.912292,555.386902 369.609344,551.414185 369.132874,547.344727 
	C368.730011,543.903687 367.358551,542.964355 364.044708,542.975647 
	C348.889679,543.027405 333.733795,542.803589 318.578339,542.815002 
	C317.398285,542.815857 316.219025,543.865723 315.039398,544.428101 
	C316.010590,545.243408 316.956604,546.721008 317.957336,546.759094 
	C322.260437,546.922546 323.090851,549.351196 323.076355,553.037781 
	C323.011597,569.529053 323.024414,586.021423 323.168091,602.512024 
	C323.196960,605.826721 322.327393,607.438416 318.715881,607.393372 
	C317.439972,607.377441 316.146637,608.758911 314.861237,609.502502 
	C315.126465,610.005981 315.391693,610.509521 315.656952,611.013062 
	C333.132965,611.013062 350.609009,611.023376 368.084930,610.984558 
	C369.025848,610.982422 370.146454,610.818848 370.872101,610.297302 
	C372.968231,608.790771 375.444000,597.015259 374.081696,593.230042 
	C371.824799,595.598816 369.706451,597.541260 367.916901,599.750122 
	C361.033478,608.246277 352.004181,609.212036 342.195007,607.059753 
	C340.715424,606.735107 338.489594,605.105164 338.393707,603.933044 
	C337.693939,595.375916 337.450378,586.781494 337.067261,578.297791 
	C346.369019,576.983459 350.140381,578.086792 352.728333,582.114502 
	C353.837311,583.840454 355.452148,585.241394 356.837128,586.789978 
	C357.176910,584.639771 357.516693,582.489502 357.760010,579.387207 
M761.141052,541.740051 
	C760.143066,541.697327 759.143555,541.596130 758.147278,541.620911 
	C749.237427,541.841980 739.283325,548.068054 738.368469,554.961121 
	C737.064819,564.784241 736.972229,571.921814 748.761658,578.427124 
	C753.252380,580.905090 758.061462,582.801941 762.699219,585.018494 
	C769.894653,588.457458 772.641296,596.016541 769.046326,602.363464 
	C765.669861,608.324341 757.074890,609.714600 750.600586,605.583252 
	C745.831604,602.540100 744.133423,597.827026 742.671875,592.800842 
	C742.364563,591.744019 741.236694,590.860046 740.308289,590.120789 
	C740.169250,590.010071 738.516296,591.087219 738.459106,591.698547 
	C737.929565,597.361511 737.596741,603.042969 737.280151,607.649841 
	C741.258667,608.632874 744.165833,609.115601 746.907837,610.071777 
	C755.902893,613.208557 764.769592,614.173950 773.258667,608.753540 
	C783.576782,602.165466 787.713318,580.904053 770.536377,572.413147 
	C765.790833,570.067322 760.640503,568.550659 755.838440,566.305786 
	C751.438904,564.248901 748.722534,560.625977 749.184692,555.597534 
	C749.589783,551.190918 751.805054,547.631531 756.348267,546.305237 
	C761.236877,544.878113 765.736084,545.954285 769.026978,549.868103 
	C771.226929,552.484436 772.701111,555.700256 774.654663,558.541504 
	C775.196838,559.329956 776.237305,560.003784 777.158875,560.191345 
	C777.527649,560.266418 778.695312,558.847229 778.643066,558.174622 
	C778.226379,552.806152 777.604065,547.453613 777.141663,543.024109 
	C771.401245,542.600586 766.695557,542.253418 761.141052,541.740051 
M612.888000,104.586990 
	C608.601624,90.976326 604.315247,77.365662 600.028870,63.754993 
	C599.388672,63.761131 598.748474,63.767269 598.108215,63.773407 
	C589.861694,87.318390 581.615234,110.863365 573.368713,134.408356 
	C573.878052,134.692215 574.387390,134.976074 574.896729,135.259933 
	C576.595154,134.673569 578.341553,134.197433 579.983948,133.482346 
	C588.484985,129.780945 596.950623,125.998459 605.445251,122.282188 
	C616.994629,117.229500 617.001099,117.244217 612.888000,104.586990 
M599.191345,610.949402 
	C616.117615,610.949402 633.043884,610.949402 650.172913,610.949402 
	C651.725037,604.111694 653.165039,597.768188 654.604980,591.424683 
	C653.908020,591.192017 653.211060,590.959290 652.514099,590.726624 
	C651.203613,592.895630 650.173767,595.313049 648.521484,597.179443 
	C645.504211,600.587891 642.581604,605.516113 638.781372,606.469543 
	C632.593445,608.022095 625.731506,606.888489 618.710144,606.888489 
	C618.710144,589.577759 618.554749,572.768860 618.777893,555.964966 
	C618.884155,547.958252 619.211853,547.968079 626.838257,545.953430 
	C627.083862,545.888611 627.231750,545.454224 627.419678,545.188049 
	C625.579346,542.715149 604.915710,541.738098 596.331360,543.983276 
	C597.389771,544.898865 598.041992,545.956726 598.787964,546.027588 
	C603.358337,546.461548 604.128113,549.095093 604.071960,553.214294 
	C603.853943,569.202576 603.857178,585.197266 604.070007,601.185730 
	C604.122986,605.164978 603.518982,607.653381 598.931580,607.702576 
	C598.107300,607.711487 597.295959,608.932800 596.478577,609.594360 
	C597.106873,610.027405 597.735107,610.460449 599.191345,610.949402 
M685.378479,568.500000 
	C685.294495,579.644287 685.049805,590.791077 685.219543,601.931519 
	C685.274048,605.512451 683.914307,607.048706 680.677612,607.735291 
	C679.351929,608.016602 678.141235,608.840210 676.878296,609.417053 
	C677.062683,609.938538 677.247131,610.460022 677.431519,610.981506 
	C687.588013,610.452026 697.840759,611.746582 707.965027,609.520691 
	C707.428406,608.424805 706.870117,607.951965 706.322876,607.964355 
	C701.078857,608.083130 699.675415,605.476562 699.783142,600.455750 
	C700.093445,585.991028 699.883118,571.515442 699.921631,557.044250 
	C699.944336,548.519165 699.982178,548.519287 706.900940,545.077026 
	C704.777039,542.259827 680.025391,542.069702 676.659119,545.151550 
	C677.642883,545.554321 678.450867,546.172058 679.255188,546.167175 
	C684.000061,546.138672 685.548584,548.423523 685.236816,553.046448 
	C684.913635,557.839294 685.301697,562.680237 685.378479,568.500000 
M665.082458,123.564453 
	C666.765442,129.325195 668.342957,135.119934 670.183960,140.829712 
	C670.907166,143.072617 672.219788,145.125458 673.360962,147.463593 
	C674.547607,146.807266 675.286377,146.633514 675.642273,146.167419 
	C685.003052,133.908310 694.386169,121.664780 703.571960,109.275185 
	C704.685425,107.773361 704.698975,105.456078 705.650574,101.929642 
	C689.410767,105.864838 677.842407,115.138000 665.082458,123.564453 
z"/>
<path fill="#0D79BE" opacity="1.000000" stroke="none" 
	d="
M506.781036,45.780689 
	C527.473633,25.614773 551.770325,13.464657 581.103027,8.649055 
	C577.925720,16.532885 575.182800,23.479578 572.333740,30.382454 
	C562.473633,54.272079 552.589722,78.151947 542.689819,102.025139 
	C532.803345,125.866005 522.874695,149.689392 512.987915,173.530151 
	C507.470734,186.834259 502.037750,200.173508 496.454407,213.449646 
	C495.888916,214.794250 494.591736,216.693115 493.553192,216.746002 
	C492.404083,216.804504 490.816345,215.260773 490.011169,214.028366 
	C472.112762,186.633041 464.555603,156.796356 468.552338,124.108330 
	C472.273224,93.676277 484.955536,67.723801 506.781036,45.780689 
z"/>
<path fill="#0E79BF" opacity="1.000000" stroke="none" 
	d="
M473.923340,362.906219 
	C487.439972,351.412079 502.750488,345.966248 520.120239,344.828705 
	C535.469666,343.823517 550.329285,344.967468 564.216248,351.633209 
	C588.716003,363.393219 603.408569,383.084991 607.798157,409.802307 
	C613.025452,441.617981 602.400208,467.742004 576.997375,487.473938 
	C565.878662,496.110565 552.742798,499.741455 538.676025,501.183472 
	C524.333496,502.653717 510.507233,501.107483 496.887726,497.061615 
	C458.444885,485.641693 443.914764,451.215118 446.212372,418.442383 
	C447.752930,396.468201 457.683594,378.186615 473.923340,362.906219 
M572.126160,402.508026 
	C568.459534,388.750641 562.016907,376.601593 551.461853,366.834076 
	C544.506592,360.397827 536.750916,355.244751 526.997437,354.982758 
	C510.000519,354.526215 498.584106,363.769043 490.666565,377.770782 
	C481.490814,393.997589 478.809448,411.541412 480.788849,430.057526 
	C482.444580,445.545868 486.670532,459.995941 496.149353,472.480530 
	C503.254761,481.839111 512.267822,489.167633 524.197815,490.838837 
	C542.093384,493.345703 556.720459,485.106873 565.033386,468.889038 
	C575.761902,447.958588 577.826904,426.035553 572.126160,402.508026 
z"/>
<path fill="#0E7ABF" opacity="1.000000" stroke="none" 
	d="
M1055.349976,381.647827 
	C1065.159668,399.446777 1069.015503,418.087006 1065.581543,437.798676 
	C1060.275391,468.257202 1036.056274,494.997803 1004.611450,499.974060 
	C979.918640,503.881805 956.596252,500.854950 934.963135,487.796021 
	C923.860840,481.094116 916.400085,471.077454 911.267456,459.555054 
	C895.629883,424.449890 904.940308,385.275177 934.580627,360.672791 
	C946.335144,350.916168 960.253967,345.846313 975.382996,345.280640 
	C985.752930,344.892944 996.373108,345.099945 1006.549011,346.910034 
	C1026.890503,350.528442 1042.257935,362.292542 1053.735962,379.289307 
	C1054.201538,379.978729 1054.695557,380.648834 1055.349976,381.647827 
M1006.153870,486.834473 
	C1008.913025,484.712006 1011.960022,482.873352 1014.381165,480.417633 
	C1024.481934,470.172485 1029.203125,457.291321 1031.515747,443.442230 
	C1035.917114,417.085297 1031.401611,392.772186 1014.163940,371.632629 
	C994.713379,347.779358 966.476440,349.334808 949.770264,375.102753 
	C943.009399,385.530884 939.522766,397.129150 938.474548,409.356323 
	C936.610657,431.098663 939.485779,452.004028 952.192200,470.434937 
	C963.955444,487.497742 984.459473,497.995941 1006.153870,486.834473 
z"/>
<path fill="#0C79BE" opacity="1.000000" stroke="none" 
	d="
M549.578369,207.630219 
	C575.027161,187.624191 600.188904,167.837036 626.012207,147.529602 
	C629.333679,158.006699 632.462524,167.698166 635.478760,177.424545 
	C643.415222,203.017334 651.226929,228.649261 659.301331,254.198288 
	C660.368042,257.573639 659.416992,258.898407 656.557495,260.244263 
	C642.488220,266.866211 627.708069,270.511139 612.246582,272.077484 
	C586.384033,274.697510 562.195007,269.347626 539.108765,257.922424 
	C531.712646,254.262146 531.456970,253.725098 534.208374,245.828247 
	C537.906616,235.214172 541.499207,224.561737 545.359985,214.007263 
	C546.176941,211.774002 547.955688,209.892593 549.578369,207.630219 
z"/>
<path fill="#0D79BE" opacity="1.000000" stroke="none" 
	d="
M685.611206,38.373959 
	C709.182495,58.274525 724.322571,83.147110 730.311035,112.851021 
	C735.898621,140.566574 733.901367,168.053909 721.234497,193.916306 
	C716.888367,202.789932 711.463867,211.138351 706.453552,219.680695 
	C705.665710,221.023911 704.458923,222.121399 702.691101,224.234863 
	C700.191833,217.930405 698.049927,212.662918 696.010132,207.356171 
	C690.011841,191.750977 684.166687,176.085449 677.990234,160.551453 
	C676.683044,157.263870 677.224121,155.197708 679.338623,152.532104 
	C687.276794,142.524918 695.112671,132.422302 702.566650,122.053368 
	C705.028442,118.628899 706.605591,114.415840 707.917725,110.347420 
	C711.275024,99.937691 706.132629,93.263451 695.012695,92.987686 
	C681.341614,92.648636 668.578003,96.864853 654.875671,100.772141 
	C643.215881,70.643051 631.489136,40.340870 619.254028,8.725179 
	C644.774719,12.749364 666.363464,22.445555 685.611206,38.373959 
z"/>
<path fill="#0E7ABF" opacity="1.000000" stroke="none" 
	d="
M356.003754,448.008423 
	C356.053955,459.005737 355.984497,469.506378 356.188538,480.001678 
	C356.387665,490.243103 359.893616,490.616364 366.491516,490.075012 
	C367.651031,489.979828 368.835083,490.146851 369.988190,490.017639 
	C373.344208,489.641663 375.178528,490.309937 375.134644,494.459503 
	C375.092743,498.422333 373.604095,499.077362 370.080414,499.050659 
	C350.918182,498.905212 331.754120,498.968689 312.590912,499.029663 
	C309.553528,499.039307 307.013275,499.215210 307.093506,494.813538 
	C307.169312,490.653229 309.029327,489.964783 312.700378,490.007294 
	C323.102539,490.127747 323.972992,489.096100 323.995209,478.653656 
	C324.073608,441.828522 324.154968,405.003418 324.221954,368.178284 
	C324.225586,366.180634 324.009552,364.179901 324.068420,362.185699 
	C324.195099,357.895233 321.776489,356.166809 317.902924,356.038025 
	C314.254669,355.916718 310.599213,356.011993 306.484039,356.011993 
	C306.484039,353.043976 306.484039,350.351685 306.484039,347.316040 
	C310.076172,347.316040 313.688721,347.327881 317.301178,347.313873 
	C329.258301,347.267426 341.222137,346.938263 353.170746,347.232025 
	C366.626373,347.562836 380.303833,347.108063 393.460754,349.414154 
	C413.056000,352.848755 428.132935,367.639160 429.250519,389.367859 
	C430.565125,414.926697 412.831696,429.278168 392.175415,432.805054 
	C381.953888,434.550323 371.386749,434.278137 360.974335,434.890869 
	C359.513672,434.976837 358.043610,434.902771 356.003754,434.902771 
	C356.003754,439.283325 356.003754,443.396362 356.003754,448.008423 
M356.002594,422.133514 
	C355.677979,424.819672 356.986267,425.738892 359.549042,426.417419 
	C374.342896,430.334351 388.381226,419.888733 392.863373,408.939789 
	C396.463867,400.144592 396.682831,391.032532 395.113007,381.632782 
	C392.276550,364.648834 378.877930,353.755676 361.816956,354.963501 
	C357.622314,355.260498 355.801758,356.477844 355.873840,361.248047 
	C356.175751,381.227112 356.001556,401.213348 356.002594,422.133514 
z"/>
<path fill="#0E7ABF" opacity="1.000000" stroke="none" 
	d="
M246.015869,498.942810 
	C243.519379,498.964600 241.519882,498.985046 239.520340,498.991486 
	C231.646591,499.016785 231.646591,499.015137 232.277008,490.021301 
	C235.115997,490.021301 238.041367,490.162720 240.947250,489.985321 
	C244.535797,489.766235 246.641785,488.017853 245.535339,484.129211 
	C241.645416,470.457886 237.761261,456.782867 233.591034,443.196411 
	C233.175766,441.843475 230.841171,440.213928 229.369720,440.186310 
	C216.210526,439.939423 203.042725,439.902710 189.884659,440.164948 
	C188.265472,440.197174 185.749695,442.034210 185.241348,443.563904 
	C181.384995,455.168976 177.682800,466.839020 174.435577,478.627411 
	C172.560074,485.436096 176.446365,489.863525 183.520813,490.019470 
	C184.187119,490.034149 184.853378,490.054535 185.519760,490.062134 
	C192.601151,490.142853 193.330109,491.129181 191.658569,498.715332 
	C173.649612,498.715332 155.582245,498.715332 137.173828,498.715332 
	C137.173828,495.937561 137.173828,493.349640 137.173828,490.458008 
	C138.297043,490.322601 139.419083,489.986115 140.499557,490.088409 
	C150.354645,491.021606 156.566879,485.571991 159.840851,477.397980 
	C174.725296,440.236389 189.212296,402.914856 203.628357,365.568268 
	C204.591690,363.072601 203.713837,359.890320 203.831879,357.033203 
	C203.883896,355.774261 203.921768,353.692383 204.583344,353.404938 
	C213.750244,349.422485 223.024506,345.687103 232.943619,341.615875 
	C235.386322,348.910980 238.111893,356.961731 240.778641,365.031921 
	C248.550827,388.552399 256.227173,412.104858 264.086426,435.596161 
	C268.333893,448.291840 272.856598,460.895813 277.294708,473.527222 
	C281.132263,484.449310 286.806244,492.895203 301.093689,489.620972 
	C301.093689,493.088440 301.093689,495.858185 301.093689,498.935059 
	C282.467285,498.935059 264.490051,498.935059 246.015869,498.942810 
M215.063828,376.505096 
	C214.350204,374.651276 213.636581,372.797485 212.922958,370.943665 
	C212.313538,370.910278 211.704117,370.876892 211.094696,370.843506 
	C203.839554,390.851837 196.584412,410.860138 189.169022,431.310364 
	C203.469437,431.310364 216.708069,431.310364 230.703995,431.310364 
	C225.369339,412.742676 220.275543,395.013306 215.063828,376.505096 
z"/>
<path fill="#0F7ABF" opacity="1.000000" stroke="none" 
	d="
M754.465881,453.450073 
	C757.142395,454.457458 758.063477,455.523010 757.273926,458.441040 
	C753.956604,470.701630 750.880615,483.033813 748.049622,495.415985 
	C747.172668,499.251678 744.741638,498.895630 742.065186,498.892456 
	C714.257080,498.859436 686.448914,498.821259 658.640808,498.819489 
	C649.813354,498.818939 640.982788,498.803558 632.160095,499.039459 
	C628.770630,499.130066 627.198608,498.013824 627.215881,494.557190 
	C627.232544,491.229279 628.520996,490.000458 632.040955,489.984558 
	C644.992859,489.925995 644.992310,489.792725 644.992188,476.934113 
	C644.991760,439.794617 645.003723,402.655151 644.980774,365.515656 
	C644.975891,357.688324 643.363647,355.977997 636.315491,355.962372 
	C628.472656,355.944977 628.472656,355.944977 629.402161,347.220978 
	C632.244080,347.220978 635.173828,347.224121 638.103577,347.220459 
	C655.563660,347.198761 673.024231,347.241150 690.483704,347.122375 
	C698.173279,347.070038 698.488586,347.334808 696.652039,356.006165 
	C693.350464,356.006165 689.905273,355.960571 686.461731,356.015808 
	C679.634766,356.125305 678.054138,357.724518 678.014404,364.652496 
	C677.906433,383.474274 677.774292,402.296265 677.765564,421.118195 
	C677.755615,442.423340 677.963867,463.729095 677.842285,485.033234 
	C677.820435,488.860992 679.266235,490.094025 682.739807,489.996399 
	C695.373962,489.641388 708.090942,490.045044 720.601562,488.622620 
	C725.208801,488.098755 730.345398,484.122986 733.456238,480.278107 
	C739.456116,472.862366 744.096741,464.357880 749.524902,456.458740 
	C750.514893,455.018066 752.570129,454.309479 754.465881,453.450073 
z"/>
<path fill="#0E7ABF" opacity="1.000000" stroke="none" 
	d="
M766.450684,498.892944 
	C761.365173,499.191864 762.920105,495.654144 762.598816,493.332733 
	C762.169189,490.228516 764.385193,490.408783 766.444519,490.265015 
	C778.997864,489.388550 779.069397,489.373474 779.186096,476.503326 
	C779.498474,442.047424 779.742737,407.590881 780.013794,373.134613 
	C780.015076,372.968018 780.013916,372.801392 780.013062,372.634796 
	C779.934021,357.123444 779.934021,357.123444 764.400024,355.662750 
	C764.271240,354.486969 764.077271,353.231628 764.011047,351.969574 
	C763.941895,350.651917 763.995667,349.327820 763.995667,347.216003 
	C767.493591,347.216003 770.722900,347.213043 773.952209,347.216461 
	C791.564880,347.235199 809.178345,347.348175 826.789612,347.200745 
	C830.528259,347.169434 832.392639,347.866272 832.052979,352.112885 
	C831.823730,354.978912 830.599121,355.893433 828.032776,355.912292 
	C824.703552,355.936737 821.358521,355.858429 818.050537,356.158295 
	C814.636963,356.467743 812.831665,358.231323 812.818909,362.062134 
	C812.686401,401.856476 812.415161,441.650360 812.237915,481.444611 
	C812.226135,484.086334 812.665771,486.730103 812.950073,490.002411 
	C822.464539,490.002411 831.888794,490.035156 841.312561,489.980438 
	C843.805237,489.965973 846.314636,489.405487 848.785034,489.569122 
	C860.332092,490.333954 867.327698,483.529785 873.073120,474.921570 
	C877.752014,467.911224 882.013428,460.622162 886.499878,453.392242 
	C892.526550,454.392914 892.557068,454.612640 891.078796,460.489563 
	C888.287170,471.587311 885.506042,482.693390 883.077454,493.873535 
	C882.256714,497.651764 880.819275,499.022522 876.819092,498.990845 
	C842.841370,498.721588 808.861755,498.666595 774.882690,498.575806 
	C772.222412,498.568695 769.561523,498.776520 766.450684,498.892944 
z"/>
<path fill="#127CC0" opacity="1.000000" stroke="none" 
	d="
M831.953674,556.273682 
	C831.863586,560.909180 831.872131,565.079163 831.656128,569.237488 
	C831.496765,572.306274 832.400391,573.860596 835.821289,573.784851 
	C843.816406,573.607727 851.818420,573.612549 859.815552,573.709961 
	C863.092285,573.749817 864.209656,572.478210 863.965698,569.217712 
	C863.531189,563.410645 863.306519,557.580566 863.227112,551.756958 
	C863.184937,548.662903 862.478455,546.607788 858.907715,546.394836 
	C858.057922,546.344238 857.271667,545.228394 856.456177,544.602539 
	C857.327087,544.071655 858.190613,543.094238 859.070129,543.079651 
	C866.898376,542.949585 874.730164,542.939209 882.558594,543.053955 
	C883.385132,543.066040 884.196594,544.108704 885.015015,544.673218 
	C884.234863,545.312012 883.488403,546.447510 882.668701,546.503052 
	C879.258362,546.734375 878.076355,548.512512 878.098633,551.731140 
	C878.214172,568.391113 878.283936,585.051697 878.297668,601.712036 
	C878.300598,605.215698 879.186523,607.527161 883.333740,607.422607 
	C884.208435,607.400574 885.117126,608.721191 886.010132,609.423157 
	C885.135376,609.949768 884.266296,610.922852 883.385071,610.934021 
	C874.419922,611.046875 865.452820,611.002930 856.486267,611.002930 
	C856.240356,610.444336 855.994385,609.885742 855.748474,609.327148 
	C857.028931,608.619690 858.295776,607.348694 859.592651,607.317383 
	C862.682800,607.242737 863.626221,605.860596 863.642700,602.993164 
	C863.683838,595.832336 864.068604,588.668518 863.898010,581.515869 
	C863.866882,580.209106 861.896545,577.873352 860.763672,577.837585 
	C851.313293,577.539124 841.849304,577.668091 832.573425,577.668091 
	C832.573425,587.006958 832.431396,595.756409 832.768127,604.487427 
	C832.806580,605.485535 835.557617,606.333557 836.986511,607.342529 
	C837.709290,607.852844 838.287842,608.567383 838.931580,609.189636 
	C838.321472,609.788635 837.717529,610.902100 837.100220,610.909546 
	C827.857117,611.021057 818.612183,610.986633 809.367737,610.986633 
	C809.205566,610.475403 809.043396,609.964111 808.881226,609.452881 
	C810.031799,608.771484 811.198853,607.485901 812.330078,607.516602 
	C816.503357,607.630188 817.231873,605.451111 817.206543,601.875000 
	C817.089661,585.381165 817.059082,568.885010 817.223999,552.391968 
	C817.262878,548.501953 816.265503,546.446960 812.044006,546.460449 
	C810.925537,546.464050 809.803223,545.242615 808.682678,544.583618 
	C808.927917,544.160034 809.173218,543.736450 809.418457,543.312866 
	C819.498108,543.312866 829.577698,543.312866 839.657349,543.312866 
	C840.020813,543.656372 840.384277,543.999939 840.747803,544.343445 
	C835.780090,546.873047 830.272583,549.060791 831.953674,556.273682 
z"/>
<path fill="#127CC0" opacity="1.000000" stroke="none" 
	d="
M547.484741,581.985229 
	C554.087891,581.869934 560.246399,581.665527 566.402771,581.716370 
	C567.583008,581.726135 568.754944,582.739685 569.930786,583.290039 
	C569.043884,584.079956 568.057678,584.784790 567.292114,585.678589 
	C565.960876,587.232849 563.902344,588.798584 563.689209,590.547241 
	C563.211182,594.470276 563.935730,598.528076 563.634033,602.490173 
	C563.513489,604.073792 562.341736,606.366638 561.031982,606.948181 
	C548.053040,612.711548 534.618347,614.614136 520.743286,610.527832 
	C506.886078,606.446777 498.111572,594.170654 497.343292,578.004211 
	C496.683746,564.126404 505.165497,550.285889 517.590698,545.271240 
	C529.636414,540.409668 541.737610,540.447571 553.952454,544.932495 
	C556.201355,545.758240 558.908142,545.336792 562.163452,545.538025 
	C562.557190,551.647644 563.038635,558.053040 563.297424,564.467346 
	C563.330078,565.277161 562.113220,566.869629 561.615051,566.815430 
	C560.593933,566.704285 559.324646,565.939331 558.765259,565.057922 
	C556.912109,562.137878 555.538574,558.904846 553.606506,556.044922 
	C544.326599,542.308289 527.265320,542.613342 518.339844,556.592346 
	C509.558014,570.346436 511.725586,591.869446 522.999512,602.859985 
	C528.153748,607.884644 539.137756,609.853638 545.376709,606.444214 
	C546.987061,605.564148 548.577209,603.336121 548.824280,601.541138 
	C549.364441,597.616394 549.183655,593.566528 549.028198,589.578308 
	C548.821777,584.285400 543.962585,586.646790 541.206055,585.074890 
	C540.586487,579.351379 544.927612,582.632141 547.484741,581.985229 
z"/>
<path fill="#127CC0" opacity="1.000000" stroke="none" 
	d="
M462.397522,610.926392 
	C460.093903,610.476074 457.354034,610.272217 456.068115,608.799133 
	C444.585388,595.645691 433.344208,582.280884 422.067108,568.948608 
	C418.970551,565.287781 415.992432,561.526794 411.982941,556.614807 
	C411.689301,559.515015 411.353333,561.160583 411.383942,562.799316 
	C411.601562,574.450989 411.831299,586.103271 412.192932,597.751160 
	C412.341614,602.539612 412.673126,607.382324 419.402679,607.510193 
	C419.986664,607.521240 420.546997,608.777344 421.118286,609.455139 
	C420.427917,609.984375 419.745209,610.961487 419.046051,610.973389 
	C412.256836,611.088989 405.464844,611.042847 397.100830,611.042847 
	C398.731903,609.095703 399.399933,607.582458 400.115387,607.559631 
	C404.931396,607.406372 405.952515,603.937317 406.072113,600.401184 
	C406.572845,585.598877 406.999420,570.786133 406.963165,555.978394 
	C406.952118,551.464966 404.374939,547.852112 399.372162,546.715088 
	C398.162445,546.440186 397.104492,545.497437 395.976715,544.861816 
	C396.101013,544.379333 396.225281,543.896912 396.349579,543.414429 
	C403.669098,543.414429 410.997864,543.225464 418.299896,543.582886 
	C419.667664,543.649841 421.080719,545.778564 422.214996,547.166565 
	C433.368256,560.814453 444.458862,574.513611 455.601471,588.170227 
	C456.266022,588.984680 457.223175,589.560364 458.807526,590.885742 
	C458.807526,582.070007 458.888733,574.173035 458.773468,566.278809 
	C458.715302,562.295044 458.250122,558.318848 458.062012,554.334778 
	C457.862457,550.109070 456.708008,546.838928 451.677032,546.431641 
	C450.643921,546.348022 449.695282,545.220581 448.707703,544.574280 
	C448.862274,544.006836 449.016846,543.439331 449.171417,542.871887 
	C455.718628,542.871887 462.266327,542.837158 468.812256,542.928162 
	C469.434631,542.936829 470.421478,543.636597 470.561646,544.187866 
	C470.715027,544.791138 470.193359,546.142456 469.774109,546.228027 
	C464.168182,547.372375 464.900665,551.915710 464.750824,555.741699 
	C464.073853,573.030640 463.558136,590.325806 462.967407,607.618164 
	C462.933502,608.609497 462.749634,609.595703 462.397522,610.926392 
z"/>
<path fill="#127CC0" opacity="1.000000" stroke="none" 
	d="
M357.808228,579.863281 
	C357.516693,582.489502 357.176910,584.639771 356.837128,586.789978 
	C355.452148,585.241394 353.837311,583.840454 352.728333,582.114502 
	C350.140381,578.086792 346.369019,576.983459 337.067261,578.297791 
	C337.450378,586.781494 337.693939,595.375916 338.393707,603.933044 
	C338.489594,605.105164 340.715424,606.735107 342.195007,607.059753 
	C352.004181,609.212036 361.033478,608.246277 367.916901,599.750122 
	C369.706451,597.541260 371.824799,595.598816 374.081696,593.230042 
	C375.444000,597.015259 372.968231,608.790771 370.872101,610.297302 
	C370.146454,610.818848 369.025848,610.982422 368.084930,610.984558 
	C350.609009,611.023376 333.132965,611.013062 315.656952,611.013062 
	C315.391693,610.509521 315.126465,610.005981 314.861237,609.502502 
	C316.146637,608.758911 317.439972,607.377441 318.715881,607.393372 
	C322.327393,607.438416 323.196960,605.826721 323.168091,602.512024 
	C323.024414,586.021423 323.011597,569.529053 323.076355,553.037781 
	C323.090851,549.351196 322.260437,546.922546 317.957336,546.759094 
	C316.956604,546.721008 316.010590,545.243408 315.039398,544.428101 
	C316.219025,543.865723 317.398285,542.815857 318.578339,542.815002 
	C333.733795,542.803589 348.889679,543.027405 364.044708,542.975647 
	C367.358551,542.964355 368.730011,543.903687 369.132874,547.344727 
	C369.609344,551.414185 370.912292,555.386902 372.151245,560.651917 
	C370.041504,559.801880 368.663422,559.599670 367.792175,558.826416 
	C365.556061,556.841919 363.497498,554.648254 361.453033,552.458679 
	C355.569305,546.157471 347.972260,545.910095 340.225677,546.635376 
	C339.206696,546.730774 337.615417,548.644348 337.557800,549.780151 
	C337.203949,556.757446 337.144989,563.753601 337.177246,570.742615 
	C337.182281,571.836548 337.872406,573.509827 338.725220,573.921204 
	C343.661926,576.302246 351.075073,572.911194 353.299835,567.677979 
	C353.850769,566.381958 355.130066,565.395569 356.074524,564.266785 
	C356.553680,565.818298 357.326355,567.346497 357.451965,568.926086 
	C357.728149,572.399353 357.677368,575.898560 357.808228,579.863281 
z"/>
<path fill="#147DC1" opacity="1.000000" stroke="none" 
	d="
M761.565430,541.823120 
	C766.695557,542.253418 771.401245,542.600586 777.141663,543.024109 
	C777.604065,547.453613 778.226379,552.806152 778.643066,558.174622 
	C778.695312,558.847229 777.527649,560.266418 777.158875,560.191345 
	C776.237305,560.003784 775.196838,559.329956 774.654663,558.541504 
	C772.701111,555.700256 771.226929,552.484436 769.026978,549.868103 
	C765.736084,545.954285 761.236877,544.878113 756.348267,546.305237 
	C751.805054,547.631531 749.589783,551.190918 749.184692,555.597534 
	C748.722534,560.625977 751.438904,564.248901 755.838440,566.305786 
	C760.640503,568.550659 765.790833,570.067322 770.536377,572.413147 
	C787.713318,580.904053 783.576782,602.165466 773.258667,608.753540 
	C764.769592,614.173950 755.902893,613.208557 746.907837,610.071777 
	C744.165833,609.115601 741.258667,608.632874 737.280151,607.649841 
	C737.596741,603.042969 737.929565,597.361511 738.459106,591.698547 
	C738.516296,591.087219 740.169250,590.010071 740.308289,590.120789 
	C741.236694,590.860046 742.364563,591.744019 742.671875,592.800842 
	C744.133423,597.827026 745.831604,602.540100 750.600586,605.583252 
	C757.074890,609.714600 765.669861,608.324341 769.046326,602.363464 
	C772.641296,596.016541 769.894653,588.457458 762.699219,585.018494 
	C758.061462,582.801941 753.252380,580.905090 748.761658,578.427124 
	C736.972229,571.921814 737.064819,564.784241 738.368469,554.961121 
	C739.283325,548.068054 749.237427,541.841980 758.147278,541.620911 
	C759.143555,541.596130 760.143066,541.697327 761.565430,541.823120 
z"/>
<path fill="#0F7ABF" opacity="1.000000" stroke="none" 
	d="
M612.945435,104.987839 
	C617.001099,117.244217 616.994629,117.229500 605.445251,122.282188 
	C596.950623,125.998459 588.484985,129.780945 579.983948,133.482346 
	C578.341553,134.197433 576.595154,134.673569 574.896729,135.259933 
	C574.387390,134.976074 573.878052,134.692215 573.368713,134.408356 
	C581.615234,110.863365 589.861694,87.318390 598.108215,63.773407 
	C598.748474,63.767269 599.388672,63.761131 600.028870,63.754993 
	C604.315247,77.365662 608.601624,90.976326 612.945435,104.987839 
z"/>
<path fill="#147DC1" opacity="1.000000" stroke="none" 
	d="
M598.777344,610.921448 
	C597.735107,610.460449 597.106873,610.027405 596.478577,609.594360 
	C597.295959,608.932800 598.107300,607.711487 598.931580,607.702576 
	C603.518982,607.653381 604.122986,605.164978 604.070007,601.185730 
	C603.857178,585.197266 603.853943,569.202576 604.071960,553.214294 
	C604.128113,549.095093 603.358337,546.461548 598.787964,546.027588 
	C598.041992,545.956726 597.389771,544.898865 596.331360,543.983276 
	C604.915710,541.738098 625.579346,542.715149 627.422424,545.190063 
	C627.231750,545.454224 627.083862,545.888611 626.838257,545.953430 
	C619.211853,547.968079 618.884155,547.958252 618.777893,555.964966 
	C618.554749,572.768860 618.710144,589.577759 618.710144,606.888489 
	C625.731506,606.888489 632.593445,608.022095 638.781372,606.469543 
	C642.581604,605.516113 645.504211,600.587891 648.521484,597.179443 
	C650.173767,595.313049 651.203613,592.895630 652.514099,590.726624 
	C653.211060,590.959290 653.908020,591.192017 654.604980,591.424683 
	C653.165039,597.768188 651.725037,604.111694 650.172913,610.949402 
	C633.043884,610.949402 616.117615,610.949402 598.777344,610.921448 
z"/>
<path fill="#177EC1" opacity="1.000000" stroke="none" 
	d="
M685.378601,568.000061 
	C685.301697,562.680237 684.913635,557.839294 685.236816,553.046448 
	C685.548584,548.423523 684.000061,546.138672 679.255188,546.167175 
	C678.450867,546.172058 677.642883,545.554321 676.659119,545.151550 
	C680.025391,542.069702 704.777039,542.259827 706.900940,545.077026 
	C699.982178,548.519287 699.944336,548.519165 699.921631,557.044250 
	C699.883118,571.515442 700.093445,585.991028 699.783142,600.455750 
	C699.675415,605.476562 701.078857,608.083130 706.322876,607.964355 
	C706.870117,607.951965 707.428406,608.424805 707.965027,609.520691 
	C697.840759,611.746582 687.588013,610.452026 677.431519,610.981506 
	C677.247131,610.460022 677.062683,609.938538 676.878296,609.417053 
	C678.141235,608.840210 679.351929,608.016602 680.677612,607.735291 
	C683.914307,607.048706 685.274048,605.512451 685.219543,601.931519 
	C685.049805,590.791077 685.294495,579.644287 685.378601,568.000061 
z"/>
<path fill="#0F7ABF" opacity="1.000000" stroke="none" 
	d="
M665.335205,123.313782 
	C677.842407,115.138000 689.410767,105.864838 705.650574,101.929642 
	C704.698975,105.456078 704.685425,107.773361 703.571960,109.275185 
	C694.386169,121.664780 685.003052,133.908310 675.642273,146.167419 
	C675.286377,146.633514 674.547607,146.807266 673.360962,147.463593 
	C672.219788,145.125458 670.907166,143.072617 670.183960,140.829712 
	C668.342957,135.119934 666.765442,129.325195 665.335205,123.313782 
z"/>
<path fill="#FEFFFF" opacity="1.000000" stroke="none" 
	d="
M572.266846,402.894348 
	C577.826904,426.035553 575.761902,447.958588 565.033386,468.889038 
	C556.720459,485.106873 542.093384,493.345703 524.197815,490.838837 
	C512.267822,489.167633 503.254761,481.839111 496.149353,472.480530 
	C486.670532,459.995941 482.444580,445.545868 480.788849,430.057526 
	C478.809448,411.541412 481.490814,393.997589 490.666565,377.770782 
	C498.584106,363.769043 510.000519,354.526215 526.997437,354.982758 
	C536.750916,355.244751 544.506592,360.397827 551.461853,366.834076 
	C562.016907,376.601593 568.459534,388.750641 572.266846,402.894348 
z"/>
<path fill="#FEFEFF" opacity="1.000000" stroke="none" 
	d="
M1005.812622,486.988647 
	C984.459473,497.995941 963.955444,487.497742 952.192200,470.434937 
	C939.485779,452.004028 936.610657,431.098663 938.474548,409.356323 
	C939.522766,397.129150 943.009399,385.530884 949.770264,375.102753 
	C966.476440,349.334808 994.713379,347.779358 1014.163940,371.632629 
	C1031.401611,392.772186 1035.917114,417.085297 1031.515747,443.442230 
	C1029.203125,457.291321 1024.481934,470.172485 1014.381165,480.417633 
	C1011.960022,482.873352 1008.913025,484.712006 1005.812622,486.988647 
z"/>
<path fill="#FEFFFF" opacity="1.000000" stroke="none" 
	d="
M356.002197,421.665222 
	C356.001556,401.213348 356.175751,381.227112 355.873840,361.248047 
	C355.801758,356.477844 357.622314,355.260498 361.816956,354.963501 
	C378.877930,353.755676 392.276550,364.648834 395.113007,381.632782 
	C396.682831,391.032532 396.463867,400.144592 392.863373,408.939789 
	C388.381226,419.888733 374.342896,430.334351 359.549042,426.417419 
	C356.986267,425.738892 355.677979,424.819672 356.002197,421.665222 
z"/>
<path fill="#FBFDFE" opacity="1.000000" stroke="none" 
	d="
M215.122772,376.894531 
	C220.275543,395.013306 225.369339,412.742676 230.703995,431.310364 
	C216.708069,431.310364 203.469437,431.310364 189.169022,431.310364 
	C196.584412,410.860138 203.839554,390.851837 211.094696,370.843506 
	C211.704117,370.876892 212.313538,370.910278 212.922958,370.943665 
	C213.636581,372.797485 214.350204,374.651276 215.122772,376.894531 
z"/>
</svg>