<svg width="20" height="26" viewBox="0 0 20 26" fill="none" xmlns="http://www.w3.org/2000/svg">
<path d="M17.4294 24.4865L17.4292 24.4864L10.9495 20.0001C10.9487 19.9995 10.9478 19.999 10.947 19.9984C10.3755 19.5999 9.61625 19.6022 9.04682 19.9981C9.04659 19.9982 9.04637 19.9984 9.04614 19.9985L2.56912 24.4866L2.56881 24.4869C2.26417 24.6981 1.87175 24.7238 1.53543 24.5491C1.20342 24.3747 1 24.0373 1 23.6647V6.33398C1 3.57827 3.24428 1.33398 6 1.33398H14C15.8459 1.33398 17.0466 1.79465 17.7929 2.54088C18.5392 3.28709 19 4.48776 19 6.33398V23.6647C19 24.0385 18.7966 24.375 18.4639 24.5495C18.3119 24.6287 18.1535 24.666 17.9987 24.666C17.8014 24.666 17.6031 24.6068 17.4294 24.4865Z" stroke="#848484" stroke-width="2"/>
</svg>
