<svg width="25" height="24" viewBox="0 0 25 24" fill="none" xmlns="http://www.w3.org/2000/svg">
<g clip-path="url(#clip0_11_1946)">
<path d="M18.5 14.4354C18.5 14.9876 18.9477 15.4354 19.5 15.4354C20.0523 15.4354 20.5 14.9876 20.5 14.4354H18.5ZM18.9142 2.58579L19.6213 1.87868L18.9142 2.58579ZM9.5 3H15.5V1H9.5V3ZM18.5 5.99868C18.5 6.00324 18.5 6.0078 18.5 6.01236C18.5 6.01692 18.5 6.02148 18.5 6.02605C18.5 6.03062 18.5 6.03519 18.5 6.03976C18.5 6.04433 18.5 6.04891 18.5 6.05348C18.5 6.05806 18.5 6.06264 18.5 6.06723C18.5 6.07181 18.5 6.0764 18.5 6.08099C18.5 6.08557 18.5 6.09017 18.5 6.09476C18.5 6.09936 18.5 6.10395 18.5 6.10855C18.5 6.11315 18.5 6.11776 18.5 6.12236C18.5 6.12697 18.5 6.13158 18.5 6.13619C18.5 6.1408 18.5 6.14541 18.5 6.15003C18.5 6.15465 18.5 6.15927 18.5 6.16389C18.5 6.16851 18.5 6.17314 18.5 6.17777C18.5 6.18239 18.5 6.18702 18.5 6.19166C18.5 6.19629 18.5 6.20093 18.5 6.20557C18.5 6.21021 18.5 6.21485 18.5 6.21949C18.5 6.22414 18.5 6.22878 18.5 6.23343C18.5 6.23808 18.5 6.24273 18.5 6.24739C18.5 6.25205 18.5 6.2567 18.5 6.26136C18.5 6.26602 18.5 6.27069 18.5 6.27535C18.5 6.28002 18.5 6.28469 18.5 6.28936C18.5 6.29403 18.5 6.29871 18.5 6.30338C18.5 6.30806 18.5 6.31274 18.5 6.31742C18.5 6.3221 18.5 6.32679 18.5 6.33148C18.5 6.33616 18.5 6.34086 18.5 6.34555C18.5 6.35024 18.5 6.35494 18.5 6.35963C18.5 6.36433 18.5 6.36903 18.5 6.37374C18.5 6.37844 18.5 6.38315 18.5 6.38786C18.5 6.39257 18.5 6.39728 18.5 6.40199C18.5 6.40671 18.5 6.41142 18.5 6.41614C18.5 6.42086 18.5 6.42559 18.5 6.43031C18.5 6.43504 18.5 6.43976 18.5 6.44449C18.5 6.44922 18.5 6.45396 18.5 6.45869C18.5 6.46343 18.5 6.46817 18.5 6.47291C18.5 6.47765 18.5 6.48239 18.5 6.48714C18.5 6.49188 18.5 6.49663 18.5 6.50138C18.5 6.50613 18.5 6.51089 18.5 6.51564C18.5 6.5204 18.5 6.52516 18.5 6.52992C18.5 6.53468 18.5 6.53945 18.5 6.54421C18.5 6.54898 18.5 6.55375 18.5 6.55852C18.5 6.56329 18.5 6.56807 18.5 6.57285C18.5 6.57762 18.5 6.5824 18.5 6.58719C18.5 6.59197 18.5 6.59675 18.5 6.60154C18.5 6.60633 18.5 6.61112 18.5 6.61591C18.5 6.6207 18.5 6.6255 18.5 6.6303C18.5 6.63509 18.5 6.63989 18.5 6.6447C18.5 6.6495 18.5 6.65431 18.5 6.65911C18.5 6.66392 18.5 6.66873 18.5 6.67355C18.5 6.67836 18.5 6.68317 18.5 6.68799C18.5 6.69281 18.5 6.69763 18.5 6.70245C18.5 6.70728 18.5 6.7121 18.5 6.71693C18.5 6.72176 18.5 6.72659 18.5 6.73142C18.5 6.73626 18.5 6.74109 18.5 6.74593C18.5 6.75077 18.5 6.75561 18.5 6.76046C18.5 6.7653 18.5 6.77014 18.5 6.77499C18.5 6.77984 18.5 6.78469 18.5 6.78955C18.5 6.7944 18.5 6.79926 18.5 6.80411C18.5 6.80897 18.5 6.81383 18.5 6.8187C18.5 6.82356 18.5 6.82843 18.5 6.83329C18.5 6.83816 18.5 6.84303 18.5 6.84791C18.5 6.85278 18.5 6.85766 18.5 6.86253C18.5 6.86741 18.5 6.87229 18.5 6.87718C18.5 6.88206 18.5 6.88695 18.5 6.89183C18.5 6.89672 18.5 6.90161 18.5 6.90651C18.5 6.9114 18.5 6.91629 18.5 6.92119C18.5 6.92609 18.5 6.93099 18.5 6.93589C18.5 6.9408 18.5 6.9457 18.5 6.95061C18.5 6.95552 18.5 6.96043 18.5 6.96534C18.5 6.97025 18.5 6.97517 18.5 6.98008C18.5 6.985 18.5 6.98992 18.5 6.99484C18.5 6.99977 18.5 7.00469 18.5 7.00962C18.5 7.01454 18.5 7.01947 18.5 7.02441C18.5 7.02934 18.5 7.03427 18.5 7.03921C18.5 7.04415 18.5 7.04908 18.5 7.05403C18.5 7.05897 18.5 7.06391 18.5 7.06886C18.5 7.0738 18.5 7.07875 18.5 7.0837C18.5 7.08865 18.5 7.09361 18.5 7.09856C18.5 7.10352 18.5 7.10848 18.5 7.11344C18.5 7.1184 18.5 7.12336 18.5 7.12833C18.5 7.13329 18.5 7.13826 18.5 7.14323C18.5 7.1482 18.5 7.15317 18.5 7.15815C18.5 7.16312 18.5 7.1681 18.5 7.17308C18.5 7.17806 18.5 7.18304 18.5 7.18802C18.5 7.19301 18.5 7.19799 18.5 7.20298C18.5 7.20797 18.5 7.21296 18.5 7.21796C18.5 7.22295 18.5 7.22794 18.5 7.23294C18.5 7.23794 18.5 7.24294 18.5 7.24794C18.5 7.25295 18.5 7.25795 18.5 7.26296C18.5 7.26797 18.5 7.27298 18.5 7.27799C18.5 7.283 18.5 7.28801 18.5 7.29303C18.5 7.29805 18.5 7.30307 18.5 7.30809C18.5 7.31311 18.5 7.31813 18.5 7.32316C18.5 7.32818 18.5 7.33321 18.5 7.33824C18.5 7.34327 18.5 7.3483 18.5 7.35334C18.5 7.35837 18.5 7.36341 18.5 7.36845C18.5 7.37349 18.5 7.37853 18.5 7.38358C18.5 7.38862 18.5 7.39367 18.5 7.39871C18.5 7.40376 18.5 7.40881 18.5 7.41387C18.5 7.41892 18.5 7.42397 18.5 7.42903C18.5 7.43409 18.5 7.43915 18.5 7.44421C18.5 7.44927 18.5 7.45434 18.5 7.4594C18.5 7.46447 18.5 7.46954 18.5 7.47461C18.5 7.47968 18.5 7.48475 18.5 7.48983C18.5 7.4949 18.5 7.49998 18.5 7.50506C18.5 7.51014 18.5 7.51522 18.5 7.52031C18.5 7.52539 18.5 7.53048 18.5 7.53557C18.5 7.54066 18.5 7.54575 18.5 7.55084C18.5 7.55593 18.5 7.56103 18.5 7.56613C18.5 7.57122 18.5 7.57632 18.5 7.58142C18.5 7.58653 18.5 7.59163 18.5 7.59674C18.5 7.60184 18.5 7.60695 18.5 7.61206C18.5 7.61717 18.5 7.62229 18.5 7.6274C18.5 7.63252 18.5 7.63763 18.5 7.64275C18.5 7.64787 18.5 7.65299 18.5 7.65812C18.5 7.66324 18.5 7.66837 18.5 7.67349C18.5 7.67862 18.5 7.68375 18.5 7.68888C18.5 7.69402 18.5 7.69915 18.5 7.70429C18.5 7.70942 18.5 7.71456 18.5 7.7197C18.5 7.72484 18.5 7.72999 18.5 7.73513C18.5 7.74028 18.5 7.74542 18.5 7.75057C18.5 7.75572 18.5 7.76087 18.5 7.76603C18.5 7.77118 18.5 7.77634 18.5 7.78149C18.5 7.78665 18.5 7.79181 18.5 7.79697C18.5 7.80214 18.5 7.8073 18.5 7.81247C18.5 7.81763 18.5 7.8228 18.5 7.82797C18.5 7.83314 18.5 7.83831 18.5 7.84349C18.5 7.84866 18.5 7.85384 18.5 7.85902C18.5 7.8642 18.5 7.86938 18.5 7.87456C18.5 7.87974 18.5 7.88493 18.5 7.89012C18.5 7.8953 18.5 7.90049 18.5 7.90568C18.5 7.91087 18.5 7.91607 18.5 7.92126C18.5 7.92646 18.5 7.93166 18.5 7.93686C18.5 7.94205 18.5 7.94726 18.5 7.95246C18.5 7.95766 18.5 7.96287 18.5 7.96808C18.5 7.97328 18.5 7.97849 18.5 7.98371C18.5 7.98892 18.5 7.99413 18.5 7.99935C18.5 8.00456 18.5 8.00978 18.5 8.015C18.5 8.02022 18.5 8.02544 18.5 8.03067C18.5 8.03589 18.5 8.04112 18.5 8.04634C18.5 8.05157 18.5 8.0568 18.5 8.06203C18.5 8.06727 18.5 8.0725 18.5 8.07774C18.5 8.08297 18.5 8.08821 18.5 8.09345C18.5 8.09869 18.5 8.10393 18.5 8.10918C18.5 8.11442 18.5 8.11967 18.5 8.12491C18.5 8.13016 18.5 8.13541 18.5 8.14066C18.5 8.14592 18.5 8.15117 18.5 8.15642C18.5 8.16168 18.5 8.16694 18.5 8.1722C18.5 8.17746 18.5 8.18272 18.5 8.18798C18.5 8.19325 18.5 8.19851 18.5 8.20378C18.5 8.20905 18.5 8.21432 18.5 8.21959C18.5 8.22486 18.5 8.23013 18.5 8.23541C18.5 8.24069 18.5 8.24596 18.5 8.25124C18.5 8.25652 18.5 8.2618 18.5 8.26709C18.5 8.27237 18.5 8.27765 18.5 8.28294C18.5 8.28823 18.5 8.29352 18.5 8.29881C18.5 8.3041 18.5 8.30939 18.5 8.31469C18.5 8.31998 18.5 8.32528 18.5 8.33058C18.5 8.33588 18.5 8.34118 18.5 8.34648C18.5 8.35178 18.5 8.35709 18.5 8.36239C18.5 8.3677 18.5 8.37301 18.5 8.37832C18.5 8.38363 18.5 8.38894 18.5 8.39425C18.5 8.39957 18.5 8.40488 18.5 8.4102C18.5 8.41552 18.5 8.42084 18.5 8.42616C18.5 8.43148 18.5 8.4368 18.5 8.44213C18.5 8.44745 18.5 8.45278 18.5 8.45811C18.5 8.46344 18.5 8.46877 18.5 8.4741C18.5 8.47943 18.5 8.48477 18.5 8.4901C18.5 8.49544 18.5 8.50078 18.5 8.50612C18.5 8.51146 18.5 8.5168 18.5 8.52214C18.5 8.52748 18.5 8.53283 18.5 8.53818C18.5 8.54352 18.5 8.54887 18.5 8.55422C18.5 8.55958 18.5 8.56493 18.5 8.57028C18.5 8.57564 18.5 8.58099 18.5 8.58635C18.5 8.59171 18.5 8.59707 18.5 8.60243C18.5 8.60779 18.5 8.61316 18.5 8.61852C18.5 8.62389 18.5 8.62926 18.5 8.63462C18.5 8.63999 18.5 8.64537 18.5 8.65074C18.5 8.65611 18.5 8.66148 18.5 8.66686C18.5 8.67224 18.5 8.67762 18.5 8.683C18.5 8.68837 18.5 8.69376 18.5 8.69914C18.5 8.70452 18.5 8.70991 18.5 8.7153C18.5 8.72068 18.5 8.72607 18.5 8.73146C18.5 8.73685 18.5 8.74224 18.5 8.74764C18.5 8.75303 18.5 8.75843 18.5 8.76382C18.5 8.76922 18.5 8.77462 18.5 8.78002C18.5 8.78542 18.5 8.79083 18.5 8.79623C18.5 8.80164 18.5 8.80704 18.5 8.81245C18.5 8.81786 18.5 8.82327 18.5 8.82868C18.5 8.83409 18.5 8.8395 18.5 8.84492C18.5 8.85033 18.5 8.85575 18.5 8.86117C18.5 8.86659 18.5 8.87201 18.5 8.87743C18.5 8.88285 18.5 8.88827 18.5 8.8937C18.5 8.89912 18.5 8.90455 18.5 8.90998C18.5 8.91541 18.5 8.92084 18.5 8.92627C18.5 8.9317 18.5 8.93714 18.5 8.94257C18.5 8.94801 18.5 8.95344 18.5 8.95888C18.5 8.96432 18.5 8.96976 18.5 8.9752C18.5 8.98064 18.5 8.98609 18.5 8.99153C18.5 8.99698 18.5 9.00243 18.5 9.00787C18.5 9.01332 18.5 9.01877 18.5 9.02423C18.5 9.02968 18.5 9.03513 18.5 9.04059C18.5 9.04604 18.5 9.0515 18.5 9.05696C18.5 9.06242 18.5 9.06788 18.5 9.07334C18.5 9.0788 18.5 9.08427 18.5 9.08973C18.5 9.0952 18.5 9.10066 18.5 9.10613C18.5 9.1116 18.5 9.11707 18.5 9.12254C18.5 9.12801 18.5 9.13349 18.5 9.13896C18.5 9.14444 18.5 9.14991 18.5 9.15539C18.5 9.16087 18.5 9.16635 18.5 9.17183C18.5 9.17731 18.5 9.1828 18.5 9.18828C18.5 9.19377 18.5 9.19925 18.5 9.20474C18.5 9.21023 18.5 9.21572 18.5 9.22121C18.5 9.2267 18.5 9.23219 18.5 9.23769C18.5 9.24318 18.5 9.24868 18.5 9.25417C18.5 9.25967 18.5 9.26517 18.5 9.27067C18.5 9.27617 18.5 9.28167 18.5 9.28718C18.5 9.29268 18.5 9.29819 18.5 9.30369C18.5 9.3092 18.5 9.31471 18.5 9.32022C18.5 9.32573 18.5 9.33124 18.5 9.33675C18.5 9.34227 18.5 9.34778 18.5 9.3533C18.5 9.35881 18.5 9.36433 18.5 9.36985C18.5 9.37537 18.5 9.38089 18.5 9.38641C18.5 9.39193 18.5 9.39746 18.5 9.40298C18.5 9.40851 18.5 9.41403 18.5 9.41956C18.5 9.42509 18.5 9.43062 18.5 9.43615C18.5 9.44168 18.5 9.44722 18.5 9.45275C18.5 9.45829 18.5 9.46382 18.5 9.46936C18.5 9.4749 18.5 9.48044 18.5 9.48598C18.5 9.49152 18.5 9.49706 18.5 9.5026C18.5 9.50815 18.5 9.51369 18.5 9.51924C18.5 9.52478 18.5 9.53033 18.5 9.53588C18.5 9.54143 18.5 9.54698 18.5 9.55253C18.5 9.55809 18.5 9.56364 18.5 9.56919C18.5 9.57475 18.5 9.58031 18.5 9.58587C18.5 9.59142 18.5 9.59698 18.5 9.60254C18.5 9.60811 18.5 9.61367 18.5 9.61923C18.5 9.6248 18.5 9.63036 18.5 9.63593C18.5 9.6415 18.5 9.64706 18.5 9.65263C18.5 9.6582 18.5 9.66377 18.5 9.66935C18.5 9.67492 18.5 9.68049 18.5 9.68607C18.5 9.69165 18.5 9.69722 18.5 9.7028C18.5 9.70838 18.5 9.71396 18.5 9.71954C18.5 9.72512 18.5 9.7307 18.5 9.73629C18.5 9.74187 18.5 9.74746 18.5 9.75304C18.5 9.75863 18.5 9.76422 18.5 9.76981C18.5 9.7754 18.5 9.78099 18.5 9.78658C18.5 9.79217 18.5 9.79777 18.5 9.80336C18.5 9.80896 18.5 9.81456 18.5 9.82015C18.5 9.82575 18.5 9.83135 18.5 9.83695C18.5 9.84255 18.5 9.84815 18.5 9.85376C18.5 9.85936 18.5 9.86497 18.5 9.87057C18.5 9.87618 18.5 9.88179 18.5 9.8874C18.5 9.893 18.5 9.89861 18.5 9.90423C18.5 9.90984 18.5 9.91545 18.5 9.92107C18.5 9.92668 18.5 9.9323 18.5 9.93791C18.5 9.94353 18.5 9.94915 18.5 9.95477C18.5 9.96039 18.5 9.96601 18.5 9.97163C18.5 9.97725 18.5 9.98288 18.5 9.9885C18.5 9.99413 18.5 9.99975 18.5 10.0054C18.5 10.011 18.5 10.0166 18.5 10.0223C18.5 10.0279 18.5 10.0335 18.5 10.0392C18.5 10.0448 18.5 10.0504 18.5 10.0561C18.5 10.0617 18.5 10.0673 18.5 10.073C18.5 10.0786 18.5 10.0843 18.5 10.0899C18.5 10.0955 18.5 10.1012 18.5 10.1068C18.5 10.1125 18.5 10.1181 18.5 10.1238C18.5 10.1294 18.5 10.135 18.5 10.1407C18.5 10.1463 18.5 10.152 18.5 10.1576C18.5 10.1633 18.5 10.1689 18.5 10.1746C18.5 10.1803 18.5 10.1859 18.5 10.1916C18.5 10.1972 18.5 10.2029 18.5 10.2085C18.5 10.2142 18.5 10.2199 18.5 10.2255C18.5 10.2312 18.5 10.2368 18.5 10.2425C18.5 10.2482 18.5 10.2538 18.5 10.2595C18.5 10.2652 18.5 10.2708 18.5 10.2765C18.5 10.2822 18.5 10.2878 18.5 10.2935C18.5 10.2992 18.5 10.3048 18.5 10.3105C18.5 10.3162 18.5 10.3219 18.5 10.3275C18.5 10.3332 18.5 10.3389 18.5 10.3446C18.5 10.3503 18.5 10.3559 18.5 10.3616C18.5 10.3673 18.5 10.373 18.5 10.3787C18.5 10.3843 18.5 10.39 18.5 10.3957C18.5 10.4014 18.5 10.4071 18.5 10.4128C18.5 10.4185 18.5 10.4241 18.5 10.4298C18.5 10.4355 18.5 10.4412 18.5 10.4469C18.5 10.4526 18.5 10.4583 18.5 10.464C18.5 10.4697 18.5 10.4754 18.5 10.4811C18.5 10.4868 18.5 10.4925 18.5 10.4982C18.5 10.5039 18.5 10.5096 18.5 10.5153C18.5 10.521 18.5 10.5267 18.5 10.5324C18.5 10.5381 18.5 10.5438 18.5 10.5495C18.5 10.5552 18.5 10.5609 18.5 10.5666C18.5 10.5723 18.5 10.578 18.5 10.5837C18.5 10.5894 18.5 10.5952 18.5 10.6009C18.5 10.6066 18.5 10.6123 18.5 10.618C18.5 10.6237 18.5 10.6294 18.5 10.6352C18.5 10.6409 18.5 10.6466 18.5 10.6523C18.5 10.658 18.5 10.6638 18.5 10.6695C18.5 10.6752 18.5 10.6809 18.5 10.6866C18.5 10.6924 18.5 10.6981 18.5 10.7038C18.5 10.7095 18.5 10.7153 18.5 10.721C18.5 10.7267 18.5 10.7325 18.5 10.7382C18.5 10.7439 18.5 10.7497 18.5 10.7554C18.5 10.7611 18.5 10.7668 18.5 10.7726C18.5 10.7783 18.5 10.7841 18.5 10.7898C18.5 10.7955 18.5 10.8013 18.5 10.807C18.5 10.8127 18.5 10.8185 18.5 10.8242C18.5 10.83 18.5 10.8357 18.5 10.8414C18.5 10.8472 18.5 10.8529 18.5 10.8587C18.5 10.8644 18.5 10.8702 18.5 10.8759C18.5 10.8817 18.5 10.8874 18.5 10.8932C18.5 10.8989 18.5 10.9047 18.5 10.9104C18.5 10.9162 18.5 10.9219 18.5 10.9277C18.5 10.9334 18.5 10.9392 18.5 10.9449C18.5 10.9507 18.5 10.9564 18.5 10.9622C18.5 10.9679 18.5 10.9737 18.5 10.9795C18.5 10.9852 18.5 10.991 18.5 10.9967C18.5 11.0025 18.5 11.0083 18.5 11.014C18.5 11.0198 18.5 11.0256 18.5 11.0313C18.5 11.0371 18.5 11.0429 18.5 11.0486C18.5 11.0544 18.5 11.0602 18.5 11.0659C18.5 11.0717 18.5 11.0775 18.5 11.0832C18.5 11.089 18.5 11.0948 18.5 11.1005C18.5 11.1063 18.5 11.1121 18.5 11.1179C18.5 11.1236 18.5 11.1294 18.5 11.1352C18.5 11.141 18.5 11.1467 18.5 11.1525C18.5 11.1583 18.5 11.1641 18.5 11.1699C18.5 11.1756 18.5 11.1814 18.5 11.1872C18.5 11.193 18.5 11.1988 18.5 11.2045C18.5 11.2103 18.5 11.2161 18.5 11.2219C18.5 11.2277 18.5 11.2335 18.5 11.2393C18.5 11.245 18.5 11.2508 18.5 11.2566C18.5 11.2624 18.5 11.2682 18.5 11.274C18.5 11.2798 18.5 11.2856 18.5 11.2914C18.5 11.2972 18.5 11.303 18.5 11.3087C18.5 11.3145 18.5 11.3203 18.5 11.3261C18.5 11.3319 18.5 11.3377 18.5 11.3435C18.5 11.3493 18.5 11.3551 18.5 11.3609C18.5 11.3667 18.5 11.3725 18.5 11.3783C18.5 11.3841 18.5 11.3899 18.5 11.3957C18.5 11.4015 18.5 11.4073 18.5 11.4131C18.5 11.4189 18.5 11.4247 18.5 11.4306C18.5 11.4364 18.5 11.4422 18.5 11.448C18.5 11.4538 18.5 11.4596 18.5 11.4654C18.5 11.4712 18.5 11.477 18.5 11.4828C18.5 11.4886 18.5 11.4945 18.5 11.5003C18.5 11.5061 18.5 11.5119 18.5 11.5177C18.5 11.5235 18.5 11.5293 18.5 11.5351C18.5 11.541 18.5 11.5468 18.5 11.5526C18.5 11.5584 18.5 11.5642 18.5 11.5701C18.5 11.5759 18.5 11.5817 18.5 11.5875C18.5 11.5933 18.5 11.5992 18.5 11.605C18.5 11.6108 18.5 11.6166 18.5 11.6224C18.5 11.6283 18.5 11.6341 18.5 11.6399C18.5 11.6457 18.5 11.6516 18.5 11.6574C18.5 11.6632 18.5 11.6691 18.5 11.6749C18.5 11.6807 18.5 11.6865 18.5 11.6924C18.5 11.6982 18.5 11.704 18.5 11.7099C18.5 11.7157 18.5 11.7215 18.5 11.7274C18.5 11.7332 18.5 11.739 18.5 11.7449C18.5 11.7507 18.5 11.7565 18.5 11.7624C18.5 11.7682 18.5 11.774 18.5 11.7799C18.5 11.7857 18.5 11.7915 18.5 11.7974C18.5 11.8032 18.5 11.8091 18.5 11.8149C18.5 11.8207 18.5 11.8266 18.5 11.8324C18.5 11.8383 18.5 11.8441 18.5 11.85C18.5 11.8558 18.5 11.8616 18.5 11.8675C18.5 11.8733 18.5 11.8792 18.5 11.885C18.5 11.8909 18.5 11.8967 18.5 11.9026C18.5 11.9084 18.5 11.9142 18.5 11.9201C18.5 11.9259 18.5 11.9318 18.5 11.9376C18.5 11.9435 18.5 11.9493 18.5 11.9552C18.5 11.961 18.5 11.9669 18.5 11.9727C18.5 11.9786 18.5 11.9845 18.5 11.9903C18.5 11.9962 18.5 12.002 18.5 12.0079C18.5 12.0137 18.5 12.0196 18.5 12.0254C18.5 12.0313 18.5 12.0371 18.5 12.043C18.5 12.0489 18.5 12.0547 18.5 12.0606C18.5 12.0664 18.5 12.0723 18.5 12.0782C18.5 12.084 18.5 12.0899 18.5 12.0957C18.5 12.1016 18.5 12.1075 18.5 12.1133C18.5 12.1192 18.5 12.125 18.5 12.1309C18.5 12.1368 18.5 12.1426 18.5 12.1485C18.5 12.1544 18.5 12.1602 18.5 12.1661C18.5 12.172 18.5 12.1778 18.5 12.1837C18.5 12.1896 18.5 12.1954 18.5 12.2013C18.5 12.2072 18.5 12.213 18.5 12.2189C18.5 12.2248 18.5 12.2306 18.5 12.2365C18.5 12.2424 18.5 12.2483 18.5 12.2541C18.5 12.26 18.5 12.2659 18.5 12.2717C18.5 12.2776 18.5 12.2835 18.5 12.2894C18.5 12.2952 18.5 12.3011 18.5 12.307C18.5 12.3129 18.5 12.3187 18.5 12.3246C18.5 12.3305 18.5 12.3364 18.5 12.3422C18.5 12.3481 18.5 12.354 18.5 12.3599C18.5 12.3658 18.5 12.3716 18.5 12.3775C18.5 12.3834 18.5 12.3893 18.5 12.3952C18.5 12.401 18.5 12.4069 18.5 12.4128C18.5 12.4187 18.5 12.4246 18.5 12.4304C18.5 12.4363 18.5 12.4422 18.5 12.4481C18.5 12.454 18.5 12.4599 18.5 12.4657C18.5 12.4716 18.5 12.4775 18.5 12.4834C18.5 12.4893 18.5 12.4952 18.5 12.5011C18.5 12.5069 18.5 12.5128 18.5 12.5187C18.5 12.5246 18.5 12.5305 18.5 12.5364C18.5 12.5423 18.5 12.5482 18.5 12.554C18.5 12.5599 18.5 12.5658 18.5 12.5717C18.5 12.5776 18.5 12.5835 18.5 12.5894C18.5 12.5953 18.5 12.6012 18.5 12.6071C18.5 12.6129 18.5 12.6188 18.5 12.6247C18.5 12.6306 18.5 12.6365 18.5 12.6424C18.5 12.6483 18.5 12.6542 18.5 12.6601C18.5 12.666 18.5 12.6719 18.5 12.6778C18.5 12.6837 18.5 12.6896 18.5 12.6955C18.5 12.7014 18.5 12.7073 18.5 12.7132C18.5 12.7191 18.5 12.7249 18.5 12.7308C18.5 12.7367 18.5 12.7426 18.5 12.7485C18.5 12.7544 18.5 12.7603 18.5 12.7662C18.5 12.7721 18.5 12.778 18.5 12.7839C18.5 12.7898 18.5 12.7957 18.5 12.8016C18.5 12.8075 18.5 12.8134 18.5 12.8193C18.5 12.8252 18.5 12.8311 18.5 12.837C18.5 12.8429 18.5 12.8488 18.5 12.8548C18.5 12.8607 18.5 12.8666 18.5 12.8725C18.5 12.8784 18.5 12.8843 18.5 12.8902C18.5 12.8961 18.5 12.902 18.5 12.9079C18.5 12.9138 18.5 12.9197 18.5 12.9256C18.5 12.9315 18.5 12.9374 18.5 12.9433C18.5 12.9492 18.5 12.9551 18.5 12.961C18.5 12.967 18.5 12.9729 18.5 12.9788C18.5 12.9847 18.5 12.9906 18.5 12.9965C18.5 13.0024 18.5 13.0083 18.5 13.0142C18.5 13.0201 18.5 13.026 18.5 13.0319C18.5 13.0379 18.5 13.0438 18.5 13.0497C18.5 13.0556 18.5 13.0615 18.5 13.0674C18.5 13.0733 18.5 13.0792 18.5 13.0851C18.5 13.0911 18.5 13.097 18.5 13.1029C18.5 13.1088 18.5 13.1147 18.5 13.1206C18.5 13.1265 18.5 13.1324 18.5 13.1384C18.5 13.1443 18.5 13.1502 18.5 13.1561C18.5 13.162 18.5 13.1679 18.5 13.1738C18.5 13.1797 18.5 13.1857 18.5 13.1916C18.5 13.1975 18.5 13.2034 18.5 13.2093C18.5 13.2152 18.5 13.2212 18.5 13.2271C18.5 13.233 18.5 13.2389 18.5 13.2448C18.5 13.2507 18.5 13.2566 18.5 13.2626C18.5 13.2685 18.5 13.2744 18.5 13.2803C18.5 13.2862 18.5 13.2921 18.5 13.2981C18.5 13.304 18.5 13.3099 18.5 13.3158C18.5 13.3217 18.5 13.3277 18.5 13.3336C18.5 13.3395 18.5 13.3454 18.5 13.3513C18.5 13.3572 18.5 13.3632 18.5 13.3691C18.5 13.375 18.5 13.3809 18.5 13.3868C18.5 13.3928 18.5 13.3987 18.5 13.4046C18.5 13.4105 18.5 13.4164 18.5 13.4224C18.5 13.4283 18.5 13.4342 18.5 13.4401C18.5 13.446 18.5 13.452 18.5 13.4579C18.5 13.4638 18.5 13.4697 18.5 13.4756C18.5 13.4816 18.5 13.4875 18.5 13.4934C18.5 13.4993 18.5 13.5053 18.5 13.5112C18.5 13.5171 18.5 13.523 18.5 13.5289C18.5 13.5349 18.5 13.5408 18.5 13.5467C18.5 13.5526 18.5 13.5586 18.5 13.5645C18.5 13.5704 18.5 13.5763 18.5 13.5822C18.5 13.5882 18.5 13.5941 18.5 13.6C18.5 13.6059 18.5 13.6119 18.5 13.6178C18.5 13.6237 18.5 13.6296 18.5 13.6356C18.5 13.6415 18.5 13.6474 18.5 13.6533C18.5 13.6593 18.5 13.6652 18.5 13.6711C18.5 13.677 18.5 13.6829 18.5 13.6889C18.5 13.6948 18.5 13.7007 18.5 13.7066C18.5 13.7126 18.5 13.7185 18.5 13.7244C18.5 13.7303 18.5 13.7363 18.5 13.7422C18.5 13.7481 18.5 13.754 18.5 13.76C18.5 13.7659 18.5 13.7718 18.5 13.7777C18.5 13.7837 18.5 13.7896 18.5 13.7955C18.5 13.8014 18.5 13.8074 18.5 13.8133C18.5 13.8192 18.5 13.8251 18.5 13.8311C18.5 13.837 18.5 13.8429 18.5 13.8488C18.5 13.8548 18.5 13.8607 18.5 13.8666C18.5 13.8725 18.5 13.8785 18.5 13.8844C18.5 13.8903 18.5 13.8962 18.5 13.9022C18.5 13.9081 18.5 13.914 18.5 13.9199C18.5 13.9259 18.5 13.9318 18.5 13.9377C18.5 13.9436 18.5 13.9496 18.5 13.9555C18.5 13.9614 18.5 13.9674 18.5 13.9733C18.5 13.9792 18.5 13.9851 18.5 13.9911C18.5 13.997 18.5 14.0029 18.5 14.0088C18.5 14.0148 18.5 14.0207 18.5 14.0266C18.5 14.0325 18.5 14.0385 18.5 14.0444C18.5 14.0503 18.5 14.0562 18.5 14.0622C18.5 14.0681 18.5 14.074 18.5 14.0799C18.5 14.0859 18.5 14.0918 18.5 14.0977C18.5 14.1036 18.5 14.1096 18.5 14.1155C18.5 14.1214 18.5 14.1273 18.5 14.1333C18.5 14.1392 18.5 14.1451 18.5 14.151C18.5 14.157 18.5 14.1629 18.5 14.1688C18.5 14.1747 18.5 14.1807 18.5 14.1866C18.5 14.1925 18.5 14.1984 18.5 14.2044C18.5 14.2103 18.5 14.2162 18.5 14.2221C18.5 14.2281 18.5 14.234 18.5 14.2399C18.5 14.2458 18.5 14.2518 18.5 14.2577C18.5 14.2636 18.5 14.2695 18.5 14.2754C18.5 14.2814 18.5 14.2873 18.5 14.2932C18.5 14.2991 18.5 14.3051 18.5 14.311C18.5 14.3169 18.5 14.3228 18.5 14.3288C18.5 14.3347 18.5 14.3406 18.5 14.3465C18.5 14.3525 18.5 14.3584 18.5 14.3643C18.5 14.3702 18.5 14.3761 18.5 14.3821C18.5 14.388 18.5 14.3939 18.5 14.3998C18.5 14.4058 18.5 14.4117 18.5 14.4176C18.5 14.4235 18.5 14.4294 18.5 14.4354H20.5C20.5 14.4294 20.5 14.4235 20.5 14.4176C20.5 14.4117 20.5 14.4058 20.5 14.3998C20.5 14.3939 20.5 14.388 20.5 14.3821C20.5 14.3761 20.5 14.3702 20.5 14.3643C20.5 14.3584 20.5 14.3525 20.5 14.3465C20.5 14.3406 20.5 14.3347 20.5 14.3288C20.5 14.3228 20.5 14.3169 20.5 14.311C20.5 14.3051 20.5 14.2991 20.5 14.2932C20.5 14.2873 20.5 14.2814 20.5 14.2754C20.5 14.2695 20.5 14.2636 20.5 14.2577C20.5 14.2518 20.5 14.2458 20.5 14.2399C20.5 14.234 20.5 14.2281 20.5 14.2221C20.5 14.2162 20.5 14.2103 20.5 14.2044C20.5 14.1984 20.5 14.1925 20.5 14.1866C20.5 14.1807 20.5 14.1747 20.5 14.1688C20.5 14.1629 20.5 14.157 20.5 14.151C20.5 14.1451 20.5 14.1392 20.5 14.1333C20.5 14.1273 20.5 14.1214 20.5 14.1155C20.5 14.1096 20.5 14.1036 20.5 14.0977C20.5 14.0918 20.5 14.0859 20.5 14.0799C20.5 14.074 20.5 14.0681 20.5 14.0622C20.5 14.0562 20.5 14.0503 20.5 14.0444C20.5 14.0385 20.5 14.0325 20.5 14.0266C20.5 14.0207 20.5 14.0148 20.5 14.0088C20.5 14.0029 20.5 13.997 20.5 13.9911C20.5 13.9851 20.5 13.9792 20.5 13.9733C20.5 13.9674 20.5 13.9614 20.5 13.9555C20.5 13.9496 20.5 13.9436 20.5 13.9377C20.5 13.9318 20.5 13.9259 20.5 13.9199C20.5 13.914 20.5 13.9081 20.5 13.9022C20.5 13.8962 20.5 13.8903 20.5 13.8844C20.5 13.8785 20.5 13.8725 20.5 13.8666C20.5 13.8607 20.5 13.8548 20.5 13.8488C20.5 13.8429 20.5 13.837 20.5 13.8311C20.5 13.8251 20.5 13.8192 20.5 13.8133C20.5 13.8074 20.5 13.8014 20.5 13.7955C20.5 13.7896 20.5 13.7837 20.5 13.7777C20.5 13.7718 20.5 13.7659 20.5 13.76C20.5 13.754 20.5 13.7481 20.5 13.7422C20.5 13.7363 20.5 13.7303 20.5 13.7244C20.5 13.7185 20.5 13.7126 20.5 13.7066C20.5 13.7007 20.5 13.6948 20.5 13.6889C20.5 13.6829 20.5 13.677 20.5 13.6711C20.5 13.6652 20.5 13.6593 20.5 13.6533C20.5 13.6474 20.5 13.6415 20.5 13.6356C20.5 13.6296 20.5 13.6237 20.5 13.6178C20.5 13.6119 20.5 13.6059 20.5 13.6C20.5 13.5941 20.5 13.5882 20.5 13.5822C20.5 13.5763 20.5 13.5704 20.5 13.5645C20.5 13.5586 20.5 13.5526 20.5 13.5467C20.5 13.5408 20.5 13.5349 20.5 13.5289C20.5 13.523 20.5 13.5171 20.5 13.5112C20.5 13.5053 20.5 13.4993 20.5 13.4934C20.5 13.4875 20.5 13.4816 20.5 13.4756C20.5 13.4697 20.5 13.4638 20.5 13.4579C20.5 13.452 20.5 13.446 20.5 13.4401C20.5 13.4342 20.5 13.4283 20.5 13.4224C20.5 13.4164 20.5 13.4105 20.5 13.4046C20.5 13.3987 20.5 13.3928 20.5 13.3868C20.5 13.3809 20.5 13.375 20.5 13.3691C20.5 13.3632 20.5 13.3572 20.5 13.3513C20.5 13.3454 20.5 13.3395 20.5 13.3336C20.5 13.3277 20.5 13.3217 20.5 13.3158C20.5 13.3099 20.5 13.304 20.5 13.2981C20.5 13.2921 20.5 13.2862 20.5 13.2803C20.5 13.2744 20.5 13.2685 20.5 13.2626C20.5 13.2566 20.5 13.2507 20.5 13.2448C20.5 13.2389 20.5 13.233 20.5 13.2271C20.5 13.2212 20.5 13.2152 20.5 13.2093C20.5 13.2034 20.5 13.1975 20.5 13.1916C20.5 13.1857 20.5 13.1797 20.5 13.1738C20.5 13.1679 20.5 13.162 20.5 13.1561C20.5 13.1502 20.5 13.1443 20.5 13.1384C20.5 13.1324 20.5 13.1265 20.5 13.1206C20.5 13.1147 20.5 13.1088 20.5 13.1029C20.5 13.097 20.5 13.0911 20.5 13.0851C20.5 13.0792 20.5 13.0733 20.5 13.0674C20.5 13.0615 20.5 13.0556 20.5 13.0497C20.5 13.0438 20.5 13.0379 20.5 13.0319C20.5 13.026 20.5 13.0201 20.5 13.0142C20.5 13.0083 20.5 13.0024 20.5 12.9965C20.5 12.9906 20.5 12.9847 20.5 12.9788C20.5 12.9729 20.5 12.967 20.5 12.961C20.5 12.9551 20.5 12.9492 20.5 12.9433C20.5 12.9374 20.5 12.9315 20.5 12.9256C20.5 12.9197 20.5 12.9138 20.5 12.9079C20.5 12.902 20.5 12.8961 20.5 12.8902C20.5 12.8843 20.5 12.8784 20.5 12.8725C20.5 12.8666 20.5 12.8607 20.5 12.8548C20.5 12.8488 20.5 12.8429 20.5 12.837C20.5 12.8311 20.5 12.8252 20.5 12.8193C20.5 12.8134 20.5 12.8075 20.5 12.8016C20.5 12.7957 20.5 12.7898 20.5 12.7839C20.5 12.778 20.5 12.7721 20.5 12.7662C20.5 12.7603 20.5 12.7544 20.5 12.7485C20.5 12.7426 20.5 12.7367 20.5 12.7308C20.5 12.7249 20.5 12.7191 20.5 12.7132C20.5 12.7073 20.5 12.7014 20.5 12.6955C20.5 12.6896 20.5 12.6837 20.5 12.6778C20.5 12.6719 20.5 12.666 20.5 12.6601C20.5 12.6542 20.5 12.6483 20.5 12.6424C20.5 12.6365 20.5 12.6306 20.5 12.6247C20.5 12.6188 20.5 12.6129 20.5 12.6071C20.5 12.6012 20.5 12.5953 20.5 12.5894C20.5 12.5835 20.5 12.5776 20.5 12.5717C20.5 12.5658 20.5 12.5599 20.5 12.554C20.5 12.5482 20.5 12.5423 20.5 12.5364C20.5 12.5305 20.5 12.5246 20.5 12.5187C20.5 12.5128 20.5 12.5069 20.5 12.5011C20.5 12.4952 20.5 12.4893 20.5 12.4834C20.5 12.4775 20.5 12.4716 20.5 12.4657C20.5 12.4599 20.5 12.454 20.5 12.4481C20.5 12.4422 20.5 12.4363 20.5 12.4304C20.5 12.4246 20.5 12.4187 20.5 12.4128C20.5 12.4069 20.5 12.401 20.5 12.3952C20.5 12.3893 20.5 12.3834 20.5 12.3775C20.5 12.3716 20.5 12.3658 20.5 12.3599C20.5 12.354 20.5 12.3481 20.5 12.3422C20.5 12.3364 20.5 12.3305 20.5 12.3246C20.5 12.3187 20.5 12.3129 20.5 12.307C20.5 12.3011 20.5 12.2952 20.5 12.2894C20.5 12.2835 20.5 12.2776 20.5 12.2717C20.5 12.2659 20.5 12.26 20.5 12.2541C20.5 12.2483 20.5 12.2424 20.5 12.2365C20.5 12.2306 20.5 12.2248 20.5 12.2189C20.5 12.213 20.5 12.2072 20.5 12.2013C20.5 12.1954 20.5 12.1896 20.5 12.1837C20.5 12.1778 20.5 12.172 20.5 12.1661C20.5 12.1602 20.5 12.1544 20.5 12.1485C20.5 12.1426 20.5 12.1368 20.5 12.1309C20.5 12.125 20.5 12.1192 20.5 12.1133C20.5 12.1075 20.5 12.1016 20.5 12.0957C20.5 12.0899 20.5 12.084 20.5 12.0782C20.5 12.0723 20.5 12.0664 20.5 12.0606C20.5 12.0547 20.5 12.0489 20.5 12.043C20.5 12.0371 20.5 12.0313 20.5 12.0254C20.5 12.0196 20.5 12.0137 20.5 12.0079C20.5 12.002 20.5 11.9962 20.5 11.9903C20.5 11.9845 20.5 11.9786 20.5 11.9727C20.5 11.9669 20.5 11.961 20.5 11.9552C20.5 11.9493 20.5 11.9435 20.5 11.9376C20.5 11.9318 20.5 11.9259 20.5 11.9201C20.5 11.9142 20.5 11.9084 20.5 11.9026C20.5 11.8967 20.5 11.8909 20.5 11.885C20.5 11.8792 20.5 11.8733 20.5 11.8675C20.5 11.8616 20.5 11.8558 20.5 11.85C20.5 11.8441 20.5 11.8383 20.5 11.8324C20.5 11.8266 20.5 11.8207 20.5 11.8149C20.5 11.8091 20.5 11.8032 20.5 11.7974C20.5 11.7915 20.5 11.7857 20.5 11.7799C20.5 11.774 20.5 11.7682 20.5 11.7624C20.5 11.7565 20.5 11.7507 20.5 11.7449C20.5 11.739 20.5 11.7332 20.5 11.7274C20.5 11.7215 20.5 11.7157 20.5 11.7099C20.5 11.704 20.5 11.6982 20.5 11.6924C20.5 11.6865 20.5 11.6807 20.5 11.6749C20.5 11.6691 20.5 11.6632 20.5 11.6574C20.5 11.6516 20.5 11.6457 20.5 11.6399C20.5 11.6341 20.5 11.6283 20.5 11.6224C20.5 11.6166 20.5 11.6108 20.5 11.605C20.5 11.5992 20.5 11.5933 20.5 11.5875C20.5 11.5817 20.5 11.5759 20.5 11.5701C20.5 11.5642 20.5 11.5584 20.5 11.5526C20.5 11.5468 20.5 11.541 20.5 11.5351C20.5 11.5293 20.5 11.5235 20.5 11.5177C20.5 11.5119 20.5 11.5061 20.5 11.5003C20.5 11.4945 20.5 11.4886 20.5 11.4828C20.5 11.477 20.5 11.4712 20.5 11.4654C20.5 11.4596 20.5 11.4538 20.5 11.448C20.5 11.4422 20.5 11.4364 20.5 11.4306C20.5 11.4247 20.5 11.4189 20.5 11.4131C20.5 11.4073 20.5 11.4015 20.5 11.3957C20.5 11.3899 20.5 11.3841 20.5 11.3783C20.5 11.3725 20.5 11.3667 20.5 11.3609C20.5 11.3551 20.5 11.3493 20.5 11.3435C20.5 11.3377 20.5 11.3319 20.5 11.3261C20.5 11.3203 20.5 11.3145 20.5 11.3087C20.5 11.303 20.5 11.2972 20.5 11.2914C20.5 11.2856 20.5 11.2798 20.5 11.274C20.5 11.2682 20.5 11.2624 20.5 11.2566C20.5 11.2508 20.5 11.245 20.5 11.2393C20.5 11.2335 20.5 11.2277 20.5 11.2219C20.5 11.2161 20.5 11.2103 20.5 11.2045C20.5 11.1988 20.5 11.193 20.5 11.1872C20.5 11.1814 20.5 11.1756 20.5 11.1699C20.5 11.1641 20.5 11.1583 20.5 11.1525C20.5 11.1467 20.5 11.141 20.5 11.1352C20.5 11.1294 20.5 11.1236 20.5 11.1179C20.5 11.1121 20.5 11.1063 20.5 11.1005C20.5 11.0948 20.5 11.089 20.5 11.0832C20.5 11.0775 20.5 11.0717 20.5 11.0659C20.5 11.0602 20.5 11.0544 20.5 11.0486C20.5 11.0429 20.5 11.0371 20.5 11.0313C20.5 11.0256 20.5 11.0198 20.5 11.014C20.5 11.0083 20.5 11.0025 20.5 10.9967C20.5 10.991 20.5 10.9852 20.5 10.9795C20.5 10.9737 20.5 10.9679 20.5 10.9622C20.5 10.9564 20.5 10.9507 20.5 10.9449C20.5 10.9392 20.5 10.9334 20.5 10.9277C20.5 10.9219 20.5 10.9162 20.5 10.9104C20.5 10.9047 20.5 10.8989 20.5 10.8932C20.5 10.8874 20.5 10.8817 20.5 10.8759C20.5 10.8702 20.5 10.8644 20.5 10.8587C20.5 10.8529 20.5 10.8472 20.5 10.8414C20.5 10.8357 20.5 10.83 20.5 10.8242C20.5 10.8185 20.5 10.8127 20.5 10.807C20.5 10.8013 20.5 10.7955 20.5 10.7898C20.5 10.7841 20.5 10.7783 20.5 10.7726C20.5 10.7668 20.5 10.7611 20.5 10.7554C20.5 10.7497 20.5 10.7439 20.5 10.7382C20.5 10.7325 20.5 10.7267 20.5 10.721C20.5 10.7153 20.5 10.7095 20.5 10.7038C20.5 10.6981 20.5 10.6924 20.5 10.6866C20.5 10.6809 20.5 10.6752 20.5 10.6695C20.5 10.6638 20.5 10.658 20.5 10.6523C20.5 10.6466 20.5 10.6409 20.5 10.6352C20.5 10.6294 20.5 10.6237 20.5 10.618C20.5 10.6123 20.5 10.6066 20.5 10.6009C20.5 10.5952 20.5 10.5894 20.5 10.5837C20.5 10.578 20.5 10.5723 20.5 10.5666C20.5 10.5609 20.5 10.5552 20.5 10.5495C20.5 10.5438 20.5 10.5381 20.5 10.5324C20.5 10.5267 20.5 10.521 20.5 10.5153C20.5 10.5096 20.5 10.5039 20.5 10.4982C20.5 10.4925 20.5 10.4868 20.5 10.4811C20.5 10.4754 20.5 10.4697 20.5 10.464C20.5 10.4583 20.5 10.4526 20.5 10.4469C20.5 10.4412 20.5 10.4355 20.5 10.4298C20.5 10.4241 20.5 10.4185 20.5 10.4128C20.5 10.4071 20.5 10.4014 20.5 10.3957C20.5 10.39 20.5 10.3843 20.5 10.3787C20.5 10.373 20.5 10.3673 20.5 10.3616C20.5 10.3559 20.5 10.3503 20.5 10.3446C20.5 10.3389 20.5 10.3332 20.5 10.3275C20.5 10.3219 20.5 10.3162 20.5 10.3105C20.5 10.3048 20.5 10.2992 20.5 10.2935C20.5 10.2878 20.5 10.2822 20.5 10.2765C20.5 10.2708 20.5 10.2652 20.5 10.2595C20.5 10.2538 20.5 10.2482 20.5 10.2425C20.5 10.2368 20.5 10.2312 20.5 10.2255C20.5 10.2199 20.5 10.2142 20.5 10.2085C20.5 10.2029 20.5 10.1972 20.5 10.1916C20.5 10.1859 20.5 10.1803 20.5 10.1746C20.5 10.1689 20.5 10.1633 20.5 10.1576C20.5 10.152 20.5 10.1463 20.5 10.1407C20.5 10.135 20.5 10.1294 20.5 10.1238C20.5 10.1181 20.5 10.1125 20.5 10.1068C20.5 10.1012 20.5 10.0955 20.5 10.0899C20.5 10.0843 20.5 10.0786 20.5 10.073C20.5 10.0673 20.5 10.0617 20.5 10.0561C20.5 10.0504 20.5 10.0448 20.5 10.0392C20.5 10.0335 20.5 10.0279 20.5 10.0223C20.5 10.0166 20.5 10.011 20.5 10.0054C20.5 9.99975 20.5 9.99413 20.5 9.9885C20.5 9.98288 20.5 9.97725 20.5 9.97163C20.5 9.96601 20.5 9.96039 20.5 9.95477C20.5 9.94915 20.5 9.94353 20.5 9.93791C20.5 9.9323 20.5 9.92668 20.5 9.92107C20.5 9.91545 20.5 9.90984 20.5 9.90423C20.5 9.89861 20.5 9.893 20.5 9.8874C20.5 9.88179 20.5 9.87618 20.5 9.87057C20.5 9.86497 20.5 9.85936 20.5 9.85376C20.5 9.84815 20.5 9.84255 20.5 9.83695C20.5 9.83135 20.5 9.82575 20.5 9.82015C20.5 9.81456 20.5 9.80896 20.5 9.80336C20.5 9.79777 20.5 9.79217 20.5 9.78658C20.5 9.78099 20.5 9.7754 20.5 9.76981C20.5 9.76422 20.5 9.75863 20.5 9.75304C20.5 9.74746 20.5 9.74187 20.5 9.73629C20.5 9.7307 20.5 9.72512 20.5 9.71954C20.5 9.71396 20.5 9.70838 20.5 9.7028C20.5 9.69722 20.5 9.69165 20.5 9.68607C20.5 9.68049 20.5 9.67492 20.5 9.66935C20.5 9.66377 20.5 9.6582 20.5 9.65263C20.5 9.64706 20.5 9.6415 20.5 9.63593C20.5 9.63036 20.5 9.6248 20.5 9.61923C20.5 9.61367 20.5 9.60811 20.5 9.60254C20.5 9.59698 20.5 9.59142 20.5 9.58587C20.5 9.58031 20.5 9.57475 20.5 9.56919C20.5 9.56364 20.5 9.55809 20.5 9.55253C20.5 9.54698 20.5 9.54143 20.5 9.53588C20.5 9.53033 20.5 9.52478 20.5 9.51924C20.5 9.51369 20.5 9.50815 20.5 9.5026C20.5 9.49706 20.5 9.49152 20.5 9.48598C20.5 9.48044 20.5 9.4749 20.5 9.46936C20.5 9.46382 20.5 9.45829 20.5 9.45275C20.5 9.44722 20.5 9.44168 20.5 9.43615C20.5 9.43062 20.5 9.42509 20.5 9.41956C20.5 9.41403 20.5 9.40851 20.5 9.40298C20.5 9.39746 20.5 9.39193 20.5 9.38641C20.5 9.38089 20.5 9.37537 20.5 9.36985C20.5 9.36433 20.5 9.35881 20.5 9.3533C20.5 9.34778 20.5 9.34227 20.5 9.33675C20.5 9.33124 20.5 9.32573 20.5 9.32022C20.5 9.31471 20.5 9.3092 20.5 9.30369C20.5 9.29819 20.5 9.29268 20.5 9.28718C20.5 9.28167 20.5 9.27617 20.5 9.27067C20.5 9.26517 20.5 9.25967 20.5 9.25417C20.5 9.24868 20.5 9.24318 20.5 9.23769C20.5 9.23219 20.5 9.2267 20.5 9.22121C20.5 9.21572 20.5 9.21023 20.5 9.20474C20.5 9.19925 20.5 9.19377 20.5 9.18828C20.5 9.1828 20.5 9.17731 20.5 9.17183C20.5 9.16635 20.5 9.16087 20.5 9.15539C20.5 9.14991 20.5 9.14444 20.5 9.13896C20.5 9.13349 20.5 9.12801 20.5 9.12254C20.5 9.11707 20.5 9.1116 20.5 9.10613C20.5 9.10066 20.5 9.0952 20.5 9.08973C20.5 9.08427 20.5 9.0788 20.5 9.07334C20.5 9.06788 20.5 9.06242 20.5 9.05696C20.5 9.0515 20.5 9.04604 20.5 9.04059C20.5 9.03513 20.5 9.02968 20.5 9.02423C20.5 9.01877 20.5 9.01332 20.5 9.00787C20.5 9.00243 20.5 8.99698 20.5 8.99153C20.5 8.98609 20.5 8.98064 20.5 8.9752C20.5 8.96976 20.5 8.96432 20.5 8.95888C20.5 8.95344 20.5 8.94801 20.5 8.94257C20.5 8.93714 20.5 8.9317 20.5 8.92627C20.5 8.92084 20.5 8.91541 20.5 8.90998C20.5 8.90455 20.5 8.89912 20.5 8.8937C20.5 8.88827 20.5 8.88285 20.5 8.87743C20.5 8.87201 20.5 8.86659 20.5 8.86117C20.5 8.85575 20.5 8.85033 20.5 8.84492C20.5 8.8395 20.5 8.83409 20.5 8.82868C20.5 8.82327 20.5 8.81786 20.5 8.81245C20.5 8.80704 20.5 8.80164 20.5 8.79623C20.5 8.79083 20.5 8.78542 20.5 8.78002C20.5 8.77462 20.5 8.76922 20.5 8.76382C20.5 8.75843 20.5 8.75303 20.5 8.74764C20.5 8.74224 20.5 8.73685 20.5 8.73146C20.5 8.72607 20.5 8.72068 20.5 8.7153C20.5 8.70991 20.5 8.70452 20.5 8.69914C20.5 8.69376 20.5 8.68837 20.5 8.683C20.5 8.67762 20.5 8.67224 20.5 8.66686C20.5 8.66148 20.5 8.65611 20.5 8.65074C20.5 8.64537 20.5 8.63999 20.5 8.63462C20.5 8.62926 20.5 8.62389 20.5 8.61852C20.5 8.61316 20.5 8.60779 20.5 8.60243C20.5 8.59707 20.5 8.59171 20.5 8.58635C20.5 8.58099 20.5 8.57564 20.5 8.57028C20.5 8.56493 20.5 8.55958 20.5 8.55422C20.5 8.54887 20.5 8.54352 20.5 8.53818C20.5 8.53283 20.5 8.52748 20.5 8.52214C20.5 8.5168 20.5 8.51146 20.5 8.50612C20.5 8.50078 20.5 8.49544 20.5 8.4901C20.5 8.48477 20.5 8.47943 20.5 8.4741C20.5 8.46877 20.5 8.46344 20.5 8.45811C20.5 8.45278 20.5 8.44745 20.5 8.44213C20.5 8.4368 20.5 8.43148 20.5 8.42616C20.5 8.42084 20.5 8.41552 20.5 8.4102C20.5 8.40488 20.5 8.39957 20.5 8.39425C20.5 8.38894 20.5 8.38363 20.5 8.37832C20.5 8.37301 20.5 8.3677 20.5 8.36239C20.5 8.35709 20.5 8.35178 20.5 8.34648C20.5 8.34118 20.5 8.33588 20.5 8.33058C20.5 8.32528 20.5 8.31998 20.5 8.31469C20.5 8.30939 20.5 8.3041 20.5 8.29881C20.5 8.29352 20.5 8.28823 20.5 8.28294C20.5 8.27765 20.5 8.27237 20.5 8.26709C20.5 8.2618 20.5 8.25652 20.5 8.25124C20.5 8.24596 20.5 8.24069 20.5 8.23541C20.5 8.23013 20.5 8.22486 20.5 8.21959C20.5 8.21432 20.5 8.20905 20.5 8.20378C20.5 8.19851 20.5 8.19325 20.5 8.18798C20.5 8.18272 20.5 8.17746 20.5 8.1722C20.5 8.16694 20.5 8.16168 20.5 8.15642C20.5 8.15117 20.5 8.14592 20.5 8.14066C20.5 8.13541 20.5 8.13016 20.5 8.12491C20.5 8.11967 20.5 8.11442 20.5 8.10918C20.5 8.10393 20.5 8.09869 20.5 8.09345C20.5 8.08821 20.5 8.08297 20.5 8.07774C20.5 8.0725 20.5 8.06727 20.5 8.06203C20.5 8.0568 20.5 8.05157 20.5 8.04634C20.5 8.04112 20.5 8.03589 20.5 8.03067C20.5 8.02544 20.5 8.02022 20.5 8.015C20.5 8.00978 20.5 8.00456 20.5 7.99935C20.5 7.99413 20.5 7.98892 20.5 7.98371C20.5 7.97849 20.5 7.97328 20.5 7.96808C20.5 7.96287 20.5 7.95766 20.5 7.95246C20.5 7.94726 20.5 7.94205 20.5 7.93686C20.5 7.93166 20.5 7.92646 20.5 7.92126C20.5 7.91607 20.5 7.91087 20.5 7.90568C20.5 7.90049 20.5 7.8953 20.5 7.89012C20.5 7.88493 20.5 7.87974 20.5 7.87456C20.5 7.86938 20.5 7.8642 20.5 7.85902C20.5 7.85384 20.5 7.84866 20.5 7.84349C20.5 7.83831 20.5 7.83314 20.5 7.82797C20.5 7.8228 20.5 7.81763 20.5 7.81247C20.5 7.8073 20.5 7.80214 20.5 7.79697C20.5 7.79181 20.5 7.78665 20.5 7.78149C20.5 7.77634 20.5 7.77118 20.5 7.76603C20.5 7.76087 20.5 7.75572 20.5 7.75057C20.5 7.74542 20.5 7.74028 20.5 7.73513C20.5 7.72999 20.5 7.72484 20.5 7.7197C20.5 7.71456 20.5 7.70942 20.5 7.70429C20.5 7.69915 20.5 7.69402 20.5 7.68888C20.5 7.68375 20.5 7.67862 20.5 7.67349C20.5 7.66837 20.5 7.66324 20.5 7.65812C20.5 7.65299 20.5 7.64787 20.5 7.64275C20.5 7.63763 20.5 7.63252 20.5 7.6274C20.5 7.62229 20.5 7.61717 20.5 7.61206C20.5 7.60695 20.5 7.60184 20.5 7.59674C20.5 7.59163 20.5 7.58653 20.5 7.58142C20.5 7.57632 20.5 7.57122 20.5 7.56613C20.5 7.56103 20.5 7.55593 20.5 7.55084C20.5 7.54575 20.5 7.54066 20.5 7.53557C20.5 7.53048 20.5 7.52539 20.5 7.52031C20.5 7.51522 20.5 7.51014 20.5 7.50506C20.5 7.49998 20.5 7.4949 20.5 7.48983C20.5 7.48475 20.5 7.47968 20.5 7.47461C20.5 7.46954 20.5 7.46447 20.5 7.4594C20.5 7.45434 20.5 7.44927 20.5 7.44421C20.5 7.43915 20.5 7.43409 20.5 7.42903C20.5 7.42397 20.5 7.41892 20.5 7.41387C20.5 7.40881 20.5 7.40376 20.5 7.39871C20.5 7.39367 20.5 7.38862 20.5 7.38358C20.5 7.37853 20.5 7.37349 20.5 7.36845C20.5 7.36341 20.5 7.35837 20.5 7.35334C20.5 7.3483 20.5 7.34327 20.5 7.33824C20.5 7.33321 20.5 7.32818 20.5 7.32316C20.5 7.31813 20.5 7.31311 20.5 7.30809C20.5 7.30307 20.5 7.29805 20.5 7.29303C20.5 7.28801 20.5 7.283 20.5 7.27799C20.5 7.27298 20.5 7.26797 20.5 7.26296C20.5 7.25795 20.5 7.25295 20.5 7.24794C20.5 7.24294 20.5 7.23794 20.5 7.23294C20.5 7.22794 20.5 7.22295 20.5 7.21796C20.5 7.21296 20.5 7.20797 20.5 7.20298C20.5 7.19799 20.5 7.19301 20.5 7.18802C20.5 7.18304 20.5 7.17806 20.5 7.17308C20.5 7.1681 20.5 7.16312 20.5 7.15815C20.5 7.15317 20.5 7.1482 20.5 7.14323C20.5 7.13826 20.5 7.13329 20.5 7.12833C20.5 7.12336 20.5 7.1184 20.5 7.11344C20.5 7.10848 20.5 7.10352 20.5 7.09856C20.5 7.09361 20.5 7.08865 20.5 7.0837C20.5 7.07875 20.5 7.0738 20.5 7.06886C20.5 7.06391 20.5 7.05897 20.5 7.05403C20.5 7.04908 20.5 7.04415 20.5 7.03921C20.5 7.03427 20.5 7.02934 20.5 7.02441C20.5 7.01947 20.5 7.01454 20.5 7.00962C20.5 7.00469 20.5 6.99977 20.5 6.99484C20.5 6.98992 20.5 6.985 20.5 6.98008C20.5 6.97517 20.5 6.97025 20.5 6.96534C20.5 6.96043 20.5 6.95552 20.5 6.95061C20.5 6.9457 20.5 6.9408 20.5 6.93589C20.5 6.93099 20.5 6.92609 20.5 6.92119C20.5 6.91629 20.5 6.9114 20.5 6.90651C20.5 6.90161 20.5 6.89672 20.5 6.89183C20.5 6.88695 20.5 6.88206 20.5 6.87718C20.5 6.87229 20.5 6.86741 20.5 6.86253C20.5 6.85766 20.5 6.85278 20.5 6.84791C20.5 6.84303 20.5 6.83816 20.5 6.83329C20.5 6.82843 20.5 6.82356 20.5 6.8187C20.5 6.81383 20.5 6.80897 20.5 6.80411C20.5 6.79926 20.5 6.7944 20.5 6.78955C20.5 6.78469 20.5 6.77984 20.5 6.77499C20.5 6.77014 20.5 6.7653 20.5 6.76046C20.5 6.75561 20.5 6.75077 20.5 6.74593C20.5 6.74109 20.5 6.73626 20.5 6.73142C20.5 6.72659 20.5 6.72176 20.5 6.71693C20.5 6.7121 20.5 6.70728 20.5 6.70245C20.5 6.69763 20.5 6.69281 20.5 6.68799C20.5 6.68317 20.5 6.67836 20.5 6.67355C20.5 6.66873 20.5 6.66392 20.5 6.65911C20.5 6.65431 20.5 6.6495 20.5 6.6447C20.5 6.63989 20.5 6.63509 20.5 6.6303C20.5 6.6255 20.5 6.6207 20.5 6.61591C20.5 6.61112 20.5 6.60633 20.5 6.60154C20.5 6.59675 20.5 6.59197 20.5 6.58719C20.5 6.5824 20.5 6.57762 20.5 6.57285C20.5 6.56807 20.5 6.56329 20.5 6.55852C20.5 6.55375 20.5 6.54898 20.5 6.54421C20.5 6.53945 20.5 6.53468 20.5 6.52992C20.5 6.52516 20.5 6.5204 20.5 6.51564C20.5 6.51089 20.5 6.50613 20.5 6.50138C20.5 6.49663 20.5 6.49188 20.5 6.48714C20.5 6.48239 20.5 6.47765 20.5 6.47291C20.5 6.46817 20.5 6.46343 20.5 6.45869C20.5 6.45396 20.5 6.44922 20.5 6.44449C20.5 6.43976 20.5 6.43504 20.5 6.43031C20.5 6.42559 20.5 6.42086 20.5 6.41614C20.5 6.41142 20.5 6.40671 20.5 6.40199C20.5 6.39728 20.5 6.39257 20.5 6.38786C20.5 6.38315 20.5 6.37844 20.5 6.37374C20.5 6.36903 20.5 6.36433 20.5 6.35963C20.5 6.35494 20.5 6.35024 20.5 6.34555C20.5 6.34086 20.5 6.33616 20.5 6.33148C20.5 6.32679 20.5 6.3221 20.5 6.31742C20.5 6.31274 20.5 6.30806 20.5 6.30338C20.5 6.29871 20.5 6.29403 20.5 6.28936C20.5 6.28469 20.5 6.28002 20.5 6.27535C20.5 6.27069 20.5 6.26602 20.5 6.26136C20.5 6.2567 20.5 6.25205 20.5 6.24739C20.5 6.24273 20.5 6.23808 20.5 6.23343C20.5 6.22878 20.5 6.22414 20.5 6.21949C20.5 6.21485 20.5 6.21021 20.5 6.20557C20.5 6.20093 20.5 6.19629 20.5 6.19166C20.5 6.18702 20.5 6.18239 20.5 6.17777C20.5 6.17314 20.5 6.16851 20.5 6.16389C20.5 6.15927 20.5 6.15465 20.5 6.15003C20.5 6.14541 20.5 6.1408 20.5 6.13619C20.5 6.13158 20.5 6.12697 20.5 6.12236C20.5 6.11776 20.5 6.11315 20.5 6.10855C20.5 6.10395 20.5 6.09936 20.5 6.09476C20.5 6.09017 20.5 6.08557 20.5 6.08099C20.5 6.0764 20.5 6.07181 20.5 6.06723C20.5 6.06264 20.5 6.05806 20.5 6.05348C20.5 6.04891 20.5 6.04433 20.5 6.03976C20.5 6.03519 20.5 6.03062 20.5 6.02605C20.5 6.02148 20.5 6.01692 20.5 6.01236C20.5 6.0078 20.5 6.00324 20.5 5.99868H18.5ZM6.5 20V6H4.5V20H6.5ZM15.5 3C16.4711 3 17.0988 3.00212 17.5613 3.06431C17.995 3.12262 18.131 3.21677 18.2071 3.29289L19.6213 1.87868C19.1117 1.36902 18.4833 1.17027 17.8278 1.08214C17.201 0.997876 16.4145 1 15.5 1V3ZM20.5 5.99868C20.5 5.08459 20.5021 4.29839 20.4179 3.67183C20.3297 3.01643 20.1309 2.38827 19.6213 1.87868L18.2071 3.29289C18.2833 3.36909 18.3774 3.50501 18.4357 3.93843C18.4979 4.40068 18.5 5.02803 18.5 5.99868H20.5ZM9.5 1C8.58546 1 7.79896 0.997876 7.17221 1.08214C6.51669 1.17027 5.88834 1.36902 5.37868 1.87868L6.79289 3.29289C6.86902 3.21677 7.00496 3.12262 7.4387 3.06431C7.90121 3.00212 8.52892 3 9.5 3V1ZM6.5 6C6.5 5.02892 6.50212 4.40121 6.56431 3.9387C6.62262 3.50496 6.71677 3.36902 6.79289 3.29289L5.37868 1.87868C4.86902 2.38834 4.67027 3.01669 4.58214 3.67221C4.49788 4.29896 4.5 5.08546 4.5 6H6.5Z" fill="url(#paint0_linear_11_1946)"/>
<path d="M15.5 2H9.5V18H15.5C17.3856 18 18.3284 18 18.9142 17.4142C19.5 16.8284 19.5 15.8858 19.5 14.0005V5.99879C19.5 4.11398 19.5 3.17157 18.9142 2.58579C18.3284 2 17.3856 2 15.5 2Z" stroke="url(#paint1_linear_11_1946)" stroke-width="2"/>
<path d="M19.5 23C20.0523 23 20.5 22.5523 20.5 22C20.5 21.4477 20.0523 21 19.5 21V23ZM17.9615 18.3853L17.4817 17.5079L17.9615 18.3853ZM19.2322 17.6322L19.9644 18.3133L19.2322 17.6322ZM19.4489 17.2667L18.5 16.9511L19.4489 17.2667ZM19.5 21H7.49999V23H19.5V21ZM7.49999 19H16.4179V17H7.49999V19ZM19.5 22C19.5 21 19.5004 21 19.5008 21C19.5009 21 19.5012 21 19.5015 21C19.5019 21 19.5023 21 19.5027 21C19.5034 21 19.5041 21 19.5045 21C19.5055 21 19.5059 21 19.5057 21C19.5054 21 19.503 21 19.4986 20.9999C19.4897 20.9996 19.473 20.9991 19.4496 20.9977C19.4026 20.995 19.3303 20.9894 19.2415 20.9775C19.0589 20.9532 18.8331 20.9062 18.6214 20.8215C18.4075 20.736 18.2543 20.6306 18.1588 20.5161C18.0782 20.4192 18 20.2723 18 20H16C16 20.7277 16.2343 21.3308 16.6224 21.7964C16.9957 22.2444 17.4675 22.514 17.8786 22.6785C18.2919 22.8438 18.6911 22.9218 18.9772 22.96C19.1229 22.9794 19.2459 22.9893 19.3355 22.9945C19.3805 22.997 19.4175 22.9984 19.4453 22.9992C19.4592 22.9995 19.4708 22.9997 19.4799 22.9999C19.4845 22.9999 19.4885 23 19.4918 23C19.4935 23 19.495 23 19.4964 23C19.4971 23 19.4977 23 19.4983 23C19.4986 23 19.499 23 19.4992 23C19.4996 23 19.5 23 19.5 22ZM18 20C18 19.7645 18.0588 19.627 18.1185 19.5378C18.1841 19.4398 18.2879 19.3466 18.4413 19.2627L17.4817 17.5079C16.7235 17.9226 16 18.7086 16 20H18ZM20.5 16.3999C20.5 16.3984 20.5 16.397 20.5 16.3955C20.5 16.394 20.5 16.3925 20.5 16.3911C20.5 16.3896 20.5 16.3881 20.5 16.3867C20.5 16.3852 20.5 16.3837 20.5 16.3823C20.5 16.3808 20.5 16.3793 20.5 16.3779C20.5 16.3764 20.5 16.3749 20.5 16.3735C20.5 16.372 20.5 16.3705 20.5 16.3691C20.5 16.3676 20.5 16.3661 20.5 16.3647C20.5 16.3632 20.5 16.3617 20.5 16.3603C20.5 16.3588 20.5 16.3573 20.5 16.3559C20.5 16.3544 20.5 16.353 20.5 16.3515C20.5 16.35 20.5 16.3486 20.5 16.3471C20.5 16.3456 20.5 16.3442 20.5 16.3427C20.5 16.3412 20.5 16.3398 20.5 16.3383C20.5 16.3369 20.5 16.3354 20.5 16.3339C20.5 16.3325 20.5 16.331 20.5 16.3295C20.5 16.3281 20.5 16.3266 20.5 16.3251C20.5 16.3237 20.5 16.3222 20.5 16.3208C20.5 16.3193 20.5 16.3178 20.5 16.3164C20.5 16.3149 20.5 16.3135 20.5 16.312C20.5 16.3105 20.5 16.3091 20.5 16.3076C20.5 16.3061 20.5 16.3047 20.5 16.3032C20.5 16.3018 20.5 16.3003 20.5 16.2988C20.5 16.2974 20.5 16.2959 20.5 16.2945C20.5 16.293 20.5 16.2915 20.5 16.2901C20.5 16.2886 20.5 16.2872 20.5 16.2857C20.5 16.2842 20.5 16.2828 20.5 16.2813C20.5 16.2799 20.5 16.2784 20.5 16.2769C20.5 16.2755 20.5 16.274 20.5 16.2726C20.5 16.2711 20.5 16.2697 20.5 16.2682C20.5 16.2667 20.5 16.2653 20.5 16.2638C20.5 16.2624 20.5 16.2609 20.5 16.2594C20.5 16.258 20.5 16.2565 20.5 16.2551C20.5 16.2536 20.5 16.2522 20.5 16.2507C20.5 16.2492 20.5 16.2478 20.5 16.2463C20.5 16.2449 20.5 16.2434 20.5 16.242C20.5 16.2405 20.5 16.239 20.5 16.2376C20.5 16.2361 20.5 16.2347 20.5 16.2332C20.5 16.2318 20.5 16.2303 20.5 16.2289C20.5 16.2274 20.5 16.2259 20.5 16.2245C20.5 16.223 20.5 16.2216 20.5 16.2201C20.5 16.2187 20.5 16.2172 20.5 16.2158C20.5 16.2143 20.5 16.2128 20.5 16.2114C20.5 16.2099 20.5 16.2085 20.5 16.207C20.5 16.2056 20.5 16.2041 20.5 16.2027C20.5 16.2012 20.5 16.1998 20.5 16.1983C20.5 16.1968 20.5 16.1954 20.5 16.1939C20.5 16.1925 20.5 16.191 20.5 16.1896C20.5 16.1881 20.5 16.1867 20.5 16.1852C20.5 16.1838 20.5 16.1823 20.5 16.1808C20.5 16.1794 20.5 16.1779 20.5 16.1765C20.5 16.175 20.5 16.1736 20.5 16.1721C20.5 16.1707 20.5 16.1692 20.5 16.1678C20.5 16.1663 20.5 16.1649 20.5 16.1634C20.5 16.162 20.5 16.1605 20.5 16.1591C20.5 16.1576 20.5 16.1561 20.5 16.1547C20.5 16.1532 20.5 16.1518 20.5 16.1503C20.5 16.1489 20.5 16.1474 20.5 16.146C20.5 16.1445 20.5 16.1431 20.5 16.1416C20.5 16.1402 20.5 16.1387 20.5 16.1373C20.5 16.1358 20.5 16.1344 20.5 16.1329C20.5 16.1315 20.5 16.13 20.5 16.1286C20.5 16.1271 20.5 16.1257 20.5 16.1242C20.5 16.1228 20.5 16.1213 20.5 16.1198C20.5 16.1184 20.5 16.1169 20.5 16.1155C20.5 16.114 20.5 16.1126 20.5 16.1111C20.5 16.1097 20.5 16.1082 20.5 16.1068C20.5 16.1053 20.5 16.1039 20.5 16.1024C20.5 16.101 20.5 16.0995 20.5 16.0981C20.5 16.0966 20.5 16.0952 20.5 16.0937C20.5 16.0923 20.5 16.0908 20.5 16.0894C20.5 16.0879 20.5 16.0865 20.5 16.085C20.5 16.0836 20.5 16.0821 20.5 16.0807C20.5 16.0792 20.5 16.0778 20.5 16.0763C20.5 16.0749 20.5 16.0734 20.5 16.072C20.5 16.0705 20.5 16.0691 20.5 16.0676C20.5 16.0662 20.5 16.0647 20.5 16.0633C20.5 16.0618 20.5 16.0604 20.5 16.0589C20.5 16.0575 20.5 16.056 20.5 16.0546C20.5 16.0531 20.5 16.0517 20.5 16.0502C20.5 16.0488 20.5 16.0473 20.5 16.0459C20.5 16.0444 20.5 16.043 20.5 16.0415C20.5 16.0401 20.5 16.0386 20.5 16.0372C20.5 16.0357 20.5 16.0343 20.5 16.0328C20.5 16.0314 20.5 16.0299 20.5 16.0285C20.5 16.027 20.5 16.0256 20.5 16.0241C20.5 16.0227 20.5 16.0212 20.5 16.0198C20.5 16.0183 20.5 16.0169 20.5 16.0154C20.5 16.014 20.5 16.0125 20.5 16.0111C20.5 16.0096 20.5 16.0082 20.5 16.0067C20.5 16.0053 20.5 16.0038 20.5 16.0024C20.5 16.0009 20.5 15.9995 20.5 15.998C20.5 15.9966 20.5 15.9951 20.5 15.9937C20.5 15.9922 20.5 15.9908 20.5 15.9893C20.5 15.9879 20.5 15.9864 20.5 15.985C20.5 15.9835 20.5 15.9821 20.5 15.9806C20.5 15.9792 20.5 15.9777 20.5 15.9763C20.5 15.9748 20.5 15.9734 20.5 15.9719C20.5 15.9705 20.5 15.969 20.5 15.9676C20.5 15.9661 20.5 15.9647 20.5 15.9632C20.5 15.9618 20.5 15.9603 20.5 15.9589C20.5 15.9574 20.5 15.956 20.5 15.9545C20.5 15.9531 20.5 15.9516 20.5 15.9502C20.5 15.9487 20.5 15.9473 20.5 15.9458C20.5 15.9444 20.5 15.9429 20.5 15.9415C20.5 15.94 20.5 15.9386 20.5 15.9371C20.5 15.9357 20.5 15.9342 20.5 15.9328C20.5 15.9313 20.5 15.9299 20.5 15.9284C20.5 15.927 20.5 15.9255 20.5 15.9241C20.5 15.9226 20.5 15.9212 20.5 15.9197C20.5 15.9183 20.5 15.9168 20.5 15.9154C20.5 15.9139 20.5 15.9125 20.5 15.911C20.5 15.9096 20.5 15.9081 20.5 15.9067C20.5 15.9052 20.5 15.9038 20.5 15.9023C20.5 15.9009 20.5 15.8994 20.5 15.898C20.5 15.8965 20.5 15.8951 20.5 15.8936C20.5 15.8922 20.5 15.8907 20.5 15.8893C20.5 15.8878 20.5 15.8864 20.5 15.8849C20.5 15.8835 20.5 15.882 20.5 15.8806C20.5 15.8791 20.5 15.8777 20.5 15.8762C20.5 15.8748 20.5 15.8733 20.5 15.8719C20.5 15.8704 20.5 15.869 20.5 15.8675C20.5 15.8661 20.5 15.8646 20.5 15.8632C20.5 15.8617 20.5 15.8603 20.5 15.8588C20.5 15.8573 20.5 15.8559 20.5 15.8544C20.5 15.853 20.5 15.8515 20.5 15.8501C20.5 15.8486 20.5 15.8472 20.5 15.8457C20.5 15.8443 20.5 15.8428 20.5 15.8414C20.5 15.8399 20.5 15.8385 20.5 15.837C20.5 15.8356 20.5 15.8341 20.5 15.8327C20.5 15.8312 20.5 15.8297 20.5 15.8283C20.5 15.8268 20.5 15.8254 20.5 15.8239C20.5 15.8225 20.5 15.821 20.5 15.8196C20.5 15.8181 20.5 15.8167 20.5 15.8152C20.5 15.8138 20.5 15.8123 20.5 15.8109C20.5 15.8094 20.5 15.8079 20.5 15.8065C20.5 15.805 20.5 15.8036 20.5 15.8021C20.5 15.8007 20.5 15.7992 20.5 15.7978C20.5 15.7963 20.5 15.7949 20.5 15.7934C20.5 15.7919 20.5 15.7905 20.5 15.789C20.5 15.7876 20.5 15.7861 20.5 15.7847C20.5 15.7832 20.5 15.7818 20.5 15.7803C20.5 15.7788 20.5 15.7774 20.5 15.7759C20.5 15.7745 20.5 15.773 20.5 15.7716C20.5 15.7701 20.5 15.7687 20.5 15.7672C20.5 15.7657 20.5 15.7643 20.5 15.7628C20.5 15.7614 20.5 15.7599 20.5 15.7585C20.5 15.757 20.5 15.7555 20.5 15.7541C20.5 15.7526 20.5 15.7512 20.5 15.7497C20.5 15.7483 20.5 15.7468 20.5 15.7453C20.5 15.7439 20.5 15.7424 20.5 15.741C20.5 15.7395 20.5 15.7381 20.5 15.7366C20.5 15.7351 20.5 15.7337 20.5 15.7322C20.5 15.7308 20.5 15.7293 20.5 15.7279C20.5 15.7264 20.5 15.7249 20.5 15.7235C20.5 15.722 20.5 15.7206 20.5 15.7191C20.5 15.7176 20.5 15.7162 20.5 15.7147C20.5 15.7133 20.5 15.7118 20.5 15.7103C20.5 15.7089 20.5 15.7074 20.5 15.706C20.5 15.7045 20.5 15.703 20.5 15.7016C20.5 15.7001 20.5 15.6987 20.5 15.6972C20.5 15.6957 20.5 15.6943 20.5 15.6928C20.5 15.6914 20.5 15.6899 20.5 15.6884C20.5 15.687 20.5 15.6855 20.5 15.6841C20.5 15.6826 20.5 15.6811 20.5 15.6797C20.5 15.6782 20.5 15.6767 20.5 15.6753C20.5 15.6738 20.5 15.6724 20.5 15.6709C20.5 15.6694 20.5 15.668 20.5 15.6665C20.5 15.665 20.5 15.6636 20.5 15.6621C20.5 15.6606 20.5 15.6592 20.5 15.6577C20.5 15.6563 20.5 15.6548 20.5 15.6533C20.5 15.6519 20.5 15.6504 20.5 15.6489C20.5 15.6475 20.5 15.646 20.5 15.6445C20.5 15.6431 20.5 15.6416 20.5 15.6401C20.5 15.6387 20.5 15.6372 20.5 15.6358C20.5 15.6343 20.5 15.6328 20.5 15.6314C20.5 15.6299 20.5 15.6284 20.5 15.627C20.5 15.6255 20.5 15.624 20.5 15.6226C20.5 15.6211 20.5 15.6196 20.5 15.6182C20.5 15.6167 20.5 15.6152 20.5 15.6138C20.5 15.6123 20.5 15.6108 20.5 15.6093C20.5 15.6079 20.5 15.6064 20.5 15.6049C20.5 15.6035 20.5 15.602 20.5 15.6005C20.5 15.5991 20.5 15.5976 20.5 15.5961C20.5 15.5947 20.5 15.5932 20.5 15.5917C20.5 15.5903 20.5 15.5888 20.5 15.5873C20.5 15.5858 20.5 15.5844 20.5 15.5829C20.5 15.5814 20.5 15.58 20.5 15.5785C20.5 15.577 20.5 15.5755 20.5 15.5741C20.5 15.5726 20.5 15.5711 20.5 15.5697C20.5 15.5682 20.5 15.5667 20.5 15.5652C20.5 15.5638 20.5 15.5623 20.5 15.5608C20.5 15.5594 20.5 15.5579 20.5 15.5564C20.5 15.5549 20.5 15.5535 20.5 15.552C20.5 15.5505 20.5 15.549 20.5 15.5476C20.5 15.5461 20.5 15.5446 20.5 15.5431C20.5 15.5417 20.5 15.5402 20.5 15.5387C20.5 15.5372 20.5 15.5358 20.5 15.5343C20.5 15.5328 20.5 15.5313 20.5 15.5299C20.5 15.5284 20.5 15.5269 20.5 15.5254C20.5 15.524 20.5 15.5225 20.5 15.521C20.5 15.5195 20.5 15.518 20.5 15.5166C20.5 15.5151 20.5 15.5136 20.5 15.5121C20.5 15.5107 20.5 15.5092 20.5 15.5077C20.5 15.5062 20.5 15.5047 20.5 15.5033C20.5 15.5018 20.5 15.5003 20.5 15.4988C20.5 15.4973 20.5 15.4959 20.5 15.4944C20.5 15.4929 20.5 15.4914 20.5 15.4899C20.5 15.4885 20.5 15.487 20.5 15.4855C20.5 15.484 20.5 15.4825 20.5 15.4811C20.5 15.4796 20.5 15.4781 20.5 15.4766C20.5 15.4751 20.5 15.4736 20.5 15.4722C20.5 15.4707 20.5 15.4692 20.5 15.4677C20.5 15.4662 20.5 15.4647 20.5 15.4633C20.5 15.4618 20.5 15.4603 20.5 15.4588C20.5 15.4573 20.5 15.4558 20.5 15.4543C20.5 15.4529 20.5 15.4514 20.5 15.4499C20.5 15.4484 20.5 15.4469 20.5 15.4454C20.5 15.4439 20.5 15.4425 20.5 15.441C20.5 15.4395 20.5 15.438 20.5 15.4365C20.5 15.435 20.5 15.4335 20.5 15.432C20.5 15.4306 20.5 15.4291 20.5 15.4276C20.5 15.4261 20.5 15.4246 20.5 15.4231C20.5 15.4216 20.5 15.4201 20.5 15.4186C20.5 15.4172 20.5 15.4157 20.5 15.4142C20.5 15.4127 20.5 15.4112 20.5 15.4097C20.5 15.4082 20.5 15.4067 20.5 15.4052C20.5 15.4037 20.5 15.4022 20.5 15.4007C20.5 15.3993 20.5 15.3978 20.5 15.3963C20.5 15.3948 20.5 15.3933 20.5 15.3918C20.5 15.3903 20.5 15.3888 20.5 15.3873C20.5 15.3858 20.5 15.3843 20.5 15.3828C20.5 15.3813 20.5 15.3798 20.5 15.3783C20.5 15.3768 20.5 15.3753 20.5 15.3738C20.5 15.3723 20.5 15.3709 20.5 15.3694C20.5 15.3679 20.5 15.3664 20.5 15.3649C20.5 15.3634 20.5 15.3619 20.5 15.3604C20.5 15.3589 20.5 15.3574 20.5 15.3559C20.5 15.3544 20.5 15.3529 20.5 15.3514C20.5 15.3499 20.5 15.3484 20.5 15.3469C20.5 15.3454 20.5 15.3439 20.5 15.3424C20.5 15.3409 20.5 15.3394 20.5 15.3379C20.5 15.3364 20.5 15.3349 20.5 15.3334C20.5 15.3319 20.5 15.3304 20.5 15.3289C20.5 15.3273 20.5 15.3258 20.5 15.3243C20.5 15.3228 20.5 15.3213 20.5 15.3198C20.5 15.3183 20.5 15.3168 20.5 15.3153C20.5 15.3138 20.5 15.3123 20.5 15.3108C20.5 15.3093 20.5 15.3078 20.5 15.3063C20.5 15.3048 20.5 15.3033 20.5 15.3018C20.5 15.3002 20.5 15.2987 20.5 15.2972C20.5 15.2957 20.5 15.2942 20.5 15.2927C20.5 15.2912 20.5 15.2897 20.5 15.2882C20.5 15.2867 20.5 15.2852 20.5 15.2836C20.5 15.2821 20.5 15.2806 20.5 15.2791C20.5 15.2776 20.5 15.2761 20.5 15.2746C20.5 15.2731 20.5 15.2716 20.5 15.27C20.5 15.2685 20.5 15.267 20.5 15.2655C20.5 15.264 20.5 15.2625 20.5 15.261C20.5 15.2594 20.5 15.2579 20.5 15.2564C20.5 15.2549 20.5 15.2534 20.5 15.2519C20.5 15.2504 20.5 15.2488 20.5 15.2473C20.5 15.2458 20.5 15.2443 20.5 15.2428C20.5 15.2413 20.5 15.2397 20.5 15.2382C20.5 15.2367 20.5 15.2352 20.5 15.2337C20.5 15.2321 20.5 15.2306 20.5 15.2291C20.5 15.2276 20.5 15.2261 20.5 15.2245C20.5 15.223 20.5 15.2215 20.5 15.22C20.5 15.2185 20.5 15.2169 20.5 15.2154C20.5 15.2139 20.5 15.2124 20.5 15.2108C20.5 15.2093 20.5 15.2078 20.5 15.2063C20.5 15.2048 20.5 15.2032 20.5 15.2017C20.5 15.2002 20.5 15.1987 20.5 15.1971C20.5 15.1956 20.5 15.1941 20.5 15.1925C20.5 15.191 20.5 15.1895 20.5 15.188C20.5 15.1864 20.5 15.1849 20.5 15.1834C20.5 15.1819 20.5 15.1803 20.5 15.1788C20.5 15.1773 20.5 15.1757 20.5 15.1742C20.5 15.1727 20.5 15.1712 20.5 15.1696C20.5 15.1681 20.5 15.1666 20.5 15.165C20.5 15.1635 20.5 15.162 20.5 15.1604C20.5 15.1589 20.5 15.1574 20.5 15.1558C20.5 15.1543 20.5 15.1528 20.5 15.1512C20.5 15.1497 20.5 15.1482 20.5 15.1466C20.5 15.1451 20.5 15.1436 20.5 15.142C20.5 15.1405 20.5 15.1389 20.5 15.1374C20.5 15.1359 20.5 15.1343 20.5 15.1328C20.5 15.1313 20.5 15.1297 20.5 15.1282C20.5 15.1266 20.5 15.1251 20.5 15.1236C20.5 15.122 20.5 15.1205 20.5 15.1189C20.5 15.1174 20.5 15.1159 20.5 15.1143C20.5 15.1128 20.5 15.1112 20.5 15.1097C20.5 15.1082 20.5 15.1066 20.5 15.1051C20.5 15.1035 20.5 15.102 20.5 15.1004C20.5 15.0989 20.5 15.0974 20.5 15.0958C20.5 15.0943 20.5 15.0927 20.5 15.0912C20.5 15.0896 20.5 15.0881 20.5 15.0865C20.5 15.085 20.5 15.0834 20.5 15.0819C20.5 15.0803 20.5 15.0788 20.5 15.0772C20.5 15.0757 20.5 15.0741 20.5 15.0726C20.5 15.071 20.5 15.0695 20.5 15.0679C20.5 15.0664 20.5 15.0648 20.5 15.0633C20.5 15.0617 20.5 15.0602 20.5 15.0586C20.5 15.0571 20.5 15.0555 20.5 15.054C20.5 15.0524 20.5 15.0509 20.5 15.0493C20.5 15.0478 20.5 15.0462 20.5 15.0446C20.5 15.0431 20.5 15.0415 20.5 15.04C20.5 15.0384 20.5 15.0369 20.5 15.0353C20.5 15.0337 20.5 15.0322 20.5 15.0306C20.5 15.0291 20.5 15.0275 20.5 15.026C20.5 15.0244 20.5 15.0228 20.5 15.0213C20.5 15.0197 20.5 15.0181 20.5 15.0166C20.5 15.015 20.5 15.0135 20.5 15.0119C20.5 15.0103 20.5 15.0088 20.5 15.0072C20.5 15.0056 20.5 15.0041 20.5 15.0025C20.5 15.001 20.5 14.9994 20.5 14.9978C20.5 14.9963 20.5 14.9947 20.5 14.9931C20.5 14.9916 20.5 14.99 20.5 14.9884C20.5 14.9869 20.5 14.9853 20.5 14.9837C20.5 14.9821 20.5 14.9806 20.5 14.979C20.5 14.9774 20.5 14.9759 20.5 14.9743C20.5 14.9727 20.5 14.9712 20.5 14.9696C20.5 14.968 20.5 14.9664 20.5 14.9649C20.5 14.9633 20.5 14.9617 20.5 14.9601C20.5 14.9586 20.5 14.957 20.5 14.9554C20.5 14.9538 20.5 14.9523 20.5 14.9507C20.5 14.9491 20.5 14.9475 20.5 14.946C20.5 14.9444 20.5 14.9428 20.5 14.9412C20.5 14.9396 20.5 14.9381 20.5 14.9365C20.5 14.9349 20.5 14.9333 20.5 14.9317C20.5 14.9302 20.5 14.9286 20.5 14.927C20.5 14.9254 20.5 14.9238 20.5 14.9223C20.5 14.9207 20.5 14.9191 20.5 14.9175C20.5 14.9159 20.5 14.9143 20.5 14.9127C20.5 14.9112 20.5 14.9096 20.5 14.908C20.5 14.9064 20.5 14.9048 20.5 14.9032C20.5 14.9016 20.5 14.9001 20.5 14.8985C20.5 14.8969 20.5 14.8953 20.5 14.8937C20.5 14.8921 20.5 14.8905 20.5 14.8889C20.5 14.8873 20.5 14.8857 20.5 14.8842C20.5 14.8826 20.5 14.881 20.5 14.8794C20.5 14.8778 20.5 14.8762 20.5 14.8746C20.5 14.873 20.5 14.8714 20.5 14.8698C20.5 14.8682 20.5 14.8666 20.5 14.865C20.5 14.8634 20.5 14.8618 20.5 14.8602C20.5 14.8586 20.5 14.857 20.5 14.8554C20.5 14.8538 20.5 14.8522 20.5 14.8506C20.5 14.849 20.5 14.8474 20.5 14.8458C20.5 14.8442 20.5 14.8426 20.5 14.841C20.5 14.8394 20.5 14.8378 20.5 14.8362C20.5 14.8346 20.5 14.833 20.5 14.8314C20.5 14.8298 20.5 14.8282 20.5 14.8266C20.5 14.825 20.5 14.8234 20.5 14.8218C20.5 14.8202 20.5 14.8185 20.5 14.8169C20.5 14.8153 20.5 14.8137 20.5 14.8121C20.5 14.8105 20.5 14.8089 20.5 14.8073C20.5 14.8057 20.5 14.8041 20.5 14.8024C20.5 14.8008 20.5 14.7992 20.5 14.7976C20.5 14.796 20.5 14.7944 20.5 14.7928C20.5 14.7912 20.5 14.7895 20.5 14.7879C20.5 14.7863 20.5 14.7847 20.5 14.7831C20.5 14.7815 20.5 14.7798 20.5 14.7782C20.5 14.7766 20.5 14.775 20.5 14.7734C20.5 14.7717 20.5 14.7701 20.5 14.7685C20.5 14.7669 20.5 14.7653 20.5 14.7636C20.5 14.762 20.5 14.7604 20.5 14.7588C20.5 14.7571 20.5 14.7555 20.5 14.7539C20.5 14.7523 20.5 14.7506 20.5 14.749C20.5 14.7474 20.5 14.7458 20.5 14.7441C20.5 14.7425 20.5 14.7409 20.5 14.7393C20.5 14.7376 20.5 14.736 20.5 14.7344C20.5 14.7327 20.5 14.7311 20.5 14.7295C20.5 14.7278 20.5 14.7262 20.5 14.7246C20.5 14.7229 20.5 14.7213 20.5 14.7197C20.5 14.718 20.5 14.7164 20.5 14.7148C20.5 14.7131 20.5 14.7115 20.5 14.7099C20.5 14.7082 20.5 14.7066 20.5 14.705C20.5 14.7033 20.5 14.7017 20.5 14.7C20.5 14.6984 20.5 14.6968 20.5 14.6951C20.5 14.6935 20.5 14.6918 20.5 14.6902C20.5 14.6886 20.5 14.6869 20.5 14.6853C20.5 14.6836 20.5 14.682 20.5 14.6803C20.5 14.6787 20.5 14.6771 20.5 14.6754C20.5 14.6738 20.5 14.6721 20.5 14.6705C20.5 14.6688 20.5 14.6672 20.5 14.6655C20.5 14.6639 20.5 14.6622 20.5 14.6606C20.5 14.6589 20.5 14.6573 20.5 14.6556C20.5 14.654 20.5 14.6523 20.5 14.6507C20.5 14.649 20.5 14.6474 20.5 14.6457C20.5 14.6441 20.5 14.6424 20.5 14.6408C20.5 14.6391 20.5 14.6374 20.5 14.6358C20.5 14.6341 20.5 14.6325 20.5 14.6308C20.5 14.6292 20.5 14.6275 20.5 14.6258C20.5 14.6242 20.5 14.6225 20.5 14.6209C20.5 14.6192 20.5 14.6175 20.5 14.6159C20.5 14.6142 20.5 14.6125 20.5 14.6109C20.5 14.6092 20.5 14.6076 20.5 14.6059C20.5 14.6042 20.5 14.6026 20.5 14.6009C20.5 14.5992 20.5 14.5976 20.5 14.5959C20.5 14.5942 20.5 14.5926 20.5 14.5909C20.5 14.5892 20.5 14.5875 20.5 14.5859C20.5 14.5842 20.5 14.5825 20.5 14.5809C20.5 14.5792 20.5 14.5775 20.5 14.5758C20.5 14.5742 20.5 14.5725 20.5 14.5708C20.5 14.5691 20.5 14.5675 20.5 14.5658C20.5 14.5641 20.5 14.5624 20.5 14.5608C20.5 14.5591 20.5 14.5574 20.5 14.5557C20.5 14.554 20.5 14.5524 20.5 14.5507C20.5 14.549 20.5 14.5473 20.5 14.5456C20.5 14.544 20.5 14.5423 20.5 14.5406C20.5 14.5389 20.5 14.5372 20.5 14.5355C20.5 14.5339 20.5 14.5322 20.5 14.5305C20.5 14.5288 20.5 14.5271 20.5 14.5254C20.5 14.5237 20.5 14.522 20.5 14.5204C20.5 14.5187 20.5 14.517 20.5 14.5153C20.5 14.5136 20.5 14.5119 20.5 14.5102C20.5 14.5085 20.5 14.5068 20.5 14.5051C20.5 14.5034 20.5 14.5017 20.5 14.5C20.5 14.4983 20.5 14.4967 20.5 14.495C20.5 14.4933 20.5 14.4916 20.5 14.4899C20.5 14.4882 20.5 14.4865 20.5 14.4848C20.5 14.4831 20.5 14.4814 20.5 14.4797C20.5 14.478 20.5 14.4763 20.5 14.4746C20.5 14.4729 20.5 14.4711 20.5 14.4694C20.5 14.4677 20.5 14.466 20.5 14.4643C20.5 14.4626 20.5 14.4609 20.5 14.4592C20.5 14.4575 20.5 14.4558 20.5 14.4541C20.5 14.4524 20.5 14.4507 20.5 14.4489C20.5 14.4472 20.5 14.4455 20.5 14.4438C20.5 14.4421 20.5 14.4404 20.5 14.4387C20.5 14.437 20.5 14.4352 20.5 14.4335C20.5 14.4318 20.5 14.4301 20.5 14.4284C20.5 14.4267 20.5 14.4249 20.5 14.4232C20.5 14.4215 20.5 14.4198 20.5 14.4181C20.5 14.4163 20.5 14.4146 20.5 14.4129C20.5 14.4112 20.5 14.4095 20.5 14.4077C20.5 14.406 20.5 14.4043 20.5 14.4026C20.5 14.4008 20.5 14.3991 20.5 14.3974C20.5 14.3957 20.5 14.3939 20.5 14.3922C20.5 14.3905 20.5 14.3887 20.5 14.387C20.5 14.3853 20.5 14.3836 20.5 14.3818C20.5 14.3801 20.5 14.3784 20.5 14.3766C20.5 14.3749 20.5 14.3732 20.5 14.3714C20.5 14.3697 20.5 14.368 20.5 14.3662C20.5 14.3645 20.5 14.3627 20.5 14.361C20.5 14.3593 20.5 14.3575 20.5 14.3558C20.5 14.3541 20.5 14.3523 20.5 14.3506C20.5 14.3488 20.5 14.3471 20.5 14.3453C20.5 14.3436 20.5 14.3419 20.5 14.3401C20.5 14.3384 20.5 14.3366 20.5 14.3349C20.5 14.3331 20.5 14.3314 20.5 14.3296C20.5 14.3279 20.5 14.3261 20.5 14.3244C20.5 14.3226 20.5 14.3209 20.5 14.3191C20.5 14.3174 20.5 14.3156 20.5 14.3139C20.5 14.3121 20.5 14.3104 20.5 14.3086C20.5 14.3069 20.5 14.3051 20.5 14.3034C20.5 14.3016 20.5 14.2998 20.5 14.2981C20.5 14.2963 20.5 14.2946 20.5 14.2928C20.5 14.2911 20.5 14.2893 20.5 14.2875C20.5 14.2858 20.5 14.284 20.5 14.2822C20.5 14.2805 20.5 14.2787 20.5 14.277C20.5 14.2752 20.5 14.2734 20.5 14.2717C20.5 14.2699 20.5 14.2681 20.5 14.2664C20.5 14.2646 20.5 14.2628 20.5 14.261C20.5 14.2593 20.5 14.2575 20.5 14.2557C20.5 14.254 20.5 14.2522 20.5 14.2504C20.5 14.2486 20.5 14.2469 20.5 14.2451C20.5 14.2433 20.5 14.2415 20.5 14.2398C20.5 14.238 20.5 14.2362 20.5 14.2344C20.5 14.2327 20.5 14.2309 20.5 14.2291C20.5 14.2273 20.5 14.2255 20.5 14.2238C20.5 14.222 20.5 14.2202 20.5 14.2184C20.5 14.2166 20.5 14.2148 20.5 14.2131C20.5 14.2113 20.5 14.2095 20.5 14.2077C20.5 14.2059 20.5 14.2041 20.5 14.2023C20.5 14.2005 20.5 14.1988 20.5 14.197C20.5 14.1952 20.5 14.1934 20.5 14.1916C20.5 14.1898 20.5 14.188 20.5 14.1862C20.5 14.1844 20.5 14.1826 20.5 14.1808C20.5 14.179 20.5 14.1772 20.5 14.1754C20.5 14.1736 20.5 14.1718 20.5 14.17C20.5 14.1682 20.5 14.1664 20.5 14.1646C20.5 14.1628 20.5 14.161 20.5 14.1592C20.5 14.1574 20.5 14.1556 20.5 14.1538C20.5 14.152 20.5 14.1502 20.5 14.1484C20.5 14.1466 20.5 14.1448 20.5 14.143C20.5 14.1412 20.5 14.1394 20.5 14.1375C20.5 14.1357 20.5 14.1339 20.5 14.1321C20.5 14.1303 20.5 14.1285 20.5 14.1267C20.5 14.1249 20.5 14.123 20.5 14.1212C20.5 14.1194 20.5 14.1176 20.5 14.1158C20.5 14.114 20.5 14.1121 20.5 14.1103C20.5 14.1085 20.5 14.1067 20.5 14.1049C20.5 14.103 20.5 14.1012 20.5 14.0994C20.5 14.0976 20.5 14.0957 20.5 14.0939C20.5 14.0921 20.5 14.0903 20.5 14.0884C20.5 14.0866 20.5 14.0848 20.5 14.0829C20.5 14.0811 20.5 14.0793 20.5 14.0775C20.5 14.0756 20.5 14.0738 20.5 14.072C20.5 14.0701 20.5 14.0683 20.5 14.0665C20.5 14.0646 20.5 14.0628 20.5 14.061C20.5 14.0591 20.5 14.0573 20.5 14.0554C20.5 14.0536 20.5 14.0518 20.5 14.0499C20.5 14.0481 20.5 14.0462 20.5 14.0444C20.5 14.0426 20.5 14.0407 20.5 14.0389C20.5 14.037 20.5 14.0352 20.5 14.0333C20.5 14.0315 20.5 14.0296 20.5 14.0278C20.5 14.0259 20.5 14.0241 20.5 14.0222C20.5 14.0204 20.5 14.0185 20.5 14.0167C20.5 14.0148 20.5 14.013 20.5 14.0111C20.5 14.0093 20.5 14.0074 20.5 14.0056C20.5 14.0037 20.5 14.0019 20.5 14H18.5C18.5 14.0019 18.5 14.0037 18.5 14.0056C18.5 14.0074 18.5 14.0093 18.5 14.0111C18.5 14.013 18.5 14.0148 18.5 14.0167C18.5 14.0185 18.5 14.0204 18.5 14.0222C18.5 14.0241 18.5 14.0259 18.5 14.0278C18.5 14.0296 18.5 14.0315 18.5 14.0333C18.5 14.0352 18.5 14.037 18.5 14.0389C18.5 14.0407 18.5 14.0426 18.5 14.0444C18.5 14.0462 18.5 14.0481 18.5 14.0499C18.5 14.0518 18.5 14.0536 18.5 14.0554C18.5 14.0573 18.5 14.0591 18.5 14.061C18.5 14.0628 18.5 14.0646 18.5 14.0665C18.5 14.0683 18.5 14.0701 18.5 14.072C18.5 14.0738 18.5 14.0756 18.5 14.0775C18.5 14.0793 18.5 14.0811 18.5 14.0829C18.5 14.0848 18.5 14.0866 18.5 14.0884C18.5 14.0903 18.5 14.0921 18.5 14.0939C18.5 14.0957 18.5 14.0976 18.5 14.0994C18.5 14.1012 18.5 14.103 18.5 14.1049C18.5 14.1067 18.5 14.1085 18.5 14.1103C18.5 14.1121 18.5 14.114 18.5 14.1158C18.5 14.1176 18.5 14.1194 18.5 14.1212C18.5 14.123 18.5 14.1249 18.5 14.1267C18.5 14.1285 18.5 14.1303 18.5 14.1321C18.5 14.1339 18.5 14.1357 18.5 14.1375C18.5 14.1394 18.5 14.1412 18.5 14.143C18.5 14.1448 18.5 14.1466 18.5 14.1484C18.5 14.1502 18.5 14.152 18.5 14.1538C18.5 14.1556 18.5 14.1574 18.5 14.1592C18.5 14.161 18.5 14.1628 18.5 14.1646C18.5 14.1664 18.5 14.1682 18.5 14.17C18.5 14.1718 18.5 14.1736 18.5 14.1754C18.5 14.1772 18.5 14.179 18.5 14.1808C18.5 14.1826 18.5 14.1844 18.5 14.1862C18.5 14.188 18.5 14.1898 18.5 14.1916C18.5 14.1934 18.5 14.1952 18.5 14.197C18.5 14.1988 18.5 14.2005 18.5 14.2023C18.5 14.2041 18.5 14.2059 18.5 14.2077C18.5 14.2095 18.5 14.2113 18.5 14.2131C18.5 14.2148 18.5 14.2166 18.5 14.2184C18.5 14.2202 18.5 14.222 18.5 14.2238C18.5 14.2255 18.5 14.2273 18.5 14.2291C18.5 14.2309 18.5 14.2327 18.5 14.2344C18.5 14.2362 18.5 14.238 18.5 14.2398C18.5 14.2415 18.5 14.2433 18.5 14.2451C18.5 14.2469 18.5 14.2486 18.5 14.2504C18.5 14.2522 18.5 14.254 18.5 14.2557C18.5 14.2575 18.5 14.2593 18.5 14.261C18.5 14.2628 18.5 14.2646 18.5 14.2664C18.5 14.2681 18.5 14.2699 18.5 14.2717C18.5 14.2734 18.5 14.2752 18.5 14.277C18.5 14.2787 18.5 14.2805 18.5 14.2822C18.5 14.284 18.5 14.2858 18.5 14.2875C18.5 14.2893 18.5 14.2911 18.5 14.2928C18.5 14.2946 18.5 14.2963 18.5 14.2981C18.5 14.2998 18.5 14.3016 18.5 14.3034C18.5 14.3051 18.5 14.3069 18.5 14.3086C18.5 14.3104 18.5 14.3121 18.5 14.3139C18.5 14.3156 18.5 14.3174 18.5 14.3191C18.5 14.3209 18.5 14.3226 18.5 14.3244C18.5 14.3261 18.5 14.3279 18.5 14.3296C18.5 14.3314 18.5 14.3331 18.5 14.3349C18.5 14.3366 18.5 14.3384 18.5 14.3401C18.5 14.3419 18.5 14.3436 18.5 14.3453C18.5 14.3471 18.5 14.3488 18.5 14.3506C18.5 14.3523 18.5 14.3541 18.5 14.3558C18.5 14.3575 18.5 14.3593 18.5 14.361C18.5 14.3627 18.5 14.3645 18.5 14.3662C18.5 14.368 18.5 14.3697 18.5 14.3714C18.5 14.3732 18.5 14.3749 18.5 14.3766C18.5 14.3784 18.5 14.3801 18.5 14.3818C18.5 14.3836 18.5 14.3853 18.5 14.387C18.5 14.3887 18.5 14.3905 18.5 14.3922C18.5 14.3939 18.5 14.3957 18.5 14.3974C18.5 14.3991 18.5 14.4008 18.5 14.4026C18.5 14.4043 18.5 14.406 18.5 14.4077C18.5 14.4095 18.5 14.4112 18.5 14.4129C18.5 14.4146 18.5 14.4163 18.5 14.4181C18.5 14.4198 18.5 14.4215 18.5 14.4232C18.5 14.4249 18.5 14.4267 18.5 14.4284C18.5 14.4301 18.5 14.4318 18.5 14.4335C18.5 14.4352 18.5 14.437 18.5 14.4387C18.5 14.4404 18.5 14.4421 18.5 14.4438C18.5 14.4455 18.5 14.4472 18.5 14.4489C18.5 14.4507 18.5 14.4524 18.5 14.4541C18.5 14.4558 18.5 14.4575 18.5 14.4592C18.5 14.4609 18.5 14.4626 18.5 14.4643C18.5 14.466 18.5 14.4677 18.5 14.4694C18.5 14.4711 18.5 14.4729 18.5 14.4746C18.5 14.4763 18.5 14.478 18.5 14.4797C18.5 14.4814 18.5 14.4831 18.5 14.4848C18.5 14.4865 18.5 14.4882 18.5 14.4899C18.5 14.4916 18.5 14.4933 18.5 14.495C18.5 14.4967 18.5 14.4983 18.5 14.5C18.5 14.5017 18.5 14.5034 18.5 14.5051C18.5 14.5068 18.5 14.5085 18.5 14.5102C18.5 14.5119 18.5 14.5136 18.5 14.5153C18.5 14.517 18.5 14.5187 18.5 14.5204C18.5 14.522 18.5 14.5237 18.5 14.5254C18.5 14.5271 18.5 14.5288 18.5 14.5305C18.5 14.5322 18.5 14.5339 18.5 14.5355C18.5 14.5372 18.5 14.5389 18.5 14.5406C18.5 14.5423 18.5 14.544 18.5 14.5456C18.5 14.5473 18.5 14.549 18.5 14.5507C18.5 14.5524 18.5 14.554 18.5 14.5557C18.5 14.5574 18.5 14.5591 18.5 14.5608C18.5 14.5624 18.5 14.5641 18.5 14.5658C18.5 14.5675 18.5 14.5691 18.5 14.5708C18.5 14.5725 18.5 14.5742 18.5 14.5758C18.5 14.5775 18.5 14.5792 18.5 14.5809C18.5 14.5825 18.5 14.5842 18.5 14.5859C18.5 14.5875 18.5 14.5892 18.5 14.5909C18.5 14.5926 18.5 14.5942 18.5 14.5959C18.5 14.5976 18.5 14.5992 18.5 14.6009C18.5 14.6026 18.5 14.6042 18.5 14.6059C18.5 14.6076 18.5 14.6092 18.5 14.6109C18.5 14.6125 18.5 14.6142 18.5 14.6159C18.5 14.6175 18.5 14.6192 18.5 14.6209C18.5 14.6225 18.5 14.6242 18.5 14.6258C18.5 14.6275 18.5 14.6292 18.5 14.6308C18.5 14.6325 18.5 14.6341 18.5 14.6358C18.5 14.6374 18.5 14.6391 18.5 14.6408C18.5 14.6424 18.5 14.6441 18.5 14.6457C18.5 14.6474 18.5 14.649 18.5 14.6507C18.5 14.6523 18.5 14.654 18.5 14.6556C18.5 14.6573 18.5 14.6589 18.5 14.6606C18.5 14.6622 18.5 14.6639 18.5 14.6655C18.5 14.6672 18.5 14.6688 18.5 14.6705C18.5 14.6721 18.5 14.6738 18.5 14.6754C18.5 14.6771 18.5 14.6787 18.5 14.6803C18.5 14.682 18.5 14.6836 18.5 14.6853C18.5 14.6869 18.5 14.6886 18.5 14.6902C18.5 14.6918 18.5 14.6935 18.5 14.6951C18.5 14.6968 18.5 14.6984 18.5 14.7C18.5 14.7017 18.5 14.7033 18.5 14.705C18.5 14.7066 18.5 14.7082 18.5 14.7099C18.5 14.7115 18.5 14.7131 18.5 14.7148C18.5 14.7164 18.5 14.718 18.5 14.7197C18.5 14.7213 18.5 14.7229 18.5 14.7246C18.5 14.7262 18.5 14.7278 18.5 14.7295C18.5 14.7311 18.5 14.7327 18.5 14.7344C18.5 14.736 18.5 14.7376 18.5 14.7393C18.5 14.7409 18.5 14.7425 18.5 14.7441C18.5 14.7458 18.5 14.7474 18.5 14.749C18.5 14.7506 18.5 14.7523 18.5 14.7539C18.5 14.7555 18.5 14.7571 18.5 14.7588C18.5 14.7604 18.5 14.762 18.5 14.7636C18.5 14.7653 18.5 14.7669 18.5 14.7685C18.5 14.7701 18.5 14.7717 18.5 14.7734C18.5 14.775 18.5 14.7766 18.5 14.7782C18.5 14.7798 18.5 14.7815 18.5 14.7831C18.5 14.7847 18.5 14.7863 18.5 14.7879C18.5 14.7895 18.5 14.7912 18.5 14.7928C18.5 14.7944 18.5 14.796 18.5 14.7976C18.5 14.7992 18.5 14.8008 18.5 14.8024C18.5 14.8041 18.5 14.8057 18.5 14.8073C18.5 14.8089 18.5 14.8105 18.5 14.8121C18.5 14.8137 18.5 14.8153 18.5 14.8169C18.5 14.8185 18.5 14.8202 18.5 14.8218C18.5 14.8234 18.5 14.825 18.5 14.8266C18.5 14.8282 18.5 14.8298 18.5 14.8314C18.5 14.833 18.5 14.8346 18.5 14.8362C18.5 14.8378 18.5 14.8394 18.5 14.841C18.5 14.8426 18.5 14.8442 18.5 14.8458C18.5 14.8474 18.5 14.849 18.5 14.8506C18.5 14.8522 18.5 14.8538 18.5 14.8554C18.5 14.857 18.5 14.8586 18.5 14.8602C18.5 14.8618 18.5 14.8634 18.5 14.865C18.5 14.8666 18.5 14.8682 18.5 14.8698C18.5 14.8714 18.5 14.873 18.5 14.8746C18.5 14.8762 18.5 14.8778 18.5 14.8794C18.5 14.881 18.5 14.8826 18.5 14.8842C18.5 14.8857 18.5 14.8873 18.5 14.8889C18.5 14.8905 18.5 14.8921 18.5 14.8937C18.5 14.8953 18.5 14.8969 18.5 14.8985C18.5 14.9001 18.5 14.9016 18.5 14.9032C18.5 14.9048 18.5 14.9064 18.5 14.908C18.5 14.9096 18.5 14.9112 18.5 14.9127C18.5 14.9143 18.5 14.9159 18.5 14.9175C18.5 14.9191 18.5 14.9207 18.5 14.9223C18.5 14.9238 18.5 14.9254 18.5 14.927C18.5 14.9286 18.5 14.9302 18.5 14.9317C18.5 14.9333 18.5 14.9349 18.5 14.9365C18.5 14.9381 18.5 14.9396 18.5 14.9412C18.5 14.9428 18.5 14.9444 18.5 14.946C18.5 14.9475 18.5 14.9491 18.5 14.9507C18.5 14.9523 18.5 14.9538 18.5 14.9554C18.5 14.957 18.5 14.9586 18.5 14.9601C18.5 14.9617 18.5 14.9633 18.5 14.9649C18.5 14.9664 18.5 14.968 18.5 14.9696C18.5 14.9712 18.5 14.9727 18.5 14.9743C18.5 14.9759 18.5 14.9774 18.5 14.979C18.5 14.9806 18.5 14.9821 18.5 14.9837C18.5 14.9853 18.5 14.9869 18.5 14.9884C18.5 14.99 18.5 14.9916 18.5 14.9931C18.5 14.9947 18.5 14.9963 18.5 14.9978C18.5 14.9994 18.5 15.001 18.5 15.0025C18.5 15.0041 18.5 15.0056 18.5 15.0072C18.5 15.0088 18.5 15.0103 18.5 15.0119C18.5 15.0135 18.5 15.015 18.5 15.0166C18.5 15.0181 18.5 15.0197 18.5 15.0213C18.5 15.0228 18.5 15.0244 18.5 15.026C18.5 15.0275 18.5 15.0291 18.5 15.0306C18.5 15.0322 18.5 15.0337 18.5 15.0353C18.5 15.0369 18.5 15.0384 18.5 15.04C18.5 15.0415 18.5 15.0431 18.5 15.0446C18.5 15.0462 18.5 15.0478 18.5 15.0493C18.5 15.0509 18.5 15.0524 18.5 15.054C18.5 15.0555 18.5 15.0571 18.5 15.0586C18.5 15.0602 18.5 15.0617 18.5 15.0633C18.5 15.0648 18.5 15.0664 18.5 15.0679C18.5 15.0695 18.5 15.071 18.5 15.0726C18.5 15.0741 18.5 15.0757 18.5 15.0772C18.5 15.0788 18.5 15.0803 18.5 15.0819C18.5 15.0834 18.5 15.085 18.5 15.0865C18.5 15.0881 18.5 15.0896 18.5 15.0912C18.5 15.0927 18.5 15.0943 18.5 15.0958C18.5 15.0974 18.5 15.0989 18.5 15.1004C18.5 15.102 18.5 15.1035 18.5 15.1051C18.5 15.1066 18.5 15.1082 18.5 15.1097C18.5 15.1112 18.5 15.1128 18.5 15.1143C18.5 15.1159 18.5 15.1174 18.5 15.1189C18.5 15.1205 18.5 15.122 18.5 15.1236C18.5 15.1251 18.5 15.1266 18.5 15.1282C18.5 15.1297 18.5 15.1313 18.5 15.1328C18.5 15.1343 18.5 15.1359 18.5 15.1374C18.5 15.1389 18.5 15.1405 18.5 15.142C18.5 15.1436 18.5 15.1451 18.5 15.1466C18.5 15.1482 18.5 15.1497 18.5 15.1512C18.5 15.1528 18.5 15.1543 18.5 15.1558C18.5 15.1574 18.5 15.1589 18.5 15.1604C18.5 15.162 18.5 15.1635 18.5 15.165C18.5 15.1666 18.5 15.1681 18.5 15.1696C18.5 15.1712 18.5 15.1727 18.5 15.1742C18.5 15.1757 18.5 15.1773 18.5 15.1788C18.5 15.1803 18.5 15.1819 18.5 15.1834C18.5 15.1849 18.5 15.1864 18.5 15.188C18.5 15.1895 18.5 15.191 18.5 15.1925C18.5 15.1941 18.5 15.1956 18.5 15.1971C18.5 15.1987 18.5 15.2002 18.5 15.2017C18.5 15.2032 18.5 15.2048 18.5 15.2063C18.5 15.2078 18.5 15.2093 18.5 15.2108C18.5 15.2124 18.5 15.2139 18.5 15.2154C18.5 15.2169 18.5 15.2185 18.5 15.22C18.5 15.2215 18.5 15.223 18.5 15.2245C18.5 15.2261 18.5 15.2276 18.5 15.2291C18.5 15.2306 18.5 15.2321 18.5 15.2337C18.5 15.2352 18.5 15.2367 18.5 15.2382C18.5 15.2397 18.5 15.2413 18.5 15.2428C18.5 15.2443 18.5 15.2458 18.5 15.2473C18.5 15.2488 18.5 15.2504 18.5 15.2519C18.5 15.2534 18.5 15.2549 18.5 15.2564C18.5 15.2579 18.5 15.2594 18.5 15.261C18.5 15.2625 18.5 15.264 18.5 15.2655C18.5 15.267 18.5 15.2685 18.5 15.27C18.5 15.2716 18.5 15.2731 18.5 15.2746C18.5 15.2761 18.5 15.2776 18.5 15.2791C18.5 15.2806 18.5 15.2821 18.5 15.2836C18.5 15.2852 18.5 15.2867 18.5 15.2882C18.5 15.2897 18.5 15.2912 18.5 15.2927C18.5 15.2942 18.5 15.2957 18.5 15.2972C18.5 15.2987 18.5 15.3002 18.5 15.3018C18.5 15.3033 18.5 15.3048 18.5 15.3063C18.5 15.3078 18.5 15.3093 18.5 15.3108C18.5 15.3123 18.5 15.3138 18.5 15.3153C18.5 15.3168 18.5 15.3183 18.5 15.3198C18.5 15.3213 18.5 15.3228 18.5 15.3243C18.5 15.3258 18.5 15.3273 18.5 15.3289C18.5 15.3304 18.5 15.3319 18.5 15.3334C18.5 15.3349 18.5 15.3364 18.5 15.3379C18.5 15.3394 18.5 15.3409 18.5 15.3424C18.5 15.3439 18.5 15.3454 18.5 15.3469C18.5 15.3484 18.5 15.3499 18.5 15.3514C18.5 15.3529 18.5 15.3544 18.5 15.3559C18.5 15.3574 18.5 15.3589 18.5 15.3604C18.5 15.3619 18.5 15.3634 18.5 15.3649C18.5 15.3664 18.5 15.3679 18.5 15.3694C18.5 15.3709 18.5 15.3723 18.5 15.3738C18.5 15.3753 18.5 15.3768 18.5 15.3783C18.5 15.3798 18.5 15.3813 18.5 15.3828C18.5 15.3843 18.5 15.3858 18.5 15.3873C18.5 15.3888 18.5 15.3903 18.5 15.3918C18.5 15.3933 18.5 15.3948 18.5 15.3963C18.5 15.3978 18.5 15.3993 18.5 15.4007C18.5 15.4022 18.5 15.4037 18.5 15.4052C18.5 15.4067 18.5 15.4082 18.5 15.4097C18.5 15.4112 18.5 15.4127 18.5 15.4142C18.5 15.4157 18.5 15.4172 18.5 15.4186C18.5 15.4201 18.5 15.4216 18.5 15.4231C18.5 15.4246 18.5 15.4261 18.5 15.4276C18.5 15.4291 18.5 15.4306 18.5 15.432C18.5 15.4335 18.5 15.435 18.5 15.4365C18.5 15.438 18.5 15.4395 18.5 15.441C18.5 15.4425 18.5 15.4439 18.5 15.4454C18.5 15.4469 18.5 15.4484 18.5 15.4499C18.5 15.4514 18.5 15.4529 18.5 15.4543C18.5 15.4558 18.5 15.4573 18.5 15.4588C18.5 15.4603 18.5 15.4618 18.5 15.4633C18.5 15.4647 18.5 15.4662 18.5 15.4677C18.5 15.4692 18.5 15.4707 18.5 15.4722C18.5 15.4736 18.5 15.4751 18.5 15.4766C18.5 15.4781 18.5 15.4796 18.5 15.4811C18.5 15.4825 18.5 15.484 18.5 15.4855C18.5 15.487 18.5 15.4885 18.5 15.4899C18.5 15.4914 18.5 15.4929 18.5 15.4944C18.5 15.4959 18.5 15.4973 18.5 15.4988C18.5 15.5003 18.5 15.5018 18.5 15.5033C18.5 15.5047 18.5 15.5062 18.5 15.5077C18.5 15.5092 18.5 15.5107 18.5 15.5121C18.5 15.5136 18.5 15.5151 18.5 15.5166C18.5 15.518 18.5 15.5195 18.5 15.521C18.5 15.5225 18.5 15.524 18.5 15.5254C18.5 15.5269 18.5 15.5284 18.5 15.5299C18.5 15.5313 18.5 15.5328 18.5 15.5343C18.5 15.5358 18.5 15.5372 18.5 15.5387C18.5 15.5402 18.5 15.5417 18.5 15.5431C18.5 15.5446 18.5 15.5461 18.5 15.5476C18.5 15.549 18.5 15.5505 18.5 15.552C18.5 15.5535 18.5 15.5549 18.5 15.5564C18.5 15.5579 18.5 15.5594 18.5 15.5608C18.5 15.5623 18.5 15.5638 18.5 15.5652C18.5 15.5667 18.5 15.5682 18.5 15.5697C18.5 15.5711 18.5 15.5726 18.5 15.5741C18.5 15.5755 18.5 15.577 18.5 15.5785C18.5 15.58 18.5 15.5814 18.5 15.5829C18.5 15.5844 18.5 15.5858 18.5 15.5873C18.5 15.5888 18.5 15.5903 18.5 15.5917C18.5 15.5932 18.5 15.5947 18.5 15.5961C18.5 15.5976 18.5 15.5991 18.5 15.6005C18.5 15.602 18.5 15.6035 18.5 15.6049C18.5 15.6064 18.5 15.6079 18.5 15.6093C18.5 15.6108 18.5 15.6123 18.5 15.6138C18.5 15.6152 18.5 15.6167 18.5 15.6182C18.5 15.6196 18.5 15.6211 18.5 15.6226C18.5 15.624 18.5 15.6255 18.5 15.627C18.5 15.6284 18.5 15.6299 18.5 15.6314C18.5 15.6328 18.5 15.6343 18.5 15.6358C18.5 15.6372 18.5 15.6387 18.5 15.6401C18.5 15.6416 18.5 15.6431 18.5 15.6445C18.5 15.646 18.5 15.6475 18.5 15.6489C18.5 15.6504 18.5 15.6519 18.5 15.6533C18.5 15.6548 18.5 15.6563 18.5 15.6577C18.5 15.6592 18.5 15.6606 18.5 15.6621C18.5 15.6636 18.5 15.665 18.5 15.6665C18.5 15.668 18.5 15.6694 18.5 15.6709C18.5 15.6724 18.5 15.6738 18.5 15.6753C18.5 15.6767 18.5 15.6782 18.5 15.6797C18.5 15.6811 18.5 15.6826 18.5 15.6841C18.5 15.6855 18.5 15.687 18.5 15.6884C18.5 15.6899 18.5 15.6914 18.5 15.6928C18.5 15.6943 18.5 15.6957 18.5 15.6972C18.5 15.6987 18.5 15.7001 18.5 15.7016C18.5 15.703 18.5 15.7045 18.5 15.706C18.5 15.7074 18.5 15.7089 18.5 15.7103C18.5 15.7118 18.5 15.7133 18.5 15.7147C18.5 15.7162 18.5 15.7176 18.5 15.7191C18.5 15.7206 18.5 15.722 18.5 15.7235C18.5 15.7249 18.5 15.7264 18.5 15.7279C18.5 15.7293 18.5 15.7308 18.5 15.7322C18.5 15.7337 18.5 15.7351 18.5 15.7366C18.5 15.7381 18.5 15.7395 18.5 15.741C18.5 15.7424 18.5 15.7439 18.5 15.7453C18.5 15.7468 18.5 15.7483 18.5 15.7497C18.5 15.7512 18.5 15.7526 18.5 15.7541C18.5 15.7555 18.5 15.757 18.5 15.7585C18.5 15.7599 18.5 15.7614 18.5 15.7628C18.5 15.7643 18.5 15.7657 18.5 15.7672C18.5 15.7687 18.5 15.7701 18.5 15.7716C18.5 15.773 18.5 15.7745 18.5 15.7759C18.5 15.7774 18.5 15.7788 18.5 15.7803C18.5 15.7818 18.5 15.7832 18.5 15.7847C18.5 15.7861 18.5 15.7876 18.5 15.789C18.5 15.7905 18.5 15.7919 18.5 15.7934C18.5 15.7949 18.5 15.7963 18.5 15.7978C18.5 15.7992 18.5 15.8007 18.5 15.8021C18.5 15.8036 18.5 15.805 18.5 15.8065C18.5 15.8079 18.5 15.8094 18.5 15.8109C18.5 15.8123 18.5 15.8138 18.5 15.8152C18.5 15.8167 18.5 15.8181 18.5 15.8196C18.5 15.821 18.5 15.8225 18.5 15.8239C18.5 15.8254 18.5 15.8268 18.5 15.8283C18.5 15.8297 18.5 15.8312 18.5 15.8327C18.5 15.8341 18.5 15.8356 18.5 15.837C18.5 15.8385 18.5 15.8399 18.5 15.8414C18.5 15.8428 18.5 15.8443 18.5 15.8457C18.5 15.8472 18.5 15.8486 18.5 15.8501C18.5 15.8515 18.5 15.853 18.5 15.8544C18.5 15.8559 18.5 15.8573 18.5 15.8588C18.5 15.8603 18.5 15.8617 18.5 15.8632C18.5 15.8646 18.5 15.8661 18.5 15.8675C18.5 15.869 18.5 15.8704 18.5 15.8719C18.5 15.8733 18.5 15.8748 18.5 15.8762C18.5 15.8777 18.5 15.8791 18.5 15.8806C18.5 15.882 18.5 15.8835 18.5 15.8849C18.5 15.8864 18.5 15.8878 18.5 15.8893C18.5 15.8907 18.5 15.8922 18.5 15.8936C18.5 15.8951 18.5 15.8965 18.5 15.898C18.5 15.8994 18.5 15.9009 18.5 15.9023C18.5 15.9038 18.5 15.9052 18.5 15.9067C18.5 15.9081 18.5 15.9096 18.5 15.911C18.5 15.9125 18.5 15.9139 18.5 15.9154C18.5 15.9168 18.5 15.9183 18.5 15.9197C18.5 15.9212 18.5 15.9226 18.5 15.9241C18.5 15.9255 18.5 15.927 18.5 15.9284C18.5 15.9299 18.5 15.9313 18.5 15.9328C18.5 15.9342 18.5 15.9357 18.5 15.9371C18.5 15.9386 18.5 15.94 18.5 15.9415C18.5 15.9429 18.5 15.9444 18.5 15.9458C18.5 15.9473 18.5 15.9487 18.5 15.9502C18.5 15.9516 18.5 15.9531 18.5 15.9545C18.5 15.956 18.5 15.9574 18.5 15.9589C18.5 15.9603 18.5 15.9618 18.5 15.9632C18.5 15.9647 18.5 15.9661 18.5 15.9676C18.5 15.969 18.5 15.9705 18.5 15.9719C18.5 15.9734 18.5 15.9748 18.5 15.9763C18.5 15.9777 18.5 15.9792 18.5 15.9806C18.5 15.9821 18.5 15.9835 18.5 15.985C18.5 15.9864 18.5 15.9879 18.5 15.9893C18.5 15.9908 18.5 15.9922 18.5 15.9937C18.5 15.9951 18.5 15.9966 18.5 15.998C18.5 15.9995 18.5 16.0009 18.5 16.0024C18.5 16.0038 18.5 16.0053 18.5 16.0067C18.5 16.0082 18.5 16.0096 18.5 16.0111C18.5 16.0125 18.5 16.014 18.5 16.0154C18.5 16.0169 18.5 16.0183 18.5 16.0198C18.5 16.0212 18.5 16.0227 18.5 16.0241C18.5 16.0256 18.5 16.027 18.5 16.0285C18.5 16.0299 18.5 16.0314 18.5 16.0328C18.5 16.0343 18.5 16.0357 18.5 16.0372C18.5 16.0386 18.5 16.0401 18.5 16.0415C18.5 16.043 18.5 16.0444 18.5 16.0459C18.5 16.0473 18.5 16.0488 18.5 16.0502C18.5 16.0517 18.5 16.0531 18.5 16.0546C18.5 16.056 18.5 16.0575 18.5 16.0589C18.5 16.0604 18.5 16.0618 18.5 16.0633C18.5 16.0647 18.5 16.0662 18.5 16.0676C18.5 16.0691 18.5 16.0705 18.5 16.072C18.5 16.0734 18.5 16.0749 18.5 16.0763C18.5 16.0778 18.5 16.0792 18.5 16.0807C18.5 16.0821 18.5 16.0836 18.5 16.085C18.5 16.0865 18.5 16.0879 18.5 16.0894C18.5 16.0908 18.5 16.0923 18.5 16.0937C18.5 16.0952 18.5 16.0966 18.5 16.0981C18.5 16.0995 18.5 16.101 18.5 16.1024C18.5 16.1039 18.5 16.1053 18.5 16.1068C18.5 16.1082 18.5 16.1097 18.5 16.1111C18.5 16.1126 18.5 16.114 18.5 16.1155C18.5 16.1169 18.5 16.1184 18.5 16.1198C18.5 16.1213 18.5 16.1228 18.5 16.1242C18.5 16.1257 18.5 16.1271 18.5 16.1286C18.5 16.13 18.5 16.1315 18.5 16.1329C18.5 16.1344 18.5 16.1358 18.5 16.1373C18.5 16.1387 18.5 16.1402 18.5 16.1416C18.5 16.1431 18.5 16.1445 18.5 16.146C18.5 16.1474 18.5 16.1489 18.5 16.1503C18.5 16.1518 18.5 16.1532 18.5 16.1547C18.5 16.1561 18.5 16.1576 18.5 16.1591C18.5 16.1605 18.5 16.162 18.5 16.1634C18.5 16.1649 18.5 16.1663 18.5 16.1678C18.5 16.1692 18.5 16.1707 18.5 16.1721C18.5 16.1736 18.5 16.175 18.5 16.1765C18.5 16.1779 18.5 16.1794 18.5 16.1808C18.5 16.1823 18.5 16.1838 18.5 16.1852C18.5 16.1867 18.5 16.1881 18.5 16.1896C18.5 16.191 18.5 16.1925 18.5 16.1939C18.5 16.1954 18.5 16.1968 18.5 16.1983C18.5 16.1998 18.5 16.2012 18.5 16.2027C18.5 16.2041 18.5 16.2056 18.5 16.207C18.5 16.2085 18.5 16.2099 18.5 16.2114C18.5 16.2128 18.5 16.2143 18.5 16.2158C18.5 16.2172 18.5 16.2187 18.5 16.2201C18.5 16.2216 18.5 16.223 18.5 16.2245C18.5 16.2259 18.5 16.2274 18.5 16.2289C18.5 16.2303 18.5 16.2318 18.5 16.2332C18.5 16.2347 18.5 16.2361 18.5 16.2376C18.5 16.239 18.5 16.2405 18.5 16.242C18.5 16.2434 18.5 16.2449 18.5 16.2463C18.5 16.2478 18.5 16.2492 18.5 16.2507C18.5 16.2522 18.5 16.2536 18.5 16.2551C18.5 16.2565 18.5 16.258 18.5 16.2594C18.5 16.2609 18.5 16.2624 18.5 16.2638C18.5 16.2653 18.5 16.2667 18.5 16.2682C18.5 16.2697 18.5 16.2711 18.5 16.2726C18.5 16.274 18.5 16.2755 18.5 16.2769C18.5 16.2784 18.5 16.2799 18.5 16.2813C18.5 16.2828 18.5 16.2842 18.5 16.2857C18.5 16.2872 18.5 16.2886 18.5 16.2901C18.5 16.2915 18.5 16.293 18.5 16.2945C18.5 16.2959 18.5 16.2974 18.5 16.2988C18.5 16.3003 18.5 16.3018 18.5 16.3032C18.5 16.3047 18.5 16.3061 18.5 16.3076C18.5 16.3091 18.5 16.3105 18.5 16.312C18.5 16.3135 18.5 16.3149 18.5 16.3164C18.5 16.3178 18.5 16.3193 18.5 16.3208C18.5 16.3222 18.5 16.3237 18.5 16.3251C18.5 16.3266 18.5 16.3281 18.5 16.3295C18.5 16.331 18.5 16.3325 18.5 16.3339C18.5 16.3354 18.5 16.3369 18.5 16.3383C18.5 16.3398 18.5 16.3412 18.5 16.3427C18.5 16.3442 18.5 16.3456 18.5 16.3471C18.5 16.3486 18.5 16.35 18.5 16.3515C18.5 16.353 18.5 16.3544 18.5 16.3559C18.5 16.3573 18.5 16.3588 18.5 16.3603C18.5 16.3617 18.5 16.3632 18.5 16.3647C18.5 16.3661 18.5 16.3676 18.5 16.3691C18.5 16.3705 18.5 16.372 18.5 16.3735C18.5 16.3749 18.5 16.3764 18.5 16.3779C18.5 16.3793 18.5 16.3808 18.5 16.3823C18.5 16.3837 18.5 16.3852 18.5 16.3867C18.5 16.3881 18.5 16.3896 18.5 16.3911C18.5 16.3925 18.5 16.394 18.5 16.3955C18.5 16.397 18.5 16.3984 18.5 16.3999H20.5ZM4.5 20C4.5 21.6569 5.84314 23 7.49999 23V21C6.94771 21 6.5 20.5523 6.5 20H4.5ZM18.4413 19.2627C18.8227 19.0541 19.127 18.8878 19.3486 18.7588C19.4597 18.6942 19.5646 18.6305 19.6555 18.5692C19.7342 18.516 19.8566 18.4291 19.9644 18.3133L18.5 16.9511C18.5526 16.8945 18.5853 16.8785 18.5363 16.9116C18.4995 16.9364 18.4387 16.9744 18.3426 17.0303C18.1498 17.1425 17.874 17.2934 17.4817 17.5079L18.4413 19.2627ZM18.5 16.3999C18.5 16.6474 18.4997 16.7983 18.4947 16.9077C18.4893 17.0236 18.4807 17.009 18.5 16.9511L20.3978 17.5823C20.4682 17.3707 20.4851 17.1604 20.4925 17.0002C20.5003 16.8335 20.5 16.6278 20.5 16.3999H18.5ZM19.9644 18.3133C20.0158 18.258 20.136 18.1346 20.2297 17.9766C20.3233 17.8186 20.374 17.6539 20.3978 17.5823L18.5 16.9511C18.496 16.9632 18.4924 16.9737 18.4893 16.9832C18.4861 16.9927 18.4834 17.0005 18.4812 17.007C18.4789 17.0135 18.4772 17.0182 18.476 17.0216C18.4748 17.0249 18.4743 17.0262 18.4744 17.0261C18.4744 17.0261 18.4775 17.018 18.4835 17.0053C18.4898 16.9917 18.4984 16.975 18.5093 16.9566C18.5202 16.9382 18.5308 16.9226 18.5396 16.9106C18.548 16.8992 18.5535 16.8926 18.5536 16.8926C18.5536 16.8925 18.5527 16.8936 18.5503 16.8962C18.548 16.8989 18.5447 16.9026 18.54 16.9077C18.5354 16.9128 18.5299 16.9189 18.5231 16.9262C18.5163 16.9336 18.5087 16.9417 18.5 16.9511L19.9644 18.3133ZM6.5 20C6.5 19.4477 6.94771 19 7.49999 19V17C5.84314 17 4.5 18.3432 4.5 20H6.5Z" fill="url(#paint2_linear_11_1946)"/>
</g>
<defs>
<linearGradient id="paint0_linear_11_1946" x1="8.076" y1="5.096" x2="18.8106" y2="14.3357" gradientUnits="userSpaceOnUse">
<stop stop-color="#C1DEAE"/>
<stop offset="1" stop-color="#219F94"/>
</linearGradient>
<linearGradient id="paint1_linear_11_1946" x1="11.34" y1="4.752" x2="20.3688" y2="10.9969" gradientUnits="userSpaceOnUse">
<stop stop-color="#C1DEAE"/>
<stop offset="1" stop-color="#219F94"/>
</linearGradient>
<linearGradient id="paint2_linear_11_1946" x1="8.076" y1="15.376" x2="12.0097" y2="22.9942" gradientUnits="userSpaceOnUse">
<stop stop-color="#C1DEAE"/>
<stop offset="1" stop-color="#219F94"/>
</linearGradient>
<clipPath id="clip0_11_1946">
<rect width="24" height="24" fill="white" transform="translate(0.5)"/>
</clipPath>
</defs>
</svg>
