<svg width="41" height="51" viewBox="0 0 41 51" fill="none" xmlns="http://www.w3.org/2000/svg">
<path d="M40.1875 12.3765V46.4963C40.1875 47.9663 39.379 49.2995 38.077 49.982C37.4995 50.2839 36.8747 50.4364 36.2474 50.4364C35.4625 50.4364 34.6802 50.2 34.0056 49.7327L21.2403 40.8945C20.794 40.5821 20.1955 40.5821 19.7467 40.8945L6.99176 49.7327C5.78426 50.5701 4.22759 50.6619 2.92296 49.982C1.62096 49.2995 0.8125 47.9637 0.8125 46.4963V12.3765C0.8125 5.86384 6.11238 0.563965 12.625 0.563965H28.375C36.25 0.563965 40.1875 4.50018 40.1875 12.3765Z" fill="url(#paint0_linear_979_4120)"/>
<defs>
<linearGradient id="paint0_linear_979_4120" x1="8.0575" y1="9.14202" x2="37.8628" y2="35.1838" gradientUnits="userSpaceOnUse">
<stop stop-color="#C1DEAE"/>
<stop offset="1" stop-color="#219F94"/>
</linearGradient>
</defs>
</svg>
