<svg width="14" height="15" viewBox="0 0 14 15" fill="none" xmlns="http://www.w3.org/2000/svg">
<path d="M12.3882 4.5532L10.3967 2.56167C10.2037 2.36858 9.94758 2.26245 9.67517 2.26245H6.41667C5.21033 2.26245 4.22917 3.24362 4.22917 4.44995V4.59578H3.5C2.29367 4.59578 1.3125 5.57695 1.3125 6.78328V11.45C1.3125 12.6563 2.29367 13.6375 3.5 13.6375H7.58333C8.78967 13.6375 9.77083 12.6563 9.77083 11.45V11.3041H10.5C11.7063 11.3041 12.6875 10.323 12.6875 9.11662V5.27475C12.6875 5.00233 12.5813 4.7457 12.3882 4.5532ZM10.3542 3.75582L11.1936 4.59521H10.9737C10.6324 4.59521 10.3542 4.31696 10.3542 3.97571V3.75582ZM8.89583 11.45C8.89583 12.1739 8.30725 12.7625 7.58333 12.7625H3.5C2.77608 12.7625 2.1875 12.1739 2.1875 11.45V6.78328C2.1875 6.05937 2.77608 5.47078 3.5 5.47078H4.22917V9.11662C4.22917 10.323 5.21033 11.3041 6.41667 11.3041H8.89583V11.45ZM10.5 10.4291H6.41667C5.69275 10.4291 5.10417 9.84053 5.10417 9.11662V4.44995C5.10417 3.72603 5.69275 3.13745 6.41667 3.13745H9.47917V3.97628C9.47917 4.80053 10.1494 5.47078 10.9737 5.47078H11.8125V9.11662C11.8125 9.83995 11.2239 10.4291 10.5 10.4291Z" fill="#848484"/>
</svg>
