<svg width="50" height="47" viewBox="0 0 50 47" fill="none" xmlns="http://www.w3.org/2000/svg">
<path d="M43.3183 35.7872L50 9.96823L37.4215 22.925L35.4439 0.00284003L24.9991 19.9667L14.5561 0L12.5785 22.9222L0 9.9654L6.81698 36.3225C6.10818 37.0236 5.61576 37.9135 5.39835 38.8865C4.7647 41.6717 6.50204 44.4551 9.26837 45.0897C19.8791 47.5371 30.9078 47.5371 41.5185 45.0897C42.4912 44.8582 43.3766 44.3514 44.0687 43.6298C44.7608 42.9081 45.2302 42.0024 45.4208 41.0208C45.6114 40.0393 45.5151 39.0237 45.1433 38.0955C44.7716 37.1673 44.1403 36.3659 43.3249 35.7872H43.3183Z" fill="url(#paint0_linear_980_4542)"/>
<path d="M43.7334 21.1188L34.7734 30.3436L33.1438 11.4551L24.999 27.0297L16.8533 11.4551L15.2237 30.3436L6.26367 21.1188L10.9281 39.1325C15.6361 41.1725 20.8178 41.7494 23.7799 41.9064V41.9575C23.7799 41.9575 24.2263 41.9707 25.0019 41.9575C25.7764 41.9754 26.2228 41.9575 26.2228 41.9575V41.9026C29.1849 41.7456 34.3676 41.1687 39.0746 39.1287L43.7334 21.1188Z" fill="#E08A00"/>
<path d="M25.3773 41.1461C25.2601 41.1461 25.14 41.1461 25.018 41.1395H24.9801C24.8572 41.1395 24.7371 41.1452 24.6207 41.1461V41.1357L23.8216 41.0932C21.2018 40.9551 16.1903 40.4378 11.6214 38.5396L7.83838 23.9098L15.8933 32.2022L17.4349 14.3218L25.0066 28.7984L32.5774 14.3218L34.1199 32.2022L42.1739 23.9098L38.3909 38.5396C33.8172 40.4311 28.8066 40.9532 26.1907 41.0932L25.3925 41.1357L25.3773 41.1461Z" fill="url(#paint1_radial_980_4542)"/>
<path d="M40.7787 41.9028C30.6514 44.2378 20.1255 44.2378 9.99821 41.9028C8.9891 41.6711 8.35639 40.626 8.58621 39.615C8.81603 38.6021 9.77975 37.9789 10.7312 38.1964C20.3773 40.4214 30.4034 40.4214 40.0495 38.1964C41.0019 37.9779 41.9656 38.6012 42.1954 39.615C42.4214 40.6232 41.7878 41.6683 40.7787 41.9028Z" fill="#E08A00"/>
<path d="M25.389 42.8331C20.271 42.8312 15.1697 42.2503 10.1823 41.1014C9.90528 41.03 9.66699 40.8535 9.51796 40.6093C9.36894 40.3651 9.32092 40.0725 9.38409 39.7934C9.49285 39.3149 9.89858 38.9688 10.3488 38.9688C10.4162 38.9688 10.4835 38.9764 10.5493 38.9914C20.3146 41.2436 30.4644 41.2436 40.2298 38.9914C40.2952 38.9764 40.3622 38.9688 40.4293 38.9688C40.8871 38.9688 41.2805 39.3073 41.394 39.7925C41.4572 40.0715 41.4094 40.3642 41.2605 40.6085C41.1117 40.8528 40.8737 41.0296 40.5967 41.1014C35.609 42.2503 30.5074 42.8312 25.389 42.8331Z" fill="url(#paint2_radial_980_4542)"/>
<path style="mix-blend-mode:screen" d="M21.0322 46.7892C22.4824 46.8781 23.9344 46.9232 25.3884 46.9244C27.6487 46.9244 29.9081 46.8166 32.1666 46.601L43.4361 35.3314L47.2579 20.5645L21.0322 46.7892Z" fill="url(#paint3_radial_980_4542)"/>
<path style="mix-blend-mode:screen" d="M36.4927 12.1875L5.99219 42.688C6.34547 43.2899 6.81792 43.8133 7.3806 44.2262C7.94327 44.6391 8.58433 44.9328 9.26449 45.0892C10.0009 45.2595 10.7405 45.4171 11.4832 45.5621L37.1566 19.8897L36.4927 12.1875Z" fill="url(#paint4_radial_980_4542)"/>
<path style="mix-blend-mode:screen" d="M22.4233 15.043L5.65039 31.8159L6.65762 35.7076L24.1058 18.2604L22.4233 15.043Z" fill="url(#paint5_radial_980_4542)"/>
<defs>
<linearGradient id="paint0_linear_980_4542" x1="-0.00283726" y1="23.4622" x2="50" y2="23.4622" gradientUnits="userSpaceOnUse">
<stop stop-color="#E88D1E"/>
<stop offset="1" stop-color="#FFC133"/>
</linearGradient>
<radialGradient id="paint1_radial_980_4542" cx="0" cy="0" r="1" gradientUnits="userSpaceOnUse" gradientTransform="translate(25.1073 27.7306) scale(15.035 16.1667)">
<stop stop-color="#FFEEB8"/>
<stop offset="1" stop-color="#FFBF00"/>
</radialGradient>
<radialGradient id="paint2_radial_980_4542" cx="0" cy="0" r="1" gradientUnits="userSpaceOnUse" gradientTransform="translate(25.389 40.9009) scale(11.4181 11.4181)">
<stop stop-color="#FFEEB8"/>
<stop offset="1" stop-color="#FFBF00"/>
</radialGradient>
<radialGradient id="paint3_radial_980_4542" cx="0" cy="0" r="1" gradientUnits="userSpaceOnUse" gradientTransform="translate(37.4268 14.035) scale(32.0307 32.0307)">
<stop stop-color="#FFFD9E"/>
<stop offset="1"/>
</radialGradient>
<radialGradient id="paint4_radial_980_4542" cx="0" cy="0" r="1" gradientUnits="userSpaceOnUse" gradientTransform="translate(25.4737 3.92069) scale(40.3562 40.3562)">
<stop stop-color="#FFFD9E"/>
<stop offset="1"/>
</radialGradient>
<radialGradient id="paint5_radial_980_4542" cx="0" cy="0" r="1" gradientUnits="userSpaceOnUse" gradientTransform="translate(17.1876 9.92456) scale(24.9092 24.9092)">
<stop stop-color="#FFFD9E"/>
<stop offset="1"/>
</radialGradient>
</defs>
</svg>
