<svg width="19" height="18" viewBox="0 0 19 18" fill="none" xmlns="http://www.w3.org/2000/svg">
<path d="M9.5 9H8.75C8.75 9.32282 8.95657 9.60943 9.26283 9.71151L9.5 9ZM10.25 5.25C10.25 4.83579 9.91421 4.5 9.5 4.5C9.08579 4.5 8.75 4.83579 8.75 5.25H10.25ZM11.5128 10.4615C11.9058 10.5925 12.3305 10.3801 12.4615 9.98717C12.5925 9.59421 12.3801 9.16947 11.9872 9.03849L11.5128 10.4615ZM10.25 9V5.25H8.75V9H10.25ZM9.26283 9.71151L11.5128 10.4615L11.9872 9.03849L9.73717 8.28849L9.26283 9.71151ZM16.25 9C16.25 12.7279 13.2279 15.75 9.5 15.75V17.25C14.0563 17.25 17.75 13.5563 17.75 9H16.25ZM9.5 15.75C5.77208 15.75 2.75 12.7279 2.75 9H1.25C1.25 13.5563 4.94365 17.25 9.5 17.25V15.75ZM2.75 9C2.75 5.27208 5.77208 2.25 9.5 2.25V0.75C4.94365 0.75 1.25 4.44365 1.25 9H2.75ZM9.5 2.25C13.2279 2.25 16.25 5.27208 16.25 9H17.75C17.75 4.44365 14.0563 0.75 9.5 0.75V2.25Z" fill="#FFBF14"/>
</svg>
