<svg width="33" height="33" viewBox="0 0 33 33" fill="none" xmlns="http://www.w3.org/2000/svg">
<rect width="33" height="33" rx="16.5" fill="#E8E8E8"/>
<path d="M18.5 17.5C18.5 18.6 17.6 19.5 16.5 19.5C15.4 19.5 14.5 18.6 14.5 17.5C14.5 16.4 15.4 15.5 16.5 15.5C17.6 15.5 18.5 16.4 18.5 17.5ZM26 15.5V20.5C26 22.98 23.98 25 21.5 25H11.5C9.02 25 7 22.98 7 20.5V15.5C7 13.11 8.87001 11.15 11.23 11.01L12.49 9.11011C12.96 8.42011 13.73 8 14.57 8H18.43C19.27 8 20.04 8.42011 20.51 9.11011L21.77 11.01C24.13 11.15 26 13.11 26 15.5ZM20.5 17.5C20.5 15.29 18.71 13.5 16.5 13.5C14.29 13.5 12.5 15.29 12.5 17.5C12.5 19.71 14.29 21.5 16.5 21.5C18.71 21.5 20.5 19.71 20.5 17.5ZM23.5 14.5C23.5 13.95 23.05 13.5 22.5 13.5C21.95 13.5 21.5 13.95 21.5 14.5C21.5 15.05 21.95 15.5 22.5 15.5C23.05 15.5 23.5 15.05 23.5 14.5Z" fill="#21242D"/>
</svg>
