<svg width="20" height="20" viewBox="0 0 20 20" fill="none" xmlns="http://www.w3.org/2000/svg">
    <circle cx="10.5" cy="9.5" r="5.5" fill="white" />
    <path
        d="M10 0C4.49 0 0 4.49 0 10C0 15.51 4.49 20 10 20C15.51 20 20 15.51 20 10C20 4.49 15.51 0 10 0ZM14.71 8.70996L9.70999 13.71C9.50999 13.9 9.26 14 9 14C8.74 14 8.49001 13.9 8.29001 13.71L5.29001 10.71C4.90001 10.32 4.90001 9.68004 5.29001 9.29004C5.68001 8.90004 6.31999 8.90004 6.70999 9.29004L9 11.5901L13.29 7.29004C13.68 6.90004 14.32 6.90004 14.71 7.29004C15.1 7.68004 15.1 8.31996 14.71 8.70996Z"
        fill="#219F94" />
</svg>