<svg width="25" height="24" viewBox="0 0 25 24" fill="none" xmlns="http://www.w3.org/2000/svg">
<path d="M21.7288 10.116C20.4138 7.92597 17.4658 4.25 12.4998 4.25C7.5348 4.25 4.5858 7.92497 3.2708 10.116C2.5738 11.278 2.5738 12.721 3.2708 13.884C4.5868 16.074 7.5348 19.75 12.4998 19.75C17.4658 19.75 20.4138 16.075 21.7288 13.884C22.4268 12.722 22.4268 11.279 21.7288 10.116ZM20.4428 13.113C19.2908 15.032 16.7268 18.251 12.4998 18.251C8.2728 18.251 5.70881 15.032 4.55681 13.113C4.14581 12.427 4.14581 11.574 4.55681 10.889C5.70881 8.96998 8.2738 5.75098 12.4998 5.75098C16.7278 5.75098 19.2918 8.96998 20.4428 10.889C20.8548 11.574 20.8548 12.427 20.4428 13.113ZM12.4998 7.75098C10.1568 7.75098 8.2498 9.65798 8.2498 12.001C8.2498 14.344 10.1568 16.251 12.4998 16.251C14.8428 16.251 16.7498 14.344 16.7498 12.001C16.7498 9.65798 14.8428 7.75098 12.4998 7.75098ZM12.4998 14.751C10.9828 14.751 9.7498 13.518 9.7498 12.001C9.7498 10.484 10.9828 9.25098 12.4998 9.25098C14.0168 9.25098 15.2498 10.484 15.2498 12.001C15.2498 13.518 14.0168 14.751 12.4998 14.751Z" fill="white"/>
</svg>
