<svg width="24" height="24" viewBox="0 0 24 24" fill="none" xmlns="http://www.w3.org/2000/svg">
<g clip-path="url(#clip0_53_514)">
<path d="M21 17V11C21 9.11438 21 8.17157 20.4142 7.58579C19.8284 7 18.8855 7 16.9996 7H13.0004C11.1145 7 10.1716 7 9.58579 7.58579C9 8.17157 9 9.11438 9 11V17C9 18.8856 9 19.8284 9.58579 20.4142C10.1716 21 11.1144 21 13 21H17C18.8856 21 19.8284 21 20.4142 20.4142C21 19.8284 21 18.8856 21 17Z" stroke="white" stroke-width="2"/>
<path d="M16 7V7C16 5.11438 16 4.17157 15.4142 3.58579C14.8284 3 13.8855 3 11.9996 3C10.6345 3 9.36552 3 8.00038 3C6.11451 3 5.17157 3 4.58579 3.58579C4 4.17157 4 5.11438 4 7V13C4 14.8856 4 15.8284 4.58579 16.4142C5.17157 17 6.11438 17 8 17H9" stroke="white" stroke-width="2"/>
</g>
<defs>
<clipPath id="clip0_53_514">
<rect width="24" height="24" fill="white"/>
</clipPath>
</defs>
</svg>
