<svg width="50" height="50" viewBox="0 0 50 50" fill="none" xmlns="http://www.w3.org/2000/svg">
<path d="M35.4167 12.5H26.6729C26.325 12.5 26 12.327 25.8062 12.0354L23.4938 8.56883C22.525 7.11674 20.9062 6.25 19.1604 6.25H14.5833C8.83957 6.25 4.16666 10.9229 4.16666 16.6667V31.25C4.16666 36.9938 8.83957 41.6667 14.5833 41.6667H35.4167C41.1604 41.6667 45.8333 36.9938 45.8333 31.25V22.9167C45.8333 17.1729 41.1604 12.5 35.4167 12.5ZM41.6667 31.25C41.6667 34.6958 38.8625 37.5 35.4167 37.5H14.5833C11.1375 37.5 8.33332 34.6958 8.33332 31.25V16.6667C8.33332 13.2208 11.1375 10.4167 14.5833 10.4167H19.1604C19.5083 10.4167 19.8333 10.5896 20.0271 10.8813L22.3396 14.3478C23.3083 15.7999 24.9271 16.6667 26.6729 16.6667H35.4167C38.8625 16.6667 41.6667 19.4708 41.6667 22.9167V31.25Z" fill="#848484"/>
</svg>
