<svg width="25" height="24" viewBox="0 0 25 24" fill="none" xmlns="http://www.w3.org/2000/svg">
<path d="M18.5 7.25H18.25V6C18.25 3.932 16.568 2.25 14.5 2.25H6.5C4.432 2.25 2.75 3.932 2.75 6V16C2.75 16.305 2.935 16.579 3.216 16.694C3.308 16.732 3.404 16.75 3.5 16.75C3.698 16.75 3.89201 16.672 4.03601 16.525L5.77499 14.75H6.75V16C6.75 18.068 8.432 19.75 10.5 19.75H19.225L20.964 21.525C21.108 21.672 21.302 21.75 21.5 21.75C21.596 21.75 21.692 21.732 21.784 21.694C22.066 21.579 22.25 21.304 22.25 21V11C22.25 8.932 20.568 7.25 18.5 7.25ZM5.45999 13.25C5.25799 13.25 5.06501 13.331 4.92401 13.475L4.25 14.163V6C4.25 4.759 5.259 3.75 6.5 3.75H14.5C15.741 3.75 16.75 4.759 16.75 6V11C16.75 12.241 15.741 13.25 14.5 13.25H5.45999ZM20.75 19.163L20.076 18.475C19.935 18.331 19.742 18.25 19.54 18.25H10.5C9.259 18.25 8.25 17.241 8.25 16V14.75H14.5C16.568 14.75 18.25 13.068 18.25 11V8.75H18.5C19.741 8.75 20.75 9.759 20.75 11V19.163Z" fill="#848484"/>
</svg>
