<svg width="24" height="24" viewBox="0 0 24 24" fill="none" xmlns="http://www.w3.org/2000/svg">
<path d="M12.0002 20.803L7.36865 23.238C5.48402 24.2289 3.28117 22.6285 3.64117 20.5299L4.52564 15.3724L0.778573 11.7199C-0.746053 10.2338 0.095167 7.64429 2.20229 7.33826L7.38048 6.58574L9.69643 1.89322C10.6386 -0.0161647 13.3614 -0.0161647 14.3036 1.89322L16.6195 6.58574L21.7977 7.33826C23.9048 7.64429 24.7461 10.2338 23.2214 11.7199L19.4744 15.3724L20.3588 20.5299C20.7188 22.6285 18.516 24.2289 16.6313 23.238L12.0002 20.803Z" fill="#90B94D"/>
<path d="M12.0902 13.9428C11.2061 13.9428 10.4868 13.2934 10.4868 12.4951C10.4868 12.2911 10.6524 12.1255 10.8564 12.1255C11.0604 12.1255 11.226 12.2911 11.226 12.4951C11.226 12.8858 11.6138 13.2036 12.0902 13.2036C12.5666 13.2036 12.9543 12.8858 12.9543 12.4951C12.9543 12.2911 13.1199 12.1255 13.3239 12.1255C13.5279 12.1255 13.6935 12.2911 13.6935 12.4951C13.6935 13.2934 12.9743 13.9428 12.0902 13.9428Z" fill="#11113D"/>
<path d="M8.21716 13.1546C8.97998 13.1546 9.59837 12.446 9.59837 11.5719C9.59837 10.6978 8.97998 9.98926 8.21716 9.98926C7.45433 9.98926 6.83594 10.6978 6.83594 11.5719C6.83594 12.446 7.45433 13.1546 8.21716 13.1546Z" fill="#11113D"/>
<path d="M15.7836 13.1546C16.5464 13.1546 17.1648 12.446 17.1648 11.5719C17.1648 10.6978 16.5464 9.98926 15.7836 9.98926C15.0207 9.98926 14.4023 10.6978 14.4023 11.5719C14.4023 12.446 15.0207 13.1546 15.7836 13.1546Z" fill="#11113D"/>
<path d="M6.95088 9.61338C6.8485 9.61338 6.74649 9.57124 6.67367 9.48845C6.53877 9.3358 6.55282 9.10295 6.70547 8.96767C6.74465 8.93293 7.67974 8.11684 8.74014 8.27947C8.94195 8.31014 9.08055 8.49901 9.04913 8.70082C9.01809 8.90262 8.82848 9.03975 8.62779 9.00981C7.91519 8.90262 7.20184 9.51543 7.19482 9.52134C7.12496 9.58307 7.03774 9.61338 6.95088 9.61338Z" fill="#11113D"/>
<path d="M17.0322 9.65552C16.9395 9.65552 16.8463 9.62078 16.7743 9.55055C16.7587 9.53577 16.082 8.89598 15.3679 8.96916C15.1657 8.99282 14.9835 8.84239 14.9625 8.63947C14.9414 8.43656 15.0889 8.25471 15.2921 8.23402C16.3551 8.12129 17.2529 8.98506 17.2906 9.02165C17.4366 9.16432 17.4392 9.39828 17.2965 9.54427C17.2241 9.61819 17.1283 9.65552 17.0322 9.65552Z" fill="#11113D"/>
</svg>
