<svg width="27" height="28" viewBox="0 0 27 28" fill="none" xmlns="http://www.w3.org/2000/svg">
<path fill-rule="evenodd" clip-rule="evenodd" d="M22.68 14.2174C22.68 13.5394 22.6192 12.8874 22.5062 12.2615H13.5V15.9604H18.6464C18.4247 17.1557 17.751 18.1685 16.7382 18.8466V21.2459H19.8286C21.6368 19.5811 22.68 17.1297 22.68 14.2174Z" fill="#4285F4"/>
<path fill-rule="evenodd" clip-rule="evenodd" d="M13.5 23.5625C16.0819 23.5625 18.2465 22.7063 19.8286 21.2458L16.7382 18.8465C15.8819 19.4202 14.7866 19.7593 13.5 19.7593C11.0094 19.7593 8.9013 18.0771 8.14934 15.8169H4.95459V18.2945C6.52806 21.4197 9.76193 23.5625 13.5 23.5625Z" fill="#34A853"/>
<path fill-rule="evenodd" clip-rule="evenodd" d="M8.14935 15.8169C7.9581 15.2431 7.84944 14.6303 7.84944 14C7.84944 13.3697 7.9581 12.7569 8.14935 12.1831V9.70557H4.9546C4.30696 10.9965 3.9375 12.457 3.9375 14C3.9375 15.543 4.30696 17.0035 4.9546 18.2944L8.14935 15.8169Z" fill="#FBBC05"/>
<path fill-rule="evenodd" clip-rule="evenodd" d="M13.5 8.24077C14.904 8.24077 16.1645 8.72325 17.1555 9.6708L19.8982 6.9281C18.2421 5.38506 16.0775 4.4375 13.5 4.4375C9.76193 4.4375 6.52806 6.58037 4.95459 9.70558L8.14934 12.1831C8.9013 9.92291 11.0094 8.24077 13.5 8.24077Z" fill="#EA4335"/>
</svg>
