<svg width="24" height="24" viewBox="0 0 24 24" fill="none" xmlns="http://www.w3.org/2000/svg">
<path d="M11.9998 20.8026L7.36842 23.2375C5.48386 24.2284 3.28107 22.6281 3.64106 20.5295L4.5255 15.3722L0.778549 11.7198C-0.74603 10.2337 0.095164 7.64432 2.20222 7.33829L7.38061 6.5858L9.6965 1.89342C10.6386 -0.015906 13.3614 -0.015906 14.3035 1.89342L16.6194 6.5858L21.7978 7.33829C23.9048 7.64432 24.746 10.2337 23.2215 11.7198L19.4745 15.3722L20.3589 20.5295C20.7189 22.6281 18.5161 24.2284 16.6316 23.2375L11.9998 20.8026Z" fill="#98ED68"/>
<path d="M12.0897 15.73C10.3585 15.73 9.00244 14.7824 9.00244 13.5727C9.00244 13.3687 9.16802 13.2031 9.37204 13.2031C9.57605 13.2031 9.74163 13.3687 9.74163 13.5727C9.74163 14.3415 10.8168 14.9909 12.0897 14.9909C13.3626 14.9909 14.4377 14.3415 14.4377 13.5727C14.4377 13.3687 14.6033 13.2031 14.8073 13.2031C15.0113 13.2031 15.1769 13.3687 15.1769 13.5727C15.1769 14.7824 13.8208 15.73 12.0897 15.73Z" fill="#11113D"/>
<path d="M8.21662 13.1542C8.97943 13.1542 9.5978 12.4457 9.5978 11.5716C9.5978 10.6976 8.97943 9.98901 8.21662 9.98901C7.45382 9.98901 6.83545 10.6976 6.83545 11.5716C6.83545 12.4457 7.45382 13.1542 8.21662 13.1542Z" fill="#11113D"/>
<path d="M15.783 13.1542C16.5458 13.1542 17.1642 12.4457 17.1642 11.5716C17.1642 10.6976 16.5458 9.98901 15.783 9.98901C15.0202 9.98901 14.4019 10.6976 14.4019 11.5716C14.4019 12.4457 15.0202 13.1542 15.783 13.1542Z" fill="#11113D"/>
<path d="M6.97384 8.92949C6.87959 8.92949 6.78534 8.89364 6.71327 8.82231C6.56876 8.67853 6.56728 8.44532 6.71069 8.30081C6.74765 8.26348 7.62728 7.38902 8.69578 7.48031C8.89906 7.49768 9.04985 7.67693 9.03211 7.88058C9.01474 8.08349 8.83438 8.23835 8.63184 8.21691C7.91298 8.15556 7.24217 8.81492 7.23552 8.82157C7.16344 8.89327 7.06883 8.92949 6.97384 8.92949Z" fill="#11113D"/>
<path d="M16.9965 8.98876C16.8927 8.98876 16.7892 8.94514 16.7164 8.86013C16.7101 8.85311 16.0977 8.13721 15.367 8.15643C15.1552 8.14497 14.9952 7.99602 14.9922 7.79201C14.9893 7.58799 15.1526 7.42019 15.3567 7.41724C15.3652 7.41724 15.374 7.41724 15.3825 7.41724C16.4421 7.41724 17.2434 8.33938 17.2771 8.37892C17.4097 8.53415 17.3916 8.76737 17.2368 8.90005C17.1673 8.95956 17.0815 8.98876 16.9965 8.98876Z" fill="#11113D"/>
</svg>
