<svg width="25" height="24" viewBox="0 0 25 24" fill="none" xmlns="http://www.w3.org/2000/svg">
<path d="M20.478 7.31541L15.478 3.294C13.752 1.90652 11.248 1.90652 9.522 3.294L4.522 7.31541C3.396 8.22072 2.75 9.56817 2.75 11.0127V17.0067C2.75 19.6237 4.881 21.7534 7.5 21.7534H10.25V17.0067C10.25 15.7683 11.259 14.76 12.5 14.76C13.741 14.76 14.75 15.7683 14.75 17.0067V21.7534H17.5C20.119 21.7534 22.25 19.6247 22.25 17.0067V11.0127C22.25 9.56817 21.604 8.22072 20.478 7.31541ZM20.75 17.0067C20.75 18.7964 19.292 20.2529 17.5 20.2529H16.25V17.0067C16.25 14.941 14.568 13.2594 12.5 13.2594C10.432 13.2594 8.75 14.941 8.75 17.0067V20.2529H7.5C5.708 20.2529 4.25 18.7964 4.25 17.0067V11.0127C4.25 10.0253 4.691 9.10403 5.461 8.48482L10.461 4.46341C11.643 3.51408 13.357 3.51408 14.538 4.46341L19.538 8.48482C20.308 9.10403 20.749 10.0253 20.749 11.0127V17.0067H20.75Z" fill="#848484"/>
</svg>
