<svg width="37" height="35" viewBox="0 0 37 35" fill="none" xmlns="http://www.w3.org/2000/svg">
<rect x="0.499451" width="36.0011" height="35" rx="12" fill="#219F94"/>
<path d="M28.387 15.095C28.109 14.234 27.376 13.619 26.474 13.491L22.424 12.911L20.615 9.30005C20.213 8.49805 19.403 8 18.5 8C17.597 8 16.787 8.49805 16.385 9.30005L14.576 12.911L10.526 13.491C9.62401 13.62 8.89102 14.234 8.61302 15.095C8.33802 15.949 8.57101 16.866 9.21901 17.49L12.141 20.298L11.452 24.2571C11.299 25.1351 11.653 26.009 12.375 26.538C12.792 26.844 13.283 27 13.777 27C14.15 27 14.526 26.911 14.873 26.73L18.499 24.8521L22.125 26.73C22.934 27.15 23.891 27.074 24.624 26.538C25.346 26.009 25.7 25.1351 25.547 24.2571L24.858 20.298L27.78 17.49C28.429 16.866 28.662 15.948 28.387 15.095ZM26.395 16.048L23.089 19.224C22.849 19.453 22.74 19.7881 22.797 20.1171L23.577 24.6C23.606 24.765 23.52 24.8681 23.442 24.9241C23.385 24.9651 23.233 25.05 23.046 24.954L18.96 22.838C18.672 22.688 18.328 22.688 18.04 22.838L13.954 24.954C13.767 25.05 13.615 24.9651 13.558 24.9241C13.48 24.8671 13.394 24.765 13.423 24.6L14.203 20.1171C14.26 19.7891 14.15 19.454 13.911 19.224L10.605 16.048C10.48 15.928 10.488 15.797 10.517 15.709C10.542 15.632 10.613 15.4981 10.809 15.4711L15.377 14.817C15.702 14.77 15.983 14.568 16.129 14.275L18.172 10.196C18.257 10.025 18.414 10 18.499 10C18.584 10 18.741 10.025 18.826 10.196L20.869 14.275C21.015 14.568 21.297 14.77 21.621 14.817L26.19 15.4711C26.386 15.4981 26.457 15.632 26.482 15.709C26.512 15.797 26.52 15.928 26.395 16.048Z" fill="white"/>
</svg>
