<svg width="37" height="36" viewBox="0 0 37 36" fill="none" xmlns="http://www.w3.org/2000/svg">
<rect x="0.501221" width="35.9976" height="36" rx="12" fill="#FFBF14"/>
<path d="M27.0372 15.998L20.5032 9.46497C19.5592 8.52097 18.3032 8 16.9682 8H12.5012C10.2952 8 8.50122 9.794 8.50122 12V16.4659C8.50122 17.8009 9.02121 19.057 9.96521 20.002L16.4992 26.535C17.4432 27.479 18.6992 28 20.0342 28C21.3702 28 22.6252 27.479 23.5702 26.535L27.0362 23.069C28.9862 21.12 28.9862 17.947 27.0372 15.998ZM25.6232 21.655L22.1572 25.121C21.0242 26.253 19.0492 26.255 17.9142 25.121L11.3802 18.588C10.8132 18.021 10.5012 17.2669 10.5012 16.4659V12C10.5012 10.897 11.3982 10 12.5012 10H16.9672C17.7572 10 18.5292 10.32 19.0882 10.879L25.6222 17.412C26.7922 18.582 26.7922 20.485 25.6232 21.655ZM15.5012 13.5C15.5012 14.328 14.8292 15 14.0012 15C13.1732 15 12.5012 14.328 12.5012 13.5C12.5012 12.672 13.1732 12 14.0012 12C14.8292 12 15.5012 12.672 15.5012 13.5Z" fill="white"/>
</svg>
