<svg version="1.1" id="Layer_1" xmlns="http://www.w3.org/2000/svg"
    xmlns:xlink="http://www.w3.org/1999/xlink" x="0px" y="0px"
    width="100%" viewBox="0 0 558 292" enable-background="new 0 0 558 292" xml:space="preserve">
<path fill="#FFFFFF" opacity="1.000000" stroke="none" 
	d="
M411.000000,293.000000 
	C274.000031,293.000000 137.500076,293.000000 1.000092,293.000000 
	C1.000061,195.666733 1.000061,98.333473 1.000031,1.000157 
	C186.999878,1.000105 372.999756,1.000105 558.999756,1.000052 
	C558.999817,98.333183 558.999817,195.666367 558.999878,292.999756 
	C509.833344,293.000000 460.666656,293.000000 411.000000,293.000000 
M294.228546,148.184845 
	C294.501465,147.826218 294.774414,147.467590 295.835175,146.994980 
	C301.860443,143.611084 307.932617,145.497177 314.831482,146.978638 
	C315.886353,146.365906 317.643188,145.949585 317.878754,145.107620 
	C319.128845,140.639450 319.997101,136.064423 321.032501,131.368179 
	C310.910736,128.535934 300.997559,126.580894 290.833801,129.049423 
	C281.632996,131.284058 274.562531,136.137787 271.802063,146.723099 
	C271.209686,154.354584 269.582184,162.096252 270.378967,169.579849 
	C270.935059,174.802963 273.893311,180.458832 277.389923,184.541321 
	C285.409576,193.904800 305.843384,196.022507 319.807098,189.962265 
	C322.240295,189.456223 323.147888,188.092850 323.064972,185.501328 
	C322.889679,180.020966 323.076721,174.529022 323.994293,169.005081 
	C325.245178,169.005081 326.496094,169.005081 328.178772,169.005081 
	C328.178772,176.951080 328.178772,184.356339 328.178772,191.670700 
	C335.350098,191.670700 342.072906,191.670700 349.272888,191.670700 
	C348.888367,184.992523 348.524323,178.669968 348.156769,172.286423 
	C352.908905,172.286423 357.303864,172.286423 362.152039,172.286423 
	C362.152039,178.960129 362.152039,185.354431 362.152039,191.833344 
	C367.740540,191.833344 372.869995,191.833344 378.874420,191.979172 
	C381.076385,192.320557 382.080994,191.717484 382.056641,189.153030 
	C381.932648,176.095230 382.053253,163.035034 381.917389,149.977463 
	C381.903687,148.659012 380.744385,147.352493 381.038727,146.004913 
	C387.959534,146.004913 394.880310,146.004913 402.242126,146.004913 
	C402.242126,161.718140 402.242126,176.775681 402.242126,191.622040 
	C409.101959,191.622040 415.497803,191.622040 422.156921,191.622040 
	C422.156921,176.309021 422.156921,161.372711 422.156921,145.972656 
	C427.492035,145.972656 432.566101,145.972656 437.723602,145.972656 
	C437.723602,140.108627 437.723602,134.716766 437.723602,129.284607 
	C412.402161,129.284607 387.357117,129.284607 361.892487,129.284607 
	C361.892487,137.694321 361.892487,145.822830 360.974731,153.994034 
	C356.737732,153.994034 352.500763,153.994034 347.735016,153.994034 
	C348.155670,145.311066 348.546417,137.245621 348.932495,129.276123 
	C341.566986,129.276123 334.857727,129.276123 328.166626,129.276123 
	C328.166626,130.701706 328.166626,131.851135 328.020477,133.927353 
	C327.977814,140.602020 327.935150,147.276688 326.969849,153.994080 
	C316.697540,153.994080 306.425262,153.994080 296.166626,153.994080 
	C296.166626,155.685776 296.166626,156.843170 296.018799,158.841766 
	C295.591736,162.112289 295.164642,165.382828 294.672089,169.155060 
	C298.673370,169.155060 301.736908,169.155060 304.888763,169.155060 
	C304.888763,171.697006 304.888763,173.825867 304.163208,176.311646 
	C293.741119,179.137985 290.920563,173.610748 290.062653,166.248184 
	C289.354156,160.168411 290.092255,154.204605 293.691895,148.684525 
	C293.691895,148.684525 293.843719,148.451645 294.228546,148.184845 
M247.125961,215.996017 
	C241.811920,217.053802 242.067551,221.175186 241.981400,225.195343 
	C241.877365,230.050125 245.175003,231.568680 249.013672,232.506958 
	C252.854721,233.445847 255.974014,232.427032 258.214905,228.763519 
	C257.211792,227.892029 256.389038,227.177185 255.329819,226.256927 
	C256.650665,226.055359 257.781647,225.882767 260.503693,225.467377 
	C258.186707,221.441269 256.343750,218.238861 254.299332,214.686371 
	C256.132812,212.957092 258.962097,210.288620 261.791412,207.620148 
	C261.492767,207.140686 261.194122,206.661224 260.895477,206.181763 
	C255.578430,208.306839 250.261383,210.431900 244.944351,212.556976 
	C245.077606,213.063492 245.210861,213.570007 245.344116,214.076538 
	C246.215103,214.422318 247.086075,214.768112 247.964264,215.539841 
	C247.964264,215.539841 247.884644,215.958344 247.125961,215.996017 
M443.020477,133.927628 
	C443.020477,153.192032 443.020477,172.456421 443.020477,191.669800 
	C458.994080,191.669800 474.389801,191.669800 489.636230,191.669800 
	C489.636230,185.933701 489.636230,180.533279 489.636230,174.861115 
	C480.656494,174.861115 472.037598,174.861115 463.238953,174.861115 
	C463.238953,172.505920 463.238953,170.446548 463.238953,167.918488 
	C471.206970,167.918488 478.947815,167.918488 486.690002,167.918488 
	C486.690002,162.711090 486.690002,157.982895 486.690002,152.802643 
	C478.638580,152.802643 470.888458,152.802643 463.180908,152.802643 
	C463.180908,150.385712 463.180908,148.433167 463.180908,146.243912 
	C475.356750,146.243912 487.353638,146.243912 499.350525,146.243912 
	C495.190643,146.812347 494.825592,149.557770 494.943329,153.012680 
	C495.147522,159.005142 495.000000,165.009583 495.000000,171.009003 
	C495.000000,177.937164 495.000000,184.865326 495.000000,191.638794 
	C502.060455,191.638794 508.459351,191.638794 515.282593,191.638794 
	C515.282593,185.565918 515.282593,179.850922 515.282593,174.135910 
	C515.673767,173.897598 516.064941,173.659286 516.456116,173.420975 
	C517.963562,174.909485 519.595642,176.292648 520.957397,177.904236 
	C527.838745,186.047943 534.793030,194.001419 547.827820,192.978424 
	C548.882141,192.047104 550.819763,191.139526 550.845581,190.180573 
	C550.997192,184.539429 550.703064,178.886276 550.583130,174.178726 
	C545.898010,172.626663 542.484436,171.495834 538.489014,170.172287 
	C539.677612,168.879379 540.221436,168.287872 541.411682,167.827744 
	C542.288635,166.923309 543.165527,166.018860 544.684570,164.827759 
	C553.422485,157.938675 549.977417,142.756989 544.839844,136.503082 
	C539.387939,129.866455 531.245972,128.415894 523.195618,128.115356 
	C516.795959,127.876442 510.359558,128.909470 503.936523,128.954086 
	C485.290283,129.083618 466.642578,129.000000 447.995453,129.000000 
	C446.382812,129.000000 444.770142,129.000000 443.166626,129.000000 
	C443.166626,130.685883 443.166626,131.843216 443.020477,133.927628 
M163.296814,101.998634 
	C164.197479,101.035568 165.806793,100.120338 165.875595,99.101112 
	C166.166702,94.788864 165.999878,90.445694 165.999939,86.113823 
	C166.000107,75.845123 166.000000,65.576424 166.000000,55.000000 
	C149.140594,55.000000 132.826691,55.447098 116.549591,54.864738 
	C102.412178,54.358940 89.988220,64.796806 89.994026,81.655708 
	C90.010887,130.639160 89.997780,179.622604 90.011841,228.606049 
	C90.012222,229.936020 90.188316,231.265930 90.315170,233.057541 
	C91.188980,232.177444 91.595718,231.866638 91.878784,231.468002 
	C97.423981,223.658646 102.072685,214.972687 108.697899,208.227203 
	C118.330803,198.419479 130.626511,192.133484 143.807587,188.017899 
	C155.082077,184.497604 162.807709,177.829330 164.646194,165.698486 
	C165.140076,162.439697 164.936234,159.077698 165.095566,155.765152 
	C165.504807,147.257416 165.938095,138.750809 166.386200,129.753128 
	C147.942078,129.753128 130.543488,129.753128 113.000000,129.753128 
	C113.000000,127.629845 113.137360,125.958344 112.978157,124.315590 
	C111.764717,111.794838 120.726456,101.343010 135.340042,101.932899 
	C144.322357,102.295479 153.331238,101.999908 163.296814,101.998634 
M71.478241,213.985779 
	C75.734238,219.941284 79.990242,225.896774 84.683365,232.463959 
	C84.683365,190.624573 84.683365,149.486862 84.683365,108.280830 
	C59.750595,108.280830 35.034309,108.280830 10.003714,108.280830 
	C10.003714,126.683014 9.324499,144.841995 10.276021,162.915100 
	C10.790097,172.679443 15.192694,181.446899 25.676296,185.311340 
	C31.129339,187.321457 36.482426,189.634918 41.772331,192.048752 
	C52.973217,197.159882 63.480309,203.274567 71.478241,213.985779 
M10.000000,90.481895 
	C10.000000,94.243118 10.000000,98.004333 10.000000,101.708542 
	C35.316818,101.708542 60.010372,101.708542 84.998306,101.708542 
	C84.998306,93.795906 85.526031,86.126854 84.882660,78.557335 
	C83.730690,65.004021 74.068428,54.873257 59.936733,54.980534 
	C47.629189,55.073963 35.320374,55.000000 23.012119,55.000000 
	C18.754360,55.000000 14.496600,55.000000 10.000000,55.000000 
	C10.000000,66.911049 10.000000,78.199722 10.000000,90.481895 
M250.543716,78.000000 
	C247.770340,78.000000 244.996964,78.000000 242.327698,78.000000 
	C242.327698,75.347290 242.327698,73.288834 242.327698,70.774323 
	C251.042908,70.774323 259.438416,70.774323 267.629211,70.774323 
	C267.629211,64.907608 267.629211,59.512173 267.629211,54.379631 
	C252.208237,54.379631 237.159943,54.379631 222.379272,54.379631 
	C222.379272,75.468689 222.379272,96.176865 222.379272,116.611977 
	C238.141220,116.611977 253.522171,116.611977 268.764130,116.611977 
	C268.764130,110.947578 268.764130,105.673607 268.764130,99.980011 
	C259.791809,99.980011 251.045044,99.980011 242.276016,99.980011 
	C242.031570,97.469612 241.828018,95.379272 241.585770,92.891495 
	C249.152344,92.891495 256.904694,92.891495 264.711609,92.891495 
	C264.711609,87.746422 264.711609,83.022781 264.711609,78.000000 
	C260.127533,78.000000 255.828583,78.000000 250.543716,78.000000 
M254.475281,129.000000 
	C234.719437,129.000000 214.963593,129.000000 195.365463,129.000000 
	C195.365463,150.397202 195.365463,171.126587 195.365463,191.777832 
	C202.012177,191.777832 208.291245,191.777832 215.037415,191.777832 
	C215.037415,185.832397 215.037415,180.089691 215.037415,173.895813 
	C222.570618,173.895813 229.641281,173.895813 236.677338,173.895813 
	C236.677338,168.019440 236.677338,162.624496 236.677338,156.770142 
	C229.283157,156.770142 222.203171,156.770142 214.912491,156.770142 
	C214.912491,153.329529 214.912491,150.354706 214.912491,147.453506 
	C213.701248,147.097488 212.728531,146.811584 211.755814,146.525681 
	C211.795410,146.289764 211.835007,146.053833 211.874588,145.817917 
	C229.472748,145.817917 247.070908,145.817917 264.695221,145.817917 
	C264.695221,140.057709 264.695221,134.662201 264.695221,129.000000 
	C261.416656,129.000000 258.440247,129.000000 254.475281,129.000000 
M401.669250,78.934837 
	C397.055267,76.806358 392.441284,74.677872 387.434113,72.368004 
	C391.923828,67.826103 399.208893,67.952484 411.681824,71.948212 
	C412.667816,66.923996 413.647522,61.931854 414.707153,56.532562 
	C402.716492,52.355953 390.896210,51.584938 378.826813,54.628372 
	C364.933502,58.131721 364.228271,71.942375 369.080017,81.448685 
	C372.618835,88.382553 379.753571,90.488365 386.460510,93.029724 
	C390.091248,94.405449 393.598877,96.106079 397.162018,97.660141 
	C396.969971,98.360443 396.777924,99.060745 396.585876,99.761047 
	C387.304840,103.217361 378.457581,99.569458 369.254395,97.050674 
	C368.154572,102.102119 367.057800,107.139610 365.937073,112.287079 
	C366.822540,112.811012 367.593719,113.437874 368.476074,113.763527 
	C379.587219,117.864258 391.215912,118.424309 402.643738,116.741524 
	C411.675842,115.411522 418.171112,110.504608 418.194458,99.954216 
	C418.219971,88.466217 411.909149,82.810074 401.669250,78.934837 
M312.001404,67.304611 
	C312.965790,68.202682 313.881714,69.805641 314.903015,69.875862 
	C319.154053,70.168159 323.436859,69.998810 328.143768,69.998810 
	C328.143768,85.951653 328.143768,101.341248 328.143768,116.672241 
	C334.999420,116.672241 341.392883,116.672241 348.231812,116.672241 
	C348.231812,100.958344 348.231812,85.567841 348.231812,69.723000 
	C354.086975,69.723000 359.490356,69.723000 364.775818,69.723000 
	C364.775818,64.309631 364.775818,59.366280 364.775818,54.239235 
	C347.168030,54.239235 329.784698,54.239235 312.000092,54.239235 
	C312.000092,58.424343 312.000092,62.381886 312.001404,67.304611 
M318.000000,103.625900 
	C317.924103,102.183189 317.848175,100.740479 317.748566,98.847137 
	C309.710449,98.847137 301.973846,98.847137 293.784973,98.847137 
	C293.784973,83.646812 293.784973,68.913788 293.784973,54.375343 
	C286.910126,54.375343 280.511292,54.375343 274.227325,54.375343 
	C274.227325,75.359505 274.227325,95.967628 274.227325,116.742439 
	C288.848785,116.742439 303.242035,116.742439 318.000000,116.742439 
	C318.000000,112.529396 318.000000,108.564362 318.000000,103.625900 
M204.511398,54.000000 
	C201.415161,54.000000 198.318939,54.000000 195.299149,54.000000 
	C195.299149,75.326691 195.299149,96.023544 195.299149,116.682137 
	C201.990067,116.682137 208.377853,116.682137 214.697174,116.682137 
	C214.697174,95.665955 214.697174,74.969078 214.697174,54.000000 
	C211.430206,54.000000 208.459366,54.000000 204.511398,54.000000 
M245.000000,168.500610 
	C245.000000,176.244232 245.000000,183.987839 245.000000,191.688339 
	C251.986099,191.688339 258.369354,191.688339 264.700928,191.688339 
	C264.700928,177.675858 264.700928,163.976913 264.700928,150.000000 
	C261.272858,150.000000 258.141022,150.000000 255.009201,150.000000 
	C251.749481,150.000000 248.489761,150.000000 245.000000,150.000000 
	C245.000000,156.247299 245.000000,161.874283 245.000000,168.500610 
M415.466858,209.000092 
	C411.497101,208.819733 408.846497,210.468506 408.025909,214.501526 
	C407.107727,219.014313 410.037018,221.081482 413.449860,222.772034 
	C415.387512,223.731842 417.363129,224.615097 419.321655,225.532837 
	C418.996552,226.222061 418.671448,226.911301 418.346344,227.600525 
	C415.804932,226.562469 413.263550,225.524399 410.276672,224.304398 
	C409.506744,224.789322 408.176147,225.627335 406.991791,226.373260 
	C407.999878,231.459106 412.005615,232.120224 415.526733,232.888626 
	C418.985535,233.643433 424.439728,230.251495 424.828003,227.283875 
	C425.365906,223.172729 423.112030,220.492615 419.388702,219.013733 
	C418.193970,218.539200 416.766174,218.495132 415.737183,217.813217 
	C415.021545,217.338959 414.804749,216.112015 414.365082,215.221344 
	C415.317230,215.034943 416.404175,214.472473 417.188721,214.753677 
	C418.263000,215.138748 419.107635,216.164581 420.225922,217.055389 
	C421.554962,216.149048 422.932861,215.209396 425.623444,213.374527 
	C421.674774,211.522842 418.985260,210.261612 415.466858,209.000092 
M209.392593,225.080444 
	C206.577057,228.000885 203.089417,228.269836 200.969177,225.127625 
	C199.550125,223.024536 199.024002,218.999146 200.102448,216.830658 
	C201.851456,213.313889 205.843323,212.856155 208.917450,215.579407 
	C212.216904,218.502289 213.389954,216.150192 215.115875,214.166626 
	C210.899338,209.158920 205.737900,207.673477 200.658020,209.826767 
	C195.352142,212.075867 192.446960,216.722748 193.004044,222.069397 
	C193.545166,227.262863 197.596069,231.413177 203.444214,232.765747 
	C207.750092,233.761612 211.950272,231.490524 215.081573,226.263214 
	C213.354279,225.692413 211.657608,225.131744 209.392593,225.080444 
M291.268066,215.914017 
	C290.617828,213.766113 289.967621,211.618210 289.246948,209.237595 
	C288.162842,209.237595 286.766815,209.237595 285.263794,209.237595 
	C285.263794,216.881119 285.263794,224.290634 285.263794,231.717484 
	C289.225433,232.080399 293.018555,233.077301 296.608185,232.586380 
	C300.755157,232.019272 303.828674,226.262299 302.960541,222.217880 
	C301.997650,217.732086 297.053406,213.425613 291.268066,215.914017 
M374.339081,227.001190 
	C372.375854,227.001190 370.412659,227.001190 368.475769,227.001190 
	C368.280396,223.518753 368.280396,223.518753 375.761719,222.537979 
	C375.761719,221.160965 375.761719,219.765686 375.761719,218.632126 
	C373.507507,216.488266 367.980042,220.639603 367.959473,213.869568 
	C371.280151,213.869568 374.025146,213.869568 377.032227,213.869568 
	C376.921661,212.019012 376.838501,210.627655 376.761230,209.334488 
	C371.980408,209.334488 367.592865,209.334488 363.344604,209.334488 
	C363.344604,217.057632 363.344604,224.442215 363.344604,231.815262 
	C367.968018,231.815262 372.244507,231.815262 377.765778,231.815262 
	C376.733490,229.833313 375.998444,228.422058 374.339081,227.001190 
M217.009003,230.180420 
	C218.490250,230.889359 219.971512,231.598282 222.000015,232.569138 
	C222.000015,229.032043 221.704681,226.818405 222.094116,224.732620 
	C222.401810,223.084686 223.551178,221.593903 224.326752,220.033325 
	C225.217834,221.644318 226.539703,223.167206 226.891739,224.888443 
	C227.339035,227.075485 227.000000,229.423340 227.000000,231.841049 
	C228.798615,231.841049 230.090958,231.850128 231.382568,231.823929 
	C231.486084,231.821823 231.584671,231.576797 231.685547,231.444672 
	C233.006592,216.890106 233.006592,216.890106 222.114838,214.288452 
	C222.021820,212.677032 221.928314,211.056824 221.822815,209.229080 
	C220.218658,209.229080 218.821594,209.229080 217.000961,209.229080 
	C217.000961,216.005585 217.000961,222.619675 217.009003,230.180420 
M331.008484,210.825714 
	C331.008484,217.759521 331.008484,224.693329 331.008484,231.760284 
	C332.841400,231.760284 334.232880,231.760284 336.000000,231.760284 
	C336.000000,230.070801 335.777893,228.567596 336.049164,227.159439 
	C336.522064,224.704575 334.241058,220.310577 338.376343,220.289688 
	C343.035309,220.266174 340.321564,224.884415 340.951843,227.409454 
	C341.296143,228.788910 341.149323,230.290955 341.222534,231.709442 
	C342.928375,231.709442 344.318512,231.709442 345.677185,231.709442 
	C346.961334,216.822693 346.413818,215.831955 336.104218,214.545074 
	C336.029205,212.848114 335.951843,211.097534 335.846039,208.704269 
	C333.967377,209.173950 332.520599,209.535645 331.008484,210.825714 
M406.867554,209.607269 
	C401.345581,209.333466 395.823578,209.059677 390.273315,208.784470 
	C390.273315,210.913895 390.273315,212.306671 390.273315,213.851303 
	C392.264343,213.964371 393.997101,214.062759 396.120056,214.183319 
	C396.120056,220.289612 396.120056,226.013397 396.120056,231.705688 
	C398.268829,231.705688 399.990295,231.705688 402.115417,231.705688 
	C402.115417,225.692886 402.115417,219.963058 402.115417,214.233231 
	C402.648712,214.506073 403.182007,214.778915 403.715271,215.051758 
	C404.804504,213.541824 405.893707,212.031891 406.867554,209.607269 
M261.077118,216.878052 
	C261.077118,221.811768 261.077118,226.745483 261.077118,231.737427 
	C262.887878,231.737427 264.275665,231.737427 266.001373,231.737427 
	C266.001373,228.859177 265.743683,226.197098 266.110229,223.623932 
	C266.293060,222.340652 267.618164,221.220093 268.426544,220.025925 
	C269.283722,221.170990 270.709656,222.237198 270.881531,223.477249 
	C271.257874,226.192047 270.998047,228.995010 270.998047,232.026321 
	C272.966980,231.920944 274.358215,231.846481 275.999908,231.758621 
	C275.999908,228.097214 276.039734,224.799591 275.990540,221.503296 
	C275.918060,216.643814 272.633209,214.089539 267.848175,215.055603 
	C265.784058,215.472305 263.697144,215.776108 261.077118,216.878052 
M313.000000,222.559814 
	C313.000000,225.667908 313.000000,228.775986 313.000000,232.150955 
	C315.063477,231.939835 316.467743,231.796143 318.000000,231.639359 
	C318.000000,229.115173 317.713165,226.907211 318.090759,224.819443 
	C318.392670,223.150040 319.348267,220.379150 320.282104,220.263428 
	C323.605957,219.851639 322.930511,222.762146 322.985840,224.810593 
	C323.047577,227.096146 323.000000,229.384628 323.000000,231.730423 
	C324.894196,231.730423 326.286926,231.730423 327.648376,231.730423 
	C328.832092,216.778351 328.925629,212.690689 313.000000,216.718597 
	C313.000000,218.306763 313.000000,219.956299 313.000000,222.559814 
M384.000000,219.458282 
	C384.000000,216.033157 384.000000,212.608047 384.000000,208.915390 
	C382.000946,209.065628 380.609406,209.170227 379.306824,209.268127 
	C379.306824,217.016205 379.306824,224.380951 379.306824,231.712006 
	C384.011688,231.712006 388.405182,231.712006 393.054901,231.712006 
	C392.931152,230.010193 392.829742,228.615158 392.697266,226.793457 
	C389.651428,226.793457 386.932861,226.793457 384.000000,226.793457 
	C384.000000,224.370590 384.000000,222.401093 384.000000,219.458282 
M358.999969,228.286041 
	C358.999969,222.011963 358.999969,215.737885 358.999969,209.391296 
	C357.108704,209.391296 355.623627,209.391296 354.197815,209.391296 
	C354.197815,217.035721 354.197815,224.293365 354.197815,232.205414 
	C356.249146,231.411438 359.304047,233.668121 358.999969,228.286041 
M238.433685,216.015762 
	C236.044327,215.661865 234.736938,216.257706 234.944794,219.108963 
	C235.185211,222.406784 234.973358,225.735916 235.018250,229.050659 
	C235.031052,229.996033 235.253738,230.938583 235.408600,232.094513 
	C237.039886,231.940125 238.433640,231.808212 240.288147,231.632690 
	C239.963715,226.229691 239.660309,221.176697 238.433685,216.015762 
M305.079315,231.118790 
	C306.631561,231.418961 308.183777,231.719116 309.804932,232.032593 
	C309.804932,226.309860 309.804932,221.381485 309.804932,216.394867 
	C308.112549,216.394867 306.624786,216.394867 305.009186,216.394867 
	C305.009186,221.249908 305.009186,225.716980 305.079315,231.118790 
M309.995026,211.823395 
	C308.751221,210.996262 307.507416,210.169113 306.263611,209.341965 
	C305.521881,210.525665 304.504517,211.640656 304.183319,212.929199 
	C304.065948,213.399963 305.533844,214.748749 306.399475,214.876297 
	C307.966736,215.107239 310.330292,215.819153 309.995026,211.823395 
M234.436646,212.468292 
	C236.067871,212.622208 237.699081,212.776123 239.330307,212.930054 
	C239.326401,212.636978 239.322495,212.343918 239.318588,212.050842 
	C237.906830,212.050842 236.495056,212.050842 234.436646,212.468292 
z"/>
<path fill="#E41E26" opacity="1.000000" stroke="none" 
	d="
M162.812500,101.999252 
	C153.331238,101.999908 144.322357,102.295479 135.340042,101.932899 
	C120.726456,101.343010 111.764717,111.794838 112.978157,124.315590 
	C113.137360,125.958344 113.000000,127.629845 113.000000,129.753128 
	C130.543488,129.753128 147.942078,129.753128 166.386200,129.753128 
	C165.938095,138.750809 165.504807,147.257416 165.095566,155.765152 
	C164.936234,159.077698 165.140076,162.439697 164.646194,165.698486 
	C162.807709,177.829330 155.082077,184.497604 143.807587,188.017899 
	C130.626511,192.133484 118.330803,198.419479 108.697899,208.227203 
	C102.072685,214.972687 97.423981,223.658646 91.878784,231.468002 
	C91.595718,231.866638 91.188980,232.177444 90.315170,233.057541 
	C90.188316,231.265930 90.012222,229.936020 90.011841,228.606049 
	C89.997780,179.622604 90.010887,130.639160 89.994026,81.655708 
	C89.988220,64.796806 102.412178,54.358940 116.549591,54.864738 
	C132.826691,55.447098 149.140594,55.000000 166.000000,55.000000 
	C166.000000,65.576424 166.000107,75.845123 165.999939,86.113823 
	C165.999878,90.445694 166.166702,94.788864 165.875595,99.101112 
	C165.806793,100.120338 164.197479,101.035568 162.812500,101.999252 
z"/>
<path fill="#E41E26" opacity="1.000000" stroke="none" 
	d="
M71.227844,213.724365 
	C63.480309,203.274567 52.973217,197.159882 41.772331,192.048752 
	C36.482426,189.634918 31.129339,187.321457 25.676296,185.311340 
	C15.192694,181.446899 10.790097,172.679443 10.276021,162.915100 
	C9.324499,144.841995 10.003714,126.683014 10.003714,108.280830 
	C35.034309,108.280830 59.750595,108.280830 84.683365,108.280830 
	C84.683365,149.486862 84.683365,190.624573 84.683365,232.463959 
	C79.990242,225.896774 75.734238,219.941284 71.227844,213.724365 
z"/>
<path fill="#E41E26" opacity="1.000000" stroke="none" 
	d="
M377.999451,191.833344 
	C372.869995,191.833344 367.740540,191.833344 362.152039,191.833344 
	C362.152039,185.354431 362.152039,178.960129 362.152039,172.286423 
	C357.303864,172.286423 352.908905,172.286423 348.156769,172.286423 
	C348.524323,178.669968 348.888367,184.992523 349.272888,191.670700 
	C342.072906,191.670700 335.350098,191.670700 328.178772,191.670700 
	C328.178772,184.356339 328.178772,176.951080 328.178772,169.005081 
	C326.496094,169.005081 325.245178,169.005081 323.152893,169.020172 
	C321.208466,170.729599 319.299896,172.357803 319.154297,174.130753 
	C318.727020,179.334106 319.000488,184.594986 318.999512,189.833344 
	C305.843384,196.022507 285.409576,193.904800 277.389923,184.541321 
	C273.893311,180.458832 270.935059,174.802963 270.378967,169.579849 
	C269.582184,162.096252 271.209686,154.354584 272.319092,146.297256 
	C275.052673,143.328217 276.928741,140.344070 279.547638,138.322037 
	C288.473663,131.430405 298.729919,131.159012 309.271088,133.258286 
	C316.220673,134.642288 316.286407,134.806259 315.022430,142.010574 
	C314.738617,143.628174 314.343658,145.226273 313.999878,146.833344 
	C307.932617,145.497177 301.860443,143.611084 295.243652,146.797195 
	C294.382660,147.216812 294.113190,147.834229 293.843719,148.451645 
	C293.843719,148.451645 293.691895,148.684525 293.245270,148.547119 
	C291.650787,149.365936 290.210083,150.124039 289.405914,151.312759 
	C285.975464,156.383698 285.848541,162.163925 285.958984,168.050323 
	C286.160553,178.790665 292.366608,183.741272 302.599152,180.844711 
	C304.750916,180.235596 307.189209,179.007416 304.888763,175.954712 
	C304.888763,173.825867 304.888763,171.697006 304.888763,169.155060 
	C301.736908,169.155060 298.673370,169.155060 294.672089,169.155060 
	C295.164642,165.382828 295.591736,162.112289 296.550507,158.420929 
	C306.297150,157.999496 315.512604,158.058105 324.726715,157.970413 
	C328.654633,157.933044 328.880005,157.504349 327.892487,153.951355 
	C327.935150,147.276688 327.977814,140.602020 328.550781,133.463715 
	C333.231750,133.001617 337.385468,133.100586 341.531891,132.969009 
	C344.116486,132.887009 345.288635,133.903717 344.979462,136.460144 
	C344.802094,137.926544 344.255096,139.374115 344.251556,140.831100 
	C344.238312,146.273392 344.380829,151.716049 344.464905,157.158569 
	C349.196808,157.438522 353.927826,157.736389 358.661530,157.981277 
	C359.476105,158.023407 360.840546,158.095352 361.022034,157.712845 
	C361.560883,156.576996 361.636047,155.221176 361.892456,153.951355 
	C361.892487,145.822830 361.892487,137.694321 361.892487,129.284607 
	C387.357117,129.284607 412.402161,129.284607 437.723602,129.284607 
	C437.723602,134.716766 437.723602,140.108627 437.723602,145.972656 
	C432.566101,145.972656 427.492035,145.972656 422.156921,145.972656 
	C422.156921,161.372711 422.156921,176.309021 422.156921,191.622040 
	C415.497803,191.622040 409.101959,191.622040 402.242126,191.622040 
	C402.242126,176.775681 402.242126,161.718140 402.242126,146.004913 
	C394.880310,146.004913 387.959534,146.004913 380.209106,146.045197 
	C376.972015,147.260071 374.727325,148.316208 377.349182,151.574921 
	C378.135040,152.551697 377.970062,154.418549 377.975372,155.878586 
	C378.018860,167.863373 377.999634,179.848389 377.999451,191.833344 
z"/>
<path fill="#E41E26" opacity="1.000000" stroke="none" 
	d="
M544.042480,165.114426 
	C543.165527,166.018860 542.288635,166.923309 540.729187,167.561081 
	C538.410950,169.090134 536.775146,170.885849 535.139404,172.681564 
	C536.744751,173.937714 538.230896,176.055527 539.976624,176.297073 
	C546.645142,177.219803 547.584473,181.406586 547.031433,186.917145 
	C546.835388,188.870590 546.999695,190.860229 546.999573,192.833344 
	C534.793030,194.001419 527.838745,186.047943 520.957397,177.904236 
	C519.595642,176.292648 517.963562,174.909485 516.456116,173.420975 
	C516.064941,173.659286 515.673767,173.897598 515.282593,174.135910 
	C515.282593,179.850922 515.282593,185.565918 515.282593,191.638794 
	C508.459351,191.638794 502.060455,191.638794 495.000000,191.638794 
	C495.000000,184.865326 495.000000,177.937164 495.000000,171.009003 
	C495.000000,165.009583 495.147522,159.005142 494.943329,153.012680 
	C494.825592,149.557770 495.190643,146.812347 499.350525,146.243912 
	C487.353638,146.243912 475.356750,146.243912 463.180908,146.243912 
	C463.180908,148.433167 463.180908,150.385712 463.180908,152.802643 
	C470.888458,152.802643 478.638580,152.802643 486.690002,152.802643 
	C486.690002,157.982895 486.690002,162.711090 486.690002,167.918488 
	C478.947815,167.918488 471.206970,167.918488 463.238953,167.918488 
	C463.238953,170.446548 463.238953,172.505920 463.238953,174.861115 
	C472.037598,174.861115 480.656494,174.861115 489.636230,174.861115 
	C489.636230,180.533279 489.636230,185.933701 489.636230,191.669800 
	C474.389801,191.669800 458.994080,191.669800 443.020477,191.669800 
	C443.020477,172.456421 443.020477,153.192032 443.551331,133.463867 
	C464.076752,133.000061 484.071320,132.999741 504.065857,133.000153 
	C511.476837,133.000305 518.937744,132.464981 526.285339,133.148010 
	C534.301270,133.893158 544.223572,139.205444 544.944824,149.544815 
	C545.303650,154.688675 544.383850,159.921722 544.042480,165.114426 
M527.605225,147.075027 
	C524.219604,143.031647 519.767212,143.954147 515.231384,144.198425 
	C515.231384,149.172592 515.231384,153.889435 515.231384,158.577591 
	C526.704529,159.919449 530.831848,156.363007 527.605225,147.075027 
z"/>
<path fill="#E41E26" opacity="1.000000" stroke="none" 
	d="
M10.000000,89.985153 
	C10.000000,78.199722 10.000000,66.911049 10.000000,55.000000 
	C14.496600,55.000000 18.754360,55.000000 23.012119,55.000000 
	C35.320374,55.000000 47.629189,55.073963 59.936733,54.980534 
	C74.068428,54.873257 83.730690,65.004021 84.882660,78.557335 
	C85.526031,86.126854 84.998306,93.795906 84.998306,101.708542 
	C60.010372,101.708542 35.316818,101.708542 10.000000,101.708542 
	C10.000000,98.004333 10.000000,94.243118 10.000000,89.985153 
z"/>
<path fill="#E41E26" opacity="1.000000" stroke="none" 
	d="
M251.036682,78.000000 
	C255.828583,78.000000 260.127533,78.000000 264.711609,78.000000 
	C264.711609,83.022781 264.711609,87.746422 264.711609,92.891495 
	C256.904694,92.891495 249.152344,92.891495 241.585770,92.891495 
	C241.828018,95.379272 242.031570,97.469612 242.276016,99.980011 
	C251.045044,99.980011 259.791809,99.980011 268.764130,99.980011 
	C268.764130,105.673607 268.764130,110.947578 268.764130,116.611977 
	C253.522171,116.611977 238.141220,116.611977 222.379272,116.611977 
	C222.379272,96.176865 222.379272,75.468689 222.379272,54.379631 
	C237.159943,54.379631 252.208237,54.379631 267.629211,54.379631 
	C267.629211,59.512173 267.629211,64.907608 267.629211,70.774323 
	C259.438416,70.774323 251.042908,70.774323 242.327698,70.774323 
	C242.327698,73.288834 242.327698,75.347290 242.327698,78.000000 
	C244.996964,78.000000 247.770340,78.000000 251.036682,78.000000 
z"/>
<path fill="#E41E26" opacity="1.000000" stroke="none" 
	d="
M254.969574,129.000000 
	C258.440247,129.000000 261.416656,129.000000 264.695221,129.000000 
	C264.695221,134.662201 264.695221,140.057709 264.695221,145.817917 
	C247.070908,145.817917 229.472748,145.817917 211.874588,145.817917 
	C211.835007,146.053833 211.795410,146.289764 211.755814,146.525681 
	C212.728531,146.811584 213.701248,147.097488 214.912491,147.453506 
	C214.912491,150.354706 214.912491,153.329529 214.912491,156.770142 
	C222.203171,156.770142 229.283157,156.770142 236.677338,156.770142 
	C236.677338,162.624496 236.677338,168.019440 236.677338,173.895813 
	C229.641281,173.895813 222.570618,173.895813 215.037415,173.895813 
	C215.037415,180.089691 215.037415,185.832397 215.037415,191.777832 
	C208.291245,191.777832 202.012177,191.777832 195.365463,191.777832 
	C195.365463,171.126587 195.365463,150.397202 195.365463,129.000000 
	C214.963593,129.000000 234.719437,129.000000 254.969574,129.000000 
z"/>
<path fill="#E41E26" opacity="1.000000" stroke="none" 
	d="
M402.059448,78.966293 
	C411.909149,82.810074 418.219971,88.466217 418.194458,99.954216 
	C418.171112,110.504608 411.675842,115.411522 402.643738,116.741524 
	C391.215912,118.424309 379.587219,117.864258 368.476074,113.763527 
	C367.593719,113.437874 366.822540,112.811012 365.937073,112.287079 
	C367.057800,107.139610 368.154572,102.102119 369.254395,97.050674 
	C378.457581,99.569458 387.304840,103.217361 396.585876,99.761047 
	C396.777924,99.060745 396.969971,98.360443 397.162018,97.660141 
	C393.598877,96.106079 390.091248,94.405449 386.460510,93.029724 
	C379.753571,90.488365 372.618835,88.382553 369.080017,81.448685 
	C364.228271,71.942375 364.933502,58.131721 378.826813,54.628372 
	C390.896210,51.584938 402.716492,52.355953 414.707153,56.532562 
	C413.647522,61.931854 412.667816,66.923996 411.681824,71.948212 
	C399.208893,67.952484 391.923828,67.826103 387.434113,72.368004 
	C392.441284,74.677872 397.055267,76.806358 402.059448,78.966293 
z"/>
<path fill="#E41E26" opacity="1.000000" stroke="none" 
	d="
M312.000732,66.822021 
	C312.000092,62.381886 312.000092,58.424343 312.000092,54.239235 
	C329.784698,54.239235 347.168030,54.239235 364.775818,54.239235 
	C364.775818,59.366280 364.775818,64.309631 364.775818,69.723000 
	C359.490356,69.723000 354.086975,69.723000 348.231812,69.723000 
	C348.231812,85.567841 348.231812,100.958344 348.231812,116.672241 
	C341.392883,116.672241 334.999420,116.672241 328.143768,116.672241 
	C328.143768,101.341248 328.143768,85.951653 328.143768,69.998810 
	C323.436859,69.998810 319.154053,70.168159 314.903015,69.875862 
	C313.881714,69.805641 312.965790,68.202682 312.000732,66.822021 
z"/>
<path fill="#E41E26" opacity="1.000000" stroke="none" 
	d="
M318.000000,104.112617 
	C318.000000,108.564362 318.000000,112.529396 318.000000,116.742439 
	C303.242035,116.742439 288.848785,116.742439 274.227325,116.742439 
	C274.227325,95.967628 274.227325,75.359505 274.227325,54.375343 
	C280.511292,54.375343 286.910126,54.375343 293.784973,54.375343 
	C293.784973,68.913788 293.784973,83.646812 293.784973,98.847137 
	C301.973846,98.847137 309.710449,98.847137 317.748566,98.847137 
	C317.848175,100.740479 317.924103,102.183189 318.000000,104.112617 
z"/>
<path fill="#E41E26" opacity="1.000000" stroke="none" 
	d="
M204.999969,54.000000 
	C208.459366,54.000000 211.430206,54.000000 214.697174,54.000000 
	C214.697174,74.969078 214.697174,95.665955 214.697174,116.682137 
	C208.377853,116.682137 201.990067,116.682137 195.299149,116.682137 
	C195.299149,96.023544 195.299149,75.326691 195.299149,54.000000 
	C198.318939,54.000000 201.415161,54.000000 204.999969,54.000000 
z"/>
<path fill="#E41E26" opacity="1.000000" stroke="none" 
	d="
M245.000000,168.000946 
	C245.000000,161.874283 245.000000,156.247299 245.000000,150.000000 
	C248.489761,150.000000 251.749481,150.000000 255.009201,150.000000 
	C258.141022,150.000000 261.272858,150.000000 264.700928,150.000000 
	C264.700928,163.976913 264.700928,177.675858 264.700928,191.688339 
	C258.369354,191.688339 251.986099,191.688339 245.000000,191.688339 
	C245.000000,183.987839 245.000000,176.244232 245.000000,168.000946 
z"/>
<path fill="#E41E26" opacity="1.000000" stroke="none" 
	d="
M544.363525,164.971100 
	C544.383850,159.921722 545.303650,154.688675 544.944824,149.544815 
	C544.223572,139.205444 534.301270,133.893158 526.285339,133.148010 
	C518.937744,132.464981 511.476837,133.000305 504.065857,133.000153 
	C484.071320,132.999741 464.076752,133.000061 443.624420,133.000336 
	C443.166626,131.843216 443.166626,130.685883 443.166626,129.000000 
	C444.770142,129.000000 446.382812,129.000000 447.995453,129.000000 
	C466.642578,129.000000 485.290283,129.083618 503.936523,128.954086 
	C510.359558,128.909470 516.795959,127.876442 523.195618,128.115356 
	C531.245972,128.415894 539.387939,129.866455 544.839844,136.503082 
	C549.977417,142.756989 553.422485,157.938675 544.363525,164.971100 
z"/>
<path fill="#2E3192" opacity="1.000000" stroke="none" 
	d="
M247.957047,215.113892 
	C247.086075,214.768112 246.215103,214.422318 245.344116,214.076538 
	C245.210861,213.570007 245.077606,213.063492 244.944351,212.556976 
	C250.261383,210.431900 255.578430,208.306839 260.895477,206.181763 
	C261.194122,206.661224 261.492767,207.140686 261.791412,207.620148 
	C258.962097,210.288620 256.132812,212.957092 254.299332,214.686371 
	C256.343750,218.238861 258.186707,221.441269 260.503693,225.467377 
	C257.781647,225.882767 256.650665,226.055359 255.329819,226.256927 
	C256.389038,227.177185 257.211792,227.892029 258.214905,228.763519 
	C255.974014,232.427032 252.854721,233.445847 249.013672,232.506958 
	C245.175003,231.568680 241.877365,230.050125 241.981400,225.195343 
	C242.067551,221.175186 241.811920,217.053802 247.841797,215.946960 
	C248.971786,215.328140 249.385941,214.758362 249.800079,214.188599 
	C249.452225,213.944901 249.104385,213.701202 248.756546,213.457489 
	C248.490051,214.009628 248.223557,214.561752 247.957047,215.113892 
z"/>
<path fill="#2E3192" opacity="1.000000" stroke="none" 
	d="
M415.881287,209.000244 
	C418.985260,210.261612 421.674774,211.522842 425.623444,213.374527 
	C422.932861,215.209396 421.554962,216.149048 420.225922,217.055389 
	C419.107635,216.164581 418.263000,215.138748 417.188721,214.753677 
	C416.404175,214.472473 415.317230,215.034943 414.365082,215.221344 
	C414.804749,216.112015 415.021545,217.338959 415.737183,217.813217 
	C416.766174,218.495132 418.193970,218.539200 419.388702,219.013733 
	C423.112030,220.492615 425.365906,223.172729 424.828003,227.283875 
	C424.439728,230.251495 418.985535,233.643433 415.526733,232.888626 
	C412.005615,232.120224 407.999878,231.459106 406.991791,226.373260 
	C408.176147,225.627335 409.506744,224.789322 410.276672,224.304398 
	C413.263550,225.524399 415.804932,226.562469 418.346344,227.600525 
	C418.671448,226.911301 418.996552,226.222061 419.321655,225.532837 
	C417.363129,224.615097 415.387512,223.731842 413.449860,222.772034 
	C410.037018,221.081482 407.107727,219.014313 408.025909,214.501526 
	C408.846497,210.468506 411.497101,208.819733 415.881287,209.000244 
z"/>
<path fill="#2E3192" opacity="1.000000" stroke="none" 
	d="
M209.676758,224.825745 
	C211.657608,225.131744 213.354279,225.692413 215.081573,226.263214 
	C211.950272,231.490524 207.750092,233.761612 203.444214,232.765747 
	C197.596069,231.413177 193.545166,227.262863 193.004044,222.069397 
	C192.446960,216.722748 195.352142,212.075867 200.658020,209.826767 
	C205.737900,207.673477 210.899338,209.158920 215.115875,214.166626 
	C213.389954,216.150192 212.216904,218.502289 208.917450,215.579407 
	C205.843323,212.856155 201.851456,213.313889 200.102448,216.830658 
	C199.024002,218.999146 199.550125,223.024536 200.969177,225.127625 
	C203.089417,228.269836 206.577057,228.000885 209.676758,224.825745 
z"/>
<path fill="#2E3192" opacity="1.000000" stroke="none" 
	d="
M291.635071,215.699432 
	C297.053406,213.425613 301.997650,217.732086 302.960541,222.217880 
	C303.828674,226.262299 300.755157,232.019272 296.608185,232.586380 
	C293.018555,233.077301 289.225433,232.080399 285.263794,231.717484 
	C285.263794,224.290634 285.263794,216.881119 285.263794,209.237595 
	C286.766815,209.237595 288.162842,209.237595 289.246948,209.237595 
	C289.967621,211.618210 290.617828,213.766113 291.635071,215.699432 
M290.071777,224.354172 
	C291.742828,225.380630 293.322693,226.803116 295.134064,227.220154 
	C295.773499,227.367371 297.885925,224.895782 297.709808,223.907990 
	C297.454468,222.475906 295.434509,220.088074 294.695007,220.268707 
	C292.987854,220.685699 291.598297,222.402725 290.071777,224.354172 
z"/>
<path fill="#E41E26" opacity="1.000000" stroke="none" 
	d="
M314.415680,146.905991 
	C314.343658,145.226273 314.738617,143.628174 315.022430,142.010574 
	C316.286407,134.806259 316.220673,134.642288 309.271088,133.258286 
	C298.729919,131.159012 288.473663,131.430405 279.547638,138.322037 
	C276.928741,140.344070 275.052673,143.328217 272.501404,145.935333 
	C274.562531,136.137787 281.632996,131.284058 290.833801,129.049423 
	C300.997559,126.580894 310.910736,128.535934 321.032501,131.368179 
	C319.997101,136.064423 319.128845,140.639450 317.878754,145.107620 
	C317.643188,145.949585 315.886353,146.365906 314.415680,146.905991 
z"/>
<path fill="#2E3192" opacity="1.000000" stroke="none" 
	d="
M374.801239,227.005997 
	C375.998444,228.422058 376.733490,229.833313 377.765778,231.815262 
	C372.244507,231.815262 367.968018,231.815262 363.344604,231.815262 
	C363.344604,224.442215 363.344604,217.057632 363.344604,209.334488 
	C367.592865,209.334488 371.980408,209.334488 376.761230,209.334488 
	C376.838501,210.627655 376.921661,212.019012 377.032227,213.869568 
	C374.025146,213.869568 371.280151,213.869568 367.959473,213.869568 
	C367.980042,220.639603 373.507507,216.488266 375.761719,218.632126 
	C375.761719,219.765686 375.761719,221.160965 375.761719,222.537979 
	C368.280396,223.518753 368.280396,223.518753 368.475769,227.001190 
	C370.412659,227.001190 372.375854,227.001190 374.801239,227.005997 
z"/>
<path fill="#E41E26" opacity="1.000000" stroke="none" 
	d="
M361.433594,153.972687 
	C361.636047,155.221176 361.560883,156.576996 361.022034,157.712845 
	C360.840546,158.095352 359.476105,158.023407 358.661530,157.981277 
	C353.927826,157.736389 349.196808,157.438522 344.464905,157.158569 
	C344.380829,151.716049 344.238312,146.273392 344.251556,140.831100 
	C344.255096,139.374115 344.802094,137.926544 344.979462,136.460144 
	C345.288635,133.903717 344.116486,132.887009 341.531891,132.969009 
	C337.385468,133.100586 333.231750,133.001617 328.623871,133.000320 
	C328.166626,131.851135 328.166626,130.701706 328.166626,129.276123 
	C334.857727,129.276123 341.566986,129.276123 348.932495,129.276123 
	C348.546417,137.245621 348.155670,145.311066 347.735016,153.994034 
	C352.500763,153.994034 356.737732,153.994034 361.433594,153.972687 
z"/>
<path fill="#2E3192" opacity="1.000000" stroke="none" 
	d="
M217.004974,229.707092 
	C217.000961,222.619675 217.000961,216.005585 217.000961,209.229080 
	C218.821594,209.229080 220.218658,209.229080 221.822815,209.229080 
	C221.928314,211.056824 222.021820,212.677032 222.114838,214.288452 
	C233.006592,216.890106 233.006592,216.890106 231.685547,231.444672 
	C231.584671,231.576797 231.486084,231.821823 231.382568,231.823929 
	C230.090958,231.850128 228.798615,231.841049 227.000000,231.841049 
	C227.000000,229.423340 227.339035,227.075485 226.891739,224.888443 
	C226.539703,223.167206 225.217834,221.644318 224.326752,220.033325 
	C223.551178,221.593903 222.401810,223.084686 222.094116,224.732620 
	C221.704681,226.818405 222.000015,229.032043 222.000015,232.569138 
	C219.971512,231.598282 218.490250,230.889359 217.004974,229.707092 
z"/>
<path fill="#2E3192" opacity="1.000000" stroke="none" 
	d="
M331.041168,210.361526 
	C332.520599,209.535645 333.967377,209.173950 335.846039,208.704269 
	C335.951843,211.097534 336.029205,212.848114 336.104218,214.545074 
	C346.413818,215.831955 346.961334,216.822693 345.677185,231.709442 
	C344.318512,231.709442 342.928375,231.709442 341.222534,231.709442 
	C341.149323,230.290955 341.296143,228.788910 340.951843,227.409454 
	C340.321564,224.884415 343.035309,220.266174 338.376343,220.289688 
	C334.241058,220.310577 336.522064,224.704575 336.049164,227.159439 
	C335.777893,228.567596 336.000000,230.070801 336.000000,231.760284 
	C334.232880,231.760284 332.841400,231.760284 331.008484,231.760284 
	C331.008484,224.693329 331.008484,217.759521 331.041168,210.361526 
z"/>
<path fill="#2E3192" opacity="1.000000" stroke="none" 
	d="
M406.925232,210.064606 
	C405.893707,212.031891 404.804504,213.541824 403.715271,215.051758 
	C403.182007,214.778915 402.648712,214.506073 402.115417,214.233231 
	C402.115417,219.963058 402.115417,225.692886 402.115417,231.705688 
	C399.990295,231.705688 398.268829,231.705688 396.120056,231.705688 
	C396.120056,226.013397 396.120056,220.289612 396.120056,214.183319 
	C393.997101,214.062759 392.264343,213.964371 390.273315,213.851303 
	C390.273315,212.306671 390.273315,210.913895 390.273315,208.784470 
	C395.823578,209.059677 401.345581,209.333466 406.925232,210.064606 
z"/>
<path fill="#E41E26" opacity="1.000000" stroke="none" 
	d="
M378.436951,191.906250 
	C377.999634,179.848389 378.018860,167.863373 377.975372,155.878586 
	C377.970062,154.418549 378.135040,152.551697 377.349182,151.574921 
	C374.727325,148.316208 376.972015,147.260071 379.748108,146.062958 
	C380.744385,147.352493 381.903687,148.659012 381.917389,149.977463 
	C382.053253,163.035034 381.932648,176.095230 382.056641,189.153030 
	C382.080994,191.717484 381.076385,192.320557 378.436951,191.906250 
z"/>
<path fill="#E41E26" opacity="1.000000" stroke="none" 
	d="
M304.526001,176.133179 
	C307.189209,179.007416 304.750916,180.235596 302.599152,180.844711 
	C292.366608,183.741272 286.160553,178.790665 285.958984,168.050323 
	C285.848541,162.163925 285.975464,156.383698 289.405914,151.312759 
	C290.210083,150.124039 291.650787,149.365936 293.129822,148.624573 
	C290.092255,154.204605 289.354156,160.168411 290.062653,166.248184 
	C290.920563,173.610748 293.741119,179.137985 304.526001,176.133179 
z"/>
<path fill="#2E3192" opacity="1.000000" stroke="none" 
	d="
M261.348877,216.504623 
	C263.697144,215.776108 265.784058,215.472305 267.848175,215.055603 
	C272.633209,214.089539 275.918060,216.643814 275.990540,221.503296 
	C276.039734,224.799591 275.999908,228.097214 275.999908,231.758621 
	C274.358215,231.846481 272.966980,231.920944 270.998047,232.026321 
	C270.998047,228.995010 271.257874,226.192047 270.881531,223.477249 
	C270.709656,222.237198 269.283722,221.170990 268.426544,220.025925 
	C267.618164,221.220093 266.293060,222.340652 266.110229,223.623932 
	C265.743683,226.197098 266.001373,228.859177 266.001373,231.737427 
	C264.275665,231.737427 262.887878,231.737427 261.077118,231.737427 
	C261.077118,226.745483 261.077118,221.811768 261.348877,216.504623 
z"/>
<path fill="#2E3192" opacity="1.000000" stroke="none" 
	d="
M313.000000,222.082825 
	C313.000000,219.956299 313.000000,218.306763 313.000000,216.718597 
	C328.925629,212.690689 328.832092,216.778351 327.648376,231.730423 
	C326.286926,231.730423 324.894196,231.730423 323.000000,231.730423 
	C323.000000,229.384628 323.047577,227.096146 322.985840,224.810593 
	C322.930511,222.762146 323.605957,219.851639 320.282104,220.263428 
	C319.348267,220.379150 318.392670,223.150040 318.090759,224.819443 
	C317.713165,226.907211 318.000000,229.115173 318.000000,231.639359 
	C316.467743,231.796143 315.063477,231.939835 313.000000,232.150955 
	C313.000000,228.775986 313.000000,225.667908 313.000000,222.082825 
z"/>
<path fill="#2E3192" opacity="1.000000" stroke="none" 
	d="
M384.000000,219.944931 
	C384.000000,222.401093 384.000000,224.370590 384.000000,226.793457 
	C386.932861,226.793457 389.651428,226.793457 392.697266,226.793457 
	C392.829742,228.615158 392.931152,230.010193 393.054901,231.712006 
	C388.405182,231.712006 384.011688,231.712006 379.306824,231.712006 
	C379.306824,224.380951 379.306824,217.016205 379.306824,209.268127 
	C380.609406,209.170227 382.000946,209.065628 384.000000,208.915390 
	C384.000000,212.608047 384.000000,216.033157 384.000000,219.944931 
z"/>
<path fill="#E41E26" opacity="1.000000" stroke="none" 
	d="
M547.413696,192.905884 
	C546.999695,190.860229 546.835388,188.870590 547.031433,186.917145 
	C547.584473,181.406586 546.645142,177.219803 539.976624,176.297073 
	C538.230896,176.055527 536.744751,173.937714 535.139404,172.681564 
	C536.775146,170.885849 538.410950,169.090134 540.405945,167.495392 
	C540.221436,168.287872 539.677612,168.879379 538.489014,170.172287 
	C542.484436,171.495834 545.898010,172.626663 550.583130,174.178726 
	C550.703064,178.886276 550.997192,184.539429 550.845581,190.180573 
	C550.819763,191.139526 548.882141,192.047104 547.413696,192.905884 
z"/>
<path fill="#E41E26" opacity="1.000000" stroke="none" 
	d="
M327.431152,153.972717 
	C328.880005,157.504349 328.654633,157.933044 324.726715,157.970413 
	C315.512604,158.058105 306.297150,157.999496 296.624420,158.000336 
	C296.166626,156.843170 296.166626,155.685776 296.166626,153.994080 
	C306.425262,153.994080 316.697540,153.994080 327.431152,153.972717 
z"/>
<path fill="#2E3192" opacity="1.000000" stroke="none" 
	d="
M358.999512,228.760437 
	C359.304047,233.668121 356.249146,231.411438 354.197815,232.205414 
	C354.197815,224.293365 354.197815,217.035721 354.197815,209.391296 
	C355.623627,209.391296 357.108704,209.391296 358.999969,209.391296 
	C358.999969,215.737885 358.999969,222.011963 358.999512,228.760437 
z"/>
<path fill="#E41E26" opacity="1.000000" stroke="none" 
	d="
M319.403320,189.897797 
	C319.000488,184.594986 318.727020,179.334106 319.154297,174.130753 
	C319.299896,172.357803 321.208466,170.729599 322.713318,169.038544 
	C323.076721,174.529022 322.889679,180.020966 323.064972,185.501328 
	C323.147888,188.092850 322.240295,189.456223 319.403320,189.897797 
z"/>
<path fill="#2E3192" opacity="1.000000" stroke="none" 
	d="
M238.895294,216.069733 
	C239.660309,221.176697 239.963715,226.229691 240.288147,231.632690 
	C238.433640,231.808212 237.039886,231.940125 235.408600,232.094513 
	C235.253738,230.938583 235.031052,229.996033 235.018250,229.050659 
	C234.973358,225.735916 235.185211,222.406784 234.944794,219.108963 
	C234.736938,216.257706 236.044327,215.661865 238.895294,216.069733 
z"/>
<path fill="#2E3192" opacity="1.000000" stroke="none" 
	d="
M305.044250,230.651428 
	C305.009186,225.716980 305.009186,221.249908 305.009186,216.394867 
	C306.624786,216.394867 308.112549,216.394867 309.804932,216.394867 
	C309.804932,221.381485 309.804932,226.309860 309.804932,232.032593 
	C308.183777,231.719116 306.631561,231.418961 305.044250,230.651428 
z"/>
<path fill="#2E3192" opacity="1.000000" stroke="none" 
	d="
M309.996399,212.238953 
	C310.330292,215.819153 307.966736,215.107239 306.399475,214.876297 
	C305.533844,214.748749 304.065948,213.399963 304.183319,212.929199 
	C304.504517,211.640656 305.521881,210.525665 306.263611,209.341965 
	C307.507416,210.169113 308.751221,210.996262 309.996399,212.238953 
z"/>
<path fill="#2E3192" opacity="1.000000" stroke="none" 
	d="
M247.960663,215.326874 
	C248.223557,214.561752 248.490051,214.009628 248.756546,213.457489 
	C249.104385,213.701202 249.452225,213.944901 249.800079,214.188599 
	C249.385941,214.758362 248.971786,215.328140 248.221146,215.928131 
	C247.884644,215.958344 247.964264,215.539841 247.960663,215.326874 
z"/>
<path fill="#2E3192" opacity="1.000000" stroke="none" 
	d="
M234.759979,212.259567 
	C236.495056,212.050842 237.906830,212.050842 239.318588,212.050842 
	C239.322495,212.343918 239.326401,212.636978 239.330307,212.930054 
	C237.699081,212.776123 236.067871,212.622208 234.759979,212.259567 
z"/>
<path fill="#E41E26" opacity="1.000000" stroke="none" 
	d="
M294.036133,148.318237 
	C294.113190,147.834229 294.382660,147.216812 294.849731,146.854187 
	C294.774414,147.467590 294.501465,147.826218 294.036133,148.318237 
z"/>
<path fill="#FFFFFF" opacity="1.000000" stroke="none" 
	d="
M527.869202,147.380859 
	C530.831848,156.363007 526.704529,159.919449 515.231384,158.577591 
	C515.231384,153.889435 515.231384,149.172592 515.231384,144.198425 
	C519.767212,143.954147 524.219604,143.031647 527.869202,147.380859 
z"/>
<path fill="#FFFFFF" opacity="1.000000" stroke="none" 
	d="
M290.075867,223.973297 
	C291.598297,222.402725 292.987854,220.685699 294.695007,220.268707 
	C295.434509,220.088074 297.454468,222.475906 297.709808,223.907990 
	C297.885925,224.895782 295.773499,227.367371 295.134064,227.220154 
	C293.322693,226.803116 291.742828,225.380630 290.075867,223.973297 
z"/>
</svg>