<svg version="1.1" id="Layer_1" xmlns="http://www.w3.org/2000/svg"
    xmlns:xlink="http://www.w3.org/1999/xlink" x="0px" y="0px"
    width="100%" viewBox="0 0 1600 1472" enable-background="new 0 0 1600 1472" xml:space="preserve">
<path fill="#DC1E20" opacity="1.000000" stroke="none" 
	d="
M1.000000,1218.000000 
	C1.000000,812.360718 1.000000,406.721466 1.000000,1.041093 
	C534.269958,1.041093 1067.539917,1.041093 1600.904907,1.041093 
	C1600.904907,491.570099 1600.904907,982.140198 1600.904907,1473.000000 
	C1068.631836,1473.000000 536.263550,1473.000000 3.449278,1472.531372 
	C3.004122,1388.981323 3.010937,1305.899780 2.961697,1222.818359 
	C2.960738,1221.200439 2.300933,1219.582886 1.710979,1217.962646 
	C1.473441,1217.960205 1.000000,1218.000000 1.000000,1218.000000 
M496.910797,702.082031 
	C496.910797,702.082031 496.887085,702.305359 496.697083,701.767395 
	C496.424377,701.510986 496.151672,701.254639 495.973145,701.023193 
	C495.973145,701.023193 495.945374,701.116577 495.957825,700.391296 
	C495.227966,699.633179 494.498108,698.875000 493.918396,698.097839 
	C493.918396,698.097839 493.926788,698.248901 493.720917,697.735657 
	C493.456970,697.486694 493.193054,697.237793 492.999359,697.004883 
	C492.999359,697.004883 492.982727,697.075012 492.890350,696.440491 
	C492.467407,695.998291 492.044464,695.556091 491.794586,695.137634 
	C491.794586,695.137634 491.750397,695.306641 491.877258,694.540405 
	C490.840454,693.399353 489.803650,692.258240 488.917389,691.097717 
	C488.917389,691.097717 488.926117,691.249268 488.729034,690.737061 
	C488.471405,690.485291 488.213776,690.233521 488.015594,689.989746 
	C488.015594,689.989746 487.997772,690.047058 488.016602,689.277954 
	C486.606384,687.554260 485.196167,685.830566 483.886505,684.110779 
	C483.886505,684.110779 483.869324,684.209961 483.918762,683.463989 
	C483.177124,682.701233 482.435486,681.938416 481.861206,681.137024 
	C481.861206,681.137024 481.883911,681.307251 481.699158,680.769775 
	C481.430298,680.512390 481.161438,680.255066 480.975525,680.032166 
	C480.975525,680.032166 480.938324,680.113953 480.969086,679.390198 
	C480.240356,678.625244 479.511627,677.860291 478.930450,677.078247 
	C478.930450,677.078247 478.938721,677.226562 478.743988,676.717407 
	C478.484314,676.472290 478.224609,676.227173 478.019958,675.989868 
	C478.019958,675.989868 478.001862,676.042419 477.909149,675.415039 
	C477.495667,674.971436 477.082184,674.527771 476.893311,674.091431 
	C476.893311,674.091431 476.874176,674.315369 476.692352,673.772766 
	C476.419952,673.514954 476.147522,673.257080 475.971619,673.025146 
	C475.971619,673.025146 475.942780,673.120850 475.953522,672.394653 
	C475.227417,671.632507 474.501343,670.870300 473.922241,670.082886 
	C473.922241,670.082886 473.938232,670.231140 473.732239,669.725037 
	C473.472412,669.477356 473.212616,669.229614 473.016083,668.994385 
	C473.016083,668.994385 472.997650,669.056213 472.898193,668.426514 
	C472.476471,667.988403 472.054749,667.550232 471.805176,667.132080 
	C471.805176,667.132080 471.765564,667.300781 471.878418,666.536865 
	C470.855286,665.387268 469.832153,664.237610 468.940155,663.068298 
	C468.940155,663.068298 468.952301,663.200317 468.748138,662.701904 
	C468.488647,662.462219 468.229126,662.222473 468.020447,661.989868 
	C468.020447,661.989868 468.003113,662.038147 467.904602,661.415039 
	C467.493835,660.969055 467.083038,660.523132 466.897064,660.092407 
	C466.897064,660.092407 466.870178,660.316101 466.703735,659.771790 
	C466.436279,659.513184 466.168854,659.254578 465.979523,659.022949 
	C465.979523,659.022949 465.950348,659.100159 465.962799,658.377686 
	C465.236420,657.618469 464.510040,656.859192 463.887451,656.101624 
	C463.887451,656.101624 463.873138,656.204529 463.919281,655.457764 
	C463.167542,654.708069 462.415802,653.958313 461.833740,653.167603 
	C461.833740,653.167603 461.855316,653.340820 461.677399,652.798157 
	C461.416046,652.529541 461.154694,652.260925 460.987427,652.020508 
	C460.987427,652.020508 460.957489,652.114136 460.872406,651.475220 
	C460.419830,651.069153 459.967255,650.663025 459.745941,650.240173 
	C459.745941,650.240173 459.733276,650.471680 459.516449,649.687073 
	C458.404480,649.145874 457.299805,648.153625 456.179352,648.135437 
	C447.802795,647.999146 439.422028,647.990967 431.045807,648.133423 
	C430.002899,648.151184 428.979034,649.287537 427.932526,649.975708 
	C427.932526,649.975708 427.871613,649.938293 427.170410,650.287598 
	C426.782318,651.653442 426.059113,653.018372 426.055634,654.385193 
	C425.989105,680.639526 425.914764,706.894958 426.151794,733.147339 
	C426.175232,735.744629 428.209167,738.323792 429.170654,740.897827 
	C429.170654,740.897827 429.200714,740.761108 429.062561,741.587585 
	C430.411926,747.533691 431.199799,753.723267 436.280731,758.151184 
	C436.280731,758.151184 436.231323,758.235168 436.110809,759.088684 
	C436.783020,760.378601 437.455261,761.668518 438.050873,762.943420 
	C438.050873,762.943420 438.071838,762.868164 438.020050,763.668762 
	C438.718903,765.100708 439.417786,766.532715 440.043823,767.949097 
	C440.043823,767.949097 440.064575,767.877563 440.021851,768.661499 
	C440.670837,770.066589 441.319855,771.471680 442.173401,773.633057 
	C443.274109,775.054260 444.358765,777.675964 445.478210,777.690857 
	C450.576080,777.758911 455.683685,777.093689 461.403320,776.214600 
	C461.604004,774.425903 461.973389,772.637756 461.978912,770.848450 
	C462.026489,755.397522 461.940430,739.945679 462.100891,724.496277 
	C462.119812,722.673889 463.383881,720.864380 464.475647,719.578003 
	C467.694061,723.730286 471.047729,727.785645 474.106445,732.052429 
	C484.789673,746.955200 495.371063,761.931030 506.615967,777.440369 
	C513.682190,777.631104 520.748291,777.943848 527.814819,777.955811 
	C530.862854,777.960938 533.912048,777.343750 537.206482,776.704590 
	C537.206482,776.704590 537.593689,776.647461 538.267822,776.259033 
	C538.520752,774.989380 538.993530,773.719849 538.994751,772.450012 
	C539.031189,733.219299 539.036926,693.988525 538.959290,654.757935 
	C538.956360,653.276733 538.076538,651.797302 536.742004,650.090881 
	C525.921692,650.153076 515.101440,650.215210 503.637909,650.742737 
	C503.416443,652.521179 503.008972,654.298889 503.002808,656.078125 
	C502.949921,671.347839 502.993439,686.617920 502.940308,701.887634 
	C502.932831,704.030029 503.803864,706.895813 500.021881,706.976807 
	C500.021881,706.976807 500.038025,706.990112 499.920746,706.385681 
	C499.538788,705.932922 499.156799,705.480225 498.924469,705.062256 
	C498.924469,705.062256 498.881805,705.209900 498.842499,704.543640 
	C498.371185,704.144958 497.899872,703.746277 497.608398,703.289062 
	C497.608398,703.289062 497.629486,703.476990 497.533325,702.884644 
	C497.251068,702.612549 496.968842,702.340515 496.910797,702.082031 
M551.055847,770.942444 
	C551.055847,770.942444 551.062012,770.748230 551.324097,771.266418 
	C551.634338,771.489563 551.944519,771.712769 552.098999,771.916504 
	C552.098999,771.916504 552.129150,771.762573 552.164429,772.426941 
	C553.023193,772.936890 553.882019,773.446838 555.177368,774.525452 
	C557.112427,775.234070 559.047485,775.942688 561.574402,777.266907 
	C563.017273,777.515198 564.460022,777.978943 565.903076,777.980042 
	C595.265076,778.002747 624.627136,777.972473 654.750977,777.812439 
	C655.504150,776.319214 656.906128,774.829346 656.914001,773.332214 
	C657.050293,747.274353 657.043701,721.215576 656.940674,695.157471 
	C656.935120,693.760376 655.804810,692.367676 655.055847,691.005249 
	C655.055847,691.005249 655.025635,690.862549 654.700195,690.158508 
	C653.661621,689.780823 652.624084,689.077148 651.584229,689.073608 
	C631.978027,689.006714 612.371399,688.991699 592.765503,689.093872 
	C591.510437,689.100464 590.260742,690.149231 588.598816,690.967590 
	C588.598816,690.967590 588.126221,691.063538 587.506775,691.619629 
	C587.343384,701.047363 587.154907,710.474792 587.067200,719.903259 
	C587.060608,720.610596 587.773254,721.324646 587.995667,721.963562 
	C587.995667,721.963562 588.068298,721.808044 588.275696,722.586365 
	C589.765564,723.044983 591.249146,723.874573 592.746399,723.900085 
	C600.564392,724.033142 608.386963,724.037170 616.205688,723.926697 
	C619.602173,723.878723 621.087036,725.258362 620.963562,728.670288 
	C620.837280,732.159790 620.759949,735.669250 620.988098,739.148560 
	C621.228333,742.811218 619.884460,744.151672 616.143494,744.080627 
	C605.997498,743.887878 595.836853,743.774719 585.699219,744.125244 
	C580.867737,744.292297 579.859131,742.423096 579.915222,738.041199 
	C580.123962,721.737732 580.158264,705.427612 579.906921,689.125427 
	C579.834167,684.406677 581.114502,682.799194 586.027649,682.856873 
	C607.156189,683.104797 628.289490,683.008484 649.420044,682.875793 
	C651.295776,682.864014 653.164062,681.684692 655.017822,680.992737 
	C655.017822,680.992737 655.054932,681.038696 655.783508,680.726257 
	C656.176147,680.048889 656.903748,679.374817 656.910461,678.693665 
	C656.994080,670.141541 657.037964,661.587341 656.895691,653.036987 
	C656.878418,652.000549 655.712830,650.983215 655.028381,650.002930 
	C655.028381,650.002930 655.039978,649.935242 654.731445,649.213623 
	C653.368286,648.822021 652.005981,648.091736 650.641907,648.088623 
	C622.449463,648.024048 594.256653,648.004761 566.064636,648.135132 
	C564.348572,648.143066 562.638489,649.467651 560.808533,650.261780 
	C560.808533,650.261780 560.711426,650.156738 559.945984,650.156555 
	C559.291321,650.491455 558.636658,650.826416 558.039795,651.028992 
	C558.039795,651.028992 558.170715,651.090027 557.526184,651.117249 
	C557.018555,651.466858 556.510864,651.816467 556.036804,652.045349 
	C556.036804,652.045349 556.156128,652.083496 555.409851,652.059448 
	C554.614380,652.807861 553.818909,653.556274 552.924744,654.695984 
	C552.744141,654.936951 552.505249,655.032959 551.706055,655.233704 
	C551.469116,655.516602 551.232178,655.799500 550.997498,655.996460 
	C550.997498,655.996460 551.083313,655.998047 550.625183,656.255127 
	C550.418274,656.533386 550.211365,656.811707 550.019104,657.015015 
	C550.019104,657.015015 550.093689,657.031555 549.408325,657.148743 
	C548.941162,658.116333 548.473999,659.083984 547.985229,659.999207 
	C547.985229,659.999207 548.041504,659.992615 547.335876,660.178284 
	C546.922363,661.502563 546.508850,662.826843 546.061768,664.066650 
	C546.061768,664.066650 546.148560,664.039734 545.439026,664.400452 
	C544.962830,665.923645 544.075562,667.445679 544.071167,668.970215 
	C543.986633,698.449585 543.961975,727.929504 544.102783,757.408447 
	C544.112000,759.329895 545.554504,761.244568 546.340027,763.231750 
	C546.340027,763.231750 546.278320,763.198486 546.140747,764.014160 
	C546.796509,765.000366 547.452209,765.986511 548.033691,766.960266 
	C548.033691,766.960266 548.050232,766.886780 548.056030,767.614319 
	C548.792053,768.357483 549.528137,769.100708 550.108276,769.870667 
	C550.108276,769.870667 550.095581,769.713074 550.337891,770.242676 
	C550.641968,770.475830 550.946045,770.708923 551.055847,770.942444 
M1172.019409,654.022583 
	C1172.019409,654.022583 1172.085449,654.044006 1171.462769,654.109924 
	C1171.151733,654.586487 1170.840698,655.063049 1170.065674,655.028320 
	C1170.218750,655.198120 1170.371826,655.367920 1169.897095,655.572388 
	C1169.581299,656.075928 1169.265625,656.579529 1168.853516,657.499573 
	C1168.717651,657.779724 1168.495728,657.943481 1167.474731,658.135315 
	C1167.028809,659.150574 1166.582886,660.165833 1166.109009,661.089355 
	C1166.109009,661.089355 1166.203491,661.072876 1165.510864,661.367188 
	C1164.662598,663.806702 1163.089233,666.242371 1163.076172,668.686340 
	C1162.916260,698.651672 1162.909180,728.618835 1163.135864,758.583435 
	C1163.154297,761.023315 1165.173950,763.448120 1166.162598,765.872864 
	C1166.162598,765.872864 1166.186768,765.774475 1166.169312,766.427063 
	C1166.585205,766.877014 1167.000977,767.327026 1167.253052,767.786133 
	C1167.253052,767.786133 1167.271729,767.623169 1167.408081,768.205261 
	C1167.711792,768.447449 1168.015381,768.689636 1168.872803,769.262573 
	C1172.403076,771.782349 1175.933228,774.302185 1180.280884,777.263855 
	C1181.730835,777.508667 1183.180420,777.964417 1184.630737,777.966980 
	C1210.002930,778.012634 1235.375244,778.018494 1260.747314,777.963379 
	C1262.157837,777.960266 1263.567017,777.353516 1264.922485,777.016602 
	C1264.922485,777.016602 1264.928711,776.961426 1265.565063,776.911560 
	C1265.772339,776.862793 1265.979492,776.814087 1266.656494,776.150879 
	C1266.518311,766.208862 1266.380127,756.266846 1265.859375,746.085266 
	C1265.859375,746.085266 1265.435791,745.929626 1265.186523,745.979187 
	C1265.186523,745.979187 1265.101807,745.739624 1264.757690,745.045776 
	C1262.857666,744.710693 1260.958862,744.092346 1259.057617,744.084595 
	C1241.101929,744.011353 1223.144287,743.907471 1205.191284,744.134949 
	C1200.546753,744.193787 1198.335205,743.034729 1198.905396,738.053284 
	C1199.224731,735.262939 1199.205688,732.383118 1198.921143,729.586121 
	C1198.477051,725.221252 1200.110596,723.815002 1204.531372,723.863831 
	C1223.482544,724.073425 1242.437744,723.881592 1261.390381,724.010925 
	C1265.384521,724.038269 1267.173340,722.768738 1267.072510,718.578491 
	C1266.884644,710.768921 1267.110718,702.949707 1266.943970,695.139160 
	C1266.913818,693.725220 1265.827515,692.333862 1265.106934,690.990967 
	C1265.106934,690.990967 1265.051270,690.867371 1264.745850,690.149597 
	C1263.032349,689.776489 1261.324341,689.115112 1259.604248,689.081482 
	C1253.119263,688.954529 1246.630249,689.032349 1240.142822,689.032349 
	C1227.999634,689.032349 1215.856567,689.028564 1203.713379,689.033997 
	C1201.288696,689.035095 1198.856445,689.127380 1199.005371,685.581238 
	C1199.143921,682.280273 1201.401489,682.039917 1203.896240,682.067932 
	C1205.060547,682.080933 1206.225464,682.049866 1207.389526,682.069763 
	C1224.497803,682.361450 1241.605347,682.727295 1258.714966,682.865417 
	C1260.812012,682.882324 1262.918945,681.686829 1265.037109,680.993835 
	C1265.037109,680.993835 1265.083008,681.034851 1265.663696,681.016907 
	C1265.854248,680.981628 1266.044678,680.946350 1266.673340,680.225891 
	C1266.519409,670.487488 1266.365356,660.749023 1265.831665,650.966492 
	C1265.831665,650.966492 1265.452637,651.016907 1265.091187,650.644043 
	C1265.053711,650.474976 1265.016357,650.305969 1264.764160,649.364197 
	C1263.258911,648.926270 1261.755005,648.111450 1260.248413,648.106628 
	C1235.826050,648.028748 1211.402832,647.981934 1186.981445,648.160400 
	C1184.400269,648.179199 1181.829712,649.657715 1179.182861,650.317200 
	C1179.182861,650.317200 1179.309937,650.412354 1178.643311,650.257629 
	C1178.057251,650.557312 1177.471191,650.856995 1176.809692,651.265076 
	C1176.809692,651.265076 1176.687500,651.214783 1175.878906,651.098877 
	C1174.968994,651.814392 1174.058960,652.529968 1173.143066,653.131348 
	C1173.143066,653.131348 1173.256958,653.141907 1172.721924,653.277771 
	C1172.485229,653.549011 1172.248535,653.820251 1172.019409,654.022583 
M910.360657,777.303223 
	C910.910034,777.538635 911.459351,777.774048 912.944946,778.015686 
	C922.532898,778.011963 932.121399,778.056946 941.708435,777.959778 
	C943.438965,777.942261 945.163513,777.340637 947.140503,776.467407 
	C947.001038,775.818176 946.952454,775.132568 946.709167,774.524902 
	C930.522217,734.082886 914.284607,693.661011 898.195312,653.180237 
	C897.106812,650.441589 895.648193,649.859924 893.010132,649.893616 
	C883.186523,650.019470 873.354675,650.132263 863.538025,649.841492 
	C860.014282,649.737061 858.669312,651.144287 857.480896,654.140930 
	C844.057861,687.987549 830.480530,721.773010 817.025818,755.607117 
	C814.219910,762.662903 811.745422,769.850403 809.703674,777.535950 
	C821.470215,777.673523 833.236755,777.811096 845.421143,777.645142 
	C845.579102,777.340820 845.737061,777.036499 845.888794,776.872375 
	C845.888794,776.872375 845.749939,776.851929 846.470032,776.784363 
	C847.784973,774.212891 849.372009,771.741089 850.358032,769.049133 
	C852.374817,763.543091 854.068726,757.918823 855.829590,752.262695 
	C855.829590,752.262695 855.899841,752.185913 856.736877,751.975037 
	C857.861328,751.682861 858.984253,751.143738 860.110535,751.136475 
	C871.770508,751.061157 883.435730,750.908569 895.086121,751.242798 
	C896.737610,751.290161 898.707581,753.561035 899.845764,755.260986 
	C901.892334,758.317383 903.420105,761.721252 905.057068,764.948181 
	C905.057068,764.948181 905.094666,764.842651 905.021851,765.663086 
	C906.747253,769.410583 908.472717,773.158142 910.047485,776.937744 
	C910.047485,776.937744 910.021790,776.785889 910.360657,777.303223 
M744.422485,777.613953 
	C744.659180,777.368225 744.789612,777.075134 744.839111,776.824341 
	C744.839111,776.824341 744.751099,776.793762 745.487488,776.777649 
	C746.223633,776.184692 747.277039,775.744080 747.646179,774.975037 
	C750.868286,768.262268 753.899902,761.458069 757.125671,754.747070 
	C759.660400,749.473694 762.389893,744.293823 765.032837,739.072449 
	C766.032959,750.290771 765.941895,761.206726 766.117493,772.118408 
	C766.148804,774.064270 767.285889,775.992249 768.866882,777.982361 
	C777.903870,777.989441 786.941833,778.065369 795.977051,777.941467 
	C797.645569,777.918579 799.302917,777.087952 800.880615,776.956116 
	C800.880615,776.956116 800.556763,776.863281 801.248718,776.367859 
	C801.503174,774.930420 801.978455,773.493286 801.979858,772.055542 
	C802.018921,733.109009 802.026062,694.162415 801.951965,655.216003 
	C801.948792,653.532959 801.121887,651.851501 799.787598,650.054749 
	C790.796326,650.015808 781.801086,650.115906 772.815857,649.862915 
	C769.643982,649.773682 768.173767,650.948608 766.847290,653.737122 
	C759.704224,668.753906 752.336426,683.663757 745.036438,698.605835 
	C740.672729,707.537781 736.291443,716.460999 731.632446,725.971069 
	C730.469360,723.670227 729.626282,722.075745 728.847412,720.450500 
	C718.209961,698.255066 707.633789,676.029785 696.846741,653.907288 
	C696.021362,652.214539 693.752869,650.160339 692.100525,650.111267 
	C682.456299,649.824951 672.795837,650.087036 662.579590,650.737671 
	C662.390564,652.033386 662.037292,653.328979 662.036377,654.624817 
	C662.008423,693.852234 662.000793,733.079712 662.070801,772.307007 
	C662.073486,773.830078 662.872314,775.351685 663.077698,776.904480 
	C663.077698,776.904480 663.057556,776.680847 663.640625,777.295532 
	C672.700317,777.533264 681.759094,777.831360 690.820374,777.955566 
	C692.544739,777.979309 694.278442,777.314758 695.933716,777.021606 
	C695.933716,777.021606 695.877686,776.949097 696.652649,776.748291 
	C697.089905,772.922729 697.820618,769.103699 697.904785,765.270386 
	C698.094543,756.625610 697.964355,747.973816 697.964355,739.324890 
	C704.713379,750.582947 710.181946,762.070923 715.861816,773.453491 
	C716.732666,775.198547 718.578064,776.457336 720.915344,777.983215 
	C728.627625,777.965942 736.339905,777.948669 744.422485,777.613953 
M1044.988281,651.877197 
	C1044.982422,659.846985 1044.906738,667.817871 1045.026245,675.785767 
	C1045.051880,677.490051 1045.784912,679.183655 1046.620239,680.904480 
	C1046.620239,680.904480 1046.966797,681.157043 1047.669067,681.608337 
	C1049.809814,681.751953 1051.948853,681.986572 1054.091431,682.023132 
	C1062.555542,682.167786 1071.026001,682.475891 1079.483032,682.268311 
	C1084.310547,682.149841 1085.047363,684.322510 1085.023682,688.516541 
	C1084.868896,715.926819 1084.915039,743.338501 1085.000244,770.749390 
	C1085.006470,772.750244 1085.839111,774.748413 1086.708252,776.779968 
	C1086.708252,776.779968 1087.027832,777.055420 1087.680664,777.560120 
	C1098.141357,777.673035 1108.602051,777.785889 1119.692749,777.461853 
	C1120.126831,775.423096 1120.932495,773.385498 1120.938843,771.345398 
	C1121.024292,743.880371 1121.074097,716.414673 1120.925049,688.950256 
	C1120.900391,684.397339 1122.394775,682.715820 1126.993896,682.875427 
	C1134.974121,683.152466 1142.973877,683.063293 1150.958496,682.858337 
	C1152.652466,682.814819 1154.316895,681.615173 1155.992432,681.007507 
	C1155.992432,681.007507 1155.936523,680.987305 1156.699707,680.761536 
	C1157.096802,680.072876 1157.833008,679.387451 1157.839478,678.695129 
	C1157.921997,669.870605 1157.961304,661.044434 1157.870850,652.220154 
	C1157.839111,649.120728 1155.941650,648.012268 1152.908569,648.017029 
	C1118.602783,648.070862 1084.296997,648.032104 1049.991699,648.150024 
	C1048.735107,648.154358 1047.483276,649.510925 1046.007080,650.077393 
	C1046.007080,650.077393 1046.247803,650.206604 1045.770020,650.310120 
	C1045.471313,650.457214 1045.222778,650.664429 1044.988281,651.877197 
M333.667725,777.836792 
	C333.988464,777.402161 334.309235,776.967529 334.651611,776.661011 
	C334.651611,776.661011 334.523163,776.641846 335.205811,776.453247 
	C336.004791,775.412354 337.082947,774.483887 337.555420,773.311401 
	C339.837891,767.646912 342.038269,761.945862 344.102203,756.198303 
	C345.211182,753.110107 346.579376,751.336853 350.455872,751.397888 
	C361.403198,751.570251 372.361572,751.024292 383.309601,751.180054 
	C385.023926,751.204407 387.474152,753.046936 388.259888,754.684265 
	C390.549561,759.455505 391.951141,764.646851 394.134979,769.477234 
	C395.350494,772.165894 397.430756,774.463623 399.050354,776.965820 
	C399.050354,776.965820 399.026093,776.893433 399.213013,777.311279 
	C399.390900,777.561218 399.609650,777.768005 400.821991,777.977234 
	C410.795868,777.986206 420.770233,778.049683 430.743073,777.952087 
	C432.464661,777.935303 434.179535,777.234680 435.807800,776.130981 
	C419.481567,735.206055 403.133331,694.289856 386.881653,653.335327 
	C385.864227,650.771423 384.561798,649.827515 381.773956,649.873962 
	C371.617188,650.042908 361.452179,649.804321 351.300415,650.085999 
	C349.704620,650.130371 347.306610,651.726685 346.718323,653.185608 
	C330.115570,694.356323 313.697906,735.601624 297.777679,777.416382 
	C309.555481,777.604614 321.333313,777.792908 333.667725,777.836792 
M1273.641357,777.238525 
	C1284.324829,777.385193 1295.008057,777.541687 1305.692017,777.635315 
	C1306.041992,777.638428 1306.397339,777.002197 1306.735840,776.755005 
	C1306.735840,776.755005 1306.653687,776.713562 1307.317139,776.265259 
	C1307.546753,774.483276 1307.968628,772.702026 1307.975586,770.919189 
	C1308.030640,756.597778 1308.099976,742.274902 1307.944092,727.954956 
	C1307.904297,724.301697 1309.051514,722.934265 1312.795288,723.004089 
	C1322.950195,723.193604 1333.114502,723.231506 1343.267578,722.999573 
	C1347.664917,722.899109 1349.074707,724.518616 1349.015015,728.828918 
	C1348.819336,742.981445 1348.888428,757.138550 1348.996094,771.292908 
	C1349.010254,773.139465 1349.842285,774.979858 1350.682373,776.813782 
	C1350.682373,776.813782 1350.986938,777.052917 1351.645996,777.561707 
	C1360.032715,777.709839 1368.419312,777.930481 1376.806396,777.954285 
	C1378.855713,777.960083 1380.906982,777.320679 1383.207520,776.206909 
	C1383.245361,760.573669 1383.050537,744.935059 1383.411499,729.309265 
	C1383.616211,720.446289 1382.500366,712.396973 1374.706177,706.667969 
	C1379.726440,702.212646 1383.161133,697.388733 1383.265991,690.944031 
	C1383.385010,683.627808 1383.540527,676.296143 1383.208252,668.992554 
	C1382.756836,659.069214 1374.383789,650.183716 1364.650879,650.110107 
	C1334.217896,649.879761 1303.781616,650.103394 1272.698853,650.660095 
	C1272.464844,651.941040 1272.027588,653.221802 1272.026367,654.502930 
	C1271.988525,693.787964 1271.977539,733.072998 1272.052490,772.357910 
	C1272.055298,773.847656 1272.952148,775.335754 1273.137085,776.913818 
	C1273.137085,776.913818 1273.059326,776.615234 1273.641357,777.238525 
M289.312317,776.329285 
	C292.950317,766.356018 298.334229,756.959290 300.408508,745.610046 
	C276.906250,745.610046 254.513321,745.610046 231.389313,745.610046 
	C231.389313,713.485840 231.389313,681.844360 231.389313,650.253113 
	C219.853943,650.253113 209.057953,650.253113 197.626587,650.735840 
	C197.405258,651.853394 196.991714,652.970703 196.990524,654.088440 
	C196.954453,687.839966 196.936996,721.591492 197.022537,755.342773 
	C197.026794,757.023621 197.981064,758.702087 198.883453,760.893677 
	C200.755936,768.914673 206.514618,773.373596 214.257034,777.197998 
	C215.701126,777.466553 217.144684,777.965820 218.589386,777.969177 
	C240.664230,778.020386 262.739258,778.026001 284.814026,777.963562 
	C286.215851,777.959595 287.615875,777.310242 289.312317,776.329285 
M955.695923,777.348389 
	C956.646729,777.568359 957.597290,777.978638 958.548462,777.980286 
	C978.351990,778.014587 998.155579,778.025818 1017.958923,777.950317 
	C1019.361511,777.945007 1020.761414,777.234131 1022.658630,776.375916 
	C1033.323242,772.511108 1038.151978,765.806396 1038.186523,754.621277 
	C1038.229248,740.805115 1038.247559,726.988464 1038.182983,713.172424 
	C1038.118042,699.253967 1029.741455,690.954712 1015.692383,690.900391 
	C999.545837,690.837891 983.398865,690.883179 967.252075,690.881653 
	C965.467896,690.881531 963.683716,690.881653 961.757812,690.881653 
	C961.757812,687.356750 961.757812,684.434753 961.757812,681.015137 
	C987.255249,681.015137 1012.475708,681.015137 1037.885986,681.015137 
	C1037.885986,670.473877 1037.885986,660.435791 1037.885986,649.936035 
	C1035.939087,649.936035 1034.312988,649.935791 1032.686768,649.936157 
	C1005.886414,649.941833 979.085999,649.941345 952.285645,649.955872 
	C938.775696,649.963196 932.487000,654.480347 927.651062,667.672302 
	C927.441040,668.284607 927.050964,668.895935 927.047729,669.509277 
	C926.992065,680.206543 926.940979,690.904419 927.025757,701.601013 
	C927.035034,702.778137 927.881226,703.948608 928.753113,705.670654 
	C931.596802,716.148926 939.064941,721.998108 949.752136,722.052002 
	C957.245239,722.089844 964.738586,722.062378 972.231873,722.062805 
	C983.010315,722.063416 993.788757,722.062988 1004.832275,722.062988 
	C1004.832275,730.109985 1004.832275,737.683594 1004.832275,745.887817 
	C984.245178,745.887817 963.878113,745.887817 943.237976,745.887817 
	C947.377502,756.601685 951.267761,766.670410 955.695923,777.348389 
z"/>
<path fill="#AC2222" opacity="1.000000" stroke="none" 
	d="
M1.948524,1217.965088 
	C2.300933,1219.582886 2.960738,1221.200439 2.961697,1222.818359 
	C3.010937,1305.899780 3.004122,1388.981323 3.001646,1472.531372 
	C3.000000,1473.000000 2.500000,1473.000000 2.256319,1472.531372 
	C1.991268,1387.363525 1.969899,1302.664307 1.948524,1217.965088 
z"/>
<path fill="#F47270" opacity="1.000000" stroke="none" 
	d="
M1.710986,1217.962646 
	C1.969899,1302.664307 1.991268,1387.363525 2.006322,1472.531372 
	C1.666674,1471.503174 1.042488,1470.006348 1.041644,1468.509399 
	C0.994770,1385.318726 1.000000,1302.127930 1.000000,1218.468628 
	C1.000000,1218.000000 1.473441,1217.960205 1.710986,1217.962646 
z"/>
<path fill="#FEFCFB" opacity="1.000000" stroke="none" 
	d="
M663.140808,650.163879 
	C672.795837,650.087036 682.456299,649.824951 692.100525,650.111267 
	C693.752869,650.160339 696.021362,652.214539 696.846741,653.907288 
	C707.633789,676.029785 718.209961,698.255066 728.847412,720.450500 
	C729.626282,722.075745 730.469360,723.670227 731.632446,725.971069 
	C736.291443,716.460999 740.672729,707.537781 745.036438,698.605835 
	C752.336426,683.663757 759.704224,668.753906 766.847290,653.737122 
	C768.173767,650.948608 769.643982,649.773682 772.815857,649.862915 
	C781.801086,650.115906 790.796326,650.015808 800.218994,650.565430 
	C800.619202,693.005188 800.587952,734.934204 800.556763,776.863281 
	C800.556763,776.863281 800.880615,776.956116 800.455200,776.882324 
	C789.369324,776.872009 778.708862,776.935364 767.836609,776.571106 
	C767.624878,761.363464 767.624878,746.583496 767.624878,731.803528 
	C767.204651,731.753418 766.784485,731.703247 766.364258,731.653137 
	C759.159851,746.700012 751.955444,761.746887 744.751099,776.793762 
	C744.751099,776.793762 744.839111,776.824341 744.595093,776.809448 
	C744.351135,776.794495 743.964539,777.054871 743.500244,777.007935 
	C735.361511,776.995483 727.687195,777.030029 719.722778,776.856506 
	C712.019409,761.608459 704.606079,746.568604 697.192688,731.528687 
	C696.302856,734.944763 696.331360,738.049988 696.297729,741.154602 
	C696.168457,753.086182 696.019348,765.017639 695.877686,776.949097 
	C695.877686,776.949097 695.933716,777.021606 695.500977,776.979248 
	C684.398010,776.851501 673.727783,776.766174 663.057556,776.680847 
	C663.057556,776.680847 663.077698,776.904480 663.129089,776.435669 
	C663.167236,734.032593 663.154053,692.098206 663.140808,650.163879 
z"/>
<path fill="#FEFCFC" opacity="1.000000" stroke="none" 
	d="
M552.208069,654.984009 
	C552.505249,655.032959 552.744141,654.936951 553.291016,654.407227 
	C554.490295,653.440186 555.323242,652.761841 556.156128,652.083496 
	C556.156128,652.083496 556.036804,652.045349 556.339294,652.080566 
	C557.151428,651.773926 557.661072,651.431946 558.170715,651.090027 
	C558.170715,651.090027 558.039795,651.028992 558.391113,651.088318 
	C559.398743,650.817383 560.055054,650.487061 560.711426,650.156738 
	C560.711426,650.156738 560.808533,650.261780 561.343018,650.232727 
	C564.365662,650.115967 566.853699,649.953613 569.341858,649.951904 
	C597.907898,649.932251 626.473938,649.937012 655.039978,649.935242 
	C655.039978,649.935242 655.028381,650.002930 655.150696,650.443420 
	C655.200317,660.935486 655.127625,670.987122 655.054932,681.038696 
	C655.054932,681.038696 655.017822,680.992737 654.555481,681.006592 
	C629.144897,681.020386 604.196716,681.020386 578.976074,681.020386 
	C578.976074,702.729980 578.976074,723.961853 578.976074,745.392761 
	C593.434509,745.392761 607.654419,745.392761 621.830811,745.392761 
	C621.830811,737.474304 621.830811,729.906982 621.830811,721.808044 
	C610.337341,721.808044 599.202820,721.808044 588.068298,721.808044 
	C588.068298,721.808044 587.995667,721.963562 588.050537,721.524597 
	C588.112366,711.078247 588.119324,701.070923 588.126221,691.063538 
	C588.126221,691.063538 588.598816,690.967590 589.266174,690.916443 
	C611.630920,690.864380 633.328247,690.863464 655.025635,690.862549 
	C655.025635,690.862549 655.055847,691.005249 655.191345,691.453674 
	C655.341064,718.677246 655.379639,745.452393 655.310181,772.227295 
	C655.305969,773.853577 654.444397,775.477539 653.520020,777.027222 
	C642.604980,776.947937 632.151550,776.972961 621.698425,776.934082 
	C601.459717,776.858826 581.221191,776.747620 560.982544,776.651367 
	C559.047485,775.942688 557.112427,775.234070 554.886292,773.955322 
	C553.773193,772.844299 552.951172,772.303467 552.129150,771.762573 
	C552.129150,771.762573 552.098999,771.916504 552.081421,771.639160 
	C551.729919,771.157288 551.395935,770.952759 551.062012,770.748291 
	C551.062012,770.748230 551.055847,770.942444 551.063232,770.653076 
	C550.745605,770.146851 550.420593,769.929993 550.095581,769.713074 
	C550.095581,769.713074 550.108276,769.870667 550.088013,769.557495 
	C549.395264,768.458435 548.722717,767.672607 548.050232,766.886780 
	C548.050232,766.886780 548.033691,766.960266 548.026184,766.611694 
	C547.438538,765.241638 546.858398,764.220032 546.278320,763.198486 
	C546.278320,763.198486 546.340027,763.231750 546.285278,762.709106 
	C545.936584,758.884888 545.399231,755.584167 545.387817,752.281555 
	C545.312073,730.330566 545.282593,708.378845 545.385742,686.428101 
	C545.420776,678.964294 545.882019,671.502441 546.148560,664.039734 
	C546.148560,664.039734 546.061768,664.066650 546.325806,663.884033 
	C547.073730,662.465088 547.557617,661.228882 548.041504,659.992615 
	C548.041504,659.992615 547.985229,659.999207 548.263062,659.858887 
	C549.058472,658.822937 549.576111,657.927246 550.093689,657.031555 
	C550.093689,657.031555 550.019104,657.015015 550.286743,656.984497 
	C550.730713,656.635315 550.906982,656.316650 551.083313,655.998047 
	C551.083313,655.998047 550.997498,655.996460 551.279907,655.965698 
	C551.777588,655.617920 551.992798,655.300964 552.208069,654.984009 
z"/>
<path fill="#FEFCFB" opacity="1.000000" stroke="none" 
	d="
M1350.986938,777.052917 
	C1350.986938,777.052917 1350.682373,776.813782 1350.457031,776.366821 
	C1350.231812,758.051086 1350.231812,740.182312 1350.231812,722.293335 
	C1335.362915,722.293335 1321.298096,722.293335 1306.653687,722.293335 
	C1306.653687,740.582336 1306.653687,758.647949 1306.653687,776.713562 
	C1306.653687,776.713562 1306.735840,776.755005 1306.311768,776.800049 
	C1294.944946,776.768494 1284.002197,776.691895 1273.059326,776.615234 
	C1273.059326,776.615234 1273.137085,776.913818 1273.255615,776.413025 
	C1273.364868,733.991882 1273.355713,692.071472 1273.346558,650.151123 
	C1303.781616,650.103394 1334.217896,649.879761 1364.650879,650.110107 
	C1374.383789,650.183716 1382.756836,659.069214 1383.208252,668.992554 
	C1383.540527,676.296143 1383.385010,683.627808 1383.265991,690.944031 
	C1383.161133,697.388733 1379.726440,702.212646 1374.706177,706.667969 
	C1382.500366,712.396973 1383.616211,720.446289 1383.411499,729.309265 
	C1383.050537,744.935059 1383.245361,760.573669 1382.619629,776.573181 
	C1371.683594,776.977295 1361.335205,777.015076 1350.986938,777.052917 
M1310.687500,690.877258 
	C1323.760742,690.877258 1336.833862,690.877258 1349.884033,690.877258 
	C1349.884033,687.240112 1349.884033,684.317993 1349.884033,681.353638 
	C1335.380737,681.353638 1321.172363,681.353638 1306.689087,681.353638 
	C1306.689087,683.836426 1306.355713,686.065552 1306.824341,688.111023 
	C1307.073120,689.196777 1308.712646,689.963989 1310.687500,690.877258 
z"/>
<path fill="#FEFBFA" opacity="1.000000" stroke="none" 
	d="
M436.231323,758.235168 
	C436.231323,758.235168 436.280731,758.151184 436.213989,757.728882 
	C433.831757,751.791382 431.516235,746.276245 429.200714,740.761108 
	C429.200714,740.761108 429.170654,740.897827 429.199585,740.477905 
	C428.656586,736.653320 427.623718,733.253296 427.590179,729.843445 
	C427.419861,712.525818 427.467865,695.205566 427.522949,677.886475 
	C427.552551,668.570129 427.749939,659.254333 427.871613,649.938293 
	C427.871613,649.938293 427.932526,649.975708 428.411743,649.960449 
	C439.171753,650.120667 449.452515,650.296204 459.733276,650.471680 
	C459.733276,650.471680 459.745941,650.240173 459.725891,650.542236 
	C460.123047,651.267517 460.540283,651.690857 460.957489,652.114136 
	C460.957489,652.114136 460.987427,652.020508 460.982300,652.304626 
	C461.269867,652.839417 461.562592,653.090149 461.855316,653.340820 
	C461.855316,653.340820 461.833740,653.167603 461.831604,653.498230 
	C462.510681,654.620728 463.191925,655.412659 463.873138,656.204529 
	C463.873138,656.204529 463.887451,656.101624 463.903961,656.414185 
	C464.597107,657.517822 465.273712,658.309021 465.950348,659.100159 
	C465.950348,659.100159 465.979523,659.022949 465.971527,659.310059 
	C466.265747,659.836853 466.567963,660.076477 466.870178,660.316101 
	C466.870178,660.316101 466.897064,660.092407 466.844360,660.393066 
	C467.195465,661.141846 467.599304,661.589966 468.003113,662.038147 
	C468.003113,662.038147 468.020447,661.989868 468.034851,662.271851 
	C468.350250,662.769409 468.651276,662.984863 468.952301,663.200317 
	C468.952301,663.200317 468.940155,663.068298 468.941162,663.402222 
	C469.883301,664.924377 470.824432,666.112549 471.765564,667.300781 
	C471.765564,667.300781 471.805176,667.132080 471.793762,667.425415 
	C472.187469,668.164612 472.592560,668.610413 472.997650,669.056213 
	C472.997650,669.056213 473.016083,668.994385 473.028290,669.276367 
	C473.339722,669.782593 473.638977,670.006897 473.938232,670.231140 
	C473.938232,670.231140 473.922241,670.082886 473.925476,670.407410 
	C474.600037,671.528259 475.271393,672.324524 475.942780,673.120850 
	C475.942780,673.120850 475.971619,673.025146 475.968597,673.310730 
	C476.268463,673.835999 476.571320,674.075684 476.874176,674.315369 
	C476.874176,674.315369 476.893311,674.091431 476.832001,674.399170 
	C477.181091,675.152039 477.591492,675.597229 478.001862,676.042419 
	C478.001862,676.042419 478.019958,675.989868 478.031036,676.274292 
	C478.340973,676.781311 478.639832,677.003906 478.938721,677.226562 
	C478.938721,677.226562 478.930450,677.078247 478.920624,677.402588 
	C479.586639,678.522583 480.262482,679.318298 480.938324,680.113953 
	C480.938324,680.113953 480.975525,680.032166 480.966278,680.316772 
	C481.265991,680.836609 481.574951,681.071960 481.883911,681.307251 
	C481.883911,681.307251 481.861206,681.137024 481.854309,681.469116 
	C482.521362,682.604126 483.195343,683.407043 483.869324,684.209961 
	C483.869324,684.209961 483.886505,684.110779 483.908020,684.441406 
	C485.285614,686.530396 486.641693,688.288757 487.997772,690.047058 
	C487.997772,690.047058 488.015594,689.989746 488.034546,690.271301 
	C488.344391,690.784973 488.635254,691.017151 488.926117,691.249268 
	C488.926117,691.249268 488.917389,691.097717 488.914429,691.430176 
	C489.857788,692.943970 490.804077,694.125305 491.750397,695.306641 
	C491.750397,695.306641 491.794586,695.137634 491.773682,695.434631 
	C492.162781,696.179443 492.572754,696.627197 492.982727,697.075012 
	C492.982727,697.075012 492.999359,697.004883 493.011047,697.286011 
	C493.324066,697.794434 493.625427,698.021667 493.926788,698.248901 
	C493.926788,698.248901 493.918396,698.097839 493.923706,698.418274 
	C494.601135,699.531311 495.273254,700.323975 495.945374,701.116577 
	C495.945374,701.116577 495.973145,701.023193 495.976013,701.308716 
	C496.281647,701.831299 496.584381,702.068298 496.887085,702.305359 
	C496.887085,702.305359 496.910797,702.082031 496.841187,702.377808 
	C497.057556,702.941406 497.343506,703.209229 497.629456,703.476990 
	C497.629486,703.476990 497.608398,703.289062 497.607361,703.619019 
	C498.031494,704.369263 498.456665,704.789612 498.881805,705.209900 
	C498.881805,705.209900 498.924469,705.062256 498.894684,705.349365 
	C499.255951,706.087708 499.646973,706.538879 500.038025,706.990112 
	C500.038025,706.990112 500.021881,706.976807 500.100647,707.311279 
	C501.316895,709.056396 502.454437,710.466919 504.281158,712.732056 
	C504.281158,691.054443 504.281158,670.665955 504.281158,650.277405 
	C515.101440,650.215210 525.921692,650.153076 537.140747,650.638306 
	C537.557556,693.006348 537.575623,734.826904 537.593689,776.647461 
	C537.593689,776.647461 537.206482,776.704590 536.620239,776.825073 
	C526.019653,776.923462 516.005371,776.901245 505.991119,776.879089 
	C495.371063,761.931030 484.789673,746.955200 474.106445,732.052429 
	C471.047729,727.785645 467.694061,723.730286 464.299957,718.919800 
	C463.311432,717.144348 462.498627,716.027161 460.787811,713.675598 
	C460.787811,735.691345 460.787811,756.191772 460.787811,776.692200 
	C455.683685,777.093689 450.576080,777.758911 445.478210,777.690857 
	C444.358765,777.675964 443.274109,775.054260 442.074402,772.915833 
	C441.338440,770.758240 440.701508,769.317932 440.064575,767.877563 
	C440.064575,767.877563 440.043823,767.949097 440.078857,767.602295 
	C439.433197,765.793030 438.752533,764.330627 438.071838,762.868164 
	C438.071838,762.868164 438.050873,762.943420 438.076050,762.579468 
	C437.477905,760.888794 436.854614,759.561951 436.231323,758.235168 
z"/>
<path fill="#FFFDFC" opacity="1.000000" stroke="none" 
	d="
M928.284363,667.146545 
	C932.487000,654.480347 938.775696,649.963196 952.285645,649.955872 
	C979.085999,649.941345 1005.886414,649.941833 1032.686768,649.936157 
	C1034.312988,649.935791 1035.939087,649.936035 1037.885986,649.936035 
	C1037.885986,660.435791 1037.885986,670.473877 1037.885986,681.015137 
	C1012.475708,681.015137 987.255249,681.015137 961.757812,681.015137 
	C961.757812,684.434753 961.757812,687.356750 961.757812,690.881653 
	C963.683716,690.881653 965.467896,690.881531 967.252075,690.881653 
	C983.398865,690.883179 999.545837,690.837891 1015.692383,690.900391 
	C1029.741455,690.954712 1038.118042,699.253967 1038.182983,713.172424 
	C1038.247559,726.988464 1038.229248,740.805115 1038.186523,754.621277 
	C1038.151978,765.806396 1033.323242,772.511108 1021.924500,776.586365 
	C999.179626,776.777588 977.168823,776.758362 955.158081,776.739197 
	C951.267761,766.670410 947.377502,756.601685 943.237976,745.887817 
	C963.878113,745.887817 984.245178,745.887817 1004.832275,745.887817 
	C1004.832275,737.683594 1004.832275,730.109985 1004.832275,722.062988 
	C993.788757,722.062988 983.010315,722.063416 972.231873,722.062805 
	C964.738586,722.062378 957.245239,722.089844 949.752136,722.052002 
	C939.064941,721.998108 931.596802,716.148926 928.577881,704.917236 
	C928.363220,691.824707 928.323792,679.485657 928.284363,667.146545 
z"/>
<path fill="#FEFCFC" opacity="1.000000" stroke="none" 
	d="
M1176.687500,651.214783 
	C1176.687500,651.214783 1176.809692,651.265076 1177.179932,651.221558 
	C1178.136719,650.922791 1178.723389,650.667542 1179.309937,650.412354 
	C1179.309937,650.412354 1179.182861,650.317200 1179.670654,650.356934 
	C1208.431885,650.310120 1236.705322,650.223572 1264.978882,650.137024 
	C1265.016357,650.305969 1265.053711,650.474976 1265.307373,651.293701 
	C1265.376587,661.640503 1265.229858,671.337646 1265.083008,681.034851 
	C1265.083008,681.034851 1265.037109,680.993835 1264.560791,680.981628 
	C1241.877686,680.969421 1219.671021,680.969421 1197.467041,680.969421 
	C1197.467041,684.678406 1197.467041,687.588745 1197.467041,690.867371 
	C1220.210449,690.867371 1242.630859,690.867371 1265.051270,690.867371 
	C1265.051270,690.867371 1265.106934,690.990967 1265.284546,691.421326 
	C1265.462158,701.762512 1265.462158,711.673340 1265.462158,722.102173 
	C1242.392456,722.102173 1220.006226,722.102173 1197.464111,722.102173 
	C1197.464111,730.190125 1197.464111,737.745544 1197.464111,745.739624 
	C1220.231201,745.739624 1242.666504,745.739624 1265.101807,745.739624 
	C1265.101807,745.739624 1265.186523,745.979187 1265.345703,746.424316 
	C1265.312988,756.900085 1265.120850,766.930725 1264.928711,776.961426 
	C1264.928711,776.961426 1264.922485,777.016602 1264.485352,776.982727 
	C1235.853394,776.906555 1207.658325,776.864258 1179.463379,776.821899 
	C1175.933228,774.302185 1172.403076,771.782349 1168.506592,768.814758 
	C1167.850830,768.119019 1167.561279,767.871094 1167.271729,767.623169 
	C1167.271729,767.623169 1167.253052,767.786133 1167.280762,767.474365 
	C1166.934448,766.699829 1166.560669,766.237183 1166.186768,765.774475 
	C1166.186768,765.774475 1166.162598,765.872864 1166.150146,765.481323 
	C1165.480225,761.366760 1164.276367,757.647217 1164.252808,753.920227 
	C1164.086182,727.523438 1164.065308,701.124451 1164.251465,674.727966 
	C1164.283691,670.171936 1165.522217,665.624329 1166.203491,661.072876 
	C1166.203491,661.072876 1166.109009,661.089355 1166.398682,660.965576 
	C1167.188110,659.891541 1167.688110,658.941223 1168.187988,657.990967 
	C1168.495728,657.943481 1168.717651,657.779724 1169.166870,657.184570 
	C1169.828491,656.425598 1170.176636,655.981628 1170.524902,655.537720 
	C1170.371826,655.367920 1170.218750,655.198120 1170.559082,655.171753 
	C1171.396729,654.891418 1171.741089,654.467712 1172.085449,654.044006 
	C1172.085449,654.044006 1172.019409,654.022583 1172.298584,654.015991 
	C1172.804199,653.720276 1173.030518,653.431091 1173.256958,653.141907 
	C1173.256958,653.141907 1173.143066,653.131348 1173.487305,653.122803 
	C1174.783569,652.481079 1175.735474,651.847900 1176.687500,651.214783 
z"/>
<path fill="#FEFCFC" opacity="1.000000" stroke="none" 
	d="
M855.899841,752.185913 
	C855.899841,752.185913 855.829590,752.262695 855.557007,752.540161 
	C852.106262,760.829102 848.928040,768.840515 845.749878,776.851929 
	C845.749939,776.851929 845.888794,776.872375 845.647339,776.849976 
	C845.405884,776.827637 844.971252,777.067871 844.507202,777.013428 
	C832.401428,776.965088 820.759827,776.971130 809.118164,776.977173 
	C811.745422,769.850403 814.219910,762.662903 817.025818,755.607117 
	C830.480530,721.773010 844.057861,687.987549 857.480896,654.140930 
	C858.669312,651.144287 860.014282,649.737061 863.538025,649.841492 
	C873.354675,650.132263 883.186523,650.019470 893.010132,649.893616 
	C895.648193,649.859924 897.106812,650.441589 898.195312,653.180237 
	C914.284607,693.661011 930.522217,734.082886 946.709167,774.524902 
	C946.952454,775.132568 947.001038,775.818176 946.560181,776.708191 
	C934.655579,777.003357 923.331299,777.057800 911.684570,777.017700 
	C910.915344,776.877441 910.468567,776.831665 910.021790,776.785889 
	C910.021790,776.785889 910.047485,776.937744 910.019653,776.565491 
	C908.359436,772.409729 906.727051,768.626221 905.094666,764.842651 
	C905.094666,764.842651 905.057068,764.948181 905.097290,764.576416 
	C903.652649,760.322205 902.365417,756.344971 900.573914,752.609436 
	C899.959229,751.327637 898.097168,749.845337 896.781372,749.822571 
	C884.289062,749.606873 871.790894,749.621094 859.297302,749.789551 
	C858.154236,749.804932 857.031799,751.350708 855.899841,752.185913 
M872.237427,710.190918 
	C872.097839,710.857605 871.958191,711.524292 871.764221,712.243896 
	C871.764221,712.243896 871.798218,712.311646 871.208984,712.779907 
	C871.048828,713.505249 870.888672,714.230591 870.827881,714.907898 
	C870.827881,714.907898 870.765930,714.816528 870.177856,715.348328 
	C869.957642,716.121033 869.737427,716.893799 869.419312,718.009888 
	C875.186890,718.009888 880.709595,718.009888 886.401672,718.009888 
	C886.332214,717.342224 886.378601,716.851929 886.215576,716.445618 
	C885.981018,715.861084 885.594116,715.337585 885.219482,714.873718 
	C885.219482,714.873718 885.314209,714.907593 885.309631,714.219849 
	C884.906250,713.435425 884.502869,712.651001 884.060486,711.949768 
	C884.060486,711.949768 884.146179,711.982910 884.174438,711.339661 
	C883.869446,710.806458 883.564392,710.273254 883.216248,709.855713 
	C883.216248,709.855713 883.337646,709.877808 883.301880,709.155518 
	C882.609009,707.694641 881.916138,706.233826 881.176208,704.889099 
	C881.176208,704.889099 881.297791,704.919678 881.289551,704.231323 
	C880.899353,703.436646 880.509155,702.641968 880.077881,701.932617 
	C880.077881,701.932617 880.166443,701.966309 880.191650,701.325928 
	C879.873779,700.805969 879.555908,700.285950 879.176514,699.930542 
	C879.176514,699.930542 879.284180,699.791626 879.262878,699.083252 
	C878.827087,698.384766 878.391296,697.686218 877.610352,696.434448 
	C877.169861,698.003540 876.924622,698.877197 876.722717,699.906433 
	C876.722717,699.906433 876.730896,699.745117 876.176819,700.180908 
	C875.680237,701.758484 875.183655,703.336060 874.808533,704.882507 
	C874.808533,704.882507 874.759644,704.767029 874.210388,705.162537 
	C874.064575,705.817688 873.918762,706.472778 873.698792,707.181763 
	C873.698792,707.181763 873.723206,707.270020 873.165039,707.766785 
	C873.008118,708.490723 872.851196,709.214600 872.832581,709.889099 
	C872.832581,709.889099 872.767822,709.757263 872.237427,710.190918 
z"/>
<path fill="#FEFCFC" opacity="1.000000" stroke="none" 
	d="
M297.249908,776.834717 
	C313.697906,735.601624 330.115570,694.356323 346.718323,653.185608 
	C347.306610,651.726685 349.704620,650.130371 351.300415,650.085999 
	C361.452179,649.804321 371.617188,650.042908 381.773956,649.873962 
	C384.561798,649.827515 385.864227,650.771423 386.881653,653.335327 
	C403.133331,694.289856 419.481567,735.206055 435.394379,776.519653 
	C423.328613,776.960144 411.676239,777.011963 399.783508,776.968140 
	C399.370789,776.879456 399.198425,776.886414 399.026093,776.893433 
	C399.026093,776.893433 399.050354,776.965820 398.908020,776.630920 
	C395.624725,768.438965 392.605774,760.528809 389.229645,752.774170 
	C388.626465,751.388672 386.560730,749.771606 385.142609,749.745178 
	C372.681366,749.512939 360.212860,749.548584 347.749725,749.728638 
	C346.515198,749.746399 344.654205,750.985291 344.183136,752.115540 
	C340.803619,760.224487 337.708588,768.452026 334.523193,776.641846 
	C334.523163,776.641846 334.651611,776.661011 334.354156,776.649170 
	C333.697296,776.782959 333.337891,776.928711 332.513947,777.020264 
	C320.449585,776.922241 308.849731,776.878479 297.249908,776.834717 
M372.333984,710.066589 
	C370.513153,705.573669 368.692322,701.080750 366.514832,695.707825 
	C363.364410,703.713440 360.615692,710.698242 357.740112,718.005371 
	C363.891937,718.005371 369.414246,718.005371 375.434113,718.005371 
	C374.405762,715.310486 373.539825,713.041199 372.333984,710.066589 
z"/>
<path fill="#FEFBFA" opacity="1.000000" stroke="none" 
	d="
M1087.027832,777.055420 
	C1087.027832,777.055420 1086.708252,776.779968 1086.497192,776.320435 
	C1086.286133,744.422607 1086.286133,712.984253 1086.286133,681.157043 
	C1072.848633,681.157043 1059.907715,681.157043 1046.966797,681.157043 
	C1046.966797,681.157043 1046.620239,680.904480 1046.389404,680.435791 
	C1046.108154,670.322083 1046.057495,660.677124 1046.130005,650.844116 
	C1046.253174,650.656067 1046.247803,650.206604 1046.247803,650.206604 
	C1046.247803,650.206604 1046.007080,650.077393 1046.566040,650.094360 
	C1083.324097,650.111267 1119.523315,650.111267 1155.936523,650.111267 
	C1155.936523,660.769775 1155.936523,670.878540 1155.936523,680.987305 
	C1155.936523,680.987305 1155.992432,681.007507 1155.524414,680.975708 
	C1143.417236,680.943848 1131.778198,680.943848 1119.481445,680.943848 
	C1119.481445,683.246399 1119.482056,685.199646 1119.481323,687.152954 
	C1119.470581,715.298645 1119.469238,743.444275 1119.426636,771.589905 
	C1119.423950,773.390320 1119.101318,775.190247 1118.466309,776.966797 
	C1107.679443,776.980652 1097.353638,777.018005 1087.027832,777.055420 
z"/>
<path fill="#FEFBFA" opacity="1.000000" stroke="none" 
	d="
M213.434280,776.768372 
	C206.514618,773.373596 200.755936,768.914673 198.722168,760.124939 
	C198.461685,757.203552 198.277237,755.050903 198.276077,752.898193 
	C198.257507,718.683167 198.262421,684.468140 198.261963,650.253113 
	C209.057953,650.253113 219.853943,650.253113 231.389313,650.253113 
	C231.389313,681.844360 231.389313,713.485840 231.389313,745.610046 
	C254.513321,745.610046 276.906250,745.610046 300.408508,745.610046 
	C298.334229,756.959290 292.950317,766.356018 288.694702,776.636353 
	C263.196167,776.885071 238.315231,776.826721 213.434280,776.768372 
z"/>
<path fill="#AC2222" opacity="1.000000" stroke="none" 
	d="
M588.171997,722.197205 
	C599.202820,721.808044 610.337341,721.808044 621.830811,721.808044 
	C621.830811,729.906982 621.830811,737.474304 621.830811,745.392761 
	C607.654419,745.392761 593.434509,745.392761 578.976074,745.392761 
	C578.976074,723.961853 578.976074,702.729980 578.976074,681.020386 
	C604.196716,681.020386 629.144897,681.020386 654.564453,681.033997 
	C653.164062,681.684692 651.295776,682.864014 649.420044,682.875793 
	C628.289490,683.008484 607.156189,683.104797 586.027649,682.856873 
	C581.114502,682.799194 579.834167,684.406677 579.906921,689.125427 
	C580.158264,705.427612 580.123962,721.737732 579.915222,738.041199 
	C579.859131,742.423096 580.867737,744.292297 585.699219,744.125244 
	C595.836853,743.774719 605.997498,743.887878 616.143494,744.080627 
	C619.884460,744.151672 621.228333,742.811218 620.988098,739.148560 
	C620.759949,735.669250 620.837280,732.159790 620.963562,728.670288 
	C621.087036,725.258362 619.602173,723.878723 616.205688,723.926697 
	C608.386963,724.037170 600.564392,724.033142 592.746399,723.900085 
	C591.249146,723.874573 589.765564,723.044983 588.171997,722.197205 
z"/>
<path fill="#B53737" opacity="1.000000" stroke="none" 
	d="
M1264.929688,745.392700 
	C1242.666504,745.739624 1220.231201,745.739624 1197.464111,745.739624 
	C1197.464111,737.745544 1197.464111,730.190125 1197.464111,722.102173 
	C1220.006226,722.102173 1242.392456,722.102173 1265.462158,722.102173 
	C1265.462158,711.673340 1265.462158,701.762512 1265.345459,691.391846 
	C1265.827515,692.333862 1266.913818,693.725220 1266.943970,695.139160 
	C1267.110718,702.949707 1266.884644,710.768921 1267.072510,718.578491 
	C1267.173340,722.768738 1265.384521,724.038269 1261.390381,724.010925 
	C1242.437744,723.881592 1223.482544,724.073425 1204.531372,723.863831 
	C1200.110596,723.815002 1198.477051,725.221252 1198.921143,729.586121 
	C1199.205688,732.383118 1199.224731,735.262939 1198.905396,738.053284 
	C1198.335205,743.034729 1200.546753,744.193787 1205.191284,744.134949 
	C1223.144287,743.907471 1241.101929,744.011353 1259.057617,744.084595 
	C1260.958862,744.092346 1262.857666,744.710693 1264.929688,745.392700 
z"/>
<path fill="#B53737" opacity="1.000000" stroke="none" 
	d="
M1156.318115,680.874390 
	C1155.936523,670.878540 1155.936523,660.769775 1155.936523,650.111267 
	C1119.523315,650.111267 1083.324097,650.111267 1046.677124,650.174316 
	C1047.483276,649.510925 1048.735107,648.154358 1049.991699,648.150024 
	C1084.296997,648.032104 1118.602783,648.070862 1152.908569,648.017029 
	C1155.941650,648.012268 1157.839111,649.120728 1157.870850,652.220154 
	C1157.961304,661.044434 1157.921997,669.870605 1157.839478,678.695129 
	C1157.833008,679.387451 1157.096802,680.072876 1156.318115,680.874390 
z"/>
<path fill="#B53737" opacity="1.000000" stroke="none" 
	d="
M1264.898560,690.508484 
	C1242.630859,690.867371 1220.210449,690.867371 1197.467041,690.867371 
	C1197.467041,687.588745 1197.467041,684.678406 1197.467041,680.969421 
	C1219.671021,680.969421 1241.877686,680.969421 1264.552734,681.011353 
	C1262.918945,681.686829 1260.812012,682.882324 1258.714966,682.865417 
	C1241.605347,682.727295 1224.497803,682.361450 1207.389526,682.069763 
	C1206.225464,682.049866 1205.060547,682.080933 1203.896240,682.067932 
	C1201.401489,682.039917 1199.143921,682.280273 1199.005371,685.581238 
	C1198.856445,689.127380 1201.288696,689.035095 1203.713379,689.033997 
	C1215.856567,689.028564 1227.999634,689.032349 1240.142822,689.032349 
	C1246.630249,689.032349 1253.119263,688.954529 1259.604248,689.081482 
	C1261.324341,689.115112 1263.032349,689.776489 1264.898560,690.508484 
z"/>
<path fill="#AC2222" opacity="1.000000" stroke="none" 
	d="
M545.793823,664.220093 
	C545.882019,671.502441 545.420776,678.964294 545.385742,686.428101 
	C545.282593,708.378845 545.312073,730.330566 545.387817,752.281555 
	C545.399231,755.584167 545.936584,758.884888 546.280457,762.674438 
	C545.554504,761.244568 544.112000,759.329895 544.102783,757.408447 
	C543.961975,727.929504 543.986633,698.449585 544.071167,668.970215 
	C544.075562,667.445679 544.962830,665.923645 545.793823,664.220093 
z"/>
<path fill="#B53737" opacity="1.000000" stroke="none" 
	d="
M696.265137,776.848694 
	C696.019348,765.017639 696.168457,753.086182 696.297729,741.154602 
	C696.331360,738.049988 696.302856,734.944763 697.192688,731.528687 
	C704.606079,746.568604 712.019409,761.608459 719.706421,777.075317 
	C719.980103,777.502258 719.972717,777.940979 719.972717,777.940979 
	C718.578064,776.457336 716.732666,775.198547 715.861816,773.453491 
	C710.181946,762.070923 704.713379,750.582947 697.964355,739.324890 
	C697.964355,747.973816 698.094543,756.625610 697.904785,765.270386 
	C697.820618,769.103699 697.089905,772.922729 696.265137,776.848694 
z"/>
<path fill="#B53737" opacity="1.000000" stroke="none" 
	d="
M334.864502,776.547546 
	C337.708588,768.452026 340.803619,760.224487 344.183136,752.115540 
	C344.654205,750.985291 346.515198,749.746399 347.749725,749.728638 
	C360.212860,749.548584 372.681366,749.512939 385.142609,749.745178 
	C386.560730,749.771606 388.626465,751.388672 389.229645,752.774170 
	C392.605774,760.528809 395.624725,768.438965 398.943481,776.616760 
	C397.430756,774.463623 395.350494,772.165894 394.134979,769.477234 
	C391.951141,764.646851 390.549561,759.455505 388.259888,754.684265 
	C387.474152,753.046936 385.023926,751.204407 383.309601,751.180054 
	C372.361572,751.024292 361.403198,751.570251 350.455872,751.397888 
	C346.579376,751.336853 345.211182,753.110107 344.102203,756.198303 
	C342.038269,761.945862 339.837891,767.646912 337.555420,773.311401 
	C337.082947,774.483887 336.004791,775.412354 334.864502,776.547546 
z"/>
<path fill="#AC2222" opacity="1.000000" stroke="none" 
	d="
M654.885742,649.574463 
	C626.473938,649.937012 597.907898,649.932251 569.341858,649.951904 
	C566.853699,649.953613 564.365662,650.115967 561.401611,650.191650 
	C562.638489,649.467651 564.348572,648.143066 566.064636,648.135132 
	C594.256653,648.004761 622.449463,648.024048 650.641907,648.088623 
	C652.005981,648.091736 653.368286,648.822021 654.885742,649.574463 
z"/>
<path fill="#B53737" opacity="1.000000" stroke="none" 
	d="
M1118.927490,776.990356 
	C1119.101318,775.190247 1119.423950,773.390320 1119.426636,771.589905 
	C1119.469238,743.444275 1119.470581,715.298645 1119.481323,687.152954 
	C1119.482056,685.199646 1119.481445,683.246399 1119.481445,680.943848 
	C1131.778198,680.943848 1143.417236,680.943848 1155.525635,680.946045 
	C1154.316895,681.615173 1152.652466,682.814819 1150.958496,682.858337 
	C1142.973877,683.063293 1134.974121,683.152466 1126.993896,682.875427 
	C1122.394775,682.715820 1120.900391,684.397339 1120.925049,688.950256 
	C1121.074097,716.414673 1121.024292,743.880371 1120.938843,771.345398 
	C1120.932495,773.385498 1120.126831,775.423096 1119.344727,777.453552 
	C1118.996826,777.445251 1118.927490,776.990356 1118.927490,776.990356 
z"/>
<path fill="#B53737" opacity="1.000000" stroke="none" 
	d="
M745.119263,776.785706 
	C751.955444,761.746887 759.159851,746.700012 766.364258,731.653137 
	C766.784485,731.703247 767.204651,731.753418 767.624878,731.803528 
	C767.624878,746.583496 767.624878,761.363464 767.798828,776.802979 
	C767.972717,777.462524 767.912354,777.928528 767.912354,777.928528 
	C767.285889,775.992249 766.148804,774.064270 766.117493,772.118408 
	C765.941895,761.206726 766.032959,750.290771 765.032837,739.072449 
	C762.389893,744.293823 759.660400,749.473694 757.125671,754.747070 
	C753.899902,761.458069 750.868286,768.262268 747.646179,774.975037 
	C747.277039,775.744080 746.223633,776.184692 745.119263,776.785706 
z"/>
<path fill="#AC2222" opacity="1.000000" stroke="none" 
	d="
M427.520996,650.112915 
	C427.749939,659.254333 427.552551,668.570129 427.522949,677.886475 
	C427.467865,695.205566 427.419861,712.525818 427.590179,729.843445 
	C427.623718,733.253296 428.656586,736.653320 429.269257,740.484619 
	C428.209167,738.323792 426.175232,735.744629 426.151794,733.147339 
	C425.914764,706.894958 425.989105,680.639526 426.055634,654.385193 
	C426.059113,653.018372 426.782318,651.653442 427.520996,650.112915 
z"/>
<path fill="#AC2222" opacity="1.000000" stroke="none" 
	d="
M653.981812,777.102600 
	C654.444397,775.477539 655.305969,773.853577 655.310181,772.227295 
	C655.379639,745.452393 655.341064,718.677246 655.262451,691.437500 
	C655.804810,692.367676 656.935120,693.760376 656.940674,695.157471 
	C657.043701,721.215576 657.050293,747.274353 656.914001,773.332214 
	C656.906128,774.829346 655.504150,776.319214 654.372192,777.670227 
	C653.993408,777.528015 653.981750,777.102600 653.981812,777.102600 
z"/>
<path fill="#B53737" opacity="1.000000" stroke="none" 
	d="
M1264.871582,649.750610 
	C1236.705322,650.223572 1208.431885,650.310120 1179.706299,650.427856 
	C1181.829712,649.657715 1184.400269,648.179199 1186.981445,648.160400 
	C1211.402832,647.981934 1235.826050,648.028748 1260.248413,648.106628 
	C1261.755005,648.111450 1263.258911,648.926270 1264.871582,649.750610 
z"/>
<path fill="#AC2222" opacity="1.000000" stroke="none" 
	d="
M1306.985352,776.489380 
	C1306.653687,758.647949 1306.653687,740.582336 1306.653687,722.293335 
	C1321.298096,722.293335 1335.362915,722.293335 1350.231812,722.293335 
	C1350.231812,740.182312 1350.231812,758.051086 1350.263672,776.371521 
	C1349.842285,774.979858 1349.010254,773.139465 1348.996094,771.292908 
	C1348.888428,757.138550 1348.819336,742.981445 1349.015015,728.828918 
	C1349.074707,724.518616 1347.664917,722.899109 1343.267578,722.999573 
	C1333.114502,723.231506 1322.950195,723.193604 1312.795288,723.004089 
	C1309.051514,722.934265 1307.904297,724.301697 1307.944092,727.954956 
	C1308.099976,742.274902 1308.030640,756.597778 1307.975586,770.919189 
	C1307.968628,772.702026 1307.546753,774.483276 1306.985352,776.489380 
z"/>
<path fill="#AC2222" opacity="1.000000" stroke="none" 
	d="
M1047.317871,681.382690 
	C1059.907715,681.157043 1072.848633,681.157043 1086.286133,681.157043 
	C1086.286133,712.984253 1086.286133,744.422607 1086.286743,776.304382 
	C1085.839111,774.748413 1085.006470,772.750244 1085.000244,770.749390 
	C1084.915039,743.338501 1084.868896,715.926819 1085.023682,688.516541 
	C1085.047363,684.322510 1084.310547,682.149841 1079.483032,682.268311 
	C1071.026001,682.475891 1062.555542,682.167786 1054.091431,682.023132 
	C1051.948853,681.986572 1049.809814,681.751953 1047.317871,681.382690 
z"/>
<path fill="#AC2222" opacity="1.000000" stroke="none" 
	d="
M654.862915,690.510498 
	C633.328247,690.863464 611.630920,690.864380 589.471069,690.789246 
	C590.260742,690.149231 591.510437,689.100464 592.765503,689.093872 
	C612.371399,688.991699 631.978027,689.006714 651.584229,689.073608 
	C652.624084,689.077148 653.661621,689.780823 654.862915,690.510498 
z"/>
<path fill="#AC2222" opacity="1.000000" stroke="none" 
	d="
M537.930786,776.453247 
	C537.575623,734.826904 537.557556,693.006348 537.572388,650.751404 
	C538.076538,651.797302 538.956360,653.276733 538.959290,654.757935 
	C539.036926,693.988525 539.031189,733.219299 538.994751,772.450012 
	C538.993530,773.719849 538.520752,774.989380 537.930786,776.453247 
z"/>
<path fill="#AC2222" opacity="1.000000" stroke="none" 
	d="
M1273.022705,650.405640 
	C1273.355713,692.071472 1273.364868,733.991882 1273.403198,776.368408 
	C1272.952148,775.335754 1272.055298,773.847656 1272.052490,772.357910 
	C1271.977539,733.072998 1271.988525,693.787964 1272.026367,654.502930 
	C1272.027588,653.221802 1272.464844,651.941040 1273.022705,650.405640 
z"/>
<path fill="#AC2222" opacity="1.000000" stroke="none" 
	d="
M800.902710,776.615601 
	C800.587952,734.934204 800.619202,693.005188 800.664551,650.622681 
	C801.121887,651.851501 801.948792,653.532959 801.951965,655.216003 
	C802.026062,694.162415 802.018921,733.109009 801.979858,772.055542 
	C801.978455,773.493286 801.503174,774.930420 800.902710,776.615601 
z"/>
<path fill="#9C1316" opacity="1.000000" stroke="none" 
	d="
M662.860229,650.450806 
	C663.154053,692.098206 663.167236,734.032593 663.240356,776.420410 
	C662.872314,775.351685 662.073486,773.830078 662.070801,772.307007 
	C662.000793,733.079712 662.008423,693.852234 662.036377,654.624817 
	C662.037292,653.328979 662.390564,652.033386 662.860229,650.450806 
z"/>
<path fill="#AC2222" opacity="1.000000" stroke="none" 
	d="
M856.318359,752.080444 
	C857.031799,751.350708 858.154236,749.804932 859.297302,749.789551 
	C871.790894,749.621094 884.289062,749.606873 896.781372,749.822571 
	C898.097168,749.845337 899.959229,751.327637 900.573914,752.609436 
	C902.365417,756.344971 903.652649,760.322205 905.151062,764.592285 
	C903.420105,761.721252 901.892334,758.317383 899.845764,755.260986 
	C898.707581,753.561035 896.737610,751.290161 895.086121,751.242798 
	C883.435730,750.908569 871.770508,751.061157 860.110535,751.136475 
	C858.984253,751.143738 857.861328,751.682861 856.318359,752.080444 
z"/>
<path fill="#B53737" opacity="1.000000" stroke="none" 
	d="
M1165.857178,661.220032 
	C1165.522217,665.624329 1164.283691,670.171936 1164.251465,674.727966 
	C1164.065308,701.124451 1164.086182,727.523438 1164.252808,753.920227 
	C1164.276367,757.647217 1165.480225,761.366760 1166.200684,765.484863 
	C1165.173950,763.448120 1163.154297,761.023315 1163.135864,758.583435 
	C1162.909180,728.618835 1162.916260,698.651672 1163.076172,668.686340 
	C1163.089233,666.242371 1164.662598,663.806702 1165.857178,661.220032 
z"/>
<path fill="#AC2222" opacity="1.000000" stroke="none" 
	d="
M197.944275,650.494507 
	C198.262421,684.468140 198.257507,718.683167 198.276077,752.898193 
	C198.277237,755.050903 198.461685,757.203552 198.526917,759.868896 
	C197.981064,758.702087 197.026794,757.023621 197.022537,755.342773 
	C196.936996,721.591492 196.954453,687.839966 196.990524,654.088440 
	C196.991714,652.970703 197.405258,651.853394 197.944275,650.494507 
z"/>
<path fill="#9C1316" opacity="1.000000" stroke="none" 
	d="
M653.520020,777.027222 
	C653.981750,777.102600 653.993408,777.528015 653.991272,777.740356 
	C624.627136,777.972473 595.265076,778.002747 565.903076,777.980042 
	C564.460022,777.978943 563.017273,777.515198 561.278442,776.959106 
	C581.221191,776.747620 601.459717,776.858826 621.698425,776.934082 
	C632.151550,776.972961 642.604980,776.947937 653.520020,777.027222 
z"/>
<path fill="#9C1316" opacity="1.000000" stroke="none" 
	d="
M1179.872070,777.042847 
	C1207.658325,776.864258 1235.853394,776.906555 1264.512573,776.988281 
	C1263.567017,777.353516 1262.157837,777.960266 1260.747314,777.963379 
	C1235.375244,778.018494 1210.002930,778.012634 1184.630737,777.966980 
	C1183.180420,777.964417 1181.730835,777.508667 1179.872070,777.042847 
z"/>
<path fill="#9C1316" opacity="1.000000" stroke="none" 
	d="
M213.845657,776.983154 
	C238.315231,776.826721 263.196167,776.885071 288.546936,776.952271 
	C287.615875,777.310242 286.215851,777.959595 284.814026,777.963562 
	C262.739258,778.026001 240.664230,778.020386 218.589386,777.969177 
	C217.144684,777.965820 215.701126,777.466553 213.845657,776.983154 
z"/>
<path fill="#AC2222" opacity="1.000000" stroke="none" 
	d="
M503.959534,650.510071 
	C504.281158,670.665955 504.281158,691.054443 504.281158,712.732056 
	C502.454437,710.466919 501.316895,709.056396 500.099670,707.300903 
	C503.803864,706.895813 502.932831,704.030029 502.940308,701.887634 
	C502.993439,686.617920 502.949921,671.347839 503.002808,656.078125 
	C503.008972,654.298889 503.416443,652.521179 503.959534,650.510071 
z"/>
<path fill="#AC2222" opacity="1.000000" stroke="none" 
	d="
M461.095581,776.453369 
	C460.787811,756.191772 460.787811,735.691345 460.787811,713.675598 
	C462.498627,716.027161 463.311432,717.144348 464.097504,718.655273 
	C463.383881,720.864380 462.119812,722.673889 462.100891,724.496277 
	C461.940430,739.945679 462.026489,755.397522 461.978912,770.848450 
	C461.973389,772.637756 461.604004,774.425903 461.095581,776.453369 
z"/>
<path fill="#9C1316" opacity="1.000000" stroke="none" 
	d="
M955.427002,777.043823 
	C977.168823,776.758362 999.179626,776.777588 1021.676453,776.824097 
	C1020.761414,777.234131 1019.361511,777.945007 1017.958923,777.950317 
	C998.155579,778.025818 978.351990,778.014587 958.548462,777.980286 
	C957.597290,777.978638 956.646729,777.568359 955.427002,777.043823 
z"/>
<path fill="#AC2222" opacity="1.000000" stroke="none" 
	d="
M459.624878,650.079346 
	C449.452515,650.296204 439.171753,650.120667 428.418671,649.925354 
	C428.979034,649.287537 430.002899,648.151184 431.045807,648.133423 
	C439.422028,647.990967 447.802795,647.999146 456.179352,648.135437 
	C457.299805,648.153625 458.404480,649.145874 459.624878,650.079346 
z"/>
<path fill="#AC2222" opacity="1.000000" stroke="none" 
	d="
M655.419250,680.882446 
	C655.127625,670.987122 655.200317,660.935486 655.176208,650.420471 
	C655.712830,650.983215 656.878418,652.000549 656.895691,653.036987 
	C657.037964,661.587341 656.994080,670.141541 656.910461,678.693665 
	C656.903748,679.374817 656.176147,680.048889 655.419250,680.882446 
z"/>
<path fill="#AC2222" opacity="1.000000" stroke="none" 
	d="
M846.109985,776.818115 
	C848.928040,768.840515 852.106262,760.829102 855.590088,752.580444 
	C854.068726,757.918823 852.374817,763.543091 850.358032,769.049133 
	C849.372009,771.741089 847.784973,774.212891 846.109985,776.818115 
z"/>
<path fill="#AC2222" opacity="1.000000" stroke="none" 
	d="
M927.967712,667.409424 
	C928.323792,679.485657 928.363220,691.824707 928.370911,704.643005 
	C927.881226,703.948608 927.035034,702.778137 927.025757,701.601013 
	C926.940979,690.904419 926.992065,680.206543 927.047729,669.509277 
	C927.050964,668.895935 927.441040,668.284607 927.967712,667.409424 
z"/>
<path fill="#9C1316" opacity="1.000000" stroke="none" 
	d="
M400.023895,777.063782 
	C411.676239,777.011963 423.328613,776.960144 435.439240,776.879150 
	C434.179535,777.234680 432.464661,777.935303 430.743073,777.952087 
	C420.770233,778.049683 410.795868,777.986206 400.377197,777.736572 
	C399.932404,777.495911 400.023895,777.063782 400.023895,777.063782 
z"/>
<path fill="#9C1316" opacity="1.000000" stroke="none" 
	d="
M297.513794,777.125549 
	C308.849731,776.878479 320.449585,776.922241 332.553528,777.245972 
	C333.057617,777.525879 333.111115,777.981140 333.111115,777.981140 
	C321.333313,777.792908 309.555481,777.604614 297.513794,777.125549 
z"/>
<path fill="#9C1316" opacity="1.000000" stroke="none" 
	d="
M809.410889,777.256592 
	C820.759827,776.971130 832.401428,776.965088 844.519470,777.233521 
	C844.995850,777.507935 845.003296,777.948669 845.003296,777.948669 
	C833.236755,777.811096 821.470215,777.673523 809.410889,777.256592 
z"/>
<path fill="#9C1316" opacity="1.000000" stroke="none" 
	d="
M912.007019,777.112183 
	C923.331299,777.057800 934.655579,777.003357 946.435364,776.978821 
	C945.163513,777.340637 943.438965,777.942261 941.708435,777.959778 
	C932.121399,778.056946 922.532898,778.011963 912.473511,777.788208 
	C912.002075,777.560730 912.007019,777.112183 912.007019,777.112183 
z"/>
<path fill="#9C1316" opacity="1.000000" stroke="none" 
	d="
M1273.350342,776.926880 
	C1284.002197,776.691895 1294.944946,776.768494 1306.319092,776.754578 
	C1306.397339,777.002197 1306.041992,777.638428 1305.692017,777.635315 
	C1295.008057,777.541687 1284.324829,777.385193 1273.350342,776.926880 
z"/>
<path fill="#9C1316" opacity="1.000000" stroke="none" 
	d="
M663.349121,776.988159 
	C673.727783,776.766174 684.398010,776.851501 695.538086,776.952271 
	C694.278442,777.314758 692.544739,777.979309 690.820374,777.955566 
	C681.759094,777.831360 672.700317,777.533264 663.349121,776.988159 
z"/>
<path fill="#9C1316" opacity="1.000000" stroke="none" 
	d="
M768.389648,777.955444 
	C767.912354,777.928528 767.972717,777.462524 768.010498,777.230652 
	C778.708862,776.935364 789.369324,776.872009 800.497681,776.719360 
	C799.302917,777.087952 797.645569,777.918579 795.977051,777.941467 
	C786.941833,778.065369 777.903870,777.989441 768.389648,777.955444 
z"/>
<path fill="#9C1316" opacity="1.000000" stroke="none" 
	d="
M1351.316406,777.307312 
	C1361.335205,777.015076 1371.683594,776.977295 1382.494629,776.958740 
	C1380.906982,777.320679 1378.855713,777.960083 1376.806396,777.954285 
	C1368.419312,777.930481 1360.032715,777.709839 1351.316406,777.307312 
z"/>
<path fill="#9C1316" opacity="1.000000" stroke="none" 
	d="
M1118.466309,776.966797 
	C1118.927490,776.990356 1118.996826,777.445251 1119.029785,777.671997 
	C1108.602051,777.785889 1098.141357,777.673035 1087.354248,777.307739 
	C1097.353638,777.018005 1107.679443,776.980652 1118.466309,776.966797 
z"/>
<path fill="#B53737" opacity="1.000000" stroke="none" 
	d="
M1265.246826,776.936523 
	C1265.120850,766.930725 1265.312988,756.900085 1265.470459,746.399536 
	C1265.435791,745.929626 1265.859375,746.085266 1266.022461,746.638550 
	C1266.185791,757.049683 1266.186157,766.907532 1266.186523,776.765381 
	C1265.979492,776.814087 1265.772339,776.862793 1265.246826,776.936523 
z"/>
<path fill="#9C1316" opacity="1.000000" stroke="none" 
	d="
M587.816528,691.341553 
	C588.119324,701.070923 588.112366,711.078247 588.128479,721.560608 
	C587.773254,721.324646 587.060608,720.610596 587.067200,719.903259 
	C587.154907,710.474792 587.343384,701.047363 587.816528,691.341553 
z"/>
<path fill="#9C1316" opacity="1.000000" stroke="none" 
	d="
M506.303528,777.159729 
	C516.005371,776.901245 526.019653,776.923462 536.497314,776.977417 
	C533.912048,777.343750 530.862854,777.960938 527.814819,777.955811 
	C520.748291,777.943848 513.682190,777.631104 506.303528,777.159729 
z"/>
<path fill="#AC2222" opacity="1.000000" stroke="none" 
	d="
M1266.421509,776.458130 
	C1266.186157,766.907532 1266.185791,757.049683 1266.213623,746.758301 
	C1266.380127,756.266846 1266.518311,766.208862 1266.421509,776.458130 
z"/>
<path fill="#AC2222" opacity="1.000000" stroke="none" 
	d="
M429.131653,741.174316 
	C431.516235,746.276245 433.831757,751.791382 436.180359,757.693604 
	C431.199799,753.723267 430.411926,747.533691 429.131653,741.174316 
z"/>
<path fill="#AC2222" opacity="1.000000" stroke="none" 
	d="
M1266.211426,651.010620 
	C1266.365356,660.749023 1266.519409,670.487488 1266.428833,680.107666 
	C1266.193359,670.329773 1266.202393,660.670227 1266.211426,651.010620 
z"/>
<path fill="#B53737" opacity="1.000000" stroke="none" 
	d="
M1266.021484,650.988525 
	C1266.202393,660.670227 1266.193359,670.329773 1266.209717,680.450195 
	C1266.044678,680.946350 1265.854248,680.981628 1265.373291,681.025879 
	C1265.229858,671.337646 1265.376587,661.640503 1265.488037,651.480103 
	C1265.452637,651.016907 1265.831665,650.966492 1266.021484,650.988525 
z"/>
<path fill="#9C1316" opacity="1.000000" stroke="none" 
	d="
M1046.006836,651.032166 
	C1046.057495,660.677124 1046.108154,670.322083 1046.175293,680.424622 
	C1045.784912,679.183655 1045.051880,677.490051 1045.026245,675.785767 
	C1044.906738,667.817871 1044.982422,659.846985 1045.252563,651.422424 
	C1045.516846,650.967651 1046.006958,651.032166 1046.006836,651.032166 
z"/>
<path fill="#9C1316" opacity="1.000000" stroke="none" 
	d="
M720.444031,777.962097 
	C719.972717,777.940979 719.980103,777.502258 719.996460,777.283447 
	C727.687195,777.030029 735.361511,776.995483 743.528442,777.226379 
	C744.020935,777.491821 744.052185,777.931335 744.052185,777.931335 
	C736.339905,777.948669 728.627625,777.965942 720.444031,777.962097 
z"/>
<path fill="#AC2222" opacity="1.000000" stroke="none" 
	d="
M905.058228,765.252869 
	C906.727051,768.626221 908.359436,772.409729 910.094971,776.549438 
	C908.472717,773.158142 906.747253,769.410583 905.058228,765.252869 
z"/>
<path fill="#AC2222" opacity="1.000000" stroke="none" 
	d="
M488.007202,689.662476 
	C486.641693,688.288757 485.285614,686.530396 483.857727,684.439453 
	C485.196167,685.830566 486.606384,687.554260 488.007202,689.662476 
z"/>
<path fill="#AC2222" opacity="1.000000" stroke="none" 
	d="
M491.813843,694.923523 
	C490.804077,694.125305 489.857788,692.943970 488.839172,691.439941 
	C489.803650,692.258240 490.840454,693.399353 491.813843,694.923523 
z"/>
<path fill="#AC2222" opacity="1.000000" stroke="none" 
	d="
M440.043213,768.269531 
	C440.701508,769.317932 441.338440,770.758240 441.972107,772.537720 
	C441.319855,771.471680 440.670837,770.066589 440.043213,768.269531 
z"/>
<path fill="#AC2222" opacity="1.000000" stroke="none" 
	d="
M471.821991,666.918823 
	C470.824432,666.112549 469.883301,664.924377 468.875610,663.412109 
	C469.832153,664.237610 470.855286,665.387268 471.821991,666.918823 
z"/>
<path fill="#AC2222" opacity="1.000000" stroke="none" 
	d="
M438.045959,763.268433 
	C438.752533,764.330627 439.433197,765.793030 440.115234,767.610107 
	C439.417786,766.532715 438.718903,765.100708 438.045959,763.268433 
z"/>
<path fill="#AC2222" opacity="1.000000" stroke="none" 
	d="
M436.171082,758.661926 
	C436.854614,759.561951 437.477905,760.888794 438.114349,762.587036 
	C437.455261,761.668518 436.783020,760.378601 436.171082,758.661926 
z"/>
<path fill="#AC2222" opacity="1.000000" stroke="none" 
	d="
M547.688721,660.085449 
	C547.557617,661.228882 547.073730,662.465088 546.342529,663.926270 
	C546.508850,662.826843 546.922363,661.502563 547.688721,660.085449 
z"/>
<path fill="#AC2222" opacity="1.000000" stroke="none" 
	d="
M546.209534,763.606323 
	C546.858398,764.220032 547.438538,765.241638 548.063354,766.617920 
	C547.452209,765.986511 546.796509,765.000366 546.209534,763.606323 
z"/>
<path fill="#AC2222" opacity="1.000000" stroke="none" 
	d="
M548.053101,767.250549 
	C548.722717,767.672607 549.395264,768.458435 550.165955,769.544067 
	C549.528137,769.100708 548.792053,768.357483 548.053101,767.250549 
z"/>
<path fill="#AC2222" opacity="1.000000" stroke="none" 
	d="
M552.146790,772.094727 
	C552.951172,772.303467 553.773193,772.844299 554.667969,773.670959 
	C553.882019,773.446838 553.023193,772.936890 552.146790,772.094727 
z"/>
<path fill="#B53737" opacity="1.000000" stroke="none" 
	d="
M1176.283203,651.156860 
	C1175.735474,651.847900 1174.783569,652.481079 1173.490234,653.179871 
	C1174.058960,652.529968 1174.968994,651.814392 1176.283203,651.156860 
z"/>
<path fill="#AC2222" opacity="1.000000" stroke="none" 
	d="
M483.894043,683.836975 
	C483.195343,683.407043 482.521362,682.604126 481.770630,681.488403 
	C482.435486,681.938416 483.177124,682.701233 483.894043,683.836975 
z"/>
<path fill="#B53737" opacity="1.000000" stroke="none" 
	d="
M1167.831421,658.063110 
	C1167.688110,658.941223 1167.188110,659.891541 1166.412598,661.011475 
	C1166.582886,660.165833 1167.028809,659.150574 1167.831421,658.063110 
z"/>
<path fill="#AC2222" opacity="1.000000" stroke="none" 
	d="
M480.953705,679.752075 
	C480.262482,679.318298 479.586639,678.522583 478.846863,677.411133 
	C479.511627,677.860291 480.240356,678.625244 480.953705,679.752075 
z"/>
<path fill="#AC2222" opacity="1.000000" stroke="none" 
	d="
M549.750977,657.090149 
	C549.576111,657.927246 549.058472,658.822937 548.273804,659.885132 
	C548.473999,659.083984 548.941162,658.116333 549.750977,657.090149 
z"/>
<path fill="#AC2222" opacity="1.000000" stroke="none" 
	d="
M475.948151,672.757751 
	C475.271393,672.324524 474.600037,671.528259 473.851959,670.420044 
	C474.501343,670.870300 475.227417,671.632507 475.948151,672.757751 
z"/>
<path fill="#AC2222" opacity="1.000000" stroke="none" 
	d="
M463.896210,655.831177 
	C463.191925,655.412659 462.510681,654.620728 461.746765,653.518677 
	C462.415802,653.958313 463.167542,654.708069 463.896210,655.831177 
z"/>
<path fill="#AC2222" opacity="1.000000" stroke="none" 
	d="
M555.782959,652.071472 
	C555.323242,652.761841 554.490295,653.440186 553.340393,654.211548 
	C553.818909,653.556274 554.614380,652.807861 555.782959,652.071472 
z"/>
<path fill="#AC2222" opacity="1.000000" stroke="none" 
	d="
M465.956573,658.738892 
	C465.273712,658.309021 464.597107,657.517822 463.852051,656.413330 
	C464.510040,656.859192 465.236420,657.618469 465.956573,658.738892 
z"/>
<path fill="#AC2222" opacity="1.000000" stroke="none" 
	d="
M495.951599,700.753906 
	C495.273254,700.323975 494.601135,699.531311 493.848633,698.427734 
	C494.498108,698.875000 495.227966,699.633179 495.951599,700.753906 
z"/>
<path fill="#AC2222" opacity="1.000000" stroke="none" 
	d="
M911.684570,777.017700 
	C912.007019,777.112183 912.002075,777.560730 912.005371,777.785095 
	C911.459351,777.774048 910.910034,777.538635 910.191223,777.044556 
	C910.468567,776.831665 910.915344,776.877441 911.684570,777.017700 
z"/>
<path fill="#B53737" opacity="1.000000" stroke="none" 
	d="
M1170.210938,655.555054 
	C1170.176636,655.981628 1169.828491,656.425598 1169.215088,656.976318 
	C1169.265625,656.579529 1169.581299,656.075928 1170.210938,655.555054 
z"/>
<path fill="#B53737" opacity="1.000000" stroke="none" 
	d="
M1166.177979,766.100769 
	C1166.560669,766.237183 1166.934448,766.699829 1167.362549,767.469727 
	C1167.000977,767.327026 1166.585205,766.877014 1166.177979,766.100769 
z"/>
<path fill="#AC2222" opacity="1.000000" stroke="none" 
	d="
M477.955505,675.728760 
	C477.591492,675.597229 477.181091,675.152039 476.719666,674.395508 
	C477.082184,674.527771 477.495667,674.971436 477.955505,675.728760 
z"/>
<path fill="#B53737" opacity="1.000000" stroke="none" 
	d="
M1178.976562,650.334961 
	C1178.723389,650.667542 1178.136719,650.922791 1177.217651,651.167358 
	C1177.471191,650.856995 1178.057251,650.557312 1178.976562,650.334961 
z"/>
<path fill="#AC2222" opacity="1.000000" stroke="none" 
	d="
M472.947937,668.741333 
	C472.592560,668.610413 472.187469,668.164612 471.707703,667.415405 
	C472.054749,667.550232 472.476471,667.988403 472.947937,668.741333 
z"/>
<path fill="#B53737" opacity="1.000000" stroke="none" 
	d="
M333.389404,777.908936 
	C333.111115,777.981140 333.057617,777.525879 333.018066,777.300171 
	C333.337891,776.928711 333.697296,776.782959 334.343353,776.585083 
	C334.309235,776.967529 333.988464,777.402161 333.389404,777.908936 
z"/>
<path fill="#AC2222" opacity="1.000000" stroke="none" 
	d="
M557.848450,651.103638 
	C557.661072,651.431946 557.151428,651.773926 556.322510,652.140991 
	C556.510864,651.816467 557.018555,651.466858 557.848450,651.103638 
z"/>
<path fill="#AC2222" opacity="1.000000" stroke="none" 
	d="
M467.953857,661.726562 
	C467.599304,661.589966 467.195465,661.141846 466.731934,660.385437 
	C467.083038,660.523132 467.493835,660.969055 467.953857,661.726562 
z"/>
<path fill="#AC2222" opacity="1.000000" stroke="none" 
	d="
M499.979370,706.687866 
	C499.646973,706.538879 499.255951,706.087708 498.819885,705.331970 
	C499.156799,705.480225 499.538788,705.932922 499.979370,706.687866 
z"/>
<path fill="#B53737" opacity="1.000000" stroke="none" 
	d="
M1171.774170,654.076965 
	C1171.741089,654.467712 1171.396729,654.891418 1170.791016,655.427368 
	C1170.840698,655.063049 1171.151733,654.586487 1171.774170,654.076965 
z"/>
<path fill="#AC2222" opacity="1.000000" stroke="none" 
	d="
M492.936523,696.757751 
	C492.572754,696.627197 492.162781,696.179443 491.687164,695.422729 
	C492.044464,695.556091 492.467407,695.998291 492.936523,696.757751 
z"/>
<path fill="#AC2222" opacity="1.000000" stroke="none" 
	d="
M460.914948,651.794678 
	C460.540283,651.690857 460.123047,651.267517 459.610260,650.550598 
	C459.967255,650.663025 460.419830,651.069153 460.914948,651.794678 
z"/>
<path fill="#AC2222" opacity="1.000000" stroke="none" 
	d="
M560.328735,650.156616 
	C560.055054,650.487061 559.398743,650.817383 558.362183,651.154541 
	C558.636658,650.826416 559.291321,650.491455 560.328735,650.156616 
z"/>
<path fill="#AC2222" opacity="1.000000" stroke="none" 
	d="
M498.862152,704.876770 
	C498.456665,704.789612 498.031494,704.369263 497.517456,703.648254 
	C497.899872,703.746277 498.371185,704.144958 498.862152,704.876770 
z"/>
<path fill="#AC2222" opacity="1.000000" stroke="none" 
	d="
M550.854248,656.126587 
	C550.906982,656.316650 550.730713,656.635315 550.279419,657.021973 
	C550.211365,656.811707 550.418274,656.533386 550.854248,656.126587 
z"/>
<path fill="#B53737" opacity="1.000000" stroke="none" 
	d="
M744.237305,777.772644 
	C744.052185,777.931335 744.020935,777.491821 743.992737,777.273315 
	C743.964539,777.054871 744.351135,776.794495 744.582397,776.764587 
	C744.789612,777.075134 744.659180,777.368225 744.237305,777.772644 
z"/>
<path fill="#AC2222" opacity="1.000000" stroke="none" 
	d="
M461.766357,653.069458 
	C461.562592,653.090149 461.269867,652.839417 460.935242,652.290527 
	C461.154694,652.260925 461.416046,652.529541 461.766357,653.069458 
z"/>
<path fill="#AC2222" opacity="1.000000" stroke="none" 
	d="
M845.212219,777.796875 
	C845.003296,777.948669 844.995850,777.507935 844.983521,777.287903 
	C844.971252,777.067871 845.405884,776.827637 845.650452,776.779907 
	C845.737061,777.036499 845.579102,777.340820 845.212219,777.796875 
z"/>
<path fill="#B53737" opacity="1.000000" stroke="none" 
	d="
M1172.989502,653.209839 
	C1173.030518,653.431091 1172.804199,653.720276 1172.294800,654.050476 
	C1172.248535,653.820251 1172.485229,653.549011 1172.989502,653.209839 
z"/>
<path fill="#AC2222" opacity="1.000000" stroke="none" 
	d="
M551.957031,655.108887 
	C551.992798,655.300964 551.777588,655.617920 551.278809,656.008606 
	C551.232178,655.799500 551.469116,655.516602 551.957031,655.108887 
z"/>
<path fill="#AC2222" opacity="1.000000" stroke="none" 
	d="
M466.786957,660.043945 
	C466.567963,660.076477 466.265747,659.836853 465.932495,659.296631 
	C466.168854,659.254578 466.436279,659.513184 466.786957,660.043945 
z"/>
<path fill="#AC2222" opacity="1.000000" stroke="none" 
	d="
M468.850220,662.951111 
	C468.651276,662.984863 468.350250,662.769409 468.009430,662.268311 
	C468.229126,662.222473 468.488647,662.462219 468.850220,662.951111 
z"/>
<path fill="#B53737" opacity="1.000000" stroke="none" 
	d="
M399.783508,776.968140 
	C400.023895,777.063782 399.932404,777.495911 399.900818,777.713745 
	C399.609650,777.768005 399.390900,777.561218 399.119568,777.102356 
	C399.198425,776.886414 399.370789,776.879456 399.783508,776.968140 
z"/>
<path fill="#AC2222" opacity="1.000000" stroke="none" 
	d="
M473.835236,669.978088 
	C473.638977,670.006897 473.339722,669.782593 472.996643,669.270142 
	C473.212616,669.229614 473.472412,669.477356 473.835236,669.978088 
z"/>
<path fill="#AC2222" opacity="1.000000" stroke="none" 
	d="
M551.193054,771.007324 
	C551.395935,770.952759 551.729919,771.157288 552.159302,771.648926 
	C551.944519,771.712769 551.634338,771.489563 551.193054,771.007324 
z"/>
<path fill="#AC2222" opacity="1.000000" stroke="none" 
	d="
M550.216736,769.977905 
	C550.420593,769.929993 550.745605,770.146851 551.160400,770.652893 
	C550.946045,770.708923 550.641968,770.475830 550.216736,769.977905 
z"/>
<path fill="#B53737" opacity="1.000000" stroke="none" 
	d="
M1167.339844,767.914185 
	C1167.561279,767.871094 1167.850830,768.119019 1168.229736,768.649414 
	C1168.015381,768.689636 1167.711792,768.447449 1167.339844,767.914185 
z"/>
<path fill="#AC2222" opacity="1.000000" stroke="none" 
	d="
M476.783264,674.044067 
	C476.571320,674.075684 476.268463,673.835999 475.920349,673.297791 
	C476.147522,673.257080 476.419952,673.514954 476.783264,674.044067 
z"/>
<path fill="#AC2222" opacity="1.000000" stroke="none" 
	d="
M478.841370,676.971985 
	C478.639832,677.003906 478.340973,676.781311 478.003540,676.270386 
	C478.224609,676.227173 478.484314,676.472290 478.841370,676.971985 
z"/>
<path fill="#AC2222" opacity="1.000000" stroke="none" 
	d="
M481.791534,681.038513 
	C481.574951,681.071960 481.265991,680.836609 480.924805,680.299500 
	C481.161438,680.255066 481.430298,680.512390 481.791534,681.038513 
z"/>
<path fill="#B53737" opacity="1.000000" stroke="none" 
	d="
M1046.130127,650.844116 
	C1046.006958,651.032166 1045.516846,650.967651 1045.270752,650.949768 
	C1045.222778,650.664429 1045.471313,650.457214 1046.008911,650.258362 
	C1046.247803,650.206604 1046.253174,650.656067 1046.130127,650.844116 
z"/>
<path fill="#AC2222" opacity="1.000000" stroke="none" 
	d="
M488.827576,690.993164 
	C488.635254,691.017151 488.344391,690.784973 488.004822,690.267334 
	C488.213776,690.233521 488.471405,690.485291 488.827576,690.993164 
z"/>
<path fill="#AC2222" opacity="1.000000" stroke="none" 
	d="
M493.823853,697.992310 
	C493.625427,698.021667 493.324066,697.794434 492.975891,697.278015 
	C493.193054,697.237793 493.456970,697.486694 493.823853,697.992310 
z"/>
<path fill="#AC2222" opacity="1.000000" stroke="none" 
	d="
M496.792084,702.036377 
	C496.584381,702.068298 496.281647,701.831299 495.928955,701.296265 
	C496.151672,701.254639 496.424377,701.510986 496.792084,702.036377 
z"/>
<path fill="#AC2222" opacity="1.000000" stroke="none" 
	d="
M497.581390,703.180786 
	C497.343506,703.209229 497.057556,702.941406 496.729126,702.370972 
	C496.968842,702.340515 497.251068,702.612549 497.581390,703.180786 
z"/>
<path fill="#DC1E20" opacity="1.000000" stroke="none" 
	d="
M1310.206055,690.876160 
	C1308.712646,689.963989 1307.073120,689.196777 1306.824341,688.111023 
	C1306.355713,686.065552 1306.689087,683.836426 1306.689087,681.353638 
	C1321.172363,681.353638 1335.380737,681.353638 1349.884033,681.353638 
	C1349.884033,684.317993 1349.884033,687.240112 1349.884033,690.877258 
	C1336.833862,690.877258 1323.760742,690.877258 1310.206055,690.876160 
z"/>
<path fill="#DC1E20" opacity="1.000000" stroke="none" 
	d="
M873.723206,707.270020 
	C873.723206,707.270020 873.698792,707.181763 874.010254,706.940918 
	C874.467651,706.055725 874.613647,705.411377 874.759644,704.767029 
	C874.759644,704.767029 874.808533,704.882507 875.056274,704.706665 
	C875.779602,702.935669 876.255310,701.340393 876.730957,699.745117 
	C876.730896,699.745117 876.722717,699.906433 877.133423,699.888000 
	C878.124207,699.843567 878.704163,699.817627 879.284180,699.791626 
	C879.284180,699.791626 879.176514,699.930542 879.161621,700.171509 
	C879.486694,700.930420 879.826599,701.448364 880.166443,701.966309 
	C880.166443,701.966309 880.077881,701.932617 880.049927,702.245667 
	C880.447205,703.345703 880.872498,704.132690 881.297791,704.919678 
	C881.297791,704.919678 881.176208,704.889099 881.130981,705.204712 
	C881.836426,706.972778 882.587036,708.425293 883.337646,709.877808 
	C883.337646,709.877808 883.216248,709.855713 883.188232,710.123657 
	C883.488831,710.921997 883.817505,711.452454 884.146179,711.982910 
	C884.146179,711.982910 884.060486,711.949768 884.034180,712.263062 
	C884.443359,713.353394 884.878784,714.130493 885.314209,714.907593 
	C885.314209,714.907593 885.219482,714.873718 885.035156,715.188599 
	C880.592529,717.942078 873.671082,717.604431 870.765930,714.816528 
	C870.765930,714.816528 870.827881,714.907898 871.076294,714.692688 
	C871.482483,713.755554 871.640381,713.033569 871.798218,712.311646 
	C871.798218,712.311646 871.764221,712.243896 872.056519,711.984131 
	C872.488525,711.068665 872.628174,710.412964 872.767822,709.757263 
	C872.767822,709.757263 872.832581,709.889099 873.056030,709.666626 
	C873.427429,708.719421 873.575317,707.994751 873.723206,707.270020 
z"/>
<path fill="#B53737" opacity="1.000000" stroke="none" 
	d="
M870.471924,715.082397 
	C873.671082,717.604431 880.592529,717.942078 885.061523,715.145813 
	C885.594116,715.337585 885.981018,715.861084 886.215576,716.445618 
	C886.378601,716.851929 886.332214,717.342224 886.401672,718.009888 
	C880.709595,718.009888 875.186890,718.009888 869.419312,718.009888 
	C869.737427,716.893799 869.957642,716.121033 870.471924,715.082397 
z"/>
<path fill="#B53737" opacity="1.000000" stroke="none" 
	d="
M883.319763,709.516663 
	C882.587036,708.425293 881.836426,706.972778 881.154541,705.146606 
	C881.916138,706.233826 882.609009,707.694641 883.319763,709.516663 
z"/>
<path fill="#B53737" opacity="1.000000" stroke="none" 
	d="
M876.453857,699.963013 
	C876.255310,701.340393 875.779602,702.935669 874.995483,704.722290 
	C875.183655,703.336060 875.680237,701.758484 876.453857,699.963013 
z"/>
<path fill="#B53737" opacity="1.000000" stroke="none" 
	d="
M879.273560,699.437439 
	C878.704163,699.817627 878.124207,699.843567 877.111755,699.810181 
	C876.924622,698.877197 877.169861,698.003540 877.610352,696.434448 
	C878.391296,697.686218 878.827087,698.384766 879.273560,699.437439 
z"/>
<path fill="#B53737" opacity="1.000000" stroke="none" 
	d="
M885.311890,714.563721 
	C884.878784,714.130493 884.443359,713.353394 884.053711,712.221436 
	C884.502869,712.651001 884.906250,713.435425 885.311890,714.563721 
z"/>
<path fill="#B53737" opacity="1.000000" stroke="none" 
	d="
M881.293701,704.575500 
	C880.872498,704.132690 880.447205,703.345703 880.070435,702.203003 
	C880.509155,702.641968 880.899353,703.436646 881.293701,704.575500 
z"/>
<path fill="#B53737" opacity="1.000000" stroke="none" 
	d="
M873.444092,707.518433 
	C873.575317,707.994751 873.427429,708.719421 872.986938,709.691345 
	C872.851196,709.214600 873.008118,708.490723 873.444092,707.518433 
z"/>
<path fill="#B53737" opacity="1.000000" stroke="none" 
	d="
M880.179077,701.646118 
	C879.826599,701.448364 879.486694,700.930420 879.192444,700.089233 
	C879.555908,700.285950 879.873779,700.805969 880.179077,701.646118 
z"/>
<path fill="#B53737" opacity="1.000000" stroke="none" 
	d="
M874.484985,704.964783 
	C874.613647,705.411377 874.467651,706.055725 874.047241,706.914001 
	C873.918762,706.472778 874.064575,705.817688 874.484985,704.964783 
z"/>
<path fill="#B53737" opacity="1.000000" stroke="none" 
	d="
M872.502625,709.974121 
	C872.628174,710.412964 872.488525,711.068665 872.083740,711.957642 
	C871.958191,711.524292 872.097839,710.857605 872.502625,709.974121 
z"/>
<path fill="#B53737" opacity="1.000000" stroke="none" 
	d="
M871.503601,712.545776 
	C871.640381,713.033569 871.482483,713.755554 871.026611,714.716675 
	C870.888672,714.230591 871.048828,713.505249 871.503601,712.545776 
z"/>
<path fill="#B53737" opacity="1.000000" stroke="none" 
	d="
M884.160278,711.661255 
	C883.817505,711.452454 883.488831,710.921997 883.209778,710.065796 
	C883.564392,710.273254 883.869446,710.806458 884.160278,711.661255 
z"/>
<path fill="#B53737" opacity="1.000000" stroke="none" 
	d="
M372.503967,710.419312 
	C373.539825,713.041199 374.405762,715.310486 375.434113,718.005371 
	C369.414246,718.005371 363.891937,718.005371 357.740112,718.005371 
	C360.615692,710.698242 363.364410,703.713440 366.514832,695.707825 
	C368.692322,701.080750 370.513153,705.573669 372.503967,710.419312 
M370.161926,708.387085 
	C369.141052,706.250000 368.120178,704.112854 367.099274,701.975769 
	C366.608582,702.008606 366.117889,702.041443 365.627197,702.074280 
	C364.164429,706.046082 362.573853,709.979492 361.359375,714.025818 
	C361.146149,714.736206 362.435120,716.682007 363.158630,716.753174 
	C366.289398,717.061218 369.467773,716.885132 373.355591,716.885132 
	C372.069519,713.406555 371.271759,711.248779 370.161926,708.387085 
z"/>
<path fill="#DC1E20" opacity="1.000000" stroke="none" 
	d="
M370.317963,708.739014 
	C371.271759,711.248779 372.069519,713.406555 373.355591,716.885132 
	C369.467773,716.885132 366.289398,717.061218 363.158630,716.753174 
	C362.435120,716.682007 361.146149,714.736206 361.359375,714.025818 
	C362.573853,709.979492 364.164429,706.046082 365.627197,702.074280 
	C366.117889,702.041443 366.608582,702.008606 367.099274,701.975769 
	C368.120178,704.112854 369.141052,706.250000 370.317963,708.739014 
z"/>
</svg>