<svg width="40" height="40" viewBox="0 0 40 40" fill="none" xmlns="http://www.w3.org/2000/svg">
<circle cx="20" cy="20" r="20" fill="white"/>
<path d="M21.25 14.5113V25.4903C21.25 26.6783 20.58 27.7253 19.501 28.2213C19.094 28.4093 18.665 28.5003 18.24 28.5003C17.543 28.5003 16.857 28.2523 16.299 27.7733L13.705 25.5474C13.614 25.4694 13.499 25.4263 13.381 25.4263L12.643 25.4254C11.324 25.4244 10.25 24.3472 10.25 23.0252V16.9744C10.25 15.6534 11.323 14.5773 12.642 14.5743L13.381 14.5733C13.499 14.5723 13.614 14.5302 13.704 14.4532L16.3 12.2264C17.198 11.4554 18.428 11.2834 19.501 11.7794C20.58 12.2754 21.25 13.3213 21.25 14.5113ZM24.547 16.3963C24.213 15.9583 23.586 15.8694 23.146 16.2044C22.706 16.5384 22.62 17.1653 22.954 17.6053C23.475 18.2923 23.751 19.1213 23.751 20.0013C23.751 20.8813 23.476 21.7103 22.954 22.3973C22.62 22.8373 22.706 23.4644 23.146 23.7984C23.327 23.9354 23.54 24.0013 23.75 24.0013C24.053 24.0013 24.351 23.8643 24.548 23.6053C25.335 22.5683 25.751 21.3213 25.751 20.0013C25.751 18.6813 25.334 17.4333 24.547 16.3963ZM27.193 13.3314C26.823 12.9204 26.192 12.8884 25.781 13.2574C25.371 13.6264 25.337 14.2582 25.707 14.6692C27.024 16.1342 27.75 18.0273 27.75 20.0003C27.75 21.9733 27.024 23.8664 25.707 25.3314C25.337 25.7424 25.371 26.3742 25.781 26.7432C25.972 26.9152 26.212 27.0003 26.45 27.0003C26.723 27.0003 26.996 26.8892 27.193 26.6692C28.841 24.8362 29.75 22.4673 29.75 20.0003C29.75 17.5333 28.842 15.1644 27.193 13.3314Z" fill="#21242D"/>
</svg>
