<svg width="40" height="40" viewBox="0 0 40 40" fill="none" xmlns="http://www.w3.org/2000/svg">
<circle cx="20" cy="20" r="20" fill="white"/>
<path d="M19.8555 11.5515C18.6905 11.0155 17.3605 11.2024 16.3865 12.0374L13.7905 14.2634C13.7465 14.3024 13.6895 14.3235 13.6295 14.3235L12.8915 14.3244C11.4345 14.3264 10.2495 15.5155 10.2495 16.9745V23.0255C10.2495 24.4845 11.4355 25.6735 12.8925 25.6755L13.6285 25.6765C13.6895 25.6765 13.7465 25.6974 13.7915 25.7364L16.3855 27.9625C16.9905 28.4825 17.7345 28.7505 18.4895 28.7505C18.9495 28.7505 19.4135 28.6515 19.8545 28.4485C21.0235 27.9105 21.7495 26.7775 21.7495 25.4895V14.5105C21.7505 13.2225 21.0245 12.0885 19.8555 11.5515ZM20.2505 25.4895C20.2505 26.1955 19.8685 26.7914 19.2295 27.0854C18.5915 27.3784 17.8955 27.2795 17.3635 26.8235L14.7705 24.5985C14.4545 24.3275 14.0505 24.1775 13.6325 24.1765L12.8955 24.1755C12.2645 24.1745 11.7505 23.6585 11.7505 23.0255V16.9745C11.7505 16.3415 12.2635 15.8254 12.8955 15.8244L13.6325 15.8235C14.0495 15.8235 14.4525 15.6734 14.7695 15.4024L17.3645 13.1775C17.6945 12.8945 18.0875 12.7495 18.4895 12.7495C18.7375 12.7495 18.9885 12.8045 19.2295 12.9155C19.8695 13.2095 20.2505 13.8064 20.2505 14.5124V25.4895ZM24.5985 16.5465C25.3525 17.5405 25.7505 18.7345 25.7505 20.0005C25.7505 21.2665 25.3525 22.4604 24.5985 23.4544C24.4515 23.6484 24.2265 23.7505 23.9995 23.7505C23.8425 23.7505 23.6835 23.7005 23.5475 23.5985C23.2175 23.3485 23.1525 22.8775 23.4025 22.5475C23.9575 21.8175 24.2505 20.9364 24.2505 20.0014C24.2505 19.0664 23.9575 18.1854 23.4025 17.4554C23.1525 17.1254 23.2165 16.6545 23.5475 16.4045C23.8795 16.1525 24.3485 16.2175 24.5985 16.5465ZM29.7505 20.0005C29.7505 22.4055 28.8655 24.7144 27.2585 26.5014C27.1105 26.6664 26.9055 26.7505 26.7005 26.7505C26.5215 26.7505 26.3425 26.6874 26.1985 26.5584C25.8905 26.2814 25.8655 25.8075 26.1425 25.4995C27.5015 23.9885 28.2495 22.0355 28.2495 20.0005C28.2495 17.9655 27.5015 16.0134 26.1425 14.5014C25.8655 14.1934 25.8905 13.7195 26.1985 13.4425C26.5065 13.1645 26.9795 13.1905 27.2585 13.4985C28.8655 15.2855 29.7505 17.5945 29.7505 20.0005Z" fill="#21242D"/>
<path d="M26.346 28C26.2601 28.0001 26.1749 27.9842 26.0956 27.9533C26.0162 27.9223 25.9441 27.8768 25.8835 27.8195L10.18 13.04C10.0624 12.9235 9.99787 12.7685 10.0001 12.6079C10.0022 12.4473 10.071 12.2939 10.1916 12.1804C10.3123 12.0668 10.4753 12.0021 10.6459 12.0001C10.8166 11.998 10.9813 12.0587 11.105 12.1694L26.8085 26.9489C26.9 27.035 26.9622 27.1447 26.9874 27.2641C27.0127 27.3835 26.9997 27.5073 26.9502 27.6198C26.9007 27.7323 26.8169 27.8285 26.7093 27.8961C26.6018 27.9638 26.4754 27.9999 26.346 28V28Z" fill="#21242D" stroke="#21242D"/>
</svg>
