<svg width="24" height="24" viewBox="0 0 24 24" fill="none" xmlns="http://www.w3.org/2000/svg">
<path d="M12 20.8029L7.36854 23.2379C5.48394 24.2288 3.28112 22.6284 3.64111 20.5298L4.52557 15.3724L0.778559 11.72C-0.746043 10.2339 0.0951696 7.64443 2.20226 7.3384L7.38036 6.58589L9.69628 1.89344C10.6384 -0.0159133 13.3612 -0.0159133 14.3034 1.89344L16.6193 6.58589L21.7977 7.3384C23.9048 7.64443 24.746 10.2339 23.2214 11.72L19.4744 15.3724L20.3589 20.5298C20.7189 22.6284 18.5161 24.2288 16.6315 23.2379L12 20.8029Z" fill="#EA974D"/>
<path d="M13.3234 13.6035H10.8559C10.6519 13.6035 10.4863 13.4379 10.4863 13.2339C10.4863 13.0298 10.6519 12.8643 10.8559 12.8643H13.3234C13.5274 12.8643 13.693 13.0298 13.693 13.2339C13.693 13.4379 13.5274 13.6035 13.3234 13.6035Z" fill="#11113D"/>
<path d="M8.21665 13.1545C8.97946 13.1545 9.59784 12.446 9.59784 11.5719C9.59784 10.6978 8.97946 9.98926 8.21665 9.98926C7.45383 9.98926 6.83545 10.6978 6.83545 11.5719C6.83545 12.446 7.45383 13.1545 8.21665 13.1545Z" fill="#11113D"/>
<path d="M15.7835 13.1545C16.5464 13.1545 17.1647 12.446 17.1647 11.5719C17.1647 10.6978 16.5464 9.98926 15.7835 9.98926C15.0207 9.98926 14.4023 10.6978 14.4023 11.5719C14.4023 12.446 15.0207 13.1545 15.7835 13.1545Z" fill="#11113D"/>
<path d="M7.27017 9.16321C7.11605 9.16321 6.97191 9.06601 6.91979 8.91152C6.85474 8.71821 6.9586 8.50865 7.15153 8.44323C7.35703 8.37338 9.18692 7.78276 10.0418 8.4388C10.2037 8.56298 10.2344 8.79509 10.1102 8.95698C9.98599 9.11923 9.75389 9.14954 9.592 9.02536C9.20244 8.72635 8.06851 8.91484 7.3877 9.14363C7.3489 9.1573 7.30898 9.16321 7.27017 9.16321Z" fill="#11113D"/>
<path d="M16.7301 9.16317C16.6913 9.16317 16.6514 9.15689 16.6122 9.14395C15.9314 8.9148 14.7971 8.72667 14.4079 9.02568C14.2461 9.1495 14.014 9.11919 13.8898 8.9573C13.7656 8.79542 13.7963 8.56331 13.9581 8.43912C14.813 7.78345 16.6429 8.3737 16.8484 8.44356C17.0417 8.50861 17.1456 8.71817 17.0802 8.91184C17.0284 9.06596 16.8843 9.16317 16.7301 9.16317Z" fill="#11113D"/>
</svg>
