<svg width="40" height="40" viewBox="0 0 40 40" fill="none" xmlns="http://www.w3.org/2000/svg">
<circle cx="20" cy="20" r="20" fill="white"/>
<path d="M18.156 28.0939H15.8123C15.6051 28.0939 15.4063 28.0116 15.2598 27.8651C15.1133 27.7186 15.031 27.5199 15.031 27.3127V11.6877C15.031 11.4805 15.1133 11.2818 15.2598 11.1353C15.4063 10.9887 15.6051 10.9064 15.8123 10.9064H18.156C18.3632 10.9064 18.5619 10.9887 18.7084 11.1353C18.8549 11.2818 18.9373 11.4805 18.9373 11.6877V27.3127C18.9373 27.5199 18.8549 27.7186 18.7084 27.8651C18.5619 28.0116 18.3632 28.0939 18.156 28.0939Z" fill="#219F94"/>
<path d="M25.1892 28.0939H22.8455C22.6383 28.0939 22.4395 28.0116 22.293 27.8651C22.1465 27.7186 22.0642 27.5199 22.0642 27.3127V11.6877C22.0642 11.4805 22.1465 11.2818 22.293 11.1353C22.4395 10.9887 22.6383 10.9064 22.8455 10.9064H25.1892C25.3964 10.9064 25.5951 10.9887 25.7416 11.1353C25.8881 11.2818 25.9705 11.4805 25.9705 11.6877V27.3127C25.9705 27.5199 25.8881 27.7186 25.7416 27.8651C25.5951 28.0116 25.3964 28.0939 25.1892 28.0939Z" fill="#219F94"/>
</svg>
