<svg width="50" height="50" viewBox="0 0 50 50" fill="none" xmlns="http://www.w3.org/2000/svg">
<path d="M32.8947 0H17.1053C7.68421 0 0 7.68421 0 17.1053V32.8947C0 42.3158 7.68421 50 17.1053 50H32.8947C42.3158 50 50 42.3158 50 32.8947V17.1053C50 7.68421 42.3158 0 32.8947 0ZM35.5263 27.6316H27.6316V35.5263C27.6316 36.9737 26.4474 38.1579 25 38.1579C23.5526 38.1579 22.3684 36.9737 22.3684 35.5263V27.6316H14.4737C13.0263 27.6316 11.8421 26.4474 11.8421 25C11.8421 23.5526 13.0263 22.3684 14.4737 22.3684H22.3684V14.4737C22.3684 13.0263 23.5526 11.8421 25 11.8421C26.4474 11.8421 27.6316 13.0263 27.6316 14.4737V22.3684H35.5263C36.9737 22.3684 38.1579 23.5526 38.1579 25C38.1579 26.4474 36.9737 27.6316 35.5263 27.6316Z" fill="url(#paint0_linear_45_647)"/>
<defs>
<linearGradient id="paint0_linear_45_647" x1="9.2" y1="8.6" x2="39.2" y2="41.8" gradientUnits="userSpaceOnUse">
<stop stop-color="#C1DEAE"/>
<stop offset="1" stop-color="#219F94"/>
</linearGradient>
</defs>
</svg>
