<svg width="16" height="20" viewBox="0 0 16 20" fill="none" xmlns="http://www.w3.org/2000/svg">
<path d="M12.75 7.59302V5C12.75 2.381 10.619 0.25 8 0.25C5.381 0.25 3.25 2.381 3.25 5V7.59399C1.496 8.29299 0.25 10 0.25 12V15C0.25 17.619 2.381 19.75 5 19.75H11C13.619 19.75 15.75 17.619 15.75 15V12C15.75 10 14.504 8.29202 12.75 7.59302ZM4.75 5C4.75 3.208 6.208 1.75 8 1.75C9.792 1.75 11.25 3.208 11.25 5V7.27502C11.165 7.27002 11.086 7.25 11 7.25H5C4.914 7.25 4.835 7.27102 4.75 7.27502V5ZM14.25 15C14.25 16.792 12.792 18.25 11 18.25H5C3.208 18.25 1.75 16.792 1.75 15V12C1.75 10.208 3.208 8.75 5 8.75H11C12.792 8.75 14.25 10.208 14.25 12V15ZM8.75 13V14C8.75 14.414 8.414 14.75 8 14.75C7.586 14.75 7.25 14.414 7.25 14V13C7.25 12.586 7.586 12.25 8 12.25C8.414 12.25 8.75 12.586 8.75 13Z" fill="#BDBDBD"/>
</svg>
