<svg width="24" height="23" viewBox="0 0 24 23" fill="none" xmlns="http://www.w3.org/2000/svg">
<path d="M11.9998 20.2734L7.36842 22.7002C5.48386 23.6878 3.28108 22.0927 3.64106 20.0012L4.5255 14.861L0.778548 11.2209C-0.746031 9.7397 0.095166 7.15895 2.20223 6.85394L7.38062 6.10395L9.6965 1.42722C10.6386 -0.475741 13.3614 -0.475741 14.3035 1.42722L16.6194 6.10395L21.7978 6.85394C23.9048 7.15895 24.746 9.7397 23.2215 11.2209L19.4745 14.861L20.3589 20.0012C20.7189 22.0927 18.5161 23.6878 16.6316 22.7002L11.9998 20.2734Z" fill="#DF5359"/>
<path d="M13.775 13.1581C13.6222 13.1581 13.4903 13.0687 13.4292 12.9387C13.3123 12.886 12.9943 12.8054 12.4995 12.8054C12.0046 12.8054 11.6863 12.886 11.5698 12.9387C11.5086 13.0683 11.3768 13.1581 11.2239 13.1581C11.013 13.1581 10.8418 12.9869 10.8418 12.776C10.8418 12.113 12.0012 12.0415 12.4995 12.0415C12.9978 12.0415 14.1572 12.1133 14.1572 12.776C14.1572 12.9869 13.986 13.1581 13.775 13.1581Z" fill="#11113D"/>
<path d="M8.4954 12.6935C9.28408 12.6935 9.92342 11.9609 9.92342 11.0572C9.92342 10.1535 9.28408 9.4209 8.4954 9.4209C7.70673 9.4209 7.06738 10.1535 7.06738 11.0572C7.06738 11.9609 7.70673 12.6935 8.4954 12.6935Z" fill="#11113D"/>
<path d="M16.3182 12.6935C17.1068 12.6935 17.7462 11.9609 17.7462 11.0572C17.7462 10.1535 17.1068 9.4209 16.3182 9.4209C15.5295 9.4209 14.8901 10.1535 14.8901 11.0572C14.8901 11.9609 15.5295 12.6935 16.3182 12.6935Z" fill="#11113D"/>
<path d="M9.76735 8.88551C9.68633 8.88551 9.60456 8.85991 9.53539 8.80641C8.94653 8.35512 7.99235 8.55535 7.98318 8.55726C7.77645 8.60465 7.57277 8.4751 7.52577 8.26952C7.47877 8.06393 7.60793 7.85873 7.81352 7.81211C7.86663 7.79988 9.12002 7.52513 10.0001 8.20035C10.1674 8.32875 10.1991 8.56872 10.0708 8.7361C9.99547 8.8343 9.88198 8.88551 9.76735 8.88551Z" fill="#11113D"/>
<path d="M15.0459 8.88549C14.9312 8.88549 14.8177 8.83391 14.7424 8.7357C14.6141 8.56833 14.6458 8.32835 14.8131 8.19995C15.6932 7.52473 16.947 7.79986 16.9997 7.81171C17.2057 7.85833 17.3344 8.06315 17.2878 8.26874C17.2412 8.47432 17.0375 8.60234 16.8316 8.55686C16.822 8.55457 15.8709 8.3509 15.2782 8.80601C15.2087 8.85989 15.1269 8.88549 15.0459 8.88549Z" fill="#11113D"/>
</svg>
