<svg width="40" height="40" viewBox="0 0 40 40" fill="none" xmlns="http://www.w3.org/2000/svg">
<circle cx="20" cy="20" r="20" fill="white"/>
<path d="M5.7 23.993L5.707 22.691L10.096 18.757C10.4507 18.4443 10.691 18.1457 10.817 17.861C10.9477 17.5763 11.013 17.2917 11.013 17.007C11.013 16.6477 10.9337 16.3257 10.775 16.041C10.6163 15.7517 10.397 15.523 10.117 15.355C9.837 15.187 9.515 15.103 9.151 15.103C8.77767 15.103 8.444 15.1917 8.15 15.369C7.86067 15.5417 7.63433 15.7727 7.471 16.062C7.30767 16.3513 7.22833 16.664 7.233 17H5.735C5.735 16.3467 5.882 15.775 6.176 15.285C6.47467 14.7903 6.883 14.4053 7.401 14.13C7.919 13.85 8.51167 13.71 9.179 13.71C9.81367 13.71 10.383 13.8547 10.887 14.144C11.391 14.4287 11.7877 14.8207 12.077 15.32C12.371 15.8193 12.518 16.3887 12.518 17.028C12.518 17.49 12.4573 17.882 12.336 18.204C12.2147 18.526 12.0327 18.8247 11.79 19.1C11.5473 19.3753 11.244 19.674 10.88 19.996L7.492 23.02L7.331 22.6H12.518V23.993H5.7ZM14.4488 24V22.453H15.9958V24H14.4488ZM21.7167 24.21C21.0307 24.21 20.424 24.0607 19.8967 23.762C19.3693 23.4587 18.954 23.0433 18.6507 22.516C18.352 21.9887 18.2027 21.382 18.2027 20.696V17.224C18.2027 16.538 18.352 15.9313 18.6507 15.404C18.954 14.8767 19.3693 14.4637 19.8967 14.165C20.424 13.8617 21.0307 13.71 21.7167 13.71C22.4027 13.71 23.0093 13.8617 23.5367 14.165C24.064 14.4637 24.477 14.8767 24.7757 15.404C25.079 15.9313 25.2307 16.538 25.2307 17.224V20.696C25.2307 21.382 25.079 21.9887 24.7757 22.516C24.477 23.0433 24.064 23.4587 23.5367 23.762C23.0093 24.0607 22.4027 24.21 21.7167 24.21ZM21.7167 22.81C22.09 22.81 22.4283 22.7213 22.7317 22.544C23.0397 22.362 23.2847 22.1193 23.4667 21.816C23.6487 21.508 23.7397 21.165 23.7397 20.787V17.119C23.7397 16.7457 23.6487 16.4073 23.4667 16.104C23.2847 15.796 23.0397 15.5533 22.7317 15.376C22.4283 15.194 22.09 15.103 21.7167 15.103C21.3433 15.103 21.0027 15.194 20.6947 15.376C20.3913 15.5533 20.1487 15.796 19.9667 16.104C19.7847 16.4073 19.6937 16.7457 19.6937 17.119V20.787C19.6937 21.165 19.7847 21.508 19.9667 21.816C20.1487 22.1193 20.3913 22.362 20.6947 22.544C21.0027 22.7213 21.3433 22.81 21.7167 22.81ZM26.3451 24L29.1731 20.178L26.4081 16.44H28.1441L30.0271 19.037L31.8891 16.44H33.6251L30.8601 20.178L33.6951 24H31.9521L30.0271 21.319L28.0881 24H26.3451Z" fill="#21242D"/>
</svg>
