<svg width="40" height="40" viewBox="0 0 40 40" fill="none" xmlns="http://www.w3.org/2000/svg">
<circle cx="20" cy="20" r="20" fill="white"/>
<path d="M9.494 24.21C8.808 24.21 8.20133 24.0607 7.674 23.762C7.14667 23.4587 6.73133 23.0433 6.428 22.516C6.12933 21.9887 5.98 21.382 5.98 20.696V17.224C5.98 16.538 6.12933 15.9313 6.428 15.404C6.73133 14.8767 7.14667 14.4637 7.674 14.165C8.20133 13.8617 8.808 13.71 9.494 13.71C10.18 13.71 10.7867 13.8617 11.314 14.165C11.8413 14.4637 12.2543 14.8767 12.553 15.404C12.8563 15.9313 13.008 16.538 13.008 17.224V20.696C13.008 21.382 12.8563 21.9887 12.553 22.516C12.2543 23.0433 11.8413 23.4587 11.314 23.762C10.7867 24.0607 10.18 24.21 9.494 24.21ZM9.494 22.81C9.86733 22.81 10.2057 22.7213 10.509 22.544C10.817 22.362 11.062 22.1193 11.244 21.816C11.426 21.508 11.517 21.165 11.517 20.787V17.119C11.517 16.7457 11.426 16.4073 11.244 16.104C11.062 15.796 10.817 15.5533 10.509 15.376C10.2057 15.194 9.86733 15.103 9.494 15.103C9.12067 15.103 8.78 15.194 8.472 15.376C8.16867 15.5533 7.926 15.796 7.744 16.104C7.562 16.4073 7.471 16.7457 7.471 17.119V20.787C7.471 21.165 7.562 21.508 7.744 21.816C7.926 22.1193 8.16867 22.362 8.472 22.544C8.78 22.7213 9.12067 22.81 9.494 22.81ZM15.2144 24V22.453H16.7614V24H15.2144ZM21.9573 24.21C21.4393 24.21 20.9563 24.105 20.5083 23.895C20.0649 23.6803 19.6846 23.3863 19.3673 23.013C19.0499 22.635 18.8236 22.201 18.6883 21.711L20.0953 21.333C20.1746 21.6317 20.3099 21.8907 20.5013 22.11C20.6973 22.3293 20.9259 22.4997 21.1873 22.621C21.4486 22.7377 21.7193 22.796 21.9993 22.796C22.3679 22.796 22.7016 22.7073 23.0003 22.53C23.3036 22.3527 23.5416 22.1147 23.7143 21.816C23.8916 21.5173 23.9803 21.1883 23.9803 20.829C23.9803 20.4603 23.8893 20.1267 23.7073 19.828C23.5299 19.5293 23.2896 19.2937 22.9863 19.121C22.6876 18.9437 22.3586 18.855 21.9993 18.855C21.5886 18.855 21.2409 18.9367 20.9563 19.1C20.6716 19.2633 20.4499 19.4523 20.2913 19.667L19.0173 19.219L19.3253 13.92H24.7643V15.299H20.0743L20.6693 14.746L20.4243 18.715L20.1373 18.344C20.4033 18.078 20.7206 17.875 21.0893 17.735C21.4579 17.595 21.8243 17.525 22.1883 17.525C22.8136 17.525 23.3713 17.6697 23.8613 17.959C24.3559 18.2483 24.7456 18.6427 25.0303 19.142C25.3149 19.6367 25.4573 20.199 25.4573 20.829C25.4573 21.4543 25.2963 22.0237 24.9743 22.537C24.6523 23.0457 24.2253 23.4517 23.6933 23.755C23.1613 24.0583 22.5826 24.21 21.9573 24.21ZM26.2904 24L29.1184 20.178L26.3534 16.44H28.0894L29.9724 19.037L31.8344 16.44H33.5704L30.8054 20.178L33.6404 24H31.8974L29.9724 21.319L28.0334 24H26.2904Z" fill="#21242D"/>
</svg>
