<svg width="40" height="40" viewBox="0 0 40 40" fill="none" xmlns="http://www.w3.org/2000/svg">
<circle cx="20" cy="20" r="20" fill="white"/>
<path d="M9.737 24V15.53L7.84 16.685V15.054L9.737 13.92H11.228V24H9.737ZM13.5777 24V22.453H15.1247V24H13.5777ZM20.8456 24.21C20.1596 24.21 19.5529 24.0607 19.0256 23.762C18.4982 23.4587 18.0829 23.0433 17.7796 22.516C17.4809 21.9887 17.3316 21.382 17.3316 20.696V17.224C17.3316 16.538 17.4809 15.9313 17.7796 15.404C18.0829 14.8767 18.4982 14.4637 19.0256 14.165C19.5529 13.8617 20.1596 13.71 20.8456 13.71C21.5316 13.71 22.1382 13.8617 22.6656 14.165C23.1929 14.4637 23.6059 14.8767 23.9046 15.404C24.2079 15.9313 24.3596 16.538 24.3596 17.224V20.696C24.3596 21.382 24.2079 21.9887 23.9046 22.516C23.6059 23.0433 23.1929 23.4587 22.6656 23.762C22.1382 24.0607 21.5316 24.21 20.8456 24.21ZM20.8456 22.81C21.2189 22.81 21.5572 22.7213 21.8606 22.544C22.1686 22.362 22.4136 22.1193 22.5956 21.816C22.7776 21.508 22.8686 21.165 22.8686 20.787V17.119C22.8686 16.7457 22.7776 16.4073 22.5956 16.104C22.4136 15.796 22.1686 15.5533 21.8606 15.376C21.5572 15.194 21.2189 15.103 20.8456 15.103C20.4722 15.103 20.1316 15.194 19.8236 15.376C19.5202 15.5533 19.2776 15.796 19.0956 16.104C18.9136 16.4073 18.8226 16.7457 18.8226 17.119V20.787C18.8226 21.165 18.9136 21.508 19.0956 21.816C19.2776 22.1193 19.5202 22.362 19.8236 22.544C20.1316 22.7213 20.4722 22.81 20.8456 22.81ZM25.474 24L28.302 20.178L25.537 16.44H27.273L29.156 19.037L31.018 16.44H32.754L29.989 20.178L32.824 24H31.081L29.156 21.319L27.217 24H25.474Z" fill="#21242D"/>
</svg>
