<svg width="14" height="14" viewBox="0 0 14 14" fill="none" xmlns="http://www.w3.org/2000/svg">
<path d="M12.2118 6.78437L10.3953 8.52982L10.824 10.992C10.894 11.394 10.7319 11.7947 10.4005 12.0374C10.0628 12.2841 9.62177 12.318 9.2496 12.1261L7.00027 10.9611L4.75095 12.1261C4.59111 12.2089 4.41787 12.2497 4.24578 12.2497C4.01828 12.2497 3.79252 12.1779 3.60002 12.0374C3.26927 11.7947 3.10653 11.394 3.17653 10.992L3.60527 8.52982L1.78878 6.78437C1.49128 6.49854 1.38452 6.07804 1.51052 5.68721C1.63768 5.29171 1.97485 5.00999 2.39018 4.95049L4.90378 4.59046L6.02727 2.34756C6.21161 1.9789 6.58494 1.75027 7.00027 1.75027C7.41561 1.75027 7.78894 1.97948 7.97327 2.34756L9.09677 4.59046L11.6104 4.95049C12.0251 5.00999 12.3623 5.29171 12.4894 5.68721C12.6154 6.07804 12.5093 6.49854 12.2118 6.78437Z" fill="#FFBF14"/>
</svg>
