<svg width="26" height="24" viewBox="0 0 26 24" fill="none" xmlns="http://www.w3.org/2000/svg">
    <path
        d="M12.8072 0.735393C11.2539 0.0207258 9.48055 0.270008 8.18188 1.38334L4.72054 4.35128C4.66187 4.40328 4.58594 4.43136 4.50594 4.43136L3.52189 4.43266C1.57922 4.43533 -0.000732422 6.02069 -0.000732422 7.96602V16.0341C-0.000732422 17.9794 1.58061 19.5648 3.52327 19.5674L4.50456 19.5687C4.58589 19.5687 4.66192 19.5966 4.72192 19.6486L8.18058 22.6167C8.98725 23.3101 9.97925 23.6674 10.9859 23.6674C11.5993 23.6674 12.2179 23.5354 12.8059 23.2647C14.3646 22.5474 15.3326 21.0367 15.3326 19.3194V4.68071C15.3339 2.96337 14.3659 1.45139 12.8072 0.735393ZM13.3339 19.3194C13.3339 20.2607 12.8246 21.0553 11.9726 21.4473C11.1219 21.838 10.1939 21.706 9.48454 21.098L6.02726 18.1314C5.60593 17.7701 5.06726 17.5701 4.50993 17.5687L3.52726 17.5674C2.68593 17.5661 2.00057 16.8781 2.00057 16.0341V7.96602C2.00057 7.12202 2.6846 6.43399 3.52726 6.43266L4.50993 6.43136C5.06593 6.43136 5.60321 6.23133 6.02588 5.87L9.48592 2.90336C9.92592 2.52603 10.4499 2.33272 10.9859 2.33272C11.3166 2.33272 11.6512 2.40608 11.9726 2.55408C12.8259 2.94608 13.3339 3.74198 13.3339 4.68331V19.3194ZM19.1313 7.39539C20.1366 8.72072 20.6672 10.3127 20.6672 12.0007C20.6672 13.6887 20.1366 15.2807 19.1313 16.606C18.9353 16.8647 18.6353 17.0007 18.3326 17.0007C18.1233 17.0007 17.9112 16.9341 17.7299 16.7981C17.2899 16.4647 17.2032 15.8367 17.5365 15.3967C18.2765 14.4234 18.6672 13.2487 18.6672 12.002C18.6672 10.7553 18.2765 9.58063 17.5365 8.6073C17.2032 8.1673 17.2886 7.53943 17.7299 7.2061C18.1726 6.8701 18.7979 6.95672 19.1313 7.39539ZM26.0006 12.0007C26.0006 15.2074 24.8206 18.286 22.6779 20.6687C22.4806 20.8887 22.2073 21.0007 21.9339 21.0007C21.6953 21.0007 21.4566 20.9167 21.2646 20.7447C20.8539 20.3753 20.8206 19.7434 21.1899 19.3327C23.0019 17.3181 23.9993 14.714 23.9993 12.0007C23.9993 9.28736 23.0019 6.68466 21.1899 4.66866C20.8206 4.25799 20.8539 3.62605 21.2646 3.25671C21.6752 2.88605 22.3059 2.92075 22.6779 3.33142C24.8206 5.71409 26.0006 8.79269 26.0006 12.0007Z"
        fill="#848484" />
</svg>