<svg width="24" height="24" viewBox="0 0 24 24" fill="none" xmlns="http://www.w3.org/2000/svg">
<path d="M20.5372 9.99805L14.0032 3.46497C13.0592 2.52097 11.8032 2 10.4682 2H6.00122C3.79522 2 2.00122 3.794 2.00122 6V10.4659C2.00122 11.8009 2.52121 13.057 3.46521 14.002L9.99921 20.535C10.9432 21.479 12.1992 22 13.5342 22C14.8702 22 16.1252 21.479 17.0702 20.535L20.5362 17.069C22.4862 15.12 22.4862 11.947 20.5372 9.99805ZM19.1232 15.655L15.6572 19.121C14.5242 20.253 12.5492 20.255 11.4142 19.121L4.88022 12.588C4.31322 12.021 4.00122 11.2669 4.00122 10.4659V6C4.00122 4.897 4.89822 4 6.00122 4H10.4672C11.2572 4 12.0292 4.32003 12.5882 4.87903L19.1222 11.412C20.2922 12.582 20.2922 14.485 19.1232 15.655ZM9.00122 7.5C9.00122 8.328 8.32922 9 7.50122 9C6.67322 9 6.00122 8.328 6.00122 7.5C6.00122 6.672 6.67322 6 7.50122 6C8.32922 6 9.00122 6.672 9.00122 7.5Z" fill="#21242D"/>
</svg>
