<svg width="12" height="12" viewBox="0 0 12 12" fill="none" xmlns="http://www.w3.org/2000/svg">
<path d="M7.5 4.875H4.5V3.625C4.5 2.8 5.175 2.125 6 2.125C6.7 2.125 7.35001 2.61 7.51501 3.25C7.58501 3.515 7.855 3.67999 8.125 3.60999C8.39 3.53999 8.55499 3.27 8.48499 3C8.20499 1.915 7.16 1.125 6 1.125C4.62 1.125 3.5 2.245 3.5 3.625V5.12C2.76 5.49 2.25 6.245 2.25 7.125V8.625C2.25 9.865 3.26 10.875 4.5 10.875H7.5C8.74 10.875 9.75 9.865 9.75 8.625V7.125C9.75 5.885 8.74 4.875 7.5 4.875ZM6.5 8.125C6.5 8.4 6.275 8.625 6 8.625C5.725 8.625 5.5 8.4 5.5 8.125V7.625C5.5 7.35 5.725 7.125 6 7.125C6.275 7.125 6.5 7.35 6.5 7.625V8.125Z" fill="white"/>
</svg>
