<svg width="13" height="14" viewBox="0 0 13 14" fill="none" xmlns="http://www.w3.org/2000/svg">
<path d="M11.0229 3.91414C11.0229 4.88248 10.4271 5.70499 9.60914 5.97333C9.70122 5.65249 9.74998 5.30833 9.74998 4.95833C9.74998 3.68083 9.11082 2.56089 8.1629 1.95422C8.4229 1.82589 8.70999 1.75 9.01874 1.75C10.1237 1.75 11.0229 2.71831 11.0229 3.91414ZM10.6166 6.59169C10.3891 6.5217 10.14 6.55664 9.93955 6.67914C9.70122 6.81914 9.44666 6.9009 9.18666 6.9184C9.07833 7.0934 8.95374 7.26248 8.80749 7.41414C9.8529 7.78164 10.6166 8.75583 10.79 9.91667H11.1637C11.4129 9.91667 11.6404 9.77674 11.7542 9.54923C11.8625 9.3334 11.9166 9.08828 11.9166 8.84328V8.42914C11.9166 7.55997 11.3804 6.80753 10.6166 6.59169ZM4.83706 1.95422C4.57706 1.82589 4.28997 1.75 3.98122 1.75C2.87622 1.75 1.97708 2.71831 1.97708 3.91414C1.97708 4.88248 2.5729 5.70499 3.39082 5.97333C3.29873 5.65249 3.24998 5.30833 3.24998 4.95833C3.24998 3.68083 3.88914 2.56089 4.83706 1.95422ZM4.19247 7.41414C4.04622 7.26248 3.92163 7.0934 3.8133 6.9184C3.5533 6.9009 3.29874 6.81914 3.06041 6.67914C2.85999 6.55664 2.61083 6.5217 2.38333 6.59169C1.61958 6.80753 1.08331 7.55997 1.08331 8.42914V8.84328C1.08331 9.08828 1.13747 9.3334 1.24581 9.54923C1.35956 9.77674 1.58707 9.91667 1.83082 9.91667H2.20999C2.38332 8.75583 3.14706 7.78164 4.19247 7.41414ZM8.43916 8.20754C8.34707 8.18421 8.24956 8.16667 8.15206 8.16667C7.96789 8.16667 7.77831 8.21917 7.61581 8.31834C7.26915 8.52251 6.88456 8.62752 6.49998 8.62752C6.1154 8.62752 5.73081 8.52251 5.38415 8.31834C5.22165 8.21917 5.03207 8.16667 4.8479 8.16667C4.7504 8.16667 4.65289 8.18421 4.5608 8.20754C3.62914 8.47587 2.97915 9.39161 2.97915 10.4416V10.9492C2.97915 11.2467 3.04956 11.5442 3.17956 11.8008C3.31498 12.0808 3.58581 12.25 3.88914 12.25H9.11082C9.41415 12.25 9.68498 12.0808 9.8204 11.8008C9.9504 11.5442 10.0208 11.2467 10.0208 10.9492V10.4416C10.0208 9.39161 9.37082 8.47587 8.43916 8.20754ZM8.93748 4.95833C8.93748 3.50875 7.84602 2.33333 6.49998 2.33333C5.15394 2.33333 4.06248 3.50875 4.06248 4.95833C4.06248 6.40792 5.15394 7.58333 6.49998 7.58333C7.84602 7.58333 8.93748 6.40792 8.93748 4.95833Z" fill="white"/>
</svg>
