<svg width="40" height="40" viewBox="0 0 40 40" fill="none" xmlns="http://www.w3.org/2000/svg">
<circle cx="20" cy="20" r="20" fill="white"/>
<path d="M20.8555 11.5515C19.6905 11.0155 18.3605 11.2024 17.3865 12.0374L14.7905 14.2634C14.7465 14.3024 14.6895 14.3235 14.6295 14.3235L13.8915 14.3244C12.4345 14.3264 11.2495 15.5155 11.2495 16.9745V23.0255C11.2495 24.4845 12.4355 25.6735 13.8925 25.6755L14.6285 25.6765C14.6895 25.6765 14.7465 25.6974 14.7915 25.7364L17.3855 27.9625C17.9905 28.4825 18.7345 28.7505 19.4895 28.7505C19.9495 28.7505 20.4135 28.6515 20.8545 28.4485C22.0235 27.9105 22.7495 26.7775 22.7495 25.4895V14.5105C22.7505 13.2225 22.0245 12.0885 20.8555 11.5515ZM21.2505 25.4895C21.2505 26.1955 20.8685 26.7914 20.2295 27.0854C19.5915 27.3784 18.8955 27.2795 18.3635 26.8235L15.7705 24.5985C15.4545 24.3275 15.0505 24.1775 14.6325 24.1765L13.8955 24.1755C13.2645 24.1745 12.7505 23.6585 12.7505 23.0255V16.9745C12.7505 16.3415 13.2635 15.8254 13.8955 15.8244L14.6325 15.8235C15.0495 15.8235 15.4525 15.6734 15.7695 15.4024L18.3645 13.1775C18.6945 12.8945 19.0875 12.7495 19.4895 12.7495C19.7375 12.7495 19.9885 12.8045 20.2295 12.9155C20.8695 13.2095 21.2505 13.8064 21.2505 14.5124V25.4895ZM25.5985 16.5465C26.3525 17.5405 26.7505 18.7345 26.7505 20.0005C26.7505 21.2665 26.3525 22.4604 25.5985 23.4544C25.4515 23.6484 25.2265 23.7505 24.9995 23.7505C24.8425 23.7505 24.6835 23.7005 24.5475 23.5985C24.2175 23.3485 24.1525 22.8775 24.4025 22.5475C24.9575 21.8175 25.2505 20.9364 25.2505 20.0014C25.2505 19.0664 24.9575 18.1854 24.4025 17.4554C24.1525 17.1254 24.2165 16.6545 24.5475 16.4045C24.8795 16.1525 25.3485 16.2175 25.5985 16.5465ZM30.7505 20.0005C30.7505 22.4055 29.8655 24.7144 28.2585 26.5014C28.1105 26.6664 27.9055 26.7505 27.7005 26.7505C27.5215 26.7505 27.3425 26.6874 27.1985 26.5584C26.8905 26.2814 26.8655 25.8075 27.1425 25.4995C28.5015 23.9885 29.2495 22.0355 29.2495 20.0005C29.2495 17.9655 28.5015 16.0134 27.1425 14.5014C26.8655 14.1934 26.8905 13.7195 27.1985 13.4425C27.5065 13.1645 27.9795 13.1905 28.2585 13.4985C29.8655 15.2855 30.7505 17.5945 30.7505 20.0005Z" fill="#21242D"/>
</svg>
