<svg width="18" height="18" viewBox="0 0 18 18" fill="none" xmlns="http://www.w3.org/2000/svg">
<path d="M8.29581 14.6V14.6C7.32512 15.0235 6.83977 15.2353 6.44699 15.2445C5.61768 15.264 4.86241 14.7696 4.54861 14.0017C4.39998 13.638 4.39998 13.1084 4.39998 12.0494V11.3545V10.0383C4.39998 8.4266 4.39998 7.62076 4.75503 6.95743C4.83834 6.80176 4.93524 6.65376 5.04459 6.51513C5.51056 5.92442 6.24915 5.60213 7.72633 4.95754L9.78374 4.05976C10.0631 3.93785 10.2028 3.87689 10.3099 3.84382C11.5082 3.47386 12.7473 4.28514 12.8875 5.5313C12.9 5.6427 12.9 5.79512 12.9 6.09995V6.09995" stroke="white" stroke-width="1.5"/>
<path d="M4.825 12.9V12.9C3.92931 13.2981 3.48147 13.4971 3.12011 13.5189C2.24335 13.5716 1.43478 13.0461 1.12689 12.2235C1 11.8845 1 11.3944 1 10.4142V9.65454V8.63727C1 6.73141 1 5.77848 1.49007 5.02994C1.98014 4.28139 2.85354 3.90027 4.60033 3.13804L5.25 2.85455L6.38377 2.35981C6.66316 2.23789 6.80286 2.17694 6.90997 2.14386C8.10817 1.77391 9.34734 2.58519 9.48747 3.83135C9.5 3.94275 9.5 4.09517 9.5 4.4V4.4" stroke="white" stroke-width="1.5"/>
<path d="M16.3 10.6616V9.03691C16.3 7.63221 16.3 6.92985 16.0423 6.4726C15.7233 5.90683 15.1495 5.53116 14.5034 5.46512C13.9812 5.41174 13.3375 5.69264 12.05 6.25445L11.4004 6.53794C9.65356 7.30018 8.78016 7.6813 8.29009 8.42984C7.80002 9.17838 7.80002 10.1313 7.80002 12.0372V13.0544C7.80002 14.7371 7.80002 15.5784 8.16462 16.0963C8.45804 16.5131 8.89952 16.8022 9.39888 16.9044C10.0194 17.0314 10.7905 16.695 12.3327 16.022L12.9737 15.7423C14.4508 15.0977 15.1894 14.7754 15.6554 14.1847C15.7648 14.0461 15.8617 13.8981 15.945 13.7424C16.3 13.0791 16.3 12.2732 16.3 10.6616Z" stroke="white" stroke-width="1.5"/>
</svg>
