<svg width="24" height="24" viewBox="0 0 24 24" fill="none" xmlns="http://www.w3.org/2000/svg">
<path d="M11.9998 20.8026L7.36843 23.2375C5.48386 24.2284 3.28107 22.6281 3.64106 20.5295L4.5255 15.3722L0.778546 11.7198C-0.746033 10.2337 0.0951722 7.64432 2.20223 7.33829L7.38062 6.5858L9.6965 1.89342C10.6386 -0.015906 13.3614 -0.015906 14.3035 1.89342L16.6194 6.5858L21.7978 7.33829C23.9048 7.64432 24.746 10.2337 23.2215 11.7198L19.4745 15.3722L20.3589 20.5295C20.7189 22.6281 18.5161 24.2284 16.6316 23.2375L11.9998 20.8026Z" fill="#FDB94D"/>
<path d="M12.0896 14.0029C11.3146 14.0029 10.4863 13.8011 10.4863 13.2337C10.4863 13.0297 10.6519 12.8641 10.8559 12.8641C11.0182 12.8641 11.1564 12.9687 11.2059 13.1144C11.3161 13.175 11.6339 13.2633 12.0896 13.2633C12.5453 13.2633 12.8632 13.175 12.9733 13.114C13.0229 12.9684 13.1607 12.8638 13.3233 12.8638C13.5274 12.8638 13.6929 13.0293 13.6929 13.2334C13.6929 13.8007 12.8647 14.0029 12.0896 14.0029Z" fill="#11113D"/>
<path d="M8.21663 13.1542C8.97943 13.1542 9.5978 12.4457 9.5978 11.5716C9.5978 10.6976 8.97943 9.98901 8.21663 9.98901C7.45382 9.98901 6.83545 10.6976 6.83545 11.5716C6.83545 12.4457 7.45382 13.1542 8.21663 13.1542Z" fill="#11113D"/>
<path d="M15.783 13.1542C16.5458 13.1542 17.1642 12.4457 17.1642 11.5716C17.1642 10.6976 16.5458 9.98901 15.783 9.98901C15.0202 9.98901 14.4019 10.6976 14.4019 11.5716C14.4019 12.4457 15.0202 13.1542 15.783 13.1542Z" fill="#11113D"/>
<path d="M8.20558 9.1013C7.84448 9.1013 7.58096 9.04327 7.55768 9.0381C7.35847 8.99301 7.23392 8.79491 7.27938 8.59569C7.32447 8.39685 7.52072 8.2723 7.72104 8.31702C7.74358 8.32182 8.65352 8.51254 9.22307 8.07604C9.38532 7.95186 9.61706 7.98254 9.74124 8.14442C9.86543 8.3063 9.83475 8.53841 9.67287 8.66259C9.20866 9.01814 8.63726 9.1013 8.20558 9.1013Z" fill="#11113D"/>
<path d="M15.7943 9.10141C15.3623 9.10141 14.7912 9.01862 14.3278 8.6627C14.1659 8.53852 14.1352 8.30641 14.2594 8.14453C14.3836 7.98228 14.6161 7.95197 14.7776 8.07616C15.3471 8.51302 16.27 8.31898 16.2792 8.31713C16.4784 8.2713 16.6762 8.39659 16.7213 8.5958C16.7667 8.79502 16.6418 8.99275 16.4426 9.03784C16.4193 9.04338 16.1554 9.10141 15.7943 9.10141Z" fill="#11113D"/>
</svg>
